<svg id="Layer" fill="#fff" enable-background="new 0 0 512 512" height="512" viewBox="0 0 512 512" width="512" xmlns="http://www.w3.org/2000/svg"><path d="m488 56h-464c-13.255 0-24 10.745-24 24v352c0 13.255 10.745 24 24 24h464c13.255 0 24-10.745 24-24v-352c0-13.255-10.745-24-24-24zm-312 280c0 13.1-10.495 23.748-23.536 23.996-13.453.255-24.464-11.081-24.464-24.536v-130.46c0-2.761-2.239-5-5-5h-50.46c-13.455 0-24.791-11.011-24.536-24.464.248-13.041 10.896-23.536 23.996-23.536h80c13.255 0 24 10.745 24 24zm144-80c0 13.255-10.745 24-24 24h-43c-2.761 0-5 2.239-5 5v22c0 2.761 2.239 5 5 5h42.46c13.455 0 24.791 11.011 24.536 24.464-.248 13.041-10.896 23.536-23.996 23.536h-72c-13.255 0-24-10.745-24-24v-80c0-13.255 10.745-24 24-24h43c2.761 0 5-2.239 5-5v-22c0-2.761-2.239-5-5-5h-42.46c-13.455 0-24.791-11.011-24.536-24.464.248-13.041 10.896-23.536 23.996-23.536h72c13.255 0 24 10.745 24 24zm144 60c0 24.262-19.738 44-44 44h-32c-24.262 0-44-19.738-44-44v-120c0-24.262 19.738-44 44-44h32c24.262 0 44 19.738 44 44z"/><path d="m397 312h14c2.761 0 5-2.239 5-5v-102c0-2.761-2.239-5-5-5h-14c-2.761 0-5 2.239-5 5v102c0 2.761 2.239 5 5 5z"/></svg>