<svg id="Layer_1" data-name="Layer 1" xmlns="http://www.w3.org/2000/svg" viewBox="0 0 418.64 408.93"><defs><style>.cls-1{fill:#c2e9fb;}.cls-1,.cls-2{stroke:#343465;stroke-linecap:round;stroke-linejoin:round;stroke-width:1.69px;}.cls-2{fill:#dff3fd;}</style></defs><title>اسلیمی هپ</title><polygon class="cls-1" points="134.49 152.91 151.94 203.06 134.94 252.06 179.94 250.06 210.94 292.06 240.94 254.06 286.38 242.97 263.94 202.06 279.94 155.06 241.94 156.06 204.94 119.06 174.94 167.06 134.49 152.91"/><path class="cls-1" d="M243.23,286.47s45.56,11.25,55.69,25.32c0,0-19.69,19.68-22.5,32.06,0,0-29.81-3.94-43.88,0C232.54,343.85,235.36,301.66,243.23,286.47Z" transform="translate(-98.05 -190.94)"/><path class="cls-1" d="M368.71,286.3S323.14,297.55,313,311.61c0,0,19.69,19.69,22.5,32.06,0,0,29.81-3.93,43.87,0C379.39,343.67,376.58,301.49,368.71,286.3Z" transform="translate(-98.05 -190.94)"/><path class="cls-1" d="M432,389.66s-28.74,37.1-45.69,40.67c0,0-10-26-20.21-33.56,0,0,15.67-25.66,17.77-40.12C383.82,356.65,421.25,376.31,432,389.66Z" transform="translate(-98.05 -190.94)"/><path class="cls-1" d="M180.71,391.86S209.44,429,226.4,432.53c0,0,10-26,20.21-33.56,0,0-15.68-25.66-17.77-40.11C228.84,358.86,191.41,378.51,180.71,391.86Z" transform="translate(-98.05 -190.94)"/><path class="cls-1" d="M243.23,505.11s45.56-11.25,55.69-25.31c0,0-19.69-19.69-22.5-32.06,0,0-29.81,3.93-43.88,0C232.54,447.74,235.36,489.92,243.23,505.11Z" transform="translate(-98.05 -190.94)"/><path class="cls-1" d="M368.71,505.29S323.14,494,313,480c0,0,19.69-19.68,22.5-32.06,0,0,29.81,3.94,43.87,0C379.39,447.91,376.58,490.1,368.71,505.29Z" transform="translate(-98.05 -190.94)"/><path class="cls-2" d="M220.45,418.54c2.76-9.62,7-17.23,13.51-23.13-12-10.88-20.32-27.75-20.32-51.75,0-14.56,5.48-30,10.68-45.36l26.81,5.75A150.84,150.84,0,0,0,244,348.91c0,36.38,27.06,46.5,27.06,46.5s-19.7,8.32-23.35,37A90.11,90.11,0,0,1,220.45,418.54Z" transform="translate(-98.05 -190.94)"/><path class="cls-2" d="M353.35,512.81c-2.21,6.52-4.24,12.22-4.24,17.22,0,18,7.5,29.62,7.5,29.62-20.25,3.38-24.75-3-24.75-3-4.5,8.25-9.17,13.88-23.79,13.88s-19.3-5.63-23.8-13.88c0,0-4.5,6.38-24.75,3,0,0,7.5-11.62,7.5-29.62,0-15.3-14.94-37.28-19.25-69.92-15.57-.94-30.77-7.7-30.77-7.7,2.19,26.34,19.65,55,19.65,81.37a68.42,68.42,0,0,1-18,45.75c27.37,14.62,46.12.37,46.12.37,7.5,6.75,19.67,19.13,43.3,19.13s35.79-12.38,43.29-19.13c0,0,18.75,14.25,46.13-.37a68.42,68.42,0,0,1-18-45.75,75.17,75.17,0,0,1,1.34-13.57S366.48,514.68,353.35,512.81Z" transform="translate(-98.05 -190.94)"/><path class="cls-2" d="M365.7,358.33C362,387,341.92,395.41,341.92,395.41S369,405.53,369,441.9a150.14,150.14,0,0,1-7,44.48l26.74,6c5.19-15.36,10.64-30.72,10.64-45.25,0-24-8.31-40.87-20.31-51.74,6.56-6,11.09-13.7,13.84-23.43C392.89,372,378.36,360.3,365.7,358.33Z" transform="translate(-98.05 -190.94)"/><path class="cls-2" d="M365,330.76c-4.25-32.86-19-54.62-19-70,0-18,7.5-29.63,7.5-29.63-20.25-3.37-24.75,3-24.75,3-4.5-8.25-9.17-13.87-23.79-13.87s-19.3,5.62-23.8,13.87c0,0-4.5-6.37-24.75-3,0,0,7.5,11.63,7.5,29.63,0,4.93-1.49,10.54-3.66,17l-28-7.41a75.19,75.19,0,0,0,1.3-13.32,68.39,68.39,0,0,0-18-45.75c27.37-14.63,46.12-.38,46.12-.38,7.5-6.75,19.67-19.12,43.3-19.12s35.79,12.37,43.29,19.12c0,0,18.75-14.25,46.13.38a68.39,68.39,0,0,0-18,45.75c0,26.1,17.12,54.47,19.58,80.6A87.31,87.31,0,0,0,365,330.76Z" transform="translate(-98.05 -190.94)"/><path class="cls-2" d="M367.78,459.44a62.26,62.26,0,0,1-22.91-1.93c-3.1,15.89-15.56,28.42-36.11,40.82C296,506,279.62,509.26,263.41,512.86L254.14,487a151.54,151.54,0,0,0,43.41-17.42c31.14-18.81,28.13-43.89,28.13-43.89s16.69,12.2,42.43,5.31C368.11,431,370.31,447.21,367.78,459.44Z" transform="translate(-98.05 -190.94)"/><path class="cls-2" d="M349.88,278.28c-15.73,3.47-31.54,6.74-43.89,14.2-20.55,12.41-33,24.93-36.11,40.83a61.85,61.85,0,0,0-24.42-2.21s-2.54,15.69-.71,28.91c25.85-9.78,44.32,5.08,44.32,5.08s-3-25.09,28.13-43.89a150.14,150.14,0,0,1,41.63-17Z" transform="translate(-98.05 -190.94)"/><path class="cls-2" d="M385.53,298.51c7.05-1.53,13-3.18,17.38-5.85,15.41-9.31,21.48-21.74,21.48-21.74,13.36,15.59,10.23,22.74,10.23,22.74,9.39-.41,16.62.68,24.18,13.2s5.15,19.42.42,27.54c0,0,7.78.56,15.36,19.64,0,0-13.83-.42-29.24,8.89C432,371,420.58,395.3,393.78,416.15c0,0,5.92,11.12,5.31,33.39.43-.24.86-.5,1.28-.76,23.76-14.34,39.81-47.25,63.88-61.79a68.4,68.4,0,0,1,48.47-8.24c-1.63-31-23.52-39.68-23.52-39.68,1.9-9.91,6.2-26.72-6-46.94S454.1,267.88,444.44,265c0,0,2.51-23.42-24.16-39.29a68.45,68.45,0,0,1-29.86,39.06,75.59,75.59,0,0,1-12.5,5.93Z" transform="translate(-98.05 -190.94)"/><path class="cls-2" d="M227.46,493.18c-6.26,1.42-11.57,2.53-15.62,5-15.41,9.3-21.48,21.73-21.48,21.73-13.36-15.59-10.23-22.74-10.23-22.74-9.39.41-16.62-.68-24.18-13.2s-5.15-19.42-.42-27.54c0,0-7.78-.55-15.36-19.63,0,0,13.83.41,29.24-8.9,13.17-7.95,24.23-31.8,50.29-52.47-6.19-15.6-6.11-32.9-6.11-32.9-23.32,14.59-39.28,46.93-63.09,61.31A68.4,68.4,0,0,1,102,412.06c1.63,31,23.52,39.68,23.52,39.68-1.9,9.91-6.2,26.72,6,46.95s29.09,24.24,38.75,27.17c0,0-2.51,23.42,24.16,39.29a68.42,68.42,0,0,1,29.86-39,73.16,73.16,0,0,1,10.92-5.33S231.58,500.68,227.46,493.18Z" transform="translate(-98.05 -190.94)"/><path class="cls-2" d="M309.64,497.73c23.76,14.35,59.83,13.83,83.91,28.37a68.42,68.42,0,0,1,29.86,39c26.67-15.87,24.16-39.29,24.16-39.29,9.65-2.93,26.54-7,38.75-27.17s7.91-37,6-46.95c0,0,21.89-8.69,23.52-39.68a68.4,68.4,0,0,1-48.47-8.24,78,78,0,0,1-12.44-9.54s-12.17,10.47-19.76,20.31c4.7,5.62,8.81,10.59,13.29,13.29,15.41,9.31,29.24,8.9,29.24,8.9-7.58,19.08-15.36,19.63-15.36,19.63,4.73,8.12,7.13,15-.43,27.54s-14.78,13.61-24.17,13.2c0,0,3.13,7.15-10.23,22.74,0,0-6.07-12.43-21.48-21.73-13.32-8.05-40.08-6.85-70.94-20.78C335.1,477.38,323.14,490.42,309.64,497.73Z" transform="translate(-98.05 -190.94)"/><path class="cls-2" d="M281.9,477.59c-6-6.23-10.59-12.72-12-20.08-15.52,4.65-38.09,3.68-58.63-8.73-23.76-14.34-39.81-47.25-63.88-61.79a68.4,68.4,0,0,0-48.47-8.24c1.63-31,23.52-39.68,23.52-39.68-1.9-9.91-6.2-26.72,6-46.94s29.1-24.25,38.75-27.18c0,0-2.51-23.42,24.16-39.29a68.45,68.45,0,0,0,29.86,39.06c24.08,14.53,60.68,13.42,84.43,27.76l.32.19s-16.57,9.44-26,20.55c-30.94-14-57.9-12.5-71.25-20.56-15.41-9.31-21.48-21.74-21.48-21.74C173.87,286.51,177,293.66,177,293.66c-9.39-.41-16.61.68-24.17,13.2s-5.16,19.42-.43,27.54c0,0-7.78.56-15.36,19.64,0,0,13.83-.42,29.24,8.89s28.25,40.27,65.16,62.57c31.14,18.8,57.63.23,57.63.23s.09,18.65,20.08,35.84C309.15,461.57,294.84,472.81,281.9,477.59Z" transform="translate(-98.05 -190.94)"/><path class="cls-2" d="M306.11,329.4c19.6,17.1,19.57,35.69,19.57,35.69s26.49-18.58,57.63.23a149.85,149.85,0,0,1,34.05,28.53l17.81-21.18c-9.94-11.78-19.85-23.51-31.67-30.64-20.54-12.41-43.11-13.38-58.63-8.72-1.44-7.4-5.59-14.07-11.69-20.34C333.18,313,315.68,320.4,306.11,329.4Z" transform="translate(-98.05 -190.94)"/><path class="cls-2" d="M304.83,239.15c9.84,0,11,9.92,11,11S314.39,261,304.47,261c-8.64,0-10.89-8.58-10.89-11.18S296.32,239.15,304.83,239.15Z" transform="translate(-98.05 -190.94)"/><path class="cls-2" d="M304.83,383c9.84,0,11,9.91,11,11s-1.4,10.83-11.32,10.83c-8.64,0-10.89-8.58-10.89-11.18S296.32,383,304.83,383Z" transform="translate(-98.05 -190.94)"/><path class="cls-2" d="M168.92,316.71c5.09-8.43,14.16-4.27,15.12-3.69s8.54,6.8,3.42,15.29c-4.47,7.4-13,4.9-15.21,3.55S164.52,324,168.92,316.71Z" transform="translate(-98.05 -190.94)"/><path class="cls-2" d="M442.7,316.71c-5.09-8.43-14.15-4.27-15.12-3.69s-8.54,6.8-3.42,15.29c4.47,7.4,13,4.9,15.21,3.55S447.1,324,442.7,316.71Z" transform="translate(-98.05 -190.94)"/><path class="cls-2" d="M308,551.66c9.84,0,11-9.92,11-11s-1.4-10.83-11.32-10.83c-8.64,0-10.89,8.58-10.89,11.18S299.45,551.66,308,551.66Z" transform="translate(-98.05 -190.94)"/><path class="cls-2" d="M172.05,474.11c5.09,8.42,14.15,4.26,15.12,3.68s8.54-6.8,3.42-15.29c-4.47-7.4-13-4.89-15.21-3.55S167.65,466.82,172.05,474.11Z" transform="translate(-98.05 -190.94)"/><path class="cls-2" d="M445.83,474.11c-5.09,8.42-14.16,4.26-15.12,3.68s-8.54-6.8-3.42-15.29c4.47-7.4,13-4.89,15.21-3.55S450.23,466.82,445.83,474.11Z" transform="translate(-98.05 -190.94)"/></svg>