<svg xmlns="http://www.w3.org/2000/svg" height="134pt" fill="#fff" version="1.1" viewBox="-20 0 134 134.63226" width="134pt">
<g id="surface1">
<path d="M 93.804688 18.65625 C 93.800781 16.457031 92.023438 14.679688 89.828125 14.675781 L 61.496094 14.675781 C 61.496094 14.605469 61.496094 14.535156 61.496094 14.460938 C 61.496094 6.476562 55.019531 0 47.03125 0 C 39.042969 0 32.566406 6.476562 32.566406 14.460938 C 32.5625 14.535156 32.5625 14.605469 32.566406 14.675781 L 4.292969 14.675781 C 2.101562 14.679688 0.320312 16.457031 0.316406 18.65625 L 0.316406 32.984375 L 93.792969 32.984375 Z M 36.320312 14.476562 C 36.320312 8.546875 41.128906 3.738281 47.054688 3.738281 C 52.984375 3.738281 57.789062 8.546875 57.789062 14.476562 C 57.785156 14.550781 57.785156 14.617188 57.789062 14.6875 L 36.308594 14.6875 C 36.316406 14.617188 36.320312 14.550781 36.320312 14.476562 Z M 74.238281 27.742188 L 19.871094 27.742188 C 18.84375 27.742188 18.007812 26.910156 18.007812 25.875 C 18.007812 24.847656 18.84375 24.011719 19.871094 24.011719 L 74.238281 24.011719 C 75.269531 24.011719 76.101562 24.847656 76.101562 25.875 C 76.101562 26.910156 75.269531 27.742188 74.238281 27.742188 Z M 74.238281 27.742188 " style=" stroke:none;fill-rule:nonzero;fill:rgb(0%,0%,0%);fill-opacity:1;" />
<path d="M 89.828125 134.632812 C 92.023438 134.628906 93.800781 132.851562 93.804688 130.652344 L 93.804688 36.714844 L 0.316406 36.714844 L 0.316406 130.652344 C 0.324219 132.851562 2.101562 134.628906 4.292969 134.632812 Z M 36.121094 53.539062 L 80.207031 53.539062 C 81.234375 53.539062 82.070312 54.371094 82.070312 55.40625 C 82.070312 56.433594 81.234375 57.269531 80.207031 57.269531 L 36.121094 57.269531 C 35.09375 57.269531 34.257812 56.433594 34.257812 55.40625 C 34.257812 54.371094 35.09375 53.539062 36.121094 53.539062 Z M 36.121094 72.984375 L 80.207031 72.984375 C 81.234375 72.984375 82.070312 73.816406 82.070312 74.84375 C 82.070312 75.875 81.234375 76.710938 80.207031 76.710938 L 36.121094 76.710938 C 35.09375 76.710938 34.257812 75.875 34.257812 74.84375 C 34.257812 73.816406 35.09375 72.984375 36.121094 72.984375 Z M 36.121094 92.421875 L 80.207031 92.421875 C 81.234375 92.421875 82.070312 93.261719 82.070312 94.289062 C 82.070312 95.320312 81.234375 96.152344 80.207031 96.152344 L 36.121094 96.152344 C 35.09375 96.152344 34.257812 95.320312 34.257812 94.289062 C 34.257812 93.261719 35.09375 92.421875 36.121094 92.421875 Z M 36.121094 111.867188 L 80.207031 111.867188 C 81.234375 111.867188 82.070312 112.703125 82.070312 113.730469 C 82.070312 114.765625 81.234375 115.597656 80.207031 115.597656 L 36.121094 115.597656 C 35.09375 115.597656 34.257812 114.765625 34.257812 113.730469 C 34.257812 112.703125 35.09375 111.867188 36.121094 111.867188 Z M 15.050781 51.539062 C 15.894531 50.945312 17.058594 51.148438 17.648438 51.996094 L 19.449219 54.574219 L 29.742188 46.503906 C 30.574219 45.890625 31.738281 46.066406 32.351562 46.898438 C 32.9375 47.691406 32.800781 48.800781 32.046875 49.433594 L 20.160156 58.710938 C 19.832031 58.964844 19.429688 59.105469 19.015625 59.105469 L 18.742188 59.105469 C 18.242188 59.03125 17.789062 58.75 17.5 58.335938 L 14.5625 54.148438 C 13.976562 53.300781 14.183594 52.136719 15.027344 51.554688 C 15.035156 51.546875 15.042969 51.542969 15.050781 51.539062 Z M 15.050781 70.695312 C 15.894531 70.105469 17.058594 70.3125 17.648438 71.152344 L 19.449219 73.730469 L 29.742188 65.660156 C 30.574219 65.046875 31.738281 65.226562 32.351562 66.054688 C 32.9375 66.847656 32.800781 67.964844 32.046875 68.59375 L 20.160156 77.867188 C 19.832031 78.121094 19.429688 78.261719 19.015625 78.269531 L 18.742188 78.269531 C 18.242188 78.191406 17.789062 77.914062 17.5 77.492188 L 14.589844 73.292969 C 14 72.449219 14.203125 71.285156 15.046875 70.695312 C 15.050781 70.695312 15.050781 70.695312 15.050781 70.695312 Z M 15.050781 89.914062 C 15.894531 89.320312 17.058594 89.53125 17.648438 90.375 L 19.449219 92.949219 L 29.742188 84.867188 C 30.535156 84.207031 31.710938 84.316406 32.371094 85.109375 C 33.03125 85.898438 32.921875 87.070312 32.128906 87.734375 C 32.105469 87.757812 32.074219 87.777344 32.046875 87.800781 L 20.160156 97.089844 C 19.832031 97.347656 19.429688 97.488281 19.015625 97.488281 L 18.742188 97.488281 C 18.242188 97.410156 17.789062 97.132812 17.5 96.71875 L 14.5625 92.527344 C 13.96875 91.683594 14.167969 90.519531 15.011719 89.929688 C 15.023438 89.921875 15.035156 89.910156 15.050781 89.902344 Z M 15.050781 109.359375 C 15.894531 108.765625 17.058594 108.976562 17.648438 109.816406 L 19.449219 112.394531 L 29.742188 104.375 C 30.574219 103.757812 31.738281 103.941406 32.351562 104.765625 C 32.9375 105.5625 32.800781 106.675781 32.046875 107.304688 L 20.160156 116.582031 C 19.832031 116.839844 19.429688 116.976562 19.015625 116.980469 L 18.742188 116.980469 C 18.242188 116.902344 17.789062 116.625 17.5 116.207031 L 14.589844 111.953125 C 13.996094 111.117188 14.195312 109.953125 15.03125 109.355469 C 15.035156 109.355469 15.046875 109.351562 15.050781 109.34375 Z M 15.050781 109.359375 " style=" stroke:none;fill-rule:nonzero;fill:rgb(0%,0%,0%);fill-opacity:1;" />
</g>
</svg>