<svg xmlns="http://www.w3.org/2000/svg" width="609" height="1080" viewBox="0 0 609 1080">
  <metadata><?xpacket begin="﻿" id="W5M0MpCehiHzreSzNTczkc9d"?>
<x:xmpmeta xmlns:x="adobe:ns:meta/" x:xmptk="Adobe XMP Core 5.6-c138 79.159824, 2016/09/14-01:09:01        ">
   <rdf:RDF xmlns:rdf="http://www.w3.org/1999/02/22-rdf-syntax-ns#">
      <rdf:Description rdf:about=""/>
   </rdf:RDF>
</x:xmpmeta>
                                                                                                    
                                                                                                    
                                                                                                    
                                                                                                    
                                                                                                    
                                                                                                    
                                                                                                    
                                                                                                    
                                                                                                    
                                                                                                    
                                                                                                    
                                                                                                    
                                                                                                    
                                                                                                    
                                                                                                    
                                                                                                    
                                                                                                    
                                                                                                    
                                                                                                    
                                                                                                    
                           
<?xpacket end="w"?></metadata>
<defs>
    <style>
      .cls-1 {
        fill: none;
        stroke: #dedfe4;
        stroke-width: 3px;
      }

      .cls-1, .cls-4, .cls-5, .cls-6 {
        fill-rule: evenodd;
      }

      .cls-2 {
        fill: #ffd2f0;
        opacity: 0.62;
      }

      .cls-3 {
        fill: #f8e1ff;
        opacity: 0.78;
      }

      .cls-4 {
        fill: #62ffff;
        opacity: 0.72;
      }

      .cls-5 {
        fill: #d084f8;
        opacity: 0.68;
      }

      .cls-6 {
        fill: #9f04f0;
      }
    </style>
  </defs>
  <path id="Rounded_Rectangle_1" data-name="Rounded Rectangle 1" class="cls-1" d="M-604.328,431.568L-23.354,109.835C12.441,90.013,58,101.043,78.407,134.472L421.176,696.011c20.406,33.429,7.93,76.6-27.865,96.422L-187.663,1114.17c-35.8,19.82-81.356,8.79-101.761-24.64L-632.193,527.99C-652.6,494.561-640.123,451.391-604.328,431.568Z"/>
  <circle class="cls-2" cx="425.063" cy="737.063" r="22.938"/>
  <circle class="cls-3" cx="402.11" cy="741.453" r="13.109"/>
  <path class="cls-4" d="M421.778,756.824a6.588,6.588,0,1,1-6.556,6.588A6.571,6.571,0,0,1,421.778,756.824Z"/>
  <path id="Rounded_Rectangle_2" data-name="Rounded Rectangle 2" class="cls-5" d="M54,235.4H99.468a3,3,0,0,1,3,3V240a3,3,0,0,1-3,3H54a3,3,0,0,1-3-3v-1.6A3,3,0,0,1,54,235.4Z"/>
  <path id="Rounded_Rectangle_2_copy" data-name="Rounded Rectangle 2 copy" class="cls-6" d="M82.872,224H107a3,3,0,0,1,3,3v1.6a3,3,0,0,1-3,3H82.872a3,3,0,0,1-3-3V227A3,3,0,0,1,82.872,224Z"/>
</svg>
