<?xml version="1.0" encoding="iso-8859-1"?>
<!-- Generator: Adobe Illustrator 19.0.0, SVG Export Plug-In . SVG Version: 6.00 Build 0)  -->
<svg version="1.1" fill="#fff" id="Capa_1" xmlns="http://www.w3.org/2000/svg" xmlns:xlink="http://www.w3.org/1999/xlink" x="0px" y="0px"
	 viewBox="0 0 512 512" style="enable-background:new 0 0 512 512;" xml:space="preserve">
<g>
	<g>
		<path d="M271,110.66V216h-30V110.66H139.29c0.47,3.6,0.71,7.27,0.71,11v137.39h124.97l56.5,105.21H372v-242.6
			c0-3.73,0.24-7.4,0.71-11H271z"/>
	</g>
</g>
<g>
	<g>
		<path d="M457,66.66c-30.38,0-55,24.62-55,55v321.09c0-30.37,24.62-55,55-55c10.23,0,19.8,2.79,28,7.65
			c16.03,9.5,26.82,26.92,26.99,46.86H497v0.49h-15c0-13.78-11.21-25-25-25c-13.79,0-25,11.22-25,25h-30h-30v-48.49h-68.47
			l-56.5-105.21H140v153.7h-30H80c0-13.78-11.21-25-25-25s-25,11.22-25,25H15v-0.49H0.01c0.02-2.63,0.23-5.22,0.61-7.74
			c0.28-1.9,1.46-6.81,1.64-7.41c0.36-1.2,0.76-2.38,1.19-3.55c0.21-0.58,1.16-2.88,1.41-3.44c0,0,0.53-1.13,0.8-1.68
			c0.27-0.55,0.55-1.09,0.84-1.63c1.16-2.17,2.47-4.26,3.9-6.25c0.31-0.43,0.63-0.86,0.96-1.29c0.66-0.85,1.34-1.67,2.03-2.48
			c0.28-0.33,0.57-0.65,0.86-0.97c0,0,0,0,0-0.01c0.3-0.32,0.59-0.63,0.89-0.94v-0.01c0.3-0.32,0.6-0.62,0.91-0.93
			c3.97-4,8.57-7.39,13.62-10.01c7.58-3.94,16.19-6.17,25.33-6.17c30.38,0,55,24.63,55,55V121.66c0-30.38-24.62-55-55-55
			s-55,24.62-55,55v320.87v0.22h0.01C0.27,480.99,31.44,512,69.74,512h372.52c38.3,0,69.47-31.01,69.73-69.25
			c0.01-0.07,0.01-0.15,0.01-0.22v-0.27v-320.6C512,91.28,487.38,66.66,457,66.66z"/>
	</g>
</g>
<g>
	<g>
		<path d="M256,0c-24.43,0-44.31,19.88-44.31,44.31c0,19.18,12.24,35.54,29.31,41.71v24.64h30V86.02
			c17.07-6.17,29.31-22.53,29.31-41.71C300.31,19.88,280.43,0,256,0z"/>
	</g>
</g>
<g>
</g>
<g>
</g>
<g>
</g>
<g>
</g>
<g>
</g>
<g>
</g>
<g>
</g>
<g>
</g>
<g>
</g>
<g>
</g>
<g>
</g>
<g>
</g>
<g>
</g>
<g>
</g>
<g>
</g>
</svg>
