<svg xmlns="http://www.w3.org/2000/svg" viewBox="0 0 500 500"><defs><style>.cls-1{isolation:isolate;}.cls-2{fill:#fff;}.cls-10,.cls-11,.cls-12,.cls-13,.cls-14,.cls-15,.cls-16,.cls-17,.cls-18,.cls-19,.cls-2,.cls-20,.cls-21,.cls-22,.cls-23,.cls-24,.cls-25,.cls-26,.cls-29,.cls-3,.cls-30,.cls-31,.cls-32,.cls-33,.cls-34,.cls-35,.cls-36,.cls-37,.cls-38,.cls-39,.cls-4,.cls-40,.cls-41,.cls-42,.cls-43,.cls-44,.cls-45,.cls-46,.cls-47,.cls-48,.cls-49,.cls-5,.cls-50,.cls-51,.cls-52,.cls-53,.cls-54,.cls-55,.cls-56,.cls-57,.cls-6,.cls-7,.cls-8,.cls-9{fill-rule:evenodd;}.cls-3{fill:#8ceaeb;}.cls-4{fill:#7bdedf;}.cls-25,.cls-5{fill:#66cacb;}.cls-6{fill:#3d3060;}.cls-7{fill:#52517a;}.cls-8{fill:#94adc3;}.cls-9{fill:#bfe0eb;}.cls-10{fill:#dddaec;}.cls-10,.cls-14,.cls-19,.cls-22,.cls-23,.cls-24,.cls-25,.cls-34,.cls-47{mix-blend-mode:multiply;}.cls-11{fill:#423b3e;}.cls-12{fill:#2e324f;}.cls-13{fill:#4f526a;}.cls-14,.cls-15{fill:#9cc;}.cls-16{fill:#3b435e;}.cls-17{fill:#564d70;}.cls-18{fill:#5ce2c2;}.cls-19{fill:#413b52;}.cls-20{fill:#3b9191;}.cls-21{fill:#47dad7;}.cls-22{fill:#ccc;}.cls-23{fill:#98e5de;}.cls-24{fill:#71dbd1;}.cls-26{fill:#6fc;}.cls-27{font-size:9.74px;}.cls-27,.cls-28{fill:#cfc;font-family:AcherusGrotesque-Regular, AcherusGrotesque Regular;}.cls-28{font-size:9.76px;}.cls-29{fill:#d12e1a;}.cls-30{fill:#e2e9e2;}.cls-31{fill:#ededcc;}.cls-32,.cls-34{fill:#724b71;}.cls-33{fill:#4e5d57;}.cls-35{fill:#4b7272;}.cls-36{fill:#ea9f8c;}.cls-37{fill:#efa495;}.cls-38{fill:#3868b3;}.cls-39{fill:#f5ab9a;}.cls-40{fill:#60af3c;}.cls-41{fill:#58a438;}.cls-42{fill:#6dbf2c;}.cls-43{fill:#518444;}.cls-44{fill:#f8c2b5;}.cls-45{fill:#395da4;}.cls-46{fill:#3486dd;}.cls-47{fill:#ededed;}.cls-48{fill:#3675c6;}.cls-49{fill:#e19388;}.cls-50{fill:#e97f2c;}.cls-51{fill:#75460b;}.cls-52{fill:#b0e5d5;}.cls-53{fill:#5ec2f2;}.cls-54{fill:#5a597c;}.cls-55{fill:#2c2643;}.cls-56{fill:#d00029;}.cls-57{fill:#e40037;}</style></defs><title>application</title><g class="cls-1"><g id="BACKGROUND"><polyline class="cls-2" points="0 0 0 500 500 500 500 0"/></g><g id="OBJETS"><path class="cls-3" d="M434.85,310.09c43.26,16.24,34.77,42.48,7.61,65.55l-111.8,95c-22.68,19.28-65.14,40-117.09,10L38,403.68c-13.29-5.83-20.37-14.95-21.33-24.35s4.25-19.07,15.64-27L182.7,247.5c18.11-12.62,50.62-13,74-4.25Z"/><path class="cls-4" d="M428.36,327.4,250.24,260.55c-15.49-5.81-42.9-7.7-57,2.11L42.84,367.48c-2.4,1.67-8.19,6.45-7.83,10,.42,4.11,7.17,7.9,10.37,9.3l175.61,77a19.38,19.38,0,0,1,1.82.92c33,19.06,66.94,16.48,95.89-8.11l111.8-95c4.22-3.59,16.75-15.46,16.06-21.82C446,334.74,432,328.77,428.36,327.4Z"/><path class="cls-5" d="M64.46,374.94l164,71.86a35.46,35.46,0,0,1,3.64,1.84c26.21,15.13,51.7,13.33,74.68-6.19l111.8-95c.81-.69,2-1.69,3.17-2.84L243.75,277.85c-9.41-3.53-31.36-6-39.92,0Z"/><polygon class="cls-6" points="157.94 320.21 157.94 441.69 157.92 442.01 157.89 442.33 157.82 442.65 157.74 442.96 157.63 443.26 157.5 443.56 157.34 443.85 157.17 444.13 156.97 444.41 156.76 444.68 156.53 444.95 156.27 445.2 156 445.45 155.71 445.69 155.4 445.91 155.08 446.13 154.74 446.34 154.39 446.54 154.02 446.72 153.64 446.9 153.24 447.06 152.83 447.21 152.41 447.35 151.98 447.48 151.54 447.59 151.09 447.69 150.62 447.77 150.15 447.84 149.67 447.9 149.18 447.94 148.69 447.96 148.19 447.97 147.68 447.96 147.19 447.94 146.7 447.9 146.22 447.84 145.75 447.77 145.29 447.69 144.83 447.59 144.39 447.48 143.96 447.35 143.54 447.21 143.13 447.06 142.74 446.9 142.35 446.72 141.98 446.54 141.63 446.34 141.29 446.13 140.97 445.91 140.66 445.69 140.37 445.45 140.1 445.2 139.85 444.95 139.61 444.68 139.4 444.41 139.2 444.13 139.03 443.85 138.87 443.56 138.74 443.26 138.63 442.96 138.55 442.65 138.49 442.33 138.45 442.01 138.45 320.53 138.49 320.85 138.55 321.17 138.63 321.48 138.74 321.78 138.87 322.08 139.03 322.37 139.2 322.66 139.4 322.93 139.61 323.2 139.85 323.47 140.1 323.72 140.37 323.97 140.66 324.21 140.97 324.44 141.29 324.65 141.63 324.86 141.98 325.06 142.35 325.25 142.74 325.42 143.13 325.58 143.54 325.74 143.96 325.87 144.39 326 144.83 326.11 145.29 326.21 145.75 326.3 146.22 326.37 146.7 326.42 147.19 326.46 147.68 326.48 148.19 326.49 148.69 326.48 149.18 326.46 149.67 326.42 150.15 326.37 150.62 326.3 151.09 326.21 151.54 326.11 151.98 326 152.41 325.87 152.83 325.74 153.24 325.58 153.64 325.42 154.02 325.25 154.39 325.06 154.74 324.86 155.08 324.65 155.4 324.44 155.71 324.21 156 323.97 156.27 323.72 156.53 323.47 156.76 323.2 156.97 322.93 157.17 322.66 157.34 322.37 157.5 322.08 157.63 321.78 157.74 321.48 157.82 321.17 157.89 320.85 157.92 320.53 157.94 320.21"/><polygon class="cls-6" points="88.17 285.76 88.17 407.24 88.19 407.56 88.17 407.89 88.14 408.21 88.07 408.52 87.99 408.83 87.88 409.13 87.75 409.43 87.59 409.73 87.42 410.01 87.22 410.29 87.01 410.56 86.78 410.82 86.52 411.08 86.25 411.32 85.96 411.56 85.65 411.79 85.33 412.01 84.99 412.21 84.64 412.41 84.27 412.6 83.89 412.77 83.49 412.94 83.08 413.09 82.66 413.23 82.23 413.35 81.79 413.46 81.34 413.56 80.87 413.65 80.4 413.72 79.92 413.77 79.43 413.81 78.94 413.84 78.44 413.85 77.94 413.84 77.44 413.81 76.95 413.77 76.47 413.72 76 413.65 75.54 413.56 75.08 413.46 74.64 413.35 74.21 413.23 73.79 413.09 73.38 412.94 72.98 412.77 72.6 412.6 72.23 412.41 71.88 412.21 71.54 412.01 71.22 411.79 70.91 411.56 70.62 411.32 70.35 411.08 70.1 410.82 69.86 410.56 69.65 410.29 69.45 410.01 69.28 409.73 69.12 409.43 68.99 409.13 68.88 408.83 68.8 408.52 68.74 408.21 68.7 407.89 68.7 286.41 68.74 286.73 68.8 287.04 68.88 287.35 68.99 287.66 69.12 287.95 69.28 288.25 69.45 288.53 69.65 288.81 69.86 289.08 70.1 289.34 70.35 289.6 70.62 289.84 70.91 290.08 71.22 290.31 71.54 290.53 71.88 290.74 72.23 290.93 72.6 291.12 72.98 291.3 73.38 291.46 73.79 291.61 74.21 291.75 74.64 291.87 75.08 291.99 75.54 292.08 76 292.17 76.47 292.24 76.95 292.3 77.44 292.33 77.94 292.36 78.44 292.37 78.94 292.36 79.43 292.33 79.92 292.3 80.4 292.24 80.87 292.17 81.34 292.08 81.79 291.99 82.23 291.87 82.66 291.75 83.08 291.61 83.49 291.46 83.89 291.3 84.27 291.12 84.64 290.93 84.99 290.74 85.33 290.53 85.65 290.31 85.96 290.08 86.25 289.84 86.52 289.6 86.78 289.34 87.01 289.08 87.22 288.81 87.42 288.53 87.59 288.25 87.75 287.95 87.88 287.66 87.99 287.35 88.07 287.04 88.14 286.73 88.17 286.41 88.19 286.09 88.17 285.76"/><polygon class="cls-6" points="352.52 171.05 352.52 292.53 352.4 293.05 352.2 293.55 351.92 294.03 351.58 294.49 351.18 294.92 350.71 295.32 350.19 295.69 349.61 296.03 348.99 296.33 348.32 296.59 347.61 296.81 346.86 296.99 346.09 297.12 345.28 297.19 344.45 297.22 343.62 297.19 342.82 297.12 342.04 296.99 341.3 296.81 340.59 296.59 339.92 296.33 339.29 296.03 338.72 295.69 338.19 295.32 337.73 294.92 337.32 294.49 336.98 294.03 336.71 293.55 336.51 293.05 336.38 292.53 336.34 292 336.34 170.52 336.38 171.05 336.51 171.57 336.71 172.07 336.98 172.55 337.32 173.01 337.73 173.44 338.19 173.84 338.72 174.21 339.29 174.55 339.92 174.85 340.59 175.11 341.3 175.33 342.04 175.51 342.82 175.64 343.62 175.72 344.45 175.74 345.28 175.72 346.09 175.64 346.86 175.51 347.61 175.33 348.32 175.11 348.99 174.85 349.61 174.55 350.19 174.21 350.71 173.84 351.18 173.44 351.58 173.01 351.92 172.55 352.2 172.07 352.4 171.57 352.52 171.05"/><polygon class="cls-6" points="294.55 142.14 294.55 263.62 294.51 264.15 294.39 264.67 294.19 265.17 293.91 265.65 293.57 266.11 293.17 266.54 292.7 266.94 292.18 267.31 291.6 267.65 290.98 267.95 290.31 268.21 289.6 268.43 288.85 268.61 288.08 268.73 287.27 268.81 286.44 268.84 285.61 268.81 284.81 268.73 284.03 268.61 283.29 268.43 282.58 268.21 281.91 267.95 281.29 267.65 280.71 267.31 280.19 266.94 279.72 266.54 279.31 266.11 278.97 265.65 278.7 265.17 278.5 264.67 278.38 264.15 278.33 263.62 278.33 142.14 278.38 142.67 278.5 143.19 278.7 143.69 278.97 144.17 279.31 144.63 279.72 145.06 280.19 145.46 280.71 145.83 281.29 146.17 281.91 146.47 282.58 146.73 283.29 146.95 284.03 147.13 284.81 147.25 285.61 147.33 286.44 147.36 287.27 147.33 288.08 147.25 288.85 147.13 289.6 146.95 290.31 146.73 290.98 146.47 291.6 146.17 292.18 145.83 292.7 145.46 293.17 145.06 293.57 144.63 293.91 144.17 294.19 143.69 294.39 143.19 294.51 142.67 294.55 142.14"/><polygon class="cls-7" points="154.19 446.64 154.02 446.72 153.64 446.9 153.24 447.06 152.83 447.21 152.41 447.35 151.98 447.48 151.54 447.59 151.09 447.69 150.62 447.77 150.15 447.84 149.67 447.9 149.18 447.94 148.69 447.96 148.19 447.97 147.68 447.96 147.19 447.94 146.7 447.9 146.22 447.84 145.94 447.8 145.94 326.32 146.22 326.37 146.7 326.42 147.19 326.46 147.68 326.48 148.19 326.49 148.69 326.48 149.18 326.46 149.67 326.42 150.15 326.37 150.62 326.3 151.09 326.21 151.54 326.11 151.98 326 152.41 325.87 152.83 325.74 153.24 325.58 153.64 325.42 154.02 325.25 154.19 325.16 154.19 446.64"/><polygon class="cls-7" points="83.69 291.38 83.69 412.86 83.49 412.94 83.08 413.09 82.66 413.23 82.23 413.35 81.79 413.46 81.34 413.56 80.87 413.65 80.4 413.72 79.92 413.77 79.43 413.81 78.94 413.84 78.44 413.85 77.94 413.84 77.44 413.81 76.95 413.77 76.47 413.72 76 413.65 75.54 413.56 75.44 413.54 75.44 292.06 75.54 292.08 76 292.17 76.47 292.24 76.95 292.3 77.44 292.33 77.94 292.36 78.44 292.37 78.94 292.36 79.43 292.33 79.92 292.3 80.4 292.24 80.87 292.17 81.34 292.08 81.79 291.99 82.23 291.87 82.66 291.75 83.08 291.61 83.49 291.46 83.69 291.38"/><polygon class="cls-7" points="349.56 296.05 348.99 296.33 348.32 296.59 347.61 296.81 346.86 296.99 346.09 297.12 345.28 297.19 344.45 297.22 343.62 297.19 342.82 297.12 342.04 296.99 341.31 296.81 341.31 175.34 342.04 175.51 342.82 175.64 343.62 175.72 344.45 175.74 345.28 175.72 346.09 175.64 346.86 175.51 347.61 175.33 348.32 175.11 348.99 174.85 349.56 174.57 349.56 296.05"/><polygon class="cls-7" points="291.44 146.25 291.44 267.73 290.98 267.95 290.31 268.21 289.6 268.43 288.85 268.61 288.08 268.73 287.27 268.81 286.44 268.84 285.61 268.81 284.81 268.73 284.03 268.61 283.29 268.43 283.19 268.4 283.19 146.92 283.29 146.95 284.03 147.13 284.81 147.25 285.61 147.33 286.44 147.36 287.27 147.33 288.08 147.25 288.85 147.13 289.6 146.95 290.31 146.73 290.98 146.47 291.44 146.25"/><polygon class="cls-8" points="366.06 166.75 366.06 173.03 365.95 173.59 365.8 174.15 365.6 174.71 365.36 175.26 365.06 175.8 364.72 176.34 364.32 176.87 363.88 177.38 363.39 177.89 362.84 178.39 362.25 178.87 359.38 181.09 356.51 183.31 353.62 185.54 350.73 187.77 347.83 190.01 344.92 192.25 342.01 194.51 339.08 196.77 336.15 199.03 333.21 201.3 330.26 203.58 327.3 205.87 324.34 208.16 321.37 210.45 318.38 212.76 315.39 215.07 312.39 217.38 309.39 219.71 306.38 222.03 303.35 224.37 300.32 226.71 297.28 229.06 294.23 231.41 291.18 233.78 288.11 236.14 285.04 238.51 281.96 240.9 278.87 243.28 275.77 245.68 272.67 248.07 269.55 250.48 266.43 252.89 263.15 255.42 259.86 257.96 256.56 260.51 253.25 263.07 249.93 265.63 246.6 268.2 243.27 270.78 239.92 273.37 236.56 275.96 233.19 278.56 229.81 281.17 226.42 283.79 223.03 286.42 219.62 289.05 216.2 291.69 212.77 294.34 209.33 297 205.88 299.66 202.42 302.34 198.95 305.02 195.47 307.7 191.98 310.4 188.47 313.11 184.96 315.82 181.44 318.54 177.91 321.26 174.37 324 170.81 326.74 167.25 329.5 163.67 332.25 160.09 335.02 156.49 337.8 155.65 338.42 154.76 339 153.85 339.56 152.9 340.09 151.91 340.59 150.9 341.06 149.85 341.49 148.78 341.89 147.69 342.27 146.58 342.61 145.45 342.91 144.3 343.19 143.14 343.43 141.97 343.64 140.79 343.82 139.6 343.96 138.4 344.07 137.21 344.14 136.01 344.18 134.81 344.19 133.62 344.16 132.44 344.09 131.26 343.99 130.09 343.86 128.94 343.69 127.81 343.48 126.69 343.23 125.59 342.95 124.51 342.63 123.46 342.28 122.43 341.89 121.44 341.46 120.37 340.97 119.31 340.49 118.25 340 117.18 339.51 116.12 339.02 115.06 338.54 114 338.05 112.93 337.56 111.87 337.08 110.81 336.59 109.75 336.1 108.69 335.62 107.62 335.13 106.56 334.64 105.5 334.16 104.44 333.67 103.38 333.18 102.32 332.7 101.26 332.21 100.2 331.72 99.14 331.24 98.08 330.75 97.02 330.26 95.95 329.78 94.89 329.29 93.83 328.81 92.78 328.32 91.72 327.83 90.66 327.35 89.6 326.86 88.54 326.38 87.48 325.89 86.14 325.26 84.83 324.61 83.57 323.94 82.34 323.25 81.16 322.55 80.01 321.83 78.9 321.1 77.83 320.35 76.8 319.59 75.81 318.81 74.86 318.02 73.94 317.21 73.07 316.4 72.24 315.57 71.44 314.73 70.69 313.87 69.97 313.01 69.29 312.14 68.66 311.25 68.06 310.36 67.5 309.46 66.98 308.55 66.5 307.63 66.06 306.71 65.67 305.77 65.31 304.83 64.99 303.89 64.71 302.94 64.47 301.98 64.27 301.02 64.11 300.06 63.99 299.09 63.99 292.81 64.11 293.78 64.27 294.75 64.47 295.71 64.71 296.66 64.99 297.62 65.31 298.56 65.67 299.5 66.06 300.43 66.5 301.36 66.98 302.28 67.5 303.19 68.06 304.09 68.66 304.98 69.29 305.86 69.97 306.74 70.69 307.6 71.44 308.45 72.24 309.29 73.07 310.12 73.94 310.94 74.86 311.74 75.81 312.54 76.8 313.31 77.83 314.08 78.9 314.82 80.01 315.56 81.16 316.28 82.34 316.98 83.57 317.66 84.83 318.33 86.14 318.98 87.48 319.62 88.54 320.1 89.6 320.59 90.66 321.07 91.72 321.56 92.78 322.05 93.83 322.53 94.89 323.02 95.95 323.5 97.02 323.99 98.08 324.48 99.14 324.96 100.2 325.45 101.26 325.94 102.32 326.42 103.38 326.91 104.44 327.4 105.5 327.88 106.56 328.37 107.62 328.86 108.69 329.34 109.75 329.83 110.81 330.32 111.87 330.8 112.93 331.29 114 331.78 115.06 332.26 116.12 332.75 117.18 333.24 118.25 333.73 119.31 334.21 120.37 334.7 121.44 335.18 122.43 335.61 123.46 336.01 124.51 336.36 125.59 336.68 126.69 336.96 127.81 337.2 128.94 337.41 130.09 337.58 131.26 337.72 132.44 337.82 133.62 337.88 134.81 337.91 136.01 337.91 137.21 337.87 138.4 337.79 139.6 337.68 140.79 337.54 141.97 337.37 143.14 337.16 144.3 336.92 145.45 336.64 146.58 336.33 147.69 335.99 148.78 335.62 149.85 335.22 150.9 334.78 151.91 334.31 152.9 333.82 153.85 333.29 154.76 332.73 155.65 332.14 156.49 331.52 160.09 328.75 163.67 325.98 167.25 323.22 170.81 320.47 174.37 317.73 177.91 314.99 181.44 312.26 184.96 309.54 188.47 306.83 191.98 304.13 195.47 301.43 198.95 298.74 202.42 296.06 205.88 293.39 209.33 290.73 212.77 288.07 216.2 285.42 219.62 282.78 223.03 280.14 226.42 277.52 229.81 274.9 233.19 272.29 236.56 269.69 239.92 267.09 243.27 264.51 246.6 261.93 249.93 259.36 253.25 256.79 256.56 254.24 259.86 251.69 263.15 249.15 266.43 246.62 269.55 244.21 272.67 241.8 275.77 239.4 278.87 237.01 281.96 234.62 285.04 232.24 288.11 229.87 291.18 227.5 294.23 225.14 297.28 222.79 300.32 220.44 303.35 218.1 306.38 215.76 309.39 213.43 312.39 211.11 315.39 208.79 318.38 206.48 321.37 204.18 324.34 201.88 327.3 199.59 330.26 197.31 333.21 195.03 336.15 192.76 339.08 190.49 342.01 188.23 344.92 185.98 347.83 183.74 350.73 181.5 353.62 179.26 356.51 177.03 359.38 174.81 362.25 172.6 362.84 172.12 363.39 171.62 363.88 171.11 364.32 170.59 364.72 170.06 365.06 169.53 365.36 168.98 365.6 168.43 365.8 167.88 365.95 167.32 366.06 166.75"/><path class="cls-9" d="M81.22,263.07q45.12-31.42,87.09-60.7,40.53-28.27,78.53-54.71c19.94-13.9,56.36-15.88,81.51-4.68,9.78,4.35,19.53,8.73,29.34,13.06,9.12,4,11.16,11.47,4.56,16.56q-45.83,35.39-95.82,74-52.4,40.45-109.94,84.9c-8.77,6.77-24.59,8.45-35.05,3.66q-17-7.77-34-15.56C73,313,65.05,303.16,64,292.81S68.67,271.81,81.22,263.07Z"/><path class="cls-10" d="M307.77,174.31l9.21,9.31-14.44-1.18,5.23-8.13Zm-24.4,12-11.13,6.6.42-11.34,10.71,4.74Zm-17.05-20.2-9.22-9.3L271.55,158l-5.23,8.12Zm24.39-12,11.14-6.59-.42,11.34-10.72-4.75Zm12.24-.92-.14,3.89c6.91,4.9,10.13,12.26,8.36,19.06l3.2,3.22c3.88-9.29-.79-20-11.42-26.17Zm8.48,31-4.85-.39c-6,5.78-16.18,7.89-25.68,5.3l-3.71,2.2c12.7,4.54,27.09,1.54,34.24-7.11Zm-40.34,4.24.15-4c-6.85-5.09-9.85-12.65-7.65-19.5l-3.11-3.14c-4.37,9.3.06,20.25,10.61,26.6Zm-6.77-32.07,5.16.42c5.61-4.38,13.94-6.08,22-4.48l3.92-2.32C283.92,146.58,271.41,149.16,264.32,156.36Z"/><path class="cls-11" d="M188.51,238.72a1,1,0,0,1-1.56,1.34c-7.73-8.91-18.57-14.82-28.34-20.16-3.25-1.77-9.27-5.23-9.27-5.23l1.46-1.51s5.71,3.26,8.79,4.94C169.52,223.52,180.53,229.53,188.51,238.72Z"/><path class="cls-12" d="M185,238.46l49.6-36.87c1.61-1.2,3.5-.44,5.1.77l11,8.32c1.6,1.21.84,3.9-.77,5.1l-49.6,36.87c-1.61,1.2-3.5.43-5.1-.78l-11-8.31C182.59,242.35,183.35,239.65,185,238.46Z"/><path class="cls-13" d="M251.18,211.21a3.9,3.9,0,0,1-1,1l-49.6,36.87c-1.61,1.19-3.5.43-5.1-.78l-11-8.31a2.26,2.26,0,0,1-.5-.53,3.9,3.9,0,0,1,1-1l49.6-36.87c1.61-1.2,3.5-.44,5.1.77l11,8.32A1.93,1.93,0,0,1,251.18,211.21Z"/><path class="cls-14" d="M248.1,211.25l-2.31-1.74-.85-.64-2.13-1.61a.38.38,0,0,0-.47,0L240,209a.36.36,0,0,0-.15.31.39.39,0,0,0,.15.31l2,1.47.45.33a.4.4,0,0,1,0,.62l-.34.25-2.42,1.82a.37.37,0,0,0-.16.31.4.4,0,0,0,.16.31l2.05,1.53a.38.38,0,0,0,.46,0l2.62-2,.75-.56,2.59-1.92a.36.36,0,0,0,.15-.31.39.39,0,0,0-.15-.31ZM212,234.88l1.41-1.06.75-.56,2.84-2.13.74-.56,2.84-2.13,4.33-3.25,1.72-1.29.88-.66a.39.39,0,0,1,.46,0l2,1.5a.4.4,0,0,1,.16.31.38.38,0,0,1-.16.31l-.74.55-1.69,1.26-.75.56-2.85,2.11-.75.56-2.85,2.12-.75.56-2.85,2.11-.75.56-1.42,1.06-1.19.88a.36.36,0,0,1-.46,0L211,236.25a.36.36,0,0,1-.15-.31.39.39,0,0,1,.15-.31l1-.75Zm26.26-19.7a.39.39,0,0,1,.46,0l2.05,1.54a.36.36,0,0,1,.15.31.39.39,0,0,1-.15.31l-2.2,1.63a.41.41,0,0,1-.47,0l-2-1.53a.37.37,0,0,1-.16-.31.4.4,0,0,1,.16-.31l2.19-1.64Zm-3.59,2.69-2.19,1.64a.4.4,0,0,0,0,.62l2,1.51a.39.39,0,0,0,.47,0l2.2-1.64a.36.36,0,0,0,.15-.31.39.39,0,0,0-.15-.31l-2-1.52a.38.38,0,0,0-.47,0Zm-3.58,2.69-2.19,1.64a.36.36,0,0,0-.15.31.39.39,0,0,0,.15.31l2,1.5a.39.39,0,0,0,.46,0l2.2-1.63a.39.39,0,0,0,.15-.31.36.36,0,0,0-.15-.31l-2-1.51a.38.38,0,0,0-.47,0Zm-9.76,7.32,2.61,2-2.61-2Zm-11.73,8.8-2.19,1.64a.37.37,0,0,0-.15.31.39.39,0,0,0,.15.31l1.91,1.43a.39.39,0,0,0,.46,0l2.2-1.64a.36.36,0,0,0,.15-.3.37.37,0,0,0-.15-.32L210,236.68a.36.36,0,0,0-.46,0ZM206,239.36a.39.39,0,0,1,.46,0l1.9,1.43a.38.38,0,0,1,0,.62l-2.2,1.63a.36.36,0,0,1-.46,0l-1.89-1.41a.4.4,0,0,1-.16-.31.37.37,0,0,1,.16-.31l2.19-1.65Zm-3.58,2.69-2.19,1.64a.4.4,0,0,0-.16.31.37.37,0,0,0,.16.31l1.87,1.41a.39.39,0,0,0,.46,0l2.2-1.64a.37.37,0,0,0,.16-.31.4.4,0,0,0-.16-.31l-1.88-1.41a.39.39,0,0,0-.46,0Zm-3.59,2.69a.38.38,0,0,1,.47,0l1.87,1.4a.36.36,0,0,1,.15.31.38.38,0,0,1-.16.31L199.53,248c-.91.67-2.24-.22-3-.77l-.09-.07a.39.39,0,0,1-.15-.31.36.36,0,0,1,.15-.31l2.37-1.78Zm39.76-34.67a.39.39,0,0,1,.46,0l1.73,1.3a.38.38,0,0,1,.16.31.4.4,0,0,1-.16.31l-2.19,1.64a.36.36,0,0,1-.46,0l-1.73-1.3a.36.36,0,0,1-.15-.31.36.36,0,0,1,.15-.3l2.19-1.65ZM235,212.76l-2.19,1.64a.4.4,0,0,0-.16.31.37.37,0,0,0,.16.31l1.73,1.3a.39.39,0,0,0,.46,0l2.19-1.64a.4.4,0,0,0,.16-.31.37.37,0,0,0-.16-.31l-1.73-1.3a.39.39,0,0,0-.46,0Zm-3.58,2.69a.36.36,0,0,1,.46,0l1.73,1.29a.39.39,0,0,1,.15.31.36.36,0,0,1-.15.31L231.43,219a.36.36,0,0,1-.46,0l-1.73-1.29a.4.4,0,0,1-.16-.31.37.37,0,0,1,.16-.31l2.19-1.64Zm-3.59,2.68a.41.41,0,0,1,.47,0l1.73,1.3a.4.4,0,0,1,0,.62l-2.19,1.64a.38.38,0,0,1-.47,0l-1.73-1.3a.36.36,0,0,1-.15-.3.36.36,0,0,1,.15-.31l2.19-1.65Zm-3.58,2.69-2.19,1.64a.39.39,0,0,0-.15.31.36.36,0,0,0,.15.31l1.73,1.3a.39.39,0,0,0,.46,0l2.19-1.64a.37.37,0,0,0,.16-.31.35.35,0,0,0-.16-.31l-1.73-1.3a.39.39,0,0,0-.46,0Zm-3.58,2.69-2.19,1.64a.38.38,0,0,0-.16.31.41.41,0,0,0,.16.31l1.73,1.3a.39.39,0,0,0,.46,0l2.19-1.65a.37.37,0,0,0,.16-.31.37.37,0,0,0-.16-.3l-1.73-1.3a.36.36,0,0,0-.46,0Zm-3.58,2.68-2.19,1.65a.37.37,0,0,0-.16.31.4.4,0,0,0,.16.31l1.73,1.29a.36.36,0,0,0,.46,0l2.19-1.64a.37.37,0,0,0,.15-.31.39.39,0,0,0-.15-.31l-1.73-1.3a.39.39,0,0,0-.46,0Zm-3.58,2.69-2.19,1.64a.37.37,0,0,0-.16.31.35.35,0,0,0,.16.31l1.73,1.3a.39.39,0,0,0,.46,0l2.19-1.64a.39.39,0,0,0,.15-.31.36.36,0,0,0-.15-.31l-1.73-1.3a.39.39,0,0,0-.46,0Zm-3.59,2.69-2.19,1.64a.4.4,0,0,0,0,.62l1.73,1.3a.41.41,0,0,0,.47,0l2.19-1.65a.36.36,0,0,0,.15-.31.36.36,0,0,0-.15-.3l-1.73-1.3a.38.38,0,0,0-.47,0Zm-3.58,2.69a.36.36,0,0,1,.46,0l1.73,1.29a.4.4,0,0,1,.16.31.37.37,0,0,1-.16.31l-2.19,1.64a.36.36,0,0,1-.46,0l-1.73-1.29a.39.39,0,0,1-.15-.31.36.36,0,0,1,.15-.31l2.19-1.64Zm-3.58,2.68-2.19,1.65a.37.37,0,0,0-.16.3.37.37,0,0,0,.16.31l1.73,1.3a.36.36,0,0,0,.46,0l2.19-1.64a.4.4,0,0,0,.16-.31.38.38,0,0,0-.16-.31l-1.73-1.3a.39.39,0,0,0-.46,0Zm-3.58,2.69a.39.39,0,0,1,.46,0l1.73,1.3a.36.36,0,0,1,.15.31.39.39,0,0,1-.15.31l-2.19,1.64a.39.39,0,0,1-.46,0l-1.73-1.3a.37.37,0,0,1-.16-.31.4.4,0,0,1,.16-.31l2.19-1.64Zm-3.59,2.69-2.36,1.77a.37.37,0,0,0-.15.31.39.39,0,0,0,.15.31L195,246a.41.41,0,0,0,.47,0l2.37-1.78a.36.36,0,0,0,.15-.31.39.39,0,0,0-.15-.31l-1.73-1.29a.38.38,0,0,0-.47,0Zm45.71-36.19a.4.4,0,0,1,0,.62L239,208.52a.38.38,0,0,1-.47,0l-1.23-.92a.4.4,0,0,1-.16-.31.37.37,0,0,1,.16-.31l2.37-1.78a.39.39,0,0,1,.46,0l1.23.93ZM235.86,208l-2.19,1.64a.4.4,0,0,0-.16.31.37.37,0,0,0,.16.31l1.23.93a.39.39,0,0,0,.46,0l2.19-1.64a.4.4,0,0,0,.16-.31.37.37,0,0,0-.16-.31l-1.23-.93a.39.39,0,0,0-.46,0Zm-3.59,2.69a.38.38,0,0,1,.47,0l1.23.93a.37.37,0,0,1,.16.3.37.37,0,0,1-.16.31l-2.19,1.65a.39.39,0,0,1-.46,0l-1.24-.93a.37.37,0,0,1-.15-.31.39.39,0,0,1,.15-.31l2.19-1.64Zm-3.58,2.69L226.5,215a.36.36,0,0,0-.15.31.39.39,0,0,0,.15.31l1.24.92a.36.36,0,0,0,.46,0l2.19-1.64a.36.36,0,0,0,.15-.31.39.39,0,0,0-.15-.31l-1.24-.92a.36.36,0,0,0-.46,0Zm-3.58,2.68-2.19,1.65a.37.37,0,0,0-.16.3.4.4,0,0,0,.16.31l1.23.93a.41.41,0,0,0,.47,0l2.19-1.64a.39.39,0,0,0,.15-.31.36.36,0,0,0-.15-.31l-1.24-.93a.39.39,0,0,0-.46,0Zm-3.58,2.69a.39.39,0,0,1,.46,0l1.24.93a.36.36,0,0,1,.15.31.36.36,0,0,1-.15.3L221,222a.41.41,0,0,1-.47,0l-1.23-.93a.37.37,0,0,1-.16-.31.4.4,0,0,1,.16-.31l2.19-1.64ZM218,221.46l-2.19,1.64a.36.36,0,0,0-.16.31.37.37,0,0,0,.16.31l1.23.92a.36.36,0,0,0,.46,0l2.19-1.64a.37.37,0,0,0,.16-.31.4.4,0,0,0-.16-.31l-1.23-.92a.36.36,0,0,0-.46,0Zm-3.59,2.68-2.19,1.65a.36.36,0,0,0-.15.31.36.36,0,0,0,.15.3l1.24.93a.36.36,0,0,0,.46,0l2.19-1.64a.4.4,0,0,0,.16-.31.38.38,0,0,0-.16-.31l-1.23-.93a.41.41,0,0,0-.47,0Zm-3.58,2.69-2.19,1.64a.39.39,0,0,0-.15.31.36.36,0,0,0,.15.31l1.24.93a.39.39,0,0,0,.46,0l2.19-1.64a.39.39,0,0,0,.15-.31.36.36,0,0,0-.15-.31l-1.24-.93a.39.39,0,0,0-.46,0Zm-3.58,2.69a.36.36,0,0,1,.46,0l1.24.92a.39.39,0,0,1,.15.31.36.36,0,0,1-.15.31l-2.19,1.64a.38.38,0,0,1-.47,0l-1.23-.92a.38.38,0,0,1,0-.62l2.19-1.64Zm-3.58,2.69-2.19,1.64a.37.37,0,0,0-.16.31.4.4,0,0,0,.16.31l1.23.92a.38.38,0,0,0,.47,0l2.19-1.64a.4.4,0,0,0,0-.62l-1.24-.92a.36.36,0,0,0-.46,0ZM200,234.89a.41.41,0,0,1,.47,0l1.23.93a.37.37,0,0,1,.16.31.4.4,0,0,1-.16.31l-2.19,1.64a.39.39,0,0,1-.46,0l-1.23-.93a.35.35,0,0,1-.16-.31.37.37,0,0,1,.16-.31l2.18-1.64Zm-3.58,2.69-2.19,1.64a.39.39,0,0,0-.15.31.37.37,0,0,0,.15.31l1.24.93a.39.39,0,0,0,.46,0l2.19-1.65a.37.37,0,0,0,.16-.31.37.37,0,0,0-.16-.3l-1.23-.93a.38.38,0,0,0-.47,0Zm-3.58,2.69a.36.36,0,0,1,.46,0l1.24.92a.39.39,0,0,1,.15.31.36.36,0,0,1-.15.31l-2.36,1.77a.38.38,0,0,1-.46,0l-1.24-.93a.36.36,0,0,1-.15-.31.39.39,0,0,1,.15-.31l2.36-1.76Zm45.72-36.2h0c-.74-.55-2.06-1.44-3-.77L234,204.51a.37.37,0,0,0-.16.31.4.4,0,0,0,.16.31l1.79,1.34a.36.36,0,0,0,.46,0l2.37-1.78a.37.37,0,0,0,.16-.31.39.39,0,0,0-.15-.31Zm-6,1.48a.38.38,0,0,1,.46,0l1.8,1.35a.36.36,0,0,1,.15.31.39.39,0,0,1-.15.31l-2.19,1.64a.39.39,0,0,1-.46,0l-1.81-1.36a.37.37,0,0,1-.16-.31.4.4,0,0,1,.16-.31l2.2-1.63Zm-3.6,2.67-2.2,1.64a.36.36,0,0,0-.15.31.39.39,0,0,0,.15.31l1.82,1.37a.41.41,0,0,0,.47,0l2.19-1.65a.36.36,0,0,0,.15-.31.39.39,0,0,0-.15-.31l-1.82-1.36a.39.39,0,0,0-.46,0Zm-3.6,2.68a.38.38,0,0,1,.47,0l1.83,1.37a.39.39,0,0,1,.15.31.37.37,0,0,1-.15.31l-2.19,1.64a.38.38,0,0,1-.47,0l-1.84-1.38a.36.36,0,0,1-.15-.31.39.39,0,0,1,.15-.31l2.2-1.63Zm-3.6,2.67a.41.41,0,0,1,.47,0l1.84,1.39a.37.37,0,0,1,.16.31.4.4,0,0,1-.16.31l-2.19,1.64a.39.39,0,0,1-.46,0l-1.86-1.39a.39.39,0,0,1-.15-.31.35.35,0,0,1,.16-.31l2.19-1.64Zm-3.59,2.68-2.2,1.63a.4.4,0,0,0-.16.31.35.35,0,0,0,.16.31l1.87,1.41a.39.39,0,0,0,.46,0l2.19-1.65a.37.37,0,0,0,.16-.31.37.37,0,0,0-.16-.3l-1.86-1.4a.36.36,0,0,0-.46,0Zm-3.6,2.67a.39.39,0,0,1,.46,0l1.88,1.41a.39.39,0,0,1,.15.31.36.36,0,0,1-.15.31l-2.19,1.64a.36.36,0,0,1-.46,0l-1.89-1.41a.4.4,0,0,1-.16-.31.37.37,0,0,1,.16-.31l2.2-1.64ZM211,221.6l-2.2,1.63a.4.4,0,0,0-.16.31.37.37,0,0,0,.16.31l1.9,1.43a.38.38,0,0,0,.47,0l2.19-1.64a.39.39,0,0,0,.15-.31.37.37,0,0,0-.15-.31l-1.9-1.42a.36.36,0,0,0-.46,0Zm-3.6,2.67a.39.39,0,0,1,.46,0l1.92,1.44a.36.36,0,0,1,.15.31.36.36,0,0,1-.15.3L207.56,228a.41.41,0,0,1-.47,0l-1.92-1.44a.39.39,0,0,1-.15-.31.36.36,0,0,1,.15-.31l2.2-1.64Zm-3.6,2.68-2.2,1.63a.39.39,0,0,0-.15.31.36.36,0,0,0,.15.31l1.94,1.45a.36.36,0,0,0,.46,0l2.19-1.64a.37.37,0,0,0,.16-.31.4.4,0,0,0-.16-.31L204.24,227a.38.38,0,0,0-.47,0Zm-3.6,2.67a.41.41,0,0,1,.47,0l1.94,1.46a.38.38,0,0,1,0,.62l-2.19,1.64a.36.36,0,0,1-.46,0l-2-1.46a.39.39,0,0,1-.15-.31.35.35,0,0,1,.16-.31l2.19-1.64Zm-3.59,2.68-2.2,1.63a.38.38,0,0,0-.16.31.35.35,0,0,0,.16.31l2,1.48a.39.39,0,0,0,.46,0l2.19-1.64a.39.39,0,0,0,.15-.31.36.36,0,0,0-.15-.31l-2-1.47a.36.36,0,0,0-.46,0ZM193,235a.39.39,0,0,1,.46,0l2,1.48a.39.39,0,0,1,.15.31.36.36,0,0,1-.15.31l-2.19,1.65a.41.41,0,0,1-.47,0l-2-1.49a.4.4,0,0,1-.16-.31.37.37,0,0,1,.16-.31L193,235Zm-3.6,2.68L187,239.4a.36.36,0,0,0-.15.31.39.39,0,0,0,.15.31l2,1.5a.36.36,0,0,0,.46,0l2.35-1.76a.36.36,0,0,0,.16-.31.37.37,0,0,0-.16-.31l-2-1.49A.36.36,0,0,0,189.38,237.65Z"/><path class="cls-15" d="M248.12,211l-2.3-1.74-.85-.65L242.83,207a.39.39,0,0,0-.46,0L240,208.75a.4.4,0,0,0-.16.31.38.38,0,0,0,.16.31l2,1.47.44.33a.4.4,0,0,1,.16.31.37.37,0,0,1-.16.31l-.33.25-2.43,1.82a.4.4,0,0,0,0,.62l2.06,1.54a.39.39,0,0,0,.46,0l2.61-1.94.76-.56,2.58-1.93a.37.37,0,0,0,.16-.3.37.37,0,0,0-.16-.31ZM212,234.6l1.42-1.06.75-.56,2.83-2.13.75-.56,2.83-2.12,4.33-3.25,1.73-1.3.88-.65a.36.36,0,0,1,.46,0l2,1.49a.39.39,0,0,1,.15.31.36.36,0,0,1-.15.31l-.74.55-1.7,1.26-.75.56L224,229.57l-.76.55-2.84,2.12-.75.56-2.85,2.11-.75.56-1.43,1.06-1.19.89a.39.39,0,0,1-.46,0L211,236a.37.37,0,0,1-.16-.3.37.37,0,0,1,.16-.31l1-.76Zm26.26-19.7a.41.41,0,0,1,.47,0l2,1.54a.38.38,0,0,1,0,.62l-2.2,1.63a.36.36,0,0,1-.46,0l-2-1.52a.39.39,0,0,1-.15-.31.36.36,0,0,1,.15-.31l2.19-1.65Zm-3.58,2.69-2.19,1.64a.39.39,0,0,0-.15.31.36.36,0,0,0,.15.31l2,1.52a.39.39,0,0,0,.46,0l2.2-1.64a.37.37,0,0,0,.16-.31.4.4,0,0,0-.16-.31l-2-1.52a.39.39,0,0,0-.46,0Zm-3.58,2.69-2.19,1.64a.38.38,0,0,0,0,.62l2,1.5a.36.36,0,0,0,.46,0l2.2-1.63a.38.38,0,0,0,.16-.31.37.37,0,0,0-.15-.31l-2-1.51a.36.36,0,0,0-.46,0Zm-9.77,7.32,2.62,2-2.62-2Zm-11.72,8.8L207.42,238a.4.4,0,0,0-.16.31.37.37,0,0,0,.16.31l1.9,1.43a.36.36,0,0,0,.46,0l2.2-1.63a.37.37,0,0,0,.16-.31.36.36,0,0,0-.15-.31l-1.92-1.44a.39.39,0,0,0-.46,0ZM206,239.09a.38.38,0,0,1,.47,0l1.9,1.42a.39.39,0,0,1,.15.31.36.36,0,0,1-.15.31l-2.2,1.64a.41.41,0,0,1-.47,0l-1.89-1.42a.39.39,0,0,1-.15-.31.37.37,0,0,1,.15-.31l2.19-1.64Zm-3.58,2.68-2.19,1.65a.36.36,0,0,0-.15.31.39.39,0,0,0,.15.31l1.88,1.4a.36.36,0,0,0,.46,0l2.2-1.63a.39.39,0,0,0,.15-.31.36.36,0,0,0-.15-.31l-1.89-1.42a.39.39,0,0,0-.46,0Zm-3.58,2.69a.39.39,0,0,1,.46,0l1.87,1.4a.4.4,0,0,1,0,.62l-1.64,1.22c-.91.68-2.24-.21-3-.77l-.1-.07a.37.37,0,0,1-.15-.31.39.39,0,0,1,.15-.31l2.38-1.78Zm39.76-34.66a.36.36,0,0,1,.46,0l1.73,1.29a.39.39,0,0,1,.15.31.36.36,0,0,1-.15.31l-2.19,1.64a.38.38,0,0,1-.47,0l-1.72-1.29a.37.37,0,0,1-.16-.31.35.35,0,0,1,.16-.31l2.19-1.64ZM235,212.48l-2.19,1.65a.36.36,0,0,0-.15.3.36.36,0,0,0,.15.31l1.73,1.3a.38.38,0,0,0,.47,0l2.19-1.64a.39.39,0,0,0,.15-.31.37.37,0,0,0-.15-.31l-1.73-1.3a.41.41,0,0,0-.47,0Zm-3.58,2.69a.39.39,0,0,1,.46,0l1.73,1.3a.37.37,0,0,1,.16.31.4.4,0,0,1-.16.31l-2.19,1.64a.39.39,0,0,1-.46,0l-1.73-1.3a.36.36,0,0,1-.15-.31.39.39,0,0,1,.15-.31l2.19-1.64Zm-3.58,2.69a.36.36,0,0,1,.46,0l1.73,1.29a.4.4,0,0,1,.16.31.37.37,0,0,1-.16.31l-2.19,1.64a.36.36,0,0,1-.46,0l-1.73-1.29a.4.4,0,0,1-.16-.31.38.38,0,0,1,.16-.31l2.19-1.64Zm-3.58,2.68-2.19,1.65a.37.37,0,0,0-.16.31.37.37,0,0,0,.16.3l1.73,1.3a.36.36,0,0,0,.46,0l2.19-1.64a.4.4,0,0,0,0-.62l-1.73-1.3a.39.39,0,0,0-.46,0Zm-3.59,2.69-2.19,1.64a.39.39,0,0,0-.15.31.36.36,0,0,0,.15.31l1.73,1.3a.41.41,0,0,0,.47,0l2.19-1.64a.39.39,0,0,0,.15-.31.36.36,0,0,0-.15-.31l-1.73-1.3a.41.41,0,0,0-.47,0Zm-3.58,2.69-2.19,1.64a.4.4,0,0,0,0,.62l1.73,1.3a.41.41,0,0,0,.47,0l2.19-1.65a.36.36,0,0,0,.15-.31.36.36,0,0,0-.15-.3l-1.73-1.3a.38.38,0,0,0-.47,0Zm-3.58,2.69-2.19,1.64a.36.36,0,0,0-.15.31.39.39,0,0,0,.15.31l1.73,1.29a.36.36,0,0,0,.46,0l2.19-1.64a.37.37,0,0,0,.16-.31.4.4,0,0,0-.16-.31L214,228.61a.36.36,0,0,0-.46,0ZM210,231.29l-2.19,1.64a.4.4,0,0,0-.16.31.37.37,0,0,0,.16.31l1.73,1.3a.39.39,0,0,0,.46,0l2.19-1.64a.4.4,0,0,0,.16-.31.37.37,0,0,0-.16-.31l-1.73-1.3a.39.39,0,0,0-.46,0ZM206.38,234a.36.36,0,0,1,.46,0l1.73,1.3a.36.36,0,0,1,.15.31.36.36,0,0,1-.15.3l-2.19,1.65a.39.39,0,0,1-.46,0l-1.73-1.3a.38.38,0,0,1,0-.62l2.19-1.64Zm-3.59,2.69-2.19,1.64a.36.36,0,0,0-.15.31.39.39,0,0,0,.15.31l1.73,1.29a.38.38,0,0,0,.47,0l2.19-1.64a.36.36,0,0,0,.15-.31A.39.39,0,0,0,205,238l-1.73-1.29a.38.38,0,0,0-.47,0Zm-3.58,2.68a.41.41,0,0,1,.47,0l1.73,1.3a.37.37,0,0,1,.15.31.39.39,0,0,1-.15.31l-2.19,1.64a.38.38,0,0,1-.47,0l-1.73-1.3a.36.36,0,0,1-.15-.31.36.36,0,0,1,.15-.3l2.19-1.65ZM195.63,242l-2.36,1.77a.4.4,0,0,0-.16.31.36.36,0,0,0,.15.31l1.73,1.3a.36.36,0,0,0,.46,0l2.37-1.77a.4.4,0,0,0,.16-.31.37.37,0,0,0-.16-.31l-1.73-1.3a.39.39,0,0,0-.46,0Zm45.71-36.19a.39.39,0,0,1,.15.31.36.36,0,0,1-.15.31L239,208.25a.39.39,0,0,1-.46,0l-1.24-.93a.4.4,0,0,1,0-.62l2.37-1.77a.38.38,0,0,1,.47,0l1.23.92Zm-5.46,1.9-2.19,1.64a.36.36,0,0,0-.15.31.39.39,0,0,0,.15.31l1.24.92a.36.36,0,0,0,.46,0l2.19-1.64a.37.37,0,0,0,.15-.31.39.39,0,0,0-.15-.31l-1.24-.92a.36.36,0,0,0-.46,0Zm-3.58,2.68a.39.39,0,0,1,.46,0l1.24.93a.36.36,0,0,1,.15.31.39.39,0,0,1-.15.31l-2.19,1.64a.41.41,0,0,1-.47,0l-1.23-.93a.37.37,0,0,1-.16-.31.37.37,0,0,1,.16-.3l2.19-1.65Zm-3.58,2.69-2.19,1.64a.4.4,0,0,0-.16.31.38.38,0,0,0,.16.31l1.23.93a.41.41,0,0,0,.47,0l2.18-1.65a.35.35,0,0,0,.16-.31.34.34,0,0,0-.16-.3l-1.23-.93a.36.36,0,0,0-.46,0Zm-3.59,2.69-2.19,1.64a.36.36,0,0,0-.15.31.39.39,0,0,0,.15.31l1.24.92a.36.36,0,0,0,.46,0l2.19-1.64A.37.37,0,0,0,227,217a.4.4,0,0,0-.16-.31l-1.23-.92a.38.38,0,0,0-.47,0Zm-3.58,2.68a.41.41,0,0,1,.47,0l1.23.93a.37.37,0,0,1,.16.31.4.4,0,0,1-.16.31l-2.19,1.64a.39.39,0,0,1-.46,0l-1.24-.93a.36.36,0,0,1-.15-.3.36.36,0,0,1,.15-.31l2.19-1.65ZM218,221.18l-2.19,1.64a.39.39,0,0,0-.15.31.36.36,0,0,0,.15.31l1.24.93a.39.39,0,0,0,.46,0l2.19-1.65a.36.36,0,0,0,.15-.3.36.36,0,0,0-.15-.31l-1.24-.93a.39.39,0,0,0-.46,0Zm-3.58,2.69-2.19,1.64a.38.38,0,0,0-.16.31.4.4,0,0,0,.16.31l1.23.92a.38.38,0,0,0,.47,0l2.19-1.64a.36.36,0,0,0,.15-.31.39.39,0,0,0-.15-.31l-1.24-.92a.36.36,0,0,0-.46,0Zm-3.58,2.68-2.19,1.65a.37.37,0,0,0-.16.31.37.37,0,0,0,.16.3l1.23.93a.38.38,0,0,0,.47,0l2.18-1.64a.37.37,0,0,0,.16-.31.36.36,0,0,0-.16-.31l-1.23-.93a.39.39,0,0,0-.46,0Zm-3.59,2.69a.41.41,0,0,1,.47,0l1.23.93a.37.37,0,0,1,.16.31.4.4,0,0,1-.16.31l-2.19,1.64a.39.39,0,0,1-.46,0L205,231.5a.36.36,0,0,1-.15-.31.39.39,0,0,1,.15-.31l2.19-1.64Zm-3.58,2.69-2.19,1.64a.4.4,0,0,0,0,.62l1.24.93a.39.39,0,0,0,.46,0l2.19-1.65a.37.37,0,0,0,.16-.31.4.4,0,0,0-.16-.31l-1.23-.92a.38.38,0,0,0-.47,0Zm-3.58,2.69a.36.36,0,0,1,.46,0l1.24.92a.4.4,0,0,1,0,.62l-2.19,1.64a.36.36,0,0,1-.46,0l-1.24-.92a.39.39,0,0,1-.15-.31.36.36,0,0,1,.15-.31l2.19-1.64Zm-3.58,2.68L194.29,239a.37.37,0,0,0-.16.3.37.37,0,0,0,.16.31l1.23.93a.41.41,0,0,0,.47,0l2.19-1.64a.39.39,0,0,0,.15-.31.36.36,0,0,0-.15-.31l-1.24-.93a.39.39,0,0,0-.46,0ZM192.9,240a.36.36,0,0,1,.46,0l1.23.93a.37.37,0,0,1,.16.3.37.37,0,0,1-.16.31l-2.36,1.77a.36.36,0,0,1-.46,0l-1.23-.93a.36.36,0,0,1-.15-.31.36.36,0,0,1,.15-.3L192.9,240Zm45.71-36.19,0,0c-.73-.55-2.06-1.44-3-.76L234,204.23a.39.39,0,0,0-.15.31.36.36,0,0,0,.15.31l1.79,1.34a.38.38,0,0,0,.47,0l2.37-1.77a.39.39,0,0,0,.15-.31.36.36,0,0,0-.15-.31Zm-6,1.47a.39.39,0,0,1,.46,0l1.79,1.35a.38.38,0,0,1,0,.62l-2.18,1.64a.38.38,0,0,1-.47,0l-1.81-1.35a.39.39,0,0,1-.15-.31.35.35,0,0,1,.16-.31l2.2-1.64ZM229,208l-2.2,1.63a.38.38,0,0,0-.16.31.35.35,0,0,0,.16.31l1.82,1.37a.39.39,0,0,0,.46,0l2.19-1.64a.4.4,0,0,0,.16-.31.37.37,0,0,0-.16-.31L229.45,208a.36.36,0,0,0-.46,0Zm-3.6,2.67a.39.39,0,0,1,.46,0l1.83,1.37a.4.4,0,0,1,.16.31.37.37,0,0,1-.16.31l-2.19,1.65a.39.39,0,0,1-.46,0l-1.84-1.38a.4.4,0,0,1-.16-.31.37.37,0,0,1,.16-.31l2.2-1.64Zm-3.6,2.68a.36.36,0,0,1,.46,0l1.85,1.38a.39.39,0,0,1,.15.31.37.37,0,0,1-.15.31l-2.19,1.64a.36.36,0,0,1-.46,0l-1.86-1.39a.38.38,0,0,1,0-.62l2.2-1.63Zm-3.6,2.67-2.2,1.64a.36.36,0,0,0-.15.31.39.39,0,0,0,.15.31l1.87,1.4a.41.41,0,0,0,.47,0l2.19-1.64a.39.39,0,0,0,.15-.31.36.36,0,0,0-.15-.31l-1.87-1.4a.39.39,0,0,0-.46,0Zm-3.6,2.68a.38.38,0,0,1,.47,0l1.87,1.41a.37.37,0,0,1,.16.31.37.37,0,0,1-.16.3l-2.19,1.65a.39.39,0,0,1-.46,0l-1.89-1.42a.4.4,0,0,1,0-.62l2.2-1.63ZM211,221.32,208.8,223a.34.34,0,0,0-.16.3.36.36,0,0,0,.15.31L210.7,225a.36.36,0,0,0,.46,0l2.19-1.64a.37.37,0,0,0,.16-.31.4.4,0,0,0-.16-.31l-1.89-1.42a.39.39,0,0,0-.46,0ZM207.4,224a.36.36,0,0,1,.46,0l1.91,1.43a.38.38,0,0,1,.16.31.4.4,0,0,1-.16.31l-2.19,1.64a.36.36,0,0,1-.46,0l-1.92-1.44a.38.38,0,0,1,0-.62l2.2-1.63Zm-3.6,2.67-2.2,1.64a.37.37,0,0,0-.16.3.37.37,0,0,0,.16.31l1.94,1.46a.39.39,0,0,0,.46,0l2.19-1.64a.39.39,0,0,0,.15-.31.36.36,0,0,0-.15-.31l-1.93-1.45a.39.39,0,0,0-.46,0Zm-3.6,2.68a.36.36,0,0,1,.46,0l2,1.45a.39.39,0,0,1,.15.31.36.36,0,0,1-.15.31l-2.19,1.64a.38.38,0,0,1-.47,0L198,231.6a.38.38,0,0,1,0-.62l2.2-1.63ZM196.6,232l-2.2,1.63a.39.39,0,0,0-.15.31.36.36,0,0,0,.15.31l2,1.48a.36.36,0,0,0,.46,0l2.19-1.64a.38.38,0,0,0,0-.62l-2-1.47a.39.39,0,0,0-.46,0Zm-3.6,2.67a.39.39,0,0,1,.47,0l2,1.48a.37.37,0,0,1,.16.31.4.4,0,0,1-.16.31l-2.19,1.64a.39.39,0,0,1-.46,0l-2-1.49a.39.39,0,0,1-.15-.31.36.36,0,0,1,.15-.31l2.2-1.64Zm-3.59,2.68-2.36,1.75a.38.38,0,0,0-.16.31.4.4,0,0,0,.16.31l2,1.51a.41.41,0,0,0,.47,0l2.35-1.77a.36.36,0,0,0,.15-.31.39.39,0,0,0-.15-.31l-2-1.49A.39.39,0,0,0,189.41,237.37Z"/><path class="cls-16" d="M228,233.58c8.56-6.36,28.53,7.6,19.25,14.09l-4.16,2.91c-1.87,1.31-4,.5-5.83-.88L228.35,243C222.94,238.91,223.75,236.73,228,233.58Z"/><path class="cls-17" d="M224.56,237.82c3.36-.75,7.13.18,10.19,1.6a21,21,0,0,1,6.73,4.86A9,9,0,0,1,244,249.9l-1,.68c-1.87,1.31-4,.5-5.83-.88L228.35,243C225.58,240.89,224.44,239.3,224.56,237.82Z"/><path class="cls-12" d="M243.26,250.45l-.19.13c-1.87,1.31-4,.5-5.83-.88L228.35,243c-2.31-1.75-3.48-3.14-3.74-4.42C232.33,236.75,244,244.42,243.26,250.45Z"/><path class="cls-18" d="M156.82,225.72l83.55-55.45c.49-.33,2-1.45,2-2.13l.79-65.15-82.88,42.57c-.62.32-1.61,1.21-1.63,2Z"/><path class="cls-12" d="M170.87,215.91l33.67-24.8c1.61-1.19,3.5-.43,5.1.78l11,8.31c1.6,1.21.84,3.92-.77,5.11l-33.67,24.8c-1.62,1.19-3.5.43-5.1-.78l-11-8.31C168.5,219.81,169.26,217.1,170.87,215.91Z"/><path class="cls-13" d="M220.16,200.58a4,4,0,0,1-1.56,3.66l-32.8,24.15c-1.57,1.16-3.41.43-5-.75l-10.73-8.1a2.38,2.38,0,0,1-.81-2.42,2.11,2.11,0,0,0,.81,1.31l10.73,8.1c1.56,1.18,3.4,1.92,5,.76l32.8-24.16A4.19,4.19,0,0,0,220.16,200.58Z"/><path class="cls-19" d="M195.24,201.86c-4,1.36-7.52,4.74-7.84,7.55s2.65,4,6.65,2.63,7.52-4.73,7.85-7.54S199.24,200.5,195.24,201.86Z"/><polygon class="cls-12" points="154.59 230.09 149.18 226.54 148.93 226.36 148.69 226.13 148.48 225.88 148.3 225.6 148.14 225.28 148.02 224.95 147.93 224.6 147.87 224.23 147.86 223.85 149.61 148.03 149.62 147.84 149.64 147.65 149.66 147.46 149.7 147.27 149.74 147.08 149.79 146.9 149.85 146.72 149.92 146.53 149.99 146.36 150.07 146.18 150.15 146.01 150.25 145.84 150.34 145.67 150.45 145.5 150.56 145.34 150.67 145.19 150.79 145.03 150.92 144.88 151.04 144.73 151.18 144.59 151.31 144.45 151.45 144.31 151.6 144.18 151.75 144.05 151.9 143.93 152.05 143.81 152.2 143.7 152.36 143.59 152.52 143.49 152.68 143.39 152.84 143.3 153 143.21 233.32 101.95 233.65 101.81 243.5 98.8 243.16 98.94 158.61 142.38 158.44 142.47 158.27 142.57 158.1 142.67 157.93 142.78 157.77 142.89 157.61 143.01 157.45 143.13 157.29 143.26 157.13 143.4 156.98 143.53 156.83 143.68 156.69 143.82 156.55 143.98 156.41 144.13 156.28 144.29 156.16 144.45 156.04 144.62 155.92 144.79 155.81 144.96 155.71 145.14 155.61 145.32 155.52 145.5 155.44 145.69 155.36 145.87 155.29 146.06 155.23 146.26 155.18 146.45 155.13 146.65 155.1 146.84 155.07 147.04 155.05 147.24 155.04 147.45 153.2 227.26 153.21 227.66 153.27 228.05 153.36 228.42 153.49 228.77 153.66 229.1 153.85 229.4 154.07 229.66 154.32 229.9 154.59 230.09"/><path class="cls-17" d="M158.61,142.38,243.16,99c1.83-1,3.6.63,3.57,2.79l-.81,66.44c0,2.16-1.85,3.93-3.57,5.07l-85.58,56.81c-1.72,1.13-3.62-.64-3.57-2.8L155,147.45A6.33,6.33,0,0,1,158.61,142.38Z"/><path class="cls-20" d="M156.82,225.72l83.55-55.45c.49-.33,2-1.45,2-2.13l.79-65.15-82.88,42.57c-.62.32-1.61,1.21-1.63,2Z"/><path class="cls-21" d="M166.38,172.8c3.85-2.16,7.63-4.31,11.36-6.41l11-6.17c3.49-2,6.92-3.91,10.3-5.8l9.94-5.61c.4-.23.74-.12.74.22h0a1.37,1.37,0,0,1-.71,1.05L199,155.73l-10.3,5.84-11,6.21-11.37,6.44c-.48.27-.87.18-.88-.21h0a1.69,1.69,0,0,1,.87-1.21Zm44.4-25,3.28-1.85c.4-.22.71-.12.72.23h0a1.33,1.33,0,0,1-.69,1l-3.29,1.86c-.4.22-.72.12-.73-.23h0a1.35,1.35,0,0,1,.71-1Zm5.48-3.09.4-.23c.37-.2.7-.1.71.24h0a1.37,1.37,0,0,1-.69,1l-.39.22c-.38.22-.7.11-.71-.23h0a1.33,1.33,0,0,1,.68-1Zm2.35-1.32.37-.22c.38-.21.7-.11.71.24h0a1.34,1.34,0,0,1-.68,1l-.38.22c-.38.23-.7.12-.71-.23h0a1.32,1.32,0,0,1,.69-1ZM221,142l2.42-1.37c.37-.2.68-.09.69.24h0a1.31,1.31,0,0,1-.66,1l-2.43,1.37c-.37.21-.68.1-.69-.24h0a1.31,1.31,0,0,1,.67-1Zm5.17-2.91Q231.73,136,237,133c.35-.19.64-.08.64.23h0a1.2,1.2,0,0,1-.6.95l-10.84,6.15c-.37.21-.69.11-.69-.23h0a1.28,1.28,0,0,1,.66-1Zm-59.82,36.32a1.65,1.65,0,0,0-.86,1.21h0c0,.39.39.48.87.21l13.14-7.51c4.19-2.41,8.33-4.79,12.38-7.1a1.49,1.49,0,0,0,.78-1.12h0c0-.36-.35-.48-.8-.22l-12.38,7.05-13.13,7.48Zm27.48-15.65a1.48,1.48,0,0,0-.75,1.1h0c0,.38.36.47.78.23l3.58-2.05a1.5,1.5,0,0,0,.75-1.1h0c0-.36-.36-.46-.77-.22l-3.59,2Zm6-3.4a1.47,1.47,0,0,0-.74,1.09h0c0,.36.35.46.77.23l.41-.25a1.41,1.41,0,0,0,.75-1.08h0c0-.36-.35-.47-.76-.23l-.43.24Zm2.54-1.43a1.42,1.42,0,0,0-.74,1.07h0c0,.35.36.45.76.23l2.43-1.39a1.46,1.46,0,0,0,.72-1.07h0c0-.36-.34-.46-.75-.23l-2.42,1.39Zm4.63-2.65a1.44,1.44,0,0,0-.73,1.07h0c0,.36.34.45.74.22,2-1.17,4.06-2.31,6.05-3.46a1.39,1.39,0,0,0,.7-1h0c0-.35-.34-.45-.73-.23l-6,3.44Zm8.93-5.08a1.35,1.35,0,0,0-.68,1h0c0,.34.32.45.71.23l6.37-3.65a1.29,1.29,0,0,0,.66-1h0c0-.34-.32-.44-.69-.23l-6.37,3.63ZM166.41,178a1.71,1.71,0,0,0-.86,1.21h0c0,.4.39.5.87.22l15.64-9.05a1.56,1.56,0,0,0,.82-1.16h0c0-.38-.38-.47-.83-.21l-15.64,9Zm17.7-10.17a1.62,1.62,0,0,0-.81,1.14h0c0,.38.39.47.83.21l13.39-7.73a1.48,1.48,0,0,0,.74-1.1h0c0-.37-.35-.46-.77-.22l-13.38,7.7Zm15.77-9.07a1.48,1.48,0,0,0-.76,1.1h0c0,.36.37.45.78.21l1.43-.83a1.45,1.45,0,0,0,.74-1.09h0c0-.36-.35-.45-.76-.22l-1.43.83Zm3.53-2a1.45,1.45,0,0,0-.73,1.08h0c0,.36.34.47.76.23l1.42-.84a1.47,1.47,0,0,0,.72-1.07h0c0-.35-.35-.46-.75-.22l-1.42.82Zm3.62-2.09a1.4,1.4,0,0,0-.71,1.07h0c0,.36.33.46.74.22l6.05-3.49a1.41,1.41,0,0,0,.7-1.05h0c0-.35-.35-.45-.73-.23-2,1.15-4,2.32-6.05,3.48Zm8.95-5.13a1.35,1.35,0,0,0-.68,1h0c0,.35.32.46.71.23l16-9.24a1.25,1.25,0,0,0,.63-1h0c0-.33-.3-.45-.66-.24l-16,9.2Zm-49.39,50.91L178,193.27l11-6.9,10.37-6.47c3.38-2.1,6.72-4.2,10-6.25a1.49,1.49,0,0,0,.72-1.1h0c0-.36-.34-.45-.74-.2-3.29,2-6.63,4.12-10,6.22S192.55,182.83,189,185l-11,6.87L166.58,199a1.81,1.81,0,0,0-.87,1.27h0c0,.39.4.47.88.18Zm44.63-30.27,3.3-2.05a1.48,1.48,0,0,0,.7-1.07h0c0-.36-.34-.45-.73-.21l-3.29,2a1.48,1.48,0,0,0-.72,1.09h0c0,.35.34.44.74.2Zm5.46-5.74.38-.23a1.43,1.43,0,0,0,.69-1.07h0c0-.35-.32-.44-.71-.2l-.38.23a1.42,1.42,0,0,0-.69,1.07h0c0,.34.32.44.71.2Zm2.3-3.74.38-.23a1.47,1.47,0,0,0,.69-1.06h0c0-.34-.33-.43-.71-.2l-.39.23a1.4,1.4,0,0,0-.68,1h0c0,.36.32.45.71.22Zm2.39-3.78,2.43-1.46a1.35,1.35,0,0,0,.66-1h0c0-.34-.32-.44-.69-.22l-2.43,1.45a1.35,1.35,0,0,0-.66,1h0c0,.34.31.44.69.21Zm5.14-5.36c-.37.22-.69.12-.7-.22h0a1.36,1.36,0,0,1,.67-1q5.51-3.28,10.85-6.44c.35-.2.65-.1.66.23h0a1.27,1.27,0,0,1-.63,1l-10.85,6.47Zm-60,33.13,13.15-7.76L192,169.57a1.53,1.53,0,0,0,.78-1.13h0c0-.37-.36-.46-.79-.21q-6.09,3.59-12.42,7.28l-13.14,7.72a1.69,1.69,0,0,0-.87,1.22h0c0,.4.4.49.88.21ZM194,168.41l3.59-2.11a1.48,1.48,0,0,0,.75-1.11h0c0-.37-.35-.46-.76-.22L194,167.08a1.51,1.51,0,0,0-.77,1.12h0c0,.37.36.46.78.21Zm6-3.52.43-.25a1.53,1.53,0,0,0,.74-1.1h0c0-.36-.35-.46-.77-.22l-.41.25a1.48,1.48,0,0,0-.75,1.11h0c0,.37.36.46.76.21Zm2.54-1.5,2.43-1.43a1.49,1.49,0,0,0,.73-1.08h0c0-.36-.35-.45-.75-.22-.81.48-1.62,1-2.43,1.42a1.51,1.51,0,0,0-.74,1.1h0c0,.36.36.45.76.21Zm4.63-2.73,6.06-3.57a1.43,1.43,0,0,0,.7-1.06h0c0-.35-.34-.45-.73-.22l-6,3.56a1.43,1.43,0,0,0-.72,1.07h0c0,.36.35.45.74.22Zm9-5.28c-.38.22-.71.13-.72-.22h0a1.46,1.46,0,0,1,.69-1l6.38-3.73c.38-.22.69-.13.7.22h0a1.38,1.38,0,0,1-.66,1c-2.1,1.24-4.23,2.51-6.39,3.77Zm-49.65,26.67,15.65-9.14a1.6,1.6,0,0,0,.81-1.17h0c0-.39-.38-.48-.83-.22l-15.65,9.1a1.75,1.75,0,0,0-.87,1.22h0c0,.4.41.49.89.21Zm17.71-10.35,13.4-7.83a1.52,1.52,0,0,0,.75-1.1h0c0-.37-.37-.46-.77-.22l-13.4,7.77a1.58,1.58,0,0,0-.8,1.17h0c0,.38.39.47.82.21Zm15.78-9.22,1.43-.83a1.5,1.5,0,0,0,.74-1.1h0c0-.36-.35-.45-.76-.22l-1.44.84a1.49,1.49,0,0,0-.74,1.1h0c0,.35.35.45.77.21Zm3.54-2.06,7.44-4.36a1.41,1.41,0,0,0,.71-1.05h0c0-.35-.33-.45-.74-.22l-7.44,4.32a1.45,1.45,0,0,0-.73,1.09h0c0,.36.34.46.76.22Zm9.58-5.6c-.39.22-.71.13-.72-.22h0a1.37,1.37,0,0,1,.7-1.06l5.86-3.4c.39-.23.71-.13.72.22h0a1.38,1.38,0,0,1-.68,1l-5.88,3.44Zm8.7-5.08c-.39.22-.69.12-.7-.22h0a1.36,1.36,0,0,1,.66-1l5.22-3c.37-.22.66-.12.67.22h0a1.29,1.29,0,0,1-.64,1l-5.21,3Zm-55.5,7.54a1.56,1.56,0,0,0-.86,1.16h0c0,.39.39.5.87.25l11.33-6c3.69-2,7.33-3.92,10.92-5.83l10.27-5.46,9.92-5.29a1.33,1.33,0,0,0,.72-1h0c0-.35-.35-.45-.74-.24l-9.91,5.24-10.27,5.42c-3.58,1.89-7.23,3.84-10.93,5.79l-11.32,6Zm44.24-23.42,3.28-1.74c.39-.21.71-.09.71.26h0a1.24,1.24,0,0,1-.67,1l-3.29,1.75c-.39.21-.73.09-.73-.25h0a1.29,1.29,0,0,1,.7-1ZM216,131l.38-.2c.38-.2.7-.09.71.25h0a1.32,1.32,0,0,1-.68,1l-.39.21c-.38.2-.7.09-.71-.26h0a1.26,1.26,0,0,1,.69-1Zm2.33-1.23.37-.21c.38-.19.7-.08.7.26h0a1.27,1.27,0,0,1-.67,1l-.38.21c-.38.2-.69.09-.7-.26h0a1.26,1.26,0,0,1,.68-1Zm2.42-1.29c.82-.43,1.62-.85,2.41-1.28.37-.19.69-.07.69.26h0a1.22,1.22,0,0,1-.65,1l-2.42,1.29c-.37.2-.68.08-.68-.26h0a1.22,1.22,0,0,1,.65-1Zm5.15-2.72c3.68-1.94,7.28-3.84,10.82-5.73.35-.18.63-.07.64.26h0a1.2,1.2,0,0,1-.61.93l-10.82,5.75c-.36.19-.68.08-.68-.24h0a1.22,1.22,0,0,1,.65-1Zm-59.61,34.13a1.6,1.6,0,0,0-.86,1.17h0c0,.39.4.5.87.25l13.08-7,12.35-6.65a1.46,1.46,0,0,0,.78-1.08h0c0-.37-.36-.48-.8-.25-4,2.17-8.16,4.38-12.34,6.61l-13.08,7Zm27.4-14.65,3.55-1.9c.43-.22.78-.12.78.24h0a1.41,1.41,0,0,1-.75,1.07l-3.56,1.9c-.43.23-.78.12-.79-.23h0a1.42,1.42,0,0,1,.77-1.08ZM199.6,142l.42-.21c.42-.22.75-.11.76.24h0a1.37,1.37,0,0,1-.74,1l-.43.23c-.41.22-.75.11-.76-.24h0a1.38,1.38,0,0,1,.75-1.07Zm2.53-1.35,2.41-1.28c.39-.22.74-.11.75.24h0a1.38,1.38,0,0,1-.73,1L202.15,142c-.41.22-.76.12-.76-.23h0a1.36,1.36,0,0,1,.74-1.06Zm4.61-2.46,6-3.22c.39-.21.71-.1.72.25h0a1.36,1.36,0,0,1-.69,1l-6,3.24c-.41.22-.74.1-.75-.26h0a1.34,1.34,0,0,1,.73-1Zm8.9-4.75a1.26,1.26,0,0,0-.68,1h0c0,.34.32.45.71.25l6.35-3.42a1.25,1.25,0,0,0,.66-1h0c0-.34-.32-.45-.69-.26l-6.35,3.42Zm-49.34,29a1.56,1.56,0,0,0-.86,1.18h0c0,.4.38.5.87.24l15.58-8.47a1.51,1.51,0,0,0,.8-1.13h0c0-.38-.37-.49-.82-.24l-15.57,8.42Zm17.63-9.53a1.5,1.5,0,0,0-.81,1.12h0c0,.37.38.47.82.23L197.29,147a1.42,1.42,0,0,0,.75-1.08h0c0-.36-.36-.47-.78-.24l-13.33,7.21Zm15.7-8.49,1.44-.77c.41-.22.75-.11.75.24h0a1.37,1.37,0,0,1-.73,1.06l-1.44.77c-.41.23-.75.12-.76-.25h0a1.43,1.43,0,0,1,.74-1.05Zm3.54-1.9,1.41-.78c.4-.21.74-.09.74.26h0a1.34,1.34,0,0,1-.72,1l-1.41.76c-.41.23-.74.12-.75-.24h0a1.33,1.33,0,0,1,.73-1Zm3.61-2q3-1.62,6-3.25c.38-.21.71-.1.71.24h0a1.31,1.31,0,0,1-.69,1l-6,3.28c-.42.22-.75.11-.76-.24h0a1.37,1.37,0,0,1,.73-1.05Zm8.91-4.81a1.31,1.31,0,0,0-.69,1h0c0,.34.33.45.71.24l16-8.67a1.24,1.24,0,0,0,.62-.94h0c0-.33-.31-.44-.66-.25l-15.94,8.61Zm-49.32,35.9,18.2-10.21q8.63-4.83,16.82-9.45a1.39,1.39,0,0,0,.73-1.06h0c0-.36-.34-.46-.75-.24l-16.81,9.39-18.21,10.15a1.67,1.67,0,0,0-.86,1.19h0c0,.4.4.5.88.23Zm37.6-21.1,7.86-4.41a1.38,1.38,0,0,0,.7-1h0c0-.36-.33-.46-.72-.24L204,149.24a1.4,1.4,0,0,0-.73,1.06h0c0,.36.35.45.75.23Zm9.86-5.53.38-.22a1.31,1.31,0,0,0,.7-1h0c0-.35-.33-.46-.72-.24l-.39.22a1.31,1.31,0,0,0-.69,1h0c0,.35.33.46.72.24Zm2.49-1.39,2.48-1.4a1.31,1.31,0,0,0,.67-1h0c0-.34-.32-.45-.7-.24l-2.47,1.39a1.29,1.29,0,0,0-.69,1h0c0,.34.33.45.71.24Zm-50,25.42,13.1-7.27c4.2-2.32,8.33-4.63,12.37-6.87a1.51,1.51,0,0,0,.78-1.11h0c0-.37-.36-.46-.8-.22l-12.37,6.83-13.1,7.22a1.65,1.65,0,0,0-.86,1.19h0c0,.39.4.5.88.23Zm27.45-15.24,3.56-2a1.45,1.45,0,0,0,.75-1.09h0c0-.36-.35-.46-.77-.23l-3.57,2a1.47,1.47,0,0,0-.76,1.09h0c0,.37.36.47.79.24Zm5.94-3.29.42-.24a1.44,1.44,0,0,0,.74-1.07h0c0-.35-.34-.47-.77-.24l-.41.24a1.38,1.38,0,0,0-.75,1.06h0c0,.36.36.47.77.25Zm2.53-1.41c.81-.44,1.61-.89,2.41-1.35a1.37,1.37,0,0,0,.73-1.05h0c0-.36-.35-.46-.75-.24l-2.41,1.34a1.41,1.41,0,0,0-.74,1.06h0c0,.37.35.47.76.24Zm4.62-2.57c2-1.13,4-2.25,6-3.35a1.36,1.36,0,0,0,.7-1h0c0-.34-.33-.44-.72-.23-2,1.11-4,2.21-6,3.32a1.34,1.34,0,0,0-.72,1h0c0,.36.33.48.74.25Zm8.93-5,6.35-3.54a1.26,1.26,0,0,0,.66-1h0c0-.34-.31-.45-.68-.24-2.1,1.15-4.22,2.33-6.37,3.52a1.29,1.29,0,0,0-.67,1h0c0,.34.32.46.71.24Zm-49.5,24.87c5.32-2.93,10.52-5.77,15.59-8.57a1.5,1.5,0,0,0,.81-1.13h0c0-.37-.37-.48-.82-.23-5.08,2.76-10.27,5.62-15.59,8.51a1.61,1.61,0,0,0-.86,1.18h0c0,.39.4.5.87.24ZM184,156.73c4.54-2.5,9-4.92,13.36-7.32a1.47,1.47,0,0,0,.75-1.08h0c0-.36-.35-.46-.78-.23L184,155.39a1.53,1.53,0,0,0-.81,1.11h0c0,.38.38.47.82.23Zm15.73-8.62c-.42.22-.77.11-.77-.25h0a1.4,1.4,0,0,1,.75-1.06l1.43-.78c.41-.22.75-.12.76.24h0a1.43,1.43,0,0,1-.74,1.05l-1.43.8Zm3.53-2,7.41-4.07a1.37,1.37,0,0,0,.71-1h0c0-.34-.33-.46-.73-.24l-7.41,4.05a1.38,1.38,0,0,0-.73,1.06h0c0,.35.34.46.75.24Zm9.55-5.26c-.38.21-.71.12-.72-.24h0a1.32,1.32,0,0,1,.7-1c2-1.07,3.91-2.14,5.85-3.21.38-.2.7-.09.7.25h0a1.29,1.29,0,0,1-.67,1l-5.86,3.21Zm8.67-4.75c1.73-1,3.47-1.92,5.2-2.86a1.22,1.22,0,0,0,.65-1h0c0-.33-.31-.44-.68-.24-1.73.93-3.47,1.89-5.2,2.84a1.3,1.3,0,0,0-.67,1h0C220.76,136.24,221.07,136.35,221.45,136.15Z"/><path class="cls-22" d="M158.51,223.37l81.29-54a8.14,8.14,0,0,0,1.26-1c.15-.16.25-.2.25-.23l.77-62.81a.37.37,0,0,0-.19-.33.37.37,0,0,0-.38,0l-80.79,41.51a2.81,2.81,0,0,0-.84.69,1,1,0,0,0-.23.38L157.91,223a.39.39,0,0,0,.6.33Zm82.43-52.25-84.58,56.14a.38.38,0,0,1-.4,0,.39.39,0,0,1-.2-.35l1.84-79.42a2.71,2.71,0,0,1,.7-1.65,5.16,5.16,0,0,1,1.48-1.21l83.83-43.06a.38.38,0,0,1,.56.35l-.8,66.21a2.58,2.58,0,0,1-.8,1.6A10.47,10.47,0,0,1,240.94,171.12Z"/><polygon class="cls-23" points="338.97 58.09 335.46 57.09 252.58 99.66 256.09 100.67 338.97 58.09"/><polygon class="cls-24" points="256.09 100.67 252.58 99.66 252.46 99.73 252.33 99.81 252.2 99.9 252.06 100 251.93 100.11 251.79 100.22 251.66 100.35 251.54 100.48 251.42 100.61 251.31 100.75 251.21 100.9 251.13 101.04 251.06 101.19 251 101.34 250.97 101.48 250.95 101.63 254.47 102.64 254.48 102.49 254.51 102.34 254.57 102.2 254.64 102.05 254.73 101.91 254.82 101.76 254.93 101.62 255.05 101.48 255.18 101.36 255.31 101.23 255.44 101.11 255.58 101 255.71 100.9 255.84 100.81 255.97 100.74 256.09 100.67"/><polygon class="cls-24" points="254.47 102.64 250.95 101.63 249.15 179.82 252.66 180.83 254.47 102.64"/><path class="cls-25" d="M252.66,180.83l83.55-55.46c.49-.32,2-1.45,2-2.13L339,58.09l-82.88,42.58c-.62.32-1.61,1.2-1.62,2Z"/><polygon class="cls-23" points="363.34 9.51 359.82 8.5 276.94 51.08 280.46 52.08 363.34 9.51"/><polygon class="cls-24" points="280.46 52.08 276.94 51.08 276.82 51.14 276.69 51.22 276.56 51.31 276.43 51.41 276.29 51.52 276.16 51.64 276.03 51.76 275.9 51.89 275.79 52.03 275.68 52.17 275.58 52.31 275.49 52.46 275.42 52.6 275.37 52.75 275.33 52.9 275.32 53.04 278.83 54.05 278.85 53.9 278.88 53.76 278.93 53.61 279 53.46 279.09 53.32 279.19 53.17 279.3 53.03 279.42 52.9 279.54 52.77 279.68 52.64 279.81 52.53 279.94 52.42 280.08 52.32 280.21 52.23 280.34 52.15 280.46 52.08"/><polygon class="cls-24" points="278.83 54.05 275.32 53.04 273.51 131.24 277.02 132.24 278.83 54.05"/><path class="cls-25" d="M277,132.24l83.56-55.45c.49-.33,2-1.45,2-2.13l.79-65.15L280.46,52.08c-.62.32-1.61,1.2-1.63,2Z"/><polygon class="cls-23" points="180.15 25.56 176.63 24.55 93.75 67.13 97.26 68.14 180.15 25.56"/><polygon class="cls-24" points="97.26 68.14 93.75 67.13 93.63 67.19 93.5 67.27 93.37 67.36 93.23 67.46 93.1 67.57 92.97 67.69 92.84 67.81 92.71 67.94 92.59 68.08 92.48 68.22 92.38 68.36 92.3 68.51 92.23 68.66 92.17 68.8 92.14 68.95 92.12 69.09 95.64 70.1 95.65 69.96 95.69 69.81 95.74 69.66 95.81 69.52 95.9 69.37 96 69.23 96.11 69.09 96.22 68.95 96.35 68.82 96.48 68.7 96.61 68.58 96.75 68.47 96.88 68.37 97.02 68.28 97.14 68.2 97.26 68.14"/><polygon class="cls-24" points="95.64 70.1 92.12 69.09 90.32 147.29 93.83 148.29 95.64 70.1"/><path class="cls-25" d="M93.83,148.29l83.55-55.45c.49-.33,2-1.45,2-2.13l.8-65.15L97.26,68.14c-.62.31-1.61,1.2-1.62,2Z"/><polygon class="cls-23" points="129.32 81.95 125.81 80.95 42.93 123.52 46.44 124.53 129.32 81.95"/><polygon class="cls-24" points="46.44 124.53 42.93 123.52 42.81 123.59 42.68 123.67 42.55 123.76 42.41 123.86 42.28 123.97 42.15 124.08 42.02 124.21 41.89 124.34 41.77 124.47 41.66 124.61 41.56 124.76 41.48 124.9 41.41 125.05 41.35 125.2 41.32 125.34 41.3 125.49 44.82 126.5 44.83 126.35 44.87 126.2 44.92 126.06 44.99 125.91 45.08 125.76 45.17 125.62 45.28 125.48 45.4 125.34 45.53 125.21 45.66 125.09 45.79 124.97 45.93 124.86 46.06 124.76 46.2 124.67 46.32 124.6 46.44 124.53"/><polygon class="cls-24" points="44.82 126.5 41.3 125.49 39.5 203.68 43.01 204.69 44.82 126.5"/><path class="cls-25" d="M43,204.69l83.55-55.46c.49-.32,2-1.45,2-2.13L129.32,82,46.44,124.53c-.62.32-1.61,1.2-1.62,2Z"/><path class="cls-26" d="M219.13,130.42a4.12,4.12,0,1,0,6.38,1.31l79.07-67.79a9.18,9.18,0,1,0-1.32-1.58l-79.09,67.81a4.12,4.12,0,0,0-5,.25Zm87-67.83,2.51-2.15a4.11,4.11,0,1,0-1.34-1.56L304.84,61a7.14,7.14,0,1,1,1.31,1.58Z"/><path class="cls-26" d="M173.57,153a4.12,4.12,0,1,0,3.78-5.31l-22.77-76A9.18,9.18,0,0,0,159.64,60a9.18,9.18,0,1,0-12.28,11.71,9.1,9.1,0,0,0,5.24.65l22.78,76a4.12,4.12,0,0,0-1.81,4.71ZM154,69.76,153,66.6a4.12,4.12,0,1,0-2,.59l.94,3.13a7.11,7.11,0,1,1,5.59-4.18A7.16,7.16,0,0,1,154,69.76Z"/><path class="cls-26" d="M156.24,159.7a4.12,4.12,0,1,0-3-5.8l-61.6-10.09a9.19,9.19,0,0,0-14.9-7.95,9.18,9.18,0,1,0,11.5,14.32,9,9,0,0,0,3-4.35l61.63,10.09a4.15,4.15,0,0,0,3.35,3.78ZM89.63,143.43l-3.25-.61a4.1,4.1,0,1,0-.37,2l3.21.6a7.12,7.12,0,1,1-11.16-8,7.12,7.12,0,0,1,11.57,6Z"/><path class="cls-26" d="M192.75,168.41A4.12,4.12,0,1,0,198.2,172l75.06-25.62a9.25,9.25,0,1,0-.64-2L197.53,170a4.14,4.14,0,0,0-4.78-1.63Zm82.47-22.72,3.13-1.07a4.12,4.12,0,1,0-.67-2l-3.09,1.06a7,7,0,0,1,.4-3.82,7.13,7.13,0,1,1,.23,5.78Z"/><polygon class="cls-23" points="161.58 191.39 158.67 190.56 90.19 225.73 93.09 226.56 161.58 191.39"/><polygon class="cls-24" points="93.09 226.56 90.19 225.73 90.09 225.79 89.99 225.85 89.88 225.93 89.77 226.01 89.66 226.1 89.54 226.2 89.44 226.3 89.33 226.41 89.23 226.52 89.14 226.63 89.06 226.75 88.99 226.87 88.93 227 88.89 227.12 88.86 227.24 88.85 227.36 91.75 228.19 91.76 228.07 91.79 227.95 91.84 227.83 91.89 227.71 91.97 227.59 92.05 227.47 92.14 227.35 92.24 227.24 92.34 227.13 92.45 227.03 92.56 226.93 92.67 226.84 92.78 226.76 92.89 226.68 92.99 226.62 93.09 226.56"/><polygon class="cls-24" points="91.75 228.19 88.85 227.36 87.36 291.97 90.26 292.8 91.75 228.19"/><path class="cls-25" d="M90.26,292.8l69-45.82c.41-.27,1.62-1.2,1.63-1.76l.66-53.83L93.09,226.57c-.51.26-1.32,1-1.34,1.62Z"/><path class="cls-26" d="M162.13,168.91a4.12,4.12,0,1,0-6.44,1l-38.37,69.42a9.12,9.12,0,1,0,1.79,1l38.39-69.43a4.13,4.13,0,0,0,4.63-2Zm-45.81,72.24-1.6,2.9a4.11,4.11,0,1,0,1.81,1l1.58-2.86a7.12,7.12,0,0,1-1.91,12.27,7.12,7.12,0,0,1-5-13.34A7.14,7.14,0,0,1,116.32,241.15Z"/><text class="cls-27" transform="matrix(0.46, -0.23, 0.06, 1, 265.8, 118.1)">&lt;TITLE&gt;Ejemplo 2&lt;/TITLE&gt;</text><text class="cls-28" transform="matrix(0.38, -0.21, 0, 1, 57.88, 140.2)">&lt;TITLE&gt;Ejemplo 2&lt;/TITLE&gt;</text><path class="cls-29" d="M282.21,361.76c-11.88,7.24-17-2.75-21.79,3.23-1.42,1.8.21,8.14,4.47,9.46,4.79,1.49,3.22-.74,10.13,3.77,5,3.28,15.33,7.17,19.25,2.72.89-1,3.73-22.54-4.64-18.6C287.55,363.32,284.2,362.76,282.21,361.76Z"/><path class="cls-30" d="M270.28,364.23a2.84,2.84,0,0,1,1.9.24,9.9,9.9,0,0,1-.89,5.93c-.58,1.08-2,.19-1.68-.34.95-1.59,1.32-4.41.67-5.83Zm2.71.33c.54,1.57,0,4.11-.68,5.91-.46,1.25,1.31.9,1.78,0a9.6,9.6,0,0,0,.69-6.05,2.91,2.91,0,0,0-1.79.12Zm2.63-.2a3.24,3.24,0,0,1,1.71-.46,10.5,10.5,0,0,1-.05,6c-.29.87-1.67,1-1.52.3a14,14,0,0,0-.14-5.87Zm2.47-.67a4.87,4.87,0,0,1,1.6-.74,8.79,8.79,0,0,1,.74,5.73c-.16.78-2.2,1.6-1.83.8a7.19,7.19,0,0,0-.51-5.79Zm5.6,2.85a7.88,7.88,0,0,0-2.09-4.91,5.17,5.17,0,0,0-1.44,1.05,6.87,6.87,0,0,1,1.72,5.15c-.17,1.21,1.72-.25,1.81-1.29ZM267,363.26c.38-.14,2.08.34,2.14.7a8.8,8.8,0,0,1,0,2.05,11.79,11.79,0,0,1-1,3.57c-.36.75-2-.1-1.61-.77a6.93,6.93,0,0,0,.78-2.67A6.11,6.11,0,0,0,267,363.26Z"/><path class="cls-31" d="M293.44,383.28c-5.68,3.41-14.72-.48-19.41-3.55-1.41-.92-3.88-2.62-5.54-2.8-.51-.05-1-.07-1.52-.14a17.67,17.67,0,0,1-2.61-.61,7.53,7.53,0,0,1-2.27-1.17,8.92,8.92,0,0,1-1.89-1.94,11.42,11.42,0,0,1-2-4.73,10.56,10.56,0,0,1-.12-1.38.19.19,0,0,1,.19-.2l1.61-.11a.22.22,0,0,1,.15.06.2.2,0,0,1,.06.15c0,2.89,1.92,6.5,4.83,7.4a15.22,15.22,0,0,0,2.29.54c.49.07,1,.09,1.46.14,2.13.22,4.68,2,6.43,3.11a32.34,32.34,0,0,0,7.19,3.44,17.42,17.42,0,0,0,7.57.78,11.09,11.09,0,0,0,4.56-1.75c.09-.06.14.13.13.23C294.48,381.64,294,383,293.44,383.28Z"/><path class="cls-32" d="M293.62,382.49c-5.69,3.41-14.72-.48-19.41-3.54-1.42-.92-3.88-2.63-5.54-2.8-.51,0-1-.08-1.53-.15a15.93,15.93,0,0,1-2.61-.61,7.34,7.34,0,0,1-2.26-1.16,9.25,9.25,0,0,1-1.9-2,11.31,11.31,0,0,1-2-4.72,9.18,9.18,0,0,1-.12-1.38.15.15,0,0,1,0-.07,9.17,9.17,0,0,0,.11,1,11.31,11.31,0,0,0,2,4.72,9.25,9.25,0,0,0,1.9,1.95,7.34,7.34,0,0,0,2.26,1.16,15.93,15.93,0,0,0,2.61.61c.51.07,1,.1,1.53.15,1.66.17,4.12,1.88,5.54,2.8,4.69,3.06,13.72,6.95,19.41,3.54.5-.22.95-1.42,1.1-2.3a.31.31,0,0,1,0,.19C294.65,380.86,294.16,382.25,293.62,382.49Z"/><path class="cls-22" d="M295.41,369.61c-2.64,3.39-17.29-.29-17.9-5.59l0-.13a19.8,19.8,0,0,0,4.12-1.81c1.35.71,2.58,2,3.06,2s6.66-1.18,9.52-.24A15.46,15.46,0,0,1,295.41,369.61Z"/><path class="cls-22" d="M280.56,367.85a10.41,10.41,0,0,1-1.6-1.24,7.4,7.4,0,0,0-.87-2.92,4.87,4.87,0,0,1,1.6-.74,8.65,8.65,0,0,1,.87,4.9Zm.63-6a4.49,4.49,0,0,0-1,.83,6.87,6.87,0,0,1,1.72,5.15c-.18,1.21,1.72-.25,1.81-1.29a7.89,7.89,0,0,0-1.45-4.13A7.11,7.11,0,0,0,281.19,361.85Z"/><path class="cls-33" d="M367.57,316.05c-5.73,1.3-15.25-2.61-21-3.81a134,134,0,0,1-29.38-9.73c-2.12,5.71-9.11,19-11.89,30.31-1.36,5.54-6.11,35.64-8.6,35.73-10.94,3.45-19.59-5.22-19.1-10.16.22-2.16,2.65-25.73,3.21-33.72,1.53-22.06.38-51.47,27.32-49.37,18.14,1.42,43.66,10.87,51.2,14.33,9.45,4.33,15.14.66,16,11C373.34,309.21,372.26,311.22,367.57,316.05Z"/><path class="cls-29" d="M260.39,396.45c-2.67,2.24-6.23,3.35-10.24,3.81-5.15.59-6.59,2.12-10.77,3.23a19.86,19.86,0,0,1-11.5-.55,28.32,28.32,0,0,1-5.85-2.49,15.42,15.42,0,0,1-5-4.72c-1.4-2.11-2.45-7.83.77-7.32a34.39,34.39,0,0,0,16.91-1.48,22.27,22.27,0,0,0,13.75-13.55c.51-.46,1.94,1,4.19,2a9.29,9.29,0,0,0,9.15-.58c-.71,2.6-.21,6.2,0,10S262.15,393,260.39,396.45Z"/><path class="cls-31" d="M261.53,393.13c.2,1.76.06,4.33-.78,4.72-.36.17-2.56,2.3-8.65,2.46-5.36.14-6.9,1.91-11.62,3.38-5,1.54-11.59.22-17.34-2.23-4.92-2.1-8.66-5.53-9-10.18.16-1.63,1.83-2.78,2.14-2.49a6.2,6.2,0,0,0,1.23,3.3,16,16,0,0,0,5.36,4.43,31.14,31.14,0,0,0,6.16,2.33,22.81,22.81,0,0,0,12,.51c4.33-1.06,5.79-2.51,11.15-3.07C254.34,396.06,260.12,394.84,261.53,393.13Z"/><path class="cls-31" d="M228.16,388.34a34.8,34.8,0,0,0-6.26-1.46c-2.29-.23-4.52.07-5.56,1.86l0,.06,0,0-.08.14h0c-2.32,3.82-.05,7.25,3.47,9.85a27.7,27.7,0,0,0,11.08,4.76,18.93,18.93,0,0,0,.77-8.68A9.84,9.84,0,0,0,228.16,388.34Z"/><path class="cls-34" d="M251,399.48c-5.47.56-7,2.13-11.43,3.24a24.15,24.15,0,0,1-13.42-1c-4.28-1.51-8-4-10.15-7.16a9.85,9.85,0,0,1-1.35-4.59,3,3,0,0,1,.42-.54,8.56,8.56,0,0,0,1.51,4.57,16.58,16.58,0,0,0,4.67,4.72,29.45,29.45,0,0,0,9.63,3.67.47.47,0,0,0,.17,0,19.86,19.86,0,0,0,8.86-.2c4.38-1.13,5.9-2.7,11.32-3.28,4-.43,7.59-1.47,10.36-3.53,0,.2,0,.39-.06.58C258.89,398.13,253.74,399.19,251,399.48Z"/><path class="cls-31" d="M253.47,386.86c-2.42,6.45,4.86,7.84,7.22,1.23C263,381.67,255.81,380.57,253.47,386.86Z"/><path class="cls-30" d="M235.28,386.18c.25-.45,2.42-1.47,2.71-1.24a13.26,13.26,0,0,1,3.18,8c0,1.8-2.54,1.87-2.5,1,.11-2.75-1.47-6.53-3.39-7.76Zm3.86-1.8c1.88,1.49,3,5.09,3.44,7.85.31,1.92,2.41,0,2.39-1.44a12.76,12.76,0,0,0-3.53-8,5,5,0,0,0-2.3,1.62Zm3.37-2.39a5.45,5.45,0,0,1,2-2,13.93,13.93,0,0,1,4.37,7.48c.25,1.31-1.47,2.64-1.81,1.62-.7-2.14-2.93-6.05-4.51-7.12Zm2.8-2.86c2.08,1,4.76,4,4.95,6.72.09,1.29,2.22-1.39,1.86-2.49a11.66,11.66,0,0,0-5.2-6.45,7.55,7.55,0,0,0-1.61,2.22Zm9.59-1.08a10.8,10.8,0,0,0-6.41-4.34,7.8,7.8,0,0,0-1.15,2.48,9.24,9.24,0,0,1,6.09,4.94c.66,1.64,2.11-1.71,1.47-3.08Zm-24.7,9.62a8,8,0,0,1,2.47,3.33,9.48,9.48,0,0,1,.93,3.94c0,1.15,2.78.85,2.71-.37a15.61,15.61,0,0,0-1.25-5.24,10.84,10.84,0,0,0-1.5-2.54C233.22,386.39,230.6,387.19,230.2,387.67Z"/><path class="cls-22" d="M261.43,378.13c-3.56,2-11.12.81-13.81-2.81a7.28,7.28,0,0,1,.87-1.61s0,0,0,0c.15-.37.3-.74.44-1.13h0a14,14,0,0,0,6.57,2.89c1,.16,5.68-1.13,6.33-1.43A15.94,15.94,0,0,0,261.43,378.13Z"/><path class="cls-35" d="M308.35,330.08c-9.05-2.5-27.75-7-34.76-8.13-2.74-.45-3.14.66-3.3,1.7-2.41,15.56-2.21,33.36-5.72,49.36a4.77,4.77,0,0,1-2.84,3c-2.26.88-16.25.8-16.18-5.78.25-23.55-3-37.44-1.36-59,1.6-20.83,23.75-24.08,42.23-21.38,24.45,1.89,47.16,2.18,69.85,7.08,4.31.93,8.75,1.92,12.36,4.45,2.64,1.5,1.82,5.66-.91,10.27C353.39,336,330.84,336.29,308.35,330.08Z"/><path class="cls-36" d="M275.76,213.21c-2,1.8-3,4.4-3.84,6.93-.59,1.75-1.14,3.68-.45,5.39s2.53,2.79,4.24,3.66c3.69,1.9,7.52,3.76,11.65,4.21,2,.22,4.28,0,5.56-1.58a4.91,4.91,0,0,0,.78-4.2,13.05,13.05,0,0,0-1.91-4C288.78,218.93,282.87,206.71,275.76,213.21Z"/><path class="cls-37" d="M265.55,226.23a4.47,4.47,0,0,0,1.91,2.41,8.59,8.59,0,0,0,6.31,1.85,2.2,2.2,0,0,0,1.3-.59,1.87,1.87,0,0,0,0-2.25,4.93,4.93,0,0,0-1.88-1.49C272.67,225.85,264.36,221.1,265.55,226.23Z"/><path class="cls-38" d="M301.48,230.36c-.78-.54-2.12-2.48-3.07-2.46-4.78.1-11,7.33-10.2,11.95,2.43,13.48,25.52,18.41,36.39,18.18,8.34-.19,14-3.34,21.45-7.14a29.73,29.73,0,0,0,10.45-8.42c6.54-9.06.12-22.54-11.84-16.35C331,233.17,316.58,240.84,301.48,230.36Z"/><path class="cls-39" d="M269,207.31c-1.26-.41-2.9-.67-3.66.4a2.21,2.21,0,0,0,.33,2.62,6.4,6.4,0,0,0,2.41,1.47l5.68,2.41-8.41-1.94c-1.52-.35-3.61-.39-4.07,1.09a2.13,2.13,0,0,0,.81,2.18,6.41,6.41,0,0,0,2.24,1l7,2.09,1.95.66c3.41-.82,6.51-4.69,6.34-8.15C276.09,210.5,272.46,208.42,269,207.31Z"/><path class="cls-40" d="M279,225.58l1.84-35.3a1.88,1.88,0,0,0-1.79-2h0a1.89,1.89,0,0,0-2,1.78l-1.84,35.3c-.06,1,.65,3.78,1.69,3.84S278.94,226.62,279,225.58Z"/><path class="cls-41" d="M279,225.58l1.21-23.17c-.11,2.11-3.87,1.71-3.77-.2l-1.21,23.17c-.06,1,.65,3.78,1.69,3.84S278.94,226.62,279,225.58Z"/><path class="cls-42" d="M278.16,228.23l2.06-39.48a1.82,1.82,0,0,0-.91-.42l-2.13,40.88A2,2,0,0,0,278.16,228.23Z"/><path class="cls-43" d="M279.06,202l.59-11.33a.72.72,0,0,0-.67-.76h0a.73.73,0,0,0-.76.68l-.59,11.34a.72.72,0,0,0,.68.75h0A.72.72,0,0,0,279.06,202Z"/><path class="cls-39" d="M271.32,218.64a3.84,3.84,0,0,1-.48,0c-1.79-.11-3.76-1.26-5.06-.08a2.5,2.5,0,0,0-.57,2.45c.87,3.44,9.19,7.63,11.32,5.5,1.33-1.17,1-2.7.12-3.88a11.19,11.19,0,0,0-4.17-3.19c.21,0,.42-.06.64-.1l.15,0Z"/><path class="cls-44" d="M288.87,214.62c-2.22-2.3-5.4-3.36-8.46-4.28-1.92-.58-4.33-1-5.66.49a2.14,2.14,0,0,0-.51,1.07,2.81,2.81,0,0,0,1.61,2.57c1.58,1,3.64,1.44,4.63,3a7.13,7.13,0,0,1,.73,2,19.4,19.4,0,0,0,3.63,7.6c1.87,2.17,9.33,6.18,10.15,1.13.32-2-1.26-4.33-2-6C291.83,219.56,290.9,216.73,288.87,214.62Z"/><path class="cls-45" d="M285.23,232.39c4-1.19,7-3.84,9.35-7.66,2.94-1.14,5.18,3.19,4,5.37a15,15,0,0,1-9.4,7.47C285.31,238.13,282.69,233.09,285.23,232.39Z"/><path class="cls-46" d="M355.24,331.3c8.62-.31,15.37-6.21,18.46-14.26,8.49-22.15,15.54-76-4.34-100.49-10.1-12.43-30.89,5.18-31.17,14.2-.29,9.27-.37,30.49-13.43,50.74-6.92,10.74-1.58,19.71,2.95,30.36C332,321.86,339.72,332.77,355.24,331.3Z"/><path class="cls-47" d="M342.15,329.18c8.62-.31,15.38-6.21,18.46-14.26,17.16-74.8-21.95-95.71-22.42-80.51-.21,6.52-1,19-5.46,30.81-1.14,3-5,11.73-6.17,13.35-.15.2-6.47-1.48-6.47-1.48-18.75,7.78-7.72,43.56,18.46,52.27C339.74,329.35,340.94,329.3,342.15,329.18Z"/><path class="cls-46" d="M309.82,248.17c-2.39.37-4.07.22-4.34,2.67-.66-1.14-1.2-1.9-2.36-1.43-4,2.09-8.83,1.57-13.14.32-4.56-1.32-12.73-6-16.8-2.23-.74.69-4,10.11-4.39,11.39-1.19,4,1.13,5.33,4.38,6.77,6.67,3,10.57,3.76,17.33,5.43,7.41,1.81,15.28,2.29,22.63.27,2.79-.77,5.48-1.88,8.32-2.4,11.28-2.06,19.92-6.89,26.78-17.76,3.4-5.39,3.37-12.07-.8-16-5.46-5.12-8.8-1.85-13.7,1.8C326.6,242.32,318.72,246.78,309.82,248.17Z"/><path class="cls-39" d="M248.41,237.09c-3.85-2-5-1.88-9.27-.89-3,1.32-10.53,7.41-12.92,9.87-.85,1.37.7,3.62,3.65,1.92,2.67-1.56,7.71-4.89,7.83-4.51.39.32-5.4,3.46-7.71,4.92a6.45,6.45,0,0,0-2.79,2.49c-1,2.3.81,3.91,3.36,2.6,3.32-1.7,9.5-5.81,10-5.11a39.42,39.42,0,0,0-6.69,5.81,4.74,4.74,0,0,0-1.31,2.15,1.74,1.74,0,0,0,1.08,2.05,2.55,2.55,0,0,0,2-.67,54,54,0,0,0,6.5-5.48,19.65,19.65,0,0,0-3,4.95c-.65,1.54-.7,3.91.93,4.26,1,.23,2-.62,2.64-1.43a39.87,39.87,0,0,0,4.06-6.36c1.76,3.39,8.62,3.9,13.55,4,3.24.09,5,.41,6.15-.06,3.22-1.34,4.41-6.36,1.84-8.8-1.43-1.36-4.3-2.12-6-3.2C258.09,243.05,252.05,239,248.41,237.09Z"/><path class="cls-48" d="M265.32,247.13c.83,2.16-.54,8.48-5.05,10.58a2.34,2.34,0,0,0,1,2.06c1,.53,3.26.6,4.46.72a19.5,19.5,0,0,0,2.74.18c2.65-.77,5.92-8.77,5.54-11.83C273.73,246.51,266.25,244.68,265.32,247.13Z"/><path class="cls-47" d="M268.48,260.67c-.09,2.68,2,3.79,4.69,5,6.67,3,10.57,3.76,17.33,5.43,7.41,1.81,15.28,2.29,22.63.27,2.79-.77,5.48-1.88,8.32-2.4,11.28-2.06,19.92-6.89,26.78-17.76,2.93-4.64,3.31-10.23.7-14.2a15.86,15.86,0,0,1-2.24,5.74c-6.86,10.87-15.5,15.7-26.78,17.76-2.84.51-5.53,1.63-8.32,2.39-7.35,2-15.22,1.55-22.63-.27-6.76-1.66-10.66-2.46-17.33-5.42h0C270.64,259,269.51,260.37,268.48,260.67Z"/><path class="cls-39" d="M356.14,192.27c1.37-5.64,3.89-11.31,3.27-16.92-2.47-22.31-50.69-17.72-49.58,9.91.14,3.57,2.69,6.27,3,9.13.45,4-7.82,11.43-3.13,11.59,1.06,0,2.94-.33,3.14.48,1.2,5.07,2.64,9.1,6.55,11.7,4.6,2.4,10.3,1.47,15.7.12,6-1.48,7.8,1.38,10.3,3.43,4.51-.19,16.77-5,15.51-10.72-.44-2-4.42-6.67-5-8.66A20.21,20.21,0,0,1,356.14,192.27Z"/><path class="cls-49" d="M319.59,218.27c4.56,2.26,10.18,1.34,15.5,0,5.5-1.37,7.5,1,9.75,3q.82-.24,1.53-.48c4.41-1.56,11.45-5.75,14.25-9.46a1.34,1.34,0,0,0,.22-.52c-.56-1.78-3.35-5.28-4.5-7.46a29.38,29.38,0,0,0-7-.65c-5,0-7.75,1-11.93,4C331.89,210.69,330.9,221.47,319.59,218.27Z"/><path class="cls-50" d="M360.73,204c-2.24-3.13-4.51-6.94-3.18-10.82a19.87,19.87,0,0,0,5.23-9.63,18.82,18.82,0,0,0,.27-6.16,23.28,23.28,0,0,0-3.9-10c-8.32-12.53-25.7-17.51-41-12.87a36.41,36.41,0,0,0-15.34,8.92c-4.23,4.27-7.15,10-7.43,15.73a3.37,3.37,0,0,0,2.12-1.29,22.92,22.92,0,0,0-2.21,8.06l4.19-2a5.48,5.48,0,0,0,3.07,7.33c2-.76,4.12-.23,6.14.12,7,1.21,4.38,2,11-1.42a3,3,0,0,0,.76,1.9c.34-.62.67-1.25,1-1.88a2.63,2.63,0,0,0,.94,1.86c.62.36,1.72-.15,1.58-.86a5.69,5.69,0,0,0,6.33,3.29c-.61-1.82-1-4.38.83-5.4,5.41-3.12,4.08,6.47,3.67,8.68-1,5.32-1,12.25,7.69,15.69l.36-4.78C344.43,210.83,359.83,206.89,360.73,204Z"/><path class="cls-51" d="M310.27,186.91a1.26,1.26,0,0,0-.27,0,1.43,1.43,0,0,0-1.15.56,4.69,4.69,0,0,0-.93,2.17,11,11,0,0,0-.21,2.05,19.9,19.9,0,0,0,.92,6.08c.44,1.26,1.05,2.27,1.88,2.52.6.18,1.1-.35,1.47-1.25a9.58,9.58,0,0,0,.57-2.29,17.68,17.68,0,0,0,.16-2.87c-.06-3.2-.85-6.46-2.44-6.93Zm-2.17-.33a2.39,2.39,0,0,1,1.92-.9,2,2,0,0,1,.48.09c1.75.5,2.45,2.73,3.05,5.46l18.2-2.26a3.63,3.63,0,0,1,3.64,1.15,4.6,4.6,0,0,1,.82,2.88v0a.54.54,0,0,1-.55.55.6.6,0,0,1-.5-.64c-.1-2.33-2.13-2.92-3.88-2.56l-17.5,3.38a23.39,23.39,0,0,1-.19,3.18,11.38,11.38,0,0,1-.65,2.59c-.59,1.43-1.48,2.23-2.67,1.87s-2.06-1.66-2.62-3.25C306.68,195.34,305.87,189.1,308.1,186.58Z"/><path class="cls-52" d="M310.27,186.89a1.26,1.26,0,0,0-.27,0,1.43,1.43,0,0,0-1.15.56,4.69,4.69,0,0,0-.93,2.16,11.18,11.18,0,0,0-.21,2.06,19.9,19.9,0,0,0,.92,6.08c.44,1.26,1.05,2.27,1.88,2.52.6.18,1.1-.35,1.47-1.25a9.58,9.58,0,0,0,.57-2.29,17.68,17.68,0,0,0,.16-2.87C312.65,190.62,311.86,187.36,310.27,186.89Z"/><path class="cls-39" d="M332.08,189.15c2.66-.23,3.42,2.83,3,5.37C332.32,210.71,324.91,189.8,332.08,189.15Z"/><path class="cls-53" d="M342.33,219.25c7.12-5.16,12.47-8.38,17.74-12.31,1.4-1.06,5.11,5,4.38,5.44-1.88,3.58-16.32,12.11-20.79,14.19-1,.45-1.12.13-1.16-.5C342.36,224,341.45,219.7,342.33,219.25Z"/><polygon class="cls-54" points="382.83 394.11 382.83 397.37 382.81 398 382.76 398.63 382.69 399.26 382.59 399.9 382.46 400.54 382.3 401.18 382.12 401.82 381.9 402.47 381.66 403.11 381.39 403.74 381.1 404.37 380.78 404.98 380.44 405.59 380.07 406.19 379.68 406.79 379.27 407.38 378.83 407.96 378.37 408.53 377.89 409.09 377.38 409.64 376.86 410.19 376.31 410.73 375.75 411.25 375.16 411.77 374.56 412.28 373.93 412.78 373.29 413.27 372.63 413.75 371.94 414.21 371.25 414.67 370.53 415.12 369.8 415.56 369.05 415.98 368.29 416.4 367.51 416.8 366.71 417.19 365.9 417.58 365.08 417.94 364.24 418.3 363.4 418.64 362.55 418.97 361.69 419.29 360.82 419.59 359.93 419.88 359.04 420.16 358.13 420.42 357.21 420.67 356.29 420.91 355.36 421.13 354.42 421.35 353.47 421.54 352.51 421.73 351.55 421.89 350.57 422.05 349.6 422.19 348.61 422.32 347.63 422.43 346.63 422.52 345.63 422.61 344.63 422.67 343.62 422.72 342.61 422.76 341.6 422.78 340.58 422.78 339.56 422.77 338.55 422.74 337.52 422.7 336.5 422.64 335.48 422.56 334.45 422.47 333.43 422.36 332.44 422.24 331.46 422.1 330.49 421.95 329.54 421.79 328.6 421.61 327.67 421.41 326.76 421.21 325.86 420.99 324.98 420.76 324.1 420.51 323.25 420.25 322.41 419.98 321.58 419.7 320.77 419.41 319.97 419.1 319.19 418.79 318.43 418.46 317.68 418.12 316.95 417.77 316.23 417.42 315.54 417.05 314.85 416.67 314.19 416.28 313.54 415.88 312.91 415.47 312.3 415.06 311.71 414.63 311.13 414.2 310.57 413.75 310.03 413.31 309.51 412.85 309.01 412.38 308.54 411.92 308.08 411.45 307.65 410.97 307.23 410.48 306.84 409.99 306.46 409.49 306.1 408.99 305.76 408.48 305.44 407.96 305.14 407.44 304.86 406.92 304.6 406.38 304.37 405.85 304.15 405.31 303.95 404.76 303.78 404.21 303.63 403.65 303.49 403.1 303.38 402.53 303.3 401.97 303.23 401.4 303.19 400.83 303.17 400.25 303.17 396.99 303.19 397.56 303.23 398.13 303.3 398.7 303.38 399.27 303.49 399.83 303.63 400.39 303.78 400.95 303.95 401.5 304.15 402.04 304.37 402.58 304.6 403.12 304.86 403.65 305.14 404.18 305.44 404.7 305.76 405.22 306.1 405.73 306.46 406.23 306.84 406.73 307.23 407.22 307.65 407.7 308.08 408.18 308.54 408.65 309.01 409.12 309.51 409.58 310.03 410.04 310.57 410.49 311.13 410.93 311.71 411.37 312.3 411.79 312.91 412.21 313.54 412.62 314.19 413.01 314.85 413.4 315.54 413.78 316.23 414.15 316.95 414.51 317.68 414.86 318.43 415.2 319.19 415.52 319.97 415.84 320.77 416.14 321.58 416.44 322.41 416.72 323.25 416.99 324.1 417.25 324.98 417.49 325.86 417.72 326.76 417.94 327.67 418.15 328.6 418.34 329.54 418.52 330.49 418.69 331.46 418.84 332.44 418.98 333.43 419.1 334.45 419.21 335.48 419.3 336.5 419.38 337.52 419.44 338.55 419.48 339.56 419.51 340.58 419.52 341.6 419.51 342.61 419.5 343.62 419.46 344.63 419.41 345.63 419.34 346.63 419.26 347.63 419.16 348.61 419.05 349.6 418.93 350.57 418.79 351.55 418.63 352.51 418.46 353.47 418.28 354.42 418.08 355.36 417.87 356.29 417.65 357.21 417.41 358.13 417.16 359.04 416.89 359.93 416.62 360.82 416.33 361.69 416.02 362.55 415.71 363.4 415.38 364.24 415.04 365.08 414.68 365.9 414.31 366.71 413.93 367.51 413.54 368.29 413.13 369.05 412.72 369.8 412.29 370.53 411.86 371.25 411.41 371.94 410.95 372.63 410.48 373.29 410 373.93 409.51 374.56 409.01 375.16 408.51 375.75 407.99 376.31 407.46 376.86 406.93 377.38 406.38 377.89 405.83 378.37 405.26 378.83 404.69 379.27 404.11 379.68 403.53 380.07 402.93 380.44 402.33 380.78 401.72 381.1 401.1 381.39 400.48 381.66 399.84 381.9 399.2 382.12 398.56 382.3 397.92 382.46 397.27 382.59 396.64 382.69 396 382.76 395.37 382.81 394.74 382.83 394.11"/><path class="cls-55" d="M349.2,371.37c10.74.66,20.07,4,26.1,8.82s9,11.5,6.82,18.37-8.87,12.73-17.88,16.48a63,63,0,0,1-30.81,4.06c-10.65-1.23-19.17-5-24.42-10s-7.16-11.08-5-17.41,8.17-11.66,16.17-15.31A61.73,61.73,0,0,1,349.2,371.37Z"/><path class="cls-6" d="M334.84,334.92h15.38v58.47c-1.74,5.19-13.17,6.24-15.38,0Z"/><path class="cls-7" d="M346.24,334.92V397a11.6,11.6,0,0,1-5.59.59V334.92Z"/><path class="cls-56" d="M399.1,248.06c-2.08,18.67-5.6,51.71-9.7,66.36-9,32.07-56.28,29-83.72,31.83-13.54,1.41-19.18-13.65-20.05-18-3.33-16.54-.61-23.17,12.42-22.22l27.68,2c15.18,1.09,21.12-4.49,24.06-19.07l6-29.88c2.05-10.17,2.3-12.46,11-17.78,5.27-3.22,14.09-7.75,22-9.29C396,230.62,400.33,237.09,399.1,248.06Z"/><path class="cls-57" d="M379,313.45c-5.19,11.89-17.71,20.49-31,20.41L299,333.54c-3.67,0-7.6-.33-8.4-4.27-3.17-15.78-.58-22.09,11.84-21.19l26.4,1.9c14.47,1,20.13-4.27,22.94-18.17l5.75-28.49c2-9.7,2.19-11.88,10.49-17,3.77-2.3,9.32-5.7,15.21-7.28,4.44-1.19,4.92,1,4.77,3.95C387.06,262.49,384.18,301.58,379,313.45Z"/></g></g></svg>