<svg id="Stroke" xmlns="http://www.w3.org/2000/svg" viewBox="0 0 342.38 646.74"><defs><style>.cls-1{fill:#80005e;}</style></defs><title>mobile</title><path class="cls-1" d="M703.48,237.63H433.65a36.31,36.31,0,0,0-36.27,36.28V848.09a36.31,36.31,0,0,0,36.27,36.28H703.48a36.31,36.31,0,0,0,36.28-36.28V273.91A36.31,36.31,0,0,0,703.48,237.63Zm26.87,610.46A27,27,0,0,1,703.48,875H433.65a26.89,26.89,0,0,1-26.86-26.87V273.91a26.86,26.86,0,0,1,15.13-24.13A26.56,26.56,0,0,1,433.65,247H703.48a26.9,26.9,0,0,1,26.87,26.87Z" transform="translate(-397.38 -237.63)"/><path class="cls-1" d="M593.57,823.25h-50a15,15,0,1,0,0,29.94h50a15,15,0,0,0,0-29.94Zm0,20.53h-50a5.56,5.56,0,1,1,0-11.12h50a5.56,5.56,0,0,1,0,11.12Z" transform="translate(-397.38 -237.63)"/><path class="cls-1" d="M709.45,289.48H427.68a4.7,4.7,0,0,0-4.7,4.71V803.82a4.69,4.69,0,0,0,4.7,4.7H709.45a4.7,4.7,0,0,0,4.71-4.7V294.19A4.71,4.71,0,0,0,709.45,289.48Zm-4.7,504v5.6H432.39V298.89H704.75Z" transform="translate(-397.38 -237.63)"/><rect class="cls-1" x="35.01" y="61.26" width="272.36" height="500.22"/></svg>