<svg xmlns="http://www.w3.org/2000/svg" xmlns:xlink="http://www.w3.org/1999/xlink" viewBox="0 0 327.25 283.32"><defs><style>.cls-1{isolation:isolate;}.cls-14,.cls-16,.cls-17,.cls-2,.cls-22,.cls-27,.cls-28,.cls-31,.cls-35,.cls-37,.cls-38,.cls-47{mix-blend-mode:screen;}.cls-2{fill:url(#radial-gradient);}.cls-3{fill:#4638d5;}.cls-4,.cls-5{fill:#ffa269;}.cls-17,.cls-29,.cls-46,.cls-47,.cls-5{opacity:0.3;}.cls-15,.cls-36,.cls-46,.cls-5,.cls-8{mix-blend-mode:multiply;}.cls-6{fill:#548bff;}.cls-7{fill:#5ff5ff;}.cls-36,.cls-8{fill:#ccc;}.cls-24,.cls-8{opacity:0.7;}.cls-9{fill:#342970;}.cls-10{fill:#2f2b4a;}.cls-11,.cls-29,.cls-30,.cls-37{fill:#fff;}.cls-12{fill:#ffb575;}.cls-13{fill:#050248;}.cls-14,.cls-15,.cls-16,.cls-27,.cls-48{opacity:0.2;}.cls-14{fill:url(#linear-gradient);}.cls-15{fill:#342959;}.cls-16{fill:#4681d5;}.cls-17{fill:#3e2b6f;}.cls-18{fill:#ef0088;}.cls-19{fill:#5ef7fd;}.cls-20{fill:url(#radial-gradient-2);}.cls-21{fill:url(#radial-gradient-3);}.cls-22,.cls-36,.cls-37{opacity:0.5;}.cls-23,.cls-24,.cls-27{fill:#87e1fc;}.cls-25{fill:#fb8640;}.cls-26{fill:#fbff19;}.cls-28{fill:url(#linear-gradient-2);}.cls-29,.cls-30{mix-blend-mode:overlay;}.cls-31{fill:url(#linear-gradient-3);}.cls-32{fill:#fbc740;}.cls-33{fill:#d6deff;}.cls-34{fill:#2e0068;}.cls-35{fill:url(#linear-gradient-4);}.cls-38{opacity:0.6;fill:url(#linear-gradient-5);}.cls-39{fill:url(#radial-gradient-4);}.cls-40{fill:url(#radial-gradient-5);}.cls-41{fill:url(#radial-gradient-6);}.cls-42{fill:url(#radial-gradient-7);}.cls-43{fill:url(#radial-gradient-8);}.cls-44{fill:url(#radial-gradient-9);}.cls-45{fill:#ff9f69;}.cls-47{fill:url(#linear-gradient-6);}</style><radialGradient id="radial-gradient" cx="246.33" cy="268.33" r="212.28" gradientUnits="userSpaceOnUse"><stop offset="0" stop-color="#1d156a"/><stop offset="0.57" stop-color="#4638d5" stop-opacity="0.3"/></radialGradient><linearGradient id="linear-gradient" x1="240.85" y1="138.39" x2="247.85" y2="177.89" gradientUnits="userSpaceOnUse"><stop offset="0" stop-color="#fff"/><stop offset="0.26" stop-color="#fff" stop-opacity="0.65"/><stop offset="0.61" stop-color="#fff" stop-opacity="0.19"/><stop offset="0.77" stop-color="#fff" stop-opacity="0"/></linearGradient><radialGradient id="radial-gradient-2" cx="217.91" cy="322.33" r="74.06" gradientUnits="userSpaceOnUse"><stop offset="0" stop-color="#466dd5"/><stop offset="0.22" stop-color="#3f5fc7"/><stop offset="0.64" stop-color="#2e3aa4"/><stop offset="1" stop-color="#1d1581"/></radialGradient><radialGradient id="radial-gradient-3" cx="363.59" cy="322.33" r="22.24" xlink:href="#radial-gradient-2"/><linearGradient id="linear-gradient-2" x1="374.01" y1="183.26" x2="367.35" y2="121.93" xlink:href="#linear-gradient"/><linearGradient id="linear-gradient-3" x1="135.01" y1="208.93" x2="129.68" y2="155.6" xlink:href="#linear-gradient"/><linearGradient id="linear-gradient-4" x1="179.51" y1="130.39" x2="151.51" y2="80.39" xlink:href="#linear-gradient"/><linearGradient id="linear-gradient-5" x1="325.57" y1="115.07" x2="332.24" y2="58.41" xlink:href="#linear-gradient"/><radialGradient id="radial-gradient-4" cx="397.52" cy="222" r="5.53" xlink:href="#radial-gradient-2"/><radialGradient id="radial-gradient-5" cx="302.8" cy="126.31" r="5" xlink:href="#radial-gradient-2"/><radialGradient id="radial-gradient-6" cx="93.57" cy="197.57" r="7.38" xlink:href="#radial-gradient-2"/><radialGradient id="radial-gradient-7" cx="377.09" cy="77.41" r="4.75" xlink:href="#radial-gradient-2"/><radialGradient id="radial-gradient-8" cx="182.56" cy="160.66" r="4.75" xlink:href="#radial-gradient-2"/><radialGradient id="radial-gradient-9" cx="101.59" cy="75.91" r="4.75" xlink:href="#radial-gradient-2"/><linearGradient id="linear-gradient-6" x1="243.34" y1="263.33" x2="243.34" y2="317.33" xlink:href="#linear-gradient"/></defs><title>vr_2</title><g class="cls-1"><g id="OBJECTS"><path class="cls-2" d="M135.56,323H376.81a31.57,31.57,0,0,0,3.54-10c3.34-23.79-4.25-50.26-23.89-64.19-6-4.3-13.41-6.66-18.16-12.63s-7.16-15.62-9.17-23c-3-11-3.35-23-10.28-32.32-17.39-23.42-51.32-31.34-78.4-22-14.9,5.14-27.93,17.75-38.27,29.45-9,10.21-15.17,21.43-26.66,28.85-21.93,14.16-55.6-5.17-74.69,15.8-13,14.28-7.08,40.15,2.84,53.93C116,304,133.85,321.75,135.56,323Z" transform="translate(-85.53 -40.65)"/><path class="cls-3" d="M359.93,181.52l.86,2.71a14.8,14.8,0,0,1,12.83-4.36l-.84-2.66A17.38,17.38,0,0,0,359.93,181.52Z" transform="translate(-85.53 -40.65)"/><path class="cls-3" d="M356.8,192.27a.09.09,0,0,0,0-.05l-2.66.84a17.31,17.31,0,0,0,4.21,12.88l2.7-.86A14.81,14.81,0,0,1,356.8,192.27Z" transform="translate(-85.53 -40.65)"/><path class="cls-3" d="M388.71,196.32a17.28,17.28,0,0,0-4-12.95l-2.67.84a14.78,14.78,0,0,1,4,12.56c0,.14-.05.27-.07.4Z" transform="translate(-85.53 -40.65)"/><path class="cls-3" d="M382.5,207.9l-.84-2.66a14.76,14.76,0,0,1-12.47,3.92l-.53-.09.86,2.71A17.28,17.28,0,0,0,382.5,207.9Z" transform="translate(-85.53 -40.65)"/><path class="cls-3" d="M113.76,209.05l2.08,2A15.22,15.22,0,0,1,125.4,201l-2.05-2A17.81,17.81,0,0,0,113.76,209.05Z" transform="translate(-85.53 -40.65)"/><path class="cls-3" d="M116.09,220.33v-.06l-2,2.06a17.8,17.8,0,0,0,10,9.66l2-2.08A15.23,15.23,0,0,1,116.09,220.33Z" transform="translate(-85.53 -40.65)"/><path class="cls-3" d="M147,208.62a17.79,17.79,0,0,0-9.84-9.85l-2,2a15.22,15.22,0,0,1,9.69,9.48c0,.14.09.27.13.4Z" transform="translate(-85.53 -40.65)"/><path class="cls-3" d="M147,222.15l-2-2a15.16,15.16,0,0,1-9.44,9.57l-.52.17,2.08,2A17.78,17.78,0,0,0,147,222.15Z" transform="translate(-85.53 -40.65)"/><path class="cls-4" d="M332.44,258.55c2.67-1.34,14.47-26.81,14.47-26.81l18.35-3.05,13.36,11.56s-11.44,12.52-17.18,10.61c0,0-19.73,40.9-32,42.05-4.57.43-18.66-11-18.66-11l15.07-26.3S330.74,259.4,332.44,258.55Z" transform="translate(-85.53 -40.65)"/><path class="cls-5" d="M378.62,240.25l-13.36-11.56-18.35,3.05s-1.59,3.44-3.74,7.86c.92,1.76,5.77,9.8,18.27,11.26.71.08,1.41.12,2.11.13C369.58,250.13,378.62,240.25,378.62,240.25Z" transform="translate(-85.53 -40.65)"/><path class="cls-6" d="M298.5,223.83S276,214,257.36,213.58l-10.89,6.35-10.89-6.35c-18.67.41-42.28,11.88-42.28,11.88C199.82,245,201,264.14,201.22,273c3.62-.43,52.69-6.16,94.73-3.5C293.85,252.44,298.5,223.83,298.5,223.83Z" transform="translate(-85.53 -40.65)"/><path class="cls-7" d="M298.5,223.83s-4.65,28.61-2.55,45.64c-42-2.66-91.11,3.07-94.73,3.5-.18-8.83-1.4-27.93-7.92-47.51l-23.24,43.61c6.27,15.36,23.8,23.7,23.8,23.7l7.36-14.71.85,43.27H296V269.52l14.85,12.36s12.58-10,14.84-26.16Z" transform="translate(-85.53 -40.65)"/><path class="cls-8" d="M259.48,238.19c16.49,0,31.86-7.3,39.1-14.27l-.08-.09S276,214,257.36,213.58l-10.89,6.35-10.89-6.35a77.33,77.33,0,0,0-17.73,2.85C220.57,227.27,233.17,238.19,259.48,238.19Z" transform="translate(-85.53 -40.65)"/><path class="cls-4" d="M162.33,288.67c0,1.27-6.36,9.76-6.36,9.76s5.94,22.06,15.69,21.63c8.48-.37,22.2-27.29,22.2-27.29l-3.11-15.13-20.69-8.57-7.73,19.6Z" transform="translate(-85.53 -40.65)"/><path class="cls-4" d="M153.32,254.58l21.76,32.65-4.69,17.14s3,16.54-3.39,13.57-27.15-38.74-27.15-38.74c-3.68,2.26-11,1.69-19.47-14.8Z" transform="translate(-85.53 -40.65)"/><path class="cls-5" d="M161,266.33a.75.75,0,0,0,.07-.12l-7.75-11.63-32.94,9.82c8.44,16.49,15.79,17.06,19.47,14.8C139.85,279.2,153.33,277.67,161,266.33Z" transform="translate(-85.53 -40.65)"/><path class="cls-9" d="M325.65,255.72,298.5,223.83s-4.66,28.67-2.54,45.69l14.85,12.36S323.39,271.84,325.65,255.72Z" transform="translate(-85.53 -40.65)"/><path class="cls-9" d="M193.3,225.46l-23.24,43.61c6.27,15.36,23.8,23.7,23.8,23.7l7.36-14.71S202.21,252.19,193.3,225.46Z" transform="translate(-85.53 -40.65)"/><path class="cls-4" d="M229.91,202.36l-.25,15.28s3.54,8.52,16.41,8.52S262,218.9,262,218.9l.5-20.17Z" transform="translate(-85.53 -40.65)"/><path class="cls-5" d="M229.85,206.38c1.21,1.6,6.33,13.52,32.26,7.26l.37-14.91-32.57,3.63Z" transform="translate(-85.53 -40.65)"/><path class="cls-10" d="M206.5,153.33s-2.84-9.58-3.92-25.7,6.31-15.9,8.49-13.51c0,0,1.53-13.5,30.5-16.34s41,13.07,41,13.07l-6.1-1.52s6.75,3,9.15,7.62l-3.27-.43s7,11.11,1.3,32.46C283.61,149,247,164,206.5,153.33Z" transform="translate(-85.53 -40.65)"/><path class="cls-11" d="M208.53,150.11s-8.62,2.63-10,7.55c-1.95,6.78,2.4,15.79,5.59,18.41,3.35,2.77,7.5-1,7.5-1" transform="translate(-85.53 -40.65)"/><path class="cls-11" d="M281.75,148.66s9,2.54,10,7.54c.91,4.29-3.4,15.83-5.59,18.42-2.82,3.31-7.51-1-7.51-1" transform="translate(-85.53 -40.65)"/><path class="cls-12" d="M208.75,154.86s-.29,42.7,23.23,52.57,36-4.35,42.12-19.75c4.66-11.75,5.61-22.52,7.26-32.82a46.43,46.43,0,0,1-6.9-26.36s-34,13.72-59.9-.65C214.56,127.85,215.14,147,208.75,154.86Z" transform="translate(-85.53 -40.65)"/><path class="cls-4" d="M275.26,163.72c-.14.58-.89,21.51-9.29,32.53-11.18,14.67-23.54,12.79-33.59,11.34,23.27,9.55,35.66-4.6,41.72-19.91,3.33-8.4,4.77-16.31,5.92-23.9Z" transform="translate(-85.53 -40.65)"/><path class="cls-13" d="M276.64,142.88c-10.33-3.46-17.51-4.34-31.73-4.14-12,.17-20.12,1.27-30.35,5-13.22,4.83-13.8,10.82-10.77,23.3,2.16,8.87,8.15,11.12,8.15,11.12,15.26-5.37,53.87-5.67,65.94-2.4,0,0,4.86,0,8.13-12.41C288.75,153,290,147.34,276.64,142.88Z" transform="translate(-85.53 -40.65)"/><path class="cls-14" d="M286,163.36c.34-1.3.66-2.52.93-3.67-10.35-10.09-28.43-9.9-42.41-4.2-8.64,3.52-17.42,6.39-26.91,4.62a69.84,69.84,0,0,0-15.29-1.46,50.39,50.39,0,0,0,1.46,8.4c2.16,8.87,8.15,11.12,8.15,11.12,15.26-5.37,53.87-5.67,65.94-2.4C277.88,175.77,282.74,175.77,286,163.36Z" transform="translate(-85.53 -40.65)"/><path class="cls-15" d="M207.86,175.09a11.73,11.73,0,0,0,4.08,3.08c15.26-5.37,53.87-5.67,65.94-2.4,0,0,2.08,0,4.43-3.47C263.79,166.62,231.55,165.53,207.86,175.09Z" transform="translate(-85.53 -40.65)"/><path class="cls-16" d="M276.64,142.88c-1.55-.52-3-1-4.47-1.38a15.33,15.33,0,0,1,2.29,11.28c-1,5-2.66,11.58-4,16.82a90.7,90.7,0,0,1,11.9,2.7,29.11,29.11,0,0,0,3.7-8.94C288.75,153,290,147.34,276.64,142.88Z" transform="translate(-85.53 -40.65)"/><path class="cls-17" d="M216.74,117.61s13.94-20,46.18-10.68l-8.06,1.75s13.94,1.74,17.64,10l-10.23-2.84s5.88,5,6.31,7.85l-7.4-2.4s-5.23,6-24.18,4.79C220.44,125,216.74,117.61,216.74,117.61Z" transform="translate(-85.53 -40.65)"/><path class="cls-12" d="M237.65,184.2s1.09-13.55,6.53-13.8c6.1-.28,7.85,12.34,7.27,15C251.23,186.35,239.25,189.42,237.65,184.2Z" transform="translate(-85.53 -40.65)"/><path class="cls-4" d="M240.75,172.78a21.43,21.43,0,0,0-3.1,11.42c.14,2.61,3,4.64,11.18,2.18,0,0-9.87,1.74-9.58-4.07A71.74,71.74,0,0,1,240.75,172.78Z" transform="translate(-85.53 -40.65)"/><path class="cls-18" d="M240.84,194.51a18.7,18.7,0,0,0,18-6.1S254.35,202.35,240.84,194.51Z" transform="translate(-85.53 -40.65)"/><path class="cls-12" d="M133,269.2c-4.3,3.87-8.56,1.38-12.43-2.92h0c-3.87-4.31-5.9-8.81-1.59-12.68l12.21-11c4.3-3.88,8.56-1.39,12.43,2.92h0c3.88,4.3,5.9,8.8,1.59,12.67Z" transform="translate(-85.53 -40.65)"/><path class="cls-12" d="M151.28,252c.8,1.85-.37,4.13-2.62,5.09h0c-2.24,1-4.7.25-5.5-1.6L127.5,219c-.79-1.85.38-4.13,2.62-5.09h0c2.24-1,4.7-.25,5.5,1.6Z" transform="translate(-85.53 -40.65)"/><path class="cls-3" d="M130.49,203.67a11.64,11.64,0,1,0,11.63,11.64A11.64,11.64,0,0,0,130.49,203.67Zm0,21.56a9.93,9.93,0,1,1,9.92-9.92A9.92,9.92,0,0,1,130.49,225.23Z" transform="translate(-85.53 -40.65)"/><path class="cls-12" d="M367.41,242.88c3.88,3.49,7.72,1.25,11.21-2.63h0c3.49-3.89,5.31-7.94,1.43-11.43l-11-9.89c-3.88-3.49-7.72-1.25-11.21,2.63h0c-3.49,3.88-5.31,7.94-1.43,11.43Z" transform="translate(-85.53 -40.65)"/><path class="cls-12" d="M349.09,225.9c-.92,1.56-.13,3.73,1.76,4.85h0c1.9,1.12,4.18.76,5.1-.81l18.17-30.79c.93-1.56.14-3.73-1.76-4.85h0c-1.89-1.12-4.17-.76-5.1.81Z" transform="translate(-85.53 -40.65)"/><path class="cls-12" d="M152.28,262.22s5.63,7.43,10.44,2.67-2.65-19.12-7.26-20.09-21.94,12.23-15.9,16.92S150.15,259.3,152.28,262.22Z" transform="translate(-85.53 -40.65)"/><path class="cls-12" d="M351.38,234.35s-4,8.42-9.67,4.76-.52-17.21,3.79-19.11,19.35.47,18.33,9.83C363.17,236,352.87,231.06,351.38,234.35Z" transform="translate(-85.53 -40.65)"/><circle class="cls-3" cx="44.98" cy="174.63" r="6.22"/><path class="cls-3" d="M371.44,183.48a11,11,0,1,0,11,11A11,11,0,0,0,371.44,183.48Zm0,20.46a9.42,9.42,0,1,1,9.41-9.42A9.42,9.42,0,0,1,371.44,203.94Z" transform="translate(-85.53 -40.65)"/><path class="cls-3" d="M377.69,194.49a6.22,6.22,0,1,1-6.22-6.22A6.23,6.23,0,0,1,377.69,194.49Z" transform="translate(-85.53 -40.65)"/><path class="cls-19" d="M211.68,168.05s-5.38-12.15-.85-16.68c5.94-5.94,19.52-4.81,19.52-4.81s-13.23,3-17.25,7.92C210.55,157.59,211.68,168.05,211.68,168.05Z" transform="translate(-85.53 -40.65)"/><path class="cls-20" d="M322.63,322.33A1.63,1.63,0,0,1,321,324H114.82a1.63,1.63,0,0,1-1.64-1.63h0a1.63,1.63,0,0,1,1.64-1.63H321a1.63,1.63,0,0,1,1.63,1.63Z" transform="translate(-85.53 -40.65)"/><path class="cls-21" d="M395,322.33a1.63,1.63,0,0,1-1.63,1.63H333.82a1.63,1.63,0,0,1-1.64-1.63h0a1.63,1.63,0,0,1,1.64-1.63h59.55a1.63,1.63,0,0,1,1.63,1.63Z" transform="translate(-85.53 -40.65)"/><g class="cls-22"><path class="cls-23" d="M402.67,87.47v66.44C378,172.45,346.43,174,336.83,174c-1.87,0-2.91-.06-2.91-.06V108.69c50.3-4.61,68.75-21.22,68.75-21.22" transform="translate(-85.53 -40.65)"/><path class="cls-24" d="M400.37,85.16l2.3,2.31s-18.45,16.61-68.75,21.22V173.9l-2.3-2.3V106.38c50.29-4.61,68.75-21.22,68.75-21.22" transform="translate(-85.53 -40.65)"/></g><path class="cls-13" d="M388.67,140.44l-6.29-9.39c-1.74-2.86-4.73-4.34-7.3-3.86a8,8,0,0,0-1.88.18L359,130.51a8.26,8.26,0,0,0-1.79.63c-2.57.62-4.7,3.24-5.07,6.6l-1.74,11.17c-.46,4.07,2.47,6.41,5.75,6.78s5.66-1.39,6.12-5.46l.61-3.93,13.37-3,2.21,3.31c2.13,3.5,5,4.08,7.85,2.36S390.8,143.94,388.67,140.44Z" transform="translate(-85.53 -40.65)"/><path class="cls-25" d="M362.73,136.18l-1.8.4-.4-1.8a1.21,1.21,0,1,0-2.37.52l.4,1.81-1.81.4a1.21,1.21,0,0,0,.53,2.37l1.8-.4.4,1.8a1.21,1.21,0,1,0,2.37-.52l-.4-1.81,1.81-.4a1.21,1.21,0,0,0-.53-2.37Z" transform="translate(-85.53 -40.65)"/><path class="cls-19" d="M372.67,134.26a1.55,1.55,0,0,1-1.09,1.9,1.54,1.54,0,0,1-1.9-1.09,1.55,1.55,0,0,1,3-.81Z" transform="translate(-85.53 -40.65)"/><path class="cls-26" d="M376.14,137.62a1.55,1.55,0,1,1-3,.67,1.55,1.55,0,1,1,3-.67Z" transform="translate(-85.53 -40.65)"/><path class="cls-26" d="M375.84,131a1.55,1.55,0,0,1-3,.67,1.55,1.55,0,1,1,3-.67Z" transform="translate(-85.53 -40.65)"/><path class="cls-19" d="M379.28,134.21a1.55,1.55,0,0,1-1.09,1.9,1.54,1.54,0,0,1-1.9-1.09,1.55,1.55,0,1,1,3-.81Z" transform="translate(-85.53 -40.65)"/><path class="cls-13" d="M371.92,108.72a12,12,0,0,0-5.05,6.5,6.17,6.17,0,0,0-1,.74c-4.38,3.91-2.89,11.17.52,15,.63.72,1.65-.35,1-1.06a10.66,10.66,0,0,1-2.74-7.42,9.1,9.1,0,0,1,1.23-4.15,4.38,4.38,0,0,1,.57-.89,8,8,0,0,0,1,4.45c1,1.75,2.33,3.65,4.55,3.14,1.79-.42,2.07-3.25,2-4.64-.07-3.76-2.56-6.32-5.4-5.87a10.4,10.4,0,0,1,4.07-4.58A.74.74,0,0,0,371.92,108.72Zm-1.28,7.56a6.67,6.67,0,0,1,1.5,2.6c.1.32.22.63.29,1,.46,2.14-1.1,4.48-3.26,2.18a7.5,7.5,0,0,1-1.19-4.09,7.36,7.36,0,0,1,.1-1.56A2.24,2.24,0,0,1,370.64,116.28Z" transform="translate(-85.53 -40.65)"/><path class="cls-27" d="M365,170.69A130.09,130.09,0,0,1,336.83,174c-1.87,0-2.91-.06-2.91-.06V108.69c5.47-.5,10.54-1.15,15.27-1.9Z" transform="translate(-85.53 -40.65)"/><path class="cls-28" d="M402.67,87.47v66.44C378,172.45,346.43,174,336.83,174c-1.87,0-2.91-.06-2.91-.06V108.69c50.3-4.61,68.75-21.22,68.75-21.22" transform="translate(-85.53 -40.65)"/><path class="cls-29" d="M412.43,108.8Q404.2,110,395.94,111c.1.83.21,1.65.31,2.48q8.28-1.07,16.53-2.23C412.67,110.45,412.55,109.63,412.43,108.8Z" transform="translate(-85.53 -40.65)"/><path class="cls-30" d="M333.27,164.19c0-.62-.1-1.24-.14-1.86-2.8.22-5.59.42-8.38.62.05.62.09,1.24.13,1.86-1.84.13-3.69.27-5.54.39.06,1,.13,2,.19,3q11.4-.75,22.77-1.71l-.24-3Q337.67,163.87,333.27,164.19Z" transform="translate(-85.53 -40.65)"/><g class="cls-22"><path class="cls-23" d="M95,108.44v66.41c24.71,18.54,56.21,20.05,65.81,20.05,1.86,0,2.9-.06,2.9-.06V129.66C113.44,125.05,95,108.44,95,108.44" transform="translate(-85.53 -40.65)"/><path class="cls-24" d="M97.29,106.14l-2.3,2.3s18.45,16.61,68.71,21.22v65.18l2.31-2.31V127.35c-50.27-4.61-68.72-21.21-68.72-21.21" transform="translate(-85.53 -40.65)"/></g><path class="cls-31" d="M95,108.44v66.41c24.71,18.54,56.21,20.05,65.81,20.05,1.86,0,2.9-.06,2.9-.06V129.66C113.44,125.05,95,108.44,95,108.44" transform="translate(-85.53 -40.65)"/><path class="cls-26" d="M124.55,154.1A10.71,10.71,0,1,0,137.91,147,10.71,10.71,0,0,0,124.55,154.1Z" transform="translate(-85.53 -40.65)"/><path class="cls-32" d="M124.55,154.1a10.59,10.59,0,0,1,3.09-4.84,12.72,12.72,0,0,0,15.06,15.16,10.7,10.7,0,0,1-18.15-10.32Z" transform="translate(-85.53 -40.65)"/><path class="cls-26" d="M138.35,140.69c-.57,1.89-.71,4.49,0,4.71s2.07-2,2.64-3.9.17-2.7-.57-2.93S138.92,138.81,138.35,140.69Z" transform="translate(-85.53 -40.65)"/><path class="cls-26" d="M131.23,173.73c.58-1.89.71-4.49,0-4.71s-2.08,2-2.65,3.9-.17,2.7.57,2.93S130.66,175.62,131.23,173.73Z" transform="translate(-85.53 -40.65)"/><path class="cls-26" d="M118.27,153.65c1.89.58,4.49.71,4.72,0s-2-2.07-3.9-2.64-2.71-.17-2.94.57S116.39,153.08,118.27,153.65Z" transform="translate(-85.53 -40.65)"/><path class="cls-26" d="M151.31,160.77c-1.89-.57-4.49-.71-4.71,0s2,2.07,3.9,2.64,2.71.17,2.93-.57S153.2,161.34,151.31,160.77Z" transform="translate(-85.53 -40.65)"/><path class="cls-26" d="M125.63,143c.93,1.74,2.67,3.68,3.35,3.32s0-2.89-.89-4.63-1.79-2-2.47-1.67S124.7,141.28,125.63,143Z" transform="translate(-85.53 -40.65)"/><path class="cls-26" d="M144,171.41c-.93-1.74-2.67-3.68-3.35-3.32s-.05,2.89.88,4.63,1.8,2,2.48,1.67S144.89,173.15,144,171.41Z" transform="translate(-85.53 -40.65)"/><path class="cls-26" d="M120.6,166.38c1.74-.93,3.67-2.68,3.31-3.36s-2.89,0-4.63.89-2,1.8-1.67,2.48S118.86,167.3,120.6,166.38Z" transform="translate(-85.53 -40.65)"/><path class="cls-26" d="M149,148c-1.74.93-3.68,2.68-3.31,3.36s2.89,0,4.62-.89,2-1.8,1.68-2.48S150.73,147.12,149,148Z" transform="translate(-85.53 -40.65)"/><path class="cls-11" d="M106.86,148.12A7.15,7.15,0,0,1,121,146.73a5,5,0,0,1,2.41,0,5.17,5.17,0,0,1,4,5.7,4.73,4.73,0,0,1-2.69,9.05L107,157.3a4.73,4.73,0,0,1-.11-9.18Z" transform="translate(-85.53 -40.65)"/><path class="cls-33" d="M130.4,158a4.74,4.74,0,0,0-3-5.53,5.17,5.17,0,0,0-4-5.7,5,5,0,0,0-2.41,0c0-.11-.06-.22-.08-.32a7.14,7.14,0,0,0-4.44,5.05,6.63,6.63,0,0,0-.18,1.71,4.74,4.74,0,0,0-3.42,3.49,4.64,4.64,0,0,0,0,2l11.81,2.78A4.73,4.73,0,0,0,130.4,158Z" transform="translate(-85.53 -40.65)"/><path class="cls-27" d="M132.69,191.63a130,130,0,0,0,28.11,3.27c1.86,0,2.9-.06,2.9-.06V129.66c-5.46-.5-10.53-1.15-15.26-1.9Z" transform="translate(-85.53 -40.65)"/><path class="cls-29" d="M156.19,182.86q8.19.67,16.39,1.25c.06-.83.11-1.66.17-2.49-5.45-.39-10.9-.8-16.35-1.26Z" transform="translate(-85.53 -40.65)"/><path class="cls-30" d="M85.53,131.75c4.43.63,8.85,1.24,13.29,1.82.13-1.06.27-2.11.41-3.17q-6.63-.87-13.25-1.81Z" transform="translate(-85.53 -40.65)"/><g class="cls-22"><path class="cls-23" d="M126.07,48.49V99.68c19.05,14.29,43.34,15.45,50.74,15.45,1.44,0,2.24,0,2.24,0V64.84c-38.76-3.55-53-16.35-53-16.35" transform="translate(-85.53 -40.65)"/><path class="cls-24" d="M127.85,46.71l-1.78,1.78s14.22,12.8,53,16.35v50.25l1.77-1.78V63.06c-38.75-3.55-53-16.35-53-16.35" transform="translate(-85.53 -40.65)"/></g><path class="cls-34" d="M159,90.6l4.93-16.1-17-2.09L142.76,85a6,6,0,0,0-3.61.92c-2.29,1.36-3.42,3.71-2.51,5.24s3.51,1.66,5.81.29a6,6,0,0,0,2.61-2.93l.09,0,2.6-7.91L158.47,82l-1.9,6.45a5.41,5.41,0,0,0-2.77.79c-2,1.17-2.91,3.17-2.13,4.48s3,1.41,4.94.25A4.54,4.54,0,0,0,159,90.6ZM148.45,78.54l.89-2.7,10.7.92L159.37,79Z" transform="translate(-85.53 -40.65)"/><path class="cls-27" d="M158.72,113.36a99.1,99.1,0,0,0,18.09,1.77c1.44,0,2.24,0,2.24,0V64.84c-2.85-.26-5.55-.58-8.14-.93Z" transform="translate(-85.53 -40.65)"/><path class="cls-30" d="M182,99.05q-5.88-.3-11.74-.66c0,.83-.1,1.66-.16,2.5q10.74.64,21.49,1.12c0-.84.07-1.67.11-2.5l-1-.05,7.16.3.12-3q-7.91-.3-15.79-.7Z" transform="translate(-85.53 -40.65)"/><path class="cls-30" d="M117.28,91.68q6.36.69,12.73,1.32c.09-1,.19-1.91.28-2.87q-6.34-.61-12.7-1.31C117.49,89.77,117.38,90.73,117.28,91.68Z" transform="translate(-85.53 -40.65)"/><path class="cls-35" d="M126.07,48.49V99.68c19.05,14.29,43.34,15.45,50.74,15.45,1.44,0,2.24,0,2.24,0V64.84c-38.76-3.55-53-16.35-53-16.35" transform="translate(-85.53 -40.65)"/><g class="cls-22"><path class="cls-23" d="M353.25,42.16V85.6c-16.16,12.12-36.76,13.11-43,13.11-1.22,0-1.9,0-1.9,0V56c32.88-3,44.94-13.87,44.94-13.87" transform="translate(-85.53 -40.65)"/><path class="cls-24" d="M351.75,40.65l1.5,1.51S341.19,53,308.31,56V98.67l-1.51-1.51V54.52c32.88-3,44.95-13.87,44.95-13.87" transform="translate(-85.53 -40.65)"/></g><path class="cls-18" d="M341.63,61.88c-5.22-4-10.51,6.16-10.51,6.16s-8.08-8.33-12-2.07a6.86,6.86,0,0,0,1.13,8.79s12,9.4,13.53,9.19l.22,0,.22,0c1.47-.32,9.45-13.36,9.45-13.36C345.26,67.59,344.9,64.38,341.63,61.88Z" transform="translate(-85.53 -40.65)"/><path class="cls-36" d="M341.63,61.88a4.06,4.06,0,0,0-2.92-.91c.13,4.89-1.28,13.37-11.27,19.17,2.88,2.06,5.67,3.9,6.34,3.81l.22,0,.22,0c1.47-.32,9.45-13.36,9.45-13.36C345.26,67.59,344.9,64.38,341.63,61.88Z" transform="translate(-85.53 -40.65)"/><path class="cls-37" d="M322.84,70.75c-1-.45-.84-2.07-.28-2.8.83-1.07-.8-2.4-1.63-1.32-1.39,1.82-1.22,5,1,6A1.05,1.05,0,0,0,322.84,70.75Z" transform="translate(-85.53 -40.65)"/><path class="cls-37" d="M325.67,73a1.05,1.05,0,0,0,.21,2.09A1.05,1.05,0,0,0,325.67,73Z" transform="translate(-85.53 -40.65)"/><path class="cls-27" d="M328.59,96.57a85.49,85.49,0,0,1-18.38,2.14c-1.22,0-1.9,0-1.9,0V56c3.57-.33,6.89-.75,10-1.24Z" transform="translate(-85.53 -40.65)"/><path class="cls-29" d="M297.42,85.69l.09,2.38q8.94-.37,17.87-.88c-.05-.79-.09-1.58-.13-2.37Q306.33,85.32,297.42,85.69Z" transform="translate(-85.53 -40.65)"/><path class="cls-29" d="M362.84,56.28c-.12-.75-.25-1.49-.37-2.24l-13.14.63c.12.75.23,1.5.35,2.24Z" transform="translate(-85.53 -40.65)"/><path class="cls-38" d="M353.25,42.16V85.6c-16.16,12.12-36.76,13.11-43,13.11-1.22,0-1.9,0-1.9,0V56c32.88-3,44.94-13.87,44.94-13.87" transform="translate(-85.53 -40.65)"/><path class="cls-11" d="M285,263a2,2,0,0,1-1.61-.81l-5.95-8A2,2,0,0,1,279,251c3.38,0,3.38-.83,3.38-1.5s-.17-.67-.23-.73a2.52,2.52,0,0,0-1.56-.44h-4.94l-5.16,13.07a2,2,0,0,1-1.84,1.27h0a2,2,0,0,1-1.85-1.23L261,247.53a2,2,0,1,1,3.68-1.56l4,9.41,3.87-9.78a2,2,0,0,1,1.86-1.27h6.17a6.56,6.56,0,0,1,4.44,1.53,5.23,5.23,0,0,1-2.27,8.66l3.93,5.28a2,2,0,0,1-.41,2.8A2,2,0,0,1,285,263Z" transform="translate(-85.53 -40.65)"/><path class="cls-39" d="M402.73,225.7,399,222l3.7-3.7a1.07,1.07,0,0,0,0-1.52,1.06,1.06,0,0,0-1.51,0l-3.7,3.7-3.7-3.7a1.07,1.07,0,0,0-1.52,1.52L396,222l-3.7,3.7a1.07,1.07,0,0,0,1.52,1.52l3.7-3.7,3.7,3.7a1.06,1.06,0,0,0,1.51,0A1.07,1.07,0,0,0,402.73,225.7Z" transform="translate(-85.53 -40.65)"/><path class="cls-40" d="M307.51,129.65l-3.34-3.34,3.34-3.35a1,1,0,0,0-1.37-1.37l-3.35,3.35-3.34-3.35a1,1,0,0,0-1.37,1.37l3.34,3.35-3.34,3.34a1,1,0,0,0,1.37,1.38l3.34-3.35,3.35,3.35a1,1,0,0,0,1.37-1.38Z" transform="translate(-85.53 -40.65)"/><path class="cls-41" d="M94.64,203.88v-5.23h5.24a1.08,1.08,0,0,0,0-2.15H94.64v-5.23a1.07,1.07,0,1,0-2.14,0v5.23H87.27a1.08,1.08,0,0,0,0,2.15H92.5v5.23a1.07,1.07,0,1,0,2.14,0Z" transform="translate(-85.53 -40.65)"/><path class="cls-42" d="M377.09,72.66a4.75,4.75,0,1,0,4.75,4.75A4.75,4.75,0,0,0,377.09,72.66Zm0,7.78a3,3,0,1,1,3-3A3,3,0,0,1,377.09,80.44Z" transform="translate(-85.53 -40.65)"/><path class="cls-43" d="M182.56,155.91a4.75,4.75,0,1,0,4.75,4.75A4.74,4.74,0,0,0,182.56,155.91Zm0,7.78a3,3,0,1,1,3-3A3,3,0,0,1,182.56,163.69Z" transform="translate(-85.53 -40.65)"/><path class="cls-44" d="M101.59,71.16a4.75,4.75,0,1,0,4.75,4.75A4.75,4.75,0,0,0,101.59,71.16Zm0,7.78a3,3,0,1,1,3-3A3,3,0,0,1,101.59,78.94Z" transform="translate(-85.53 -40.65)"/><path class="cls-45" d="M134.33,268.83a.61.61,0,0,0,.84,0h0a.59.59,0,0,0,.21-.8L126,256a.59.59,0,0,0-.83,0h0a.6.6,0,0,0-.22.8Z" transform="translate(-85.53 -40.65)"/><path class="cls-45" d="M140.52,264.28a.59.59,0,0,0,.83,0h0a.59.59,0,0,0,.21-.8l-9.43-12a.59.59,0,0,0-.83,0h0a.59.59,0,0,0-.21.8Z" transform="translate(-85.53 -40.65)"/><g class="cls-46"><path class="cls-4" d="M134.33,268.83a.61.61,0,0,0,.84,0h0a.59.59,0,0,0,.21-.8L126,256a.59.59,0,0,0-.83,0h0a.6.6,0,0,0-.22.8Z" transform="translate(-85.53 -40.65)"/><path class="cls-4" d="M140.52,264.28a.59.59,0,0,0,.83,0h0a.59.59,0,0,0,.21-.8l-9.43-12a.59.59,0,0,0-.83,0h0a.59.59,0,0,0-.21.8Z" transform="translate(-85.53 -40.65)"/></g><path class="cls-45" d="M357.2,237.49a.6.6,0,0,0,.15.82h0a.6.6,0,0,0,.83.08l10.29-11.26a.59.59,0,0,0-.16-.82h0a.59.59,0,0,0-.83-.08Z" transform="translate(-85.53 -40.65)"/><path class="cls-45" d="M362.7,242.85a.6.6,0,0,0,.15.82h0a.61.61,0,0,0,.83.08L374,232.49a.6.6,0,0,0-.15-.82h0a.59.59,0,0,0-.83-.08Z" transform="translate(-85.53 -40.65)"/><g class="cls-46"><path class="cls-4" d="M357.2,237.49a.6.6,0,0,0,.15.82h0a.6.6,0,0,0,.83.08l10.29-11.26a.59.59,0,0,0-.16-.82h0a.59.59,0,0,0-.83-.08Z" transform="translate(-85.53 -40.65)"/><path class="cls-4" d="M362.7,242.85a.6.6,0,0,0,.15.82h0a.61.61,0,0,0,.83.08L374,232.49a.6.6,0,0,0-.15-.82h0a.59.59,0,0,0-.83-.08Z" transform="translate(-85.53 -40.65)"/></g><path class="cls-8" d="M219.67,301s17.33-18.67,62.66-18C282.33,283,249.67,299.67,219.67,301Z" transform="translate(-85.53 -40.65)"/><path class="cls-47" d="M292.88,299.17c-39.23-8.67-75.48-27.76-116.2-29.27-20.59-.77-47.89,6.72-71.11,19.56,12.18,16.28,28.37,32.35,30,33.54H376.81a31.57,31.57,0,0,0,3.54-10,79,79,0,0,0-.31-23.87c-7.76,2.54-15.49,5.22-23.34,7.66C335,303.54,315.07,304.08,292.88,299.17Z" transform="translate(-85.53 -40.65)"/></g></g></svg>