<svg id="Capa_1" data-name="Capa 1" xmlns="http://www.w3.org/2000/svg" viewBox="0 0 184.65 259.74"><defs><style>.cls-1,.cls-3{fill:none;}.cls-1{stroke:#323233;}.cls-1,.cls-2,.cls-3{stroke-miterlimit:10;stroke-width:6.38px;}.cls-2{fill:#fdecf3;}.cls-2,.cls-3{stroke:#7e1e5f;}</style></defs><title>money</title><path class="cls-1" d="M385.71,1732.3a13.16,13.16,0,0,1-13.16,13.16H220.61a13.16,13.16,0,0,1-13.16-13.16v-227a13.16,13.16,0,0,1,13.16-13.16H372.55a13.16,13.16,0,0,1,13.16,13.16Z" transform="translate(-204.26 -1488.92)"/><rect class="cls-2" x="23.37" y="33.68" width="137.9" height="30.64"/><rect class="cls-3" x="23.37" y="82.2" width="137.9" height="11.07"/><rect class="cls-2" x="37.24" y="114.57" width="25.55" height="25.55"/><rect class="cls-2" x="79.54" y="114.57" width="25.55" height="25.55"/><rect class="cls-2" x="121.85" y="114.57" width="25.55" height="25.55"/><rect class="cls-2" x="37.24" y="157.54" width="25.55" height="25.56"/><rect class="cls-2" x="79.54" y="157.54" width="25.55" height="25.56"/><rect class="cls-2" x="121.85" y="157.54" width="25.55" height="25.56"/><rect class="cls-2" x="37.24" y="200.5" width="25.55" height="25.56"/><rect class="cls-2" x="79.54" y="200.5" width="25.55" height="25.56"/><rect class="cls-2" x="121.85" y="200.5" width="25.55" height="25.56"/><path class="cls-3" d="M369.05,1644v72.68a13.16,13.16,0,0,1-13.16,13.16H312.34" transform="translate(-204.26 -1488.92)"/></svg>