<svg xmlns="http://www.w3.org/2000/svg" viewBox="0 0 111.19 146.7"><defs><style>.cls-1{fill:#fff;}.cls-2{fill:#a004f1;}.cls-3{fill:#ecd4fc;}.cls-4{fill:#002d40;}</style></defs><title>VR</title><g id="OBJECTS"><path class="cls-1" d="M115.18,108.58c-2.44,0-4.79.76-7.26.6a25.47,25.47,0,0,0-5.78.19c-3,.53-6-.12-9.08-.08a7.5,7.5,0,0,1-5-2.37,25.85,25.85,0,0,0-3.63-3c-2.16-1.48-4.4-2.27-7-.66A31.15,31.15,0,0,0,72.68,107a7.37,7.37,0,0,1-5.13,2.3c-2.53-.14-5,.48-7.54.1-4.14-.61-8.4.28-12.54-.76-.77-.19-1.57.11-2.39-.06-.63-.13-.81.44-.68,1.09a79.18,79.18,0,0,0,4,12A34.62,34.62,0,0,0,52,127.91c2.16,3.42,4.34,6.8,8,9a35,35,0,0,1,3.32,1.92,40.8,40.8,0,0,0,10.84,5.43,30.87,30.87,0,0,0,7.35,2l.89-.22a76.67,76.67,0,0,0,10-3.67c2.16-.9,3.81-2.67,5.85-3.58a19.07,19.07,0,0,0,8.56-7.17c2.69-4.23,5.88-8.19,7.18-13.25.71-2.81,2-5.48,2.61-8.35C116.75,108.75,116.45,108.56,115.18,108.58ZM72.49,111c.18-.74.74-.68,1.31-.87,2-.64,3.61.74,5.47.75a23,23,0,0,0,7-.65c1-.29,2-.54,2.56.67.64,1.36-.37,1.9-1.31,2.37a9.84,9.84,0,0,1-5.51.84,27.36,27.36,0,0,1-4.06,0,9.66,9.66,0,0,1-5-1.21C72.25,112.47,72.31,111.72,72.49,111Zm27.23,12.57c-1.15,1-2.62,1-3.93,1.32a58.9,58.9,0,0,1-9.15,1.76c-.23,0-.47,0-.7,0-3.75.35-7.49-.16-11.21-.35A24.77,24.77,0,0,1,65,124.07c-.79-.39-2-.79-1.55-2s1.53-.87,2.54-.58c3.62,1,7.38.82,11.08,1.17,7,.66,13.88-.17,20.77-1.2a5.54,5.54,0,0,1,1.34-.13c.52.06,1.07.18,1.17.86A1.35,1.35,0,0,1,99.72,123.55Z" transform="translate(-24.88 -23.95)"/><path class="cls-2" d="M34.64,84.24c.72.52,2,.23,3.07.28a4.7,4.7,0,0,0,.53,0c2.49-.08,5.06-.63,7.43-.15,3.3.67,6.59.46,9.85.53,3.89.07,7.8-.2,11.72-.12,4.17.09,8.35-.31,12.53-.36s8.37.12,12.55.06c.87,0,2,.9,2.59-.1.5-.79.13-1.92.45-2.88.12-.36-.29-.86-.3-1.3,0-3.32,0-6.65,0-10,0-4.31.26-8.62,0-13a54.42,54.42,0,0,1-7.66.22c-4.58,0-9.17.05-13.75,0s-9.11-.6-13.59-.18c-6.54.61-13.23,1.13-19.11,4.61-2.43,1.43-4.55,3.23-5.15,6.19a32.88,32.88,0,0,0-1,7.91c.09,1.85-.29,3.7,0,5.57C34.84,82.44,34,83.75,34.64,84.24Z" transform="translate(-24.88 -23.95)"/><path class="cls-3" d="M35.5,100.13c.93,3.88,4.84,4.63,8.07,5.27a27.92,27.92,0,0,0,7.77.31,71,71,0,0,1,11.48-.12c2,.14,4.17.22,5.78-.67a40.59,40.59,0,0,0,4.85-3.69c3.41-2.64,7.08-3.86,11.35-1.7a33.34,33.34,0,0,1,5.65,4,7.23,7.23,0,0,0,4.79,1.86c3.76,0,7.53-.08,11.28.06a50.21,50.21,0,0,0,9,0,18.86,18.86,0,0,0,3.42-.61c4.29-1,6-2.64,6.7-6.93a63.54,63.54,0,0,0,1.09-7.76c0-.86.47-2.13-1.14-2.14-5.71,0-11.43-.28-17.12,0-4.08.17-8.16.06-12.22.24-2.16.09-4.27-.54-6.41-.24a73,73,0,0,1-10.45.32c-4.2,0-8.4-.23-12.6-.33-2.71-.07-5.42-.15-8.12-.08-2.17.05-4.29-.54-6.48-.23a47.48,47.48,0,0,1-6.4.53c-3.47,0-6.94-.18-10.4-.29-.7,0-1,.14-1.24,1-.26,1.22.18,2.29.19,3.44A35.45,35.45,0,0,0,35.5,100.13Z" transform="translate(-24.88 -23.95)"/><path class="cls-2" d="M105.48,58.76a32.9,32.9,0,0,1,.25,6.58c0,5.36.57,10.7.31,16.07-.06,1-.52,2.29-.07,3,.58.89,2,.24,3.09.57.24.08.54-.1.82-.12a65.12,65.12,0,0,1,7.11-.29,65.81,65.81,0,0,0,8.77,0c.59,0,1,0,.77-.6-.48-1.61-.14-3.23-.24-4.83-.17-2.66-.17-5.31-.49-8-.47-4-2.09-7.19-5.58-9.27-4.24-2.53-9-3.26-13.8-4C105.49,57.76,105.34,58,105.48,58.76Z" transform="translate(-24.88 -23.95)"/><path class="cls-1" d="M102.8,68.8c0-2.7-.52-5.39-.38-7.93-.08-1-.1-1.82-.2-2.63-.18-1.45-1.33-1.08-2.18-1-.67.05-1.55-.33-1.81,1-.66,3.44,0,6.84.15,10.25.06,1.77-.11,3.52-.07,5.28,0,2.49.14,5,0,7.47-.12,2.82.49,3.69,2.83,3.6,1,0,1.39-.37,1.43-1.47.14-3.6-.3-7.19,0-10.8C102.69,71.3,102.82,70,102.8,68.8Z" transform="translate(-24.88 -23.95)"/><path class="cls-1" d="M129.7,97.58a5.49,5.49,0,0,0,2.19-2.81,22.28,22.28,0,0,0,.57-9.43c-.4-3.79.13-7.61-.69-11.41a3.69,3.69,0,0,0-2.19-2.72C129.8,80,130.44,88.61,129.7,97.58Z" transform="translate(-24.88 -23.95)"/><path class="cls-1" d="M31.39,98.33c-1.28-8.88-.2-17.58-.18-26.38a3.58,3.58,0,0,0-2.19,3,46.22,46.22,0,0,0-.46,7.7c0,4.33-1.1,8.68.45,13A4.83,4.83,0,0,0,31.39,98.33Z" transform="translate(-24.88 -23.95)"/><path class="cls-4" d="M25.36,91.9a15.16,15.16,0,0,0,.24,4.86,5.59,5.59,0,0,0,3.83,4.58c1.22.44,2.82.24,3.69,1.66a11,11,0,0,0,6.8,4.88c.72.2.85.48,1,1.16a62.25,62.25,0,0,0,5.6,16.63c1.3,2.53,3.07,4.8,4.59,7.21,1.26,2,3.31,3.52,5.06,5.2a4.6,4.6,0,0,1,1.7,3.21c.12,1.53-.24,3-.07,4.55a30.23,30.23,0,0,1,.36,6,30.7,30.7,0,0,0-.18,6,4.66,4.66,0,0,1-1.13,3.51,32.86,32.86,0,0,1-6.41,6.06c-1,.78-1.62,1.68-.89,2.76.61.91,1.71.37,2.55.11,1.68-.5,2.57-2.1,4-3a11.74,11.74,0,0,0,4.47-6c1.51-4.05.63-8.19.59-12.29,0-2.07-.16-4.14-.25-6.2-.06-1.18.7-1,1.21-.59a34.58,34.58,0,0,0,13,6,23.41,23.41,0,0,0,6.92.89,20.44,20.44,0,0,0,8.65-2c3-1.6,6.2-2.71,8.81-4.91.54-.45,1-1.07,1.68-.87s.38,1,.39,1.6c.13,5.23.16,10.47.38,15.7a11,11,0,0,0,4.51,8.26c1.61,1.27,2.91,3.06,5,3.57.73.17,1.59.52,2.1-.41s.1-1.76-.69-2.41c-1.27-1-2.62-2-3.78-3.15-2.33-2.32-5.27-4.44-3.63-8.5.07-.18-.12-.45-.12-.68-.2-5.31-.88-10.6-.35-15.93a2.67,2.67,0,0,1,.82-1.89c1.43-1.43,3.17-2.71,4.13-4.42,2.33-4.16,5.45-7.82,6.89-12.59a105.75,105.75,0,0,0,3.15-11.3c.14-.76.3-1,1.09-1.24,2.47-.7,4.83-1.87,6.14-4.13a6.91,6.91,0,0,1,4.31-3.2,5.2,5.2,0,0,0,3.84-5.09c.23-4.45,1-8.88.61-12.11-.23-3.74-.22-6.26-.57-8.73-.47-3.36-1.06-5.15-4.7-6.48a3.31,3.31,0,0,1-2.36-1.87,15.84,15.84,0,0,0-4.81-6.3c-.21-.18-.57-.4-.57-.6,0-2.16-1.53-3.77-2-5.77a12.79,12.79,0,0,0-1.25-3.71c-2.25-3.59-4.29-7.32-7-10.61a21.67,21.67,0,0,0-2.5-2.06c-3-2.78-5.84-5.73-9.68-7.58C95.59,27.27,90.93,24.5,85.36,24c-1.29-.12-2.56.25-3.78.11a31.58,31.58,0,0,0-10.83.79c-3,.69-5.57,2.36-8.34,3.56a35.26,35.26,0,0,0-11.62,8.46c-.83.88-1.91,1.38-2.79,2.24-2,2-2.86,4.69-4.62,6.82-1.13,1.36-2.44,2.91-2.74,4.55-.57,3.11-2.72,5.64-2.83,8.85,0,.41-.49.45-.69.67C35.26,62.14,33,64,32.39,66.87a2.62,2.62,0,0,1-2.1,1.94,6.08,6.08,0,0,0-4.76,5.7c-.35,4.89-.92,9.79-.51,14.71A12.61,12.61,0,0,1,25.36,91.9Zm106.41-18c.82,3.8.29,7.62.69,11.41a22.28,22.28,0,0,1-.57,9.43,5.49,5.49,0,0,1-2.19,2.81c.74-9,.1-17.63-.12-26.37A3.69,3.69,0,0,1,131.77,73.93ZM116.49,110c-.62,2.87-1.9,5.54-2.61,8.35-1.3,5.06-4.49,9-7.18,13.25a19.07,19.07,0,0,1-8.56,7.17c-2,.91-3.69,2.68-5.85,3.58a76.67,76.67,0,0,1-10,3.67l-.89.22a30.87,30.87,0,0,1-7.35-2,40.8,40.8,0,0,1-10.84-5.43,35,35,0,0,0-3.32-1.92c-3.64-2.18-5.82-5.56-8-9a34.62,34.62,0,0,1-3.58-6.23,79.18,79.18,0,0,1-4-12c-.13-.65.05-1.22.68-1.09.82.17,1.62-.13,2.39.06,4.14,1,8.4.15,12.54.76,2.55.38,5-.24,7.54-.1a7.37,7.37,0,0,0,5.13-2.3,31.15,31.15,0,0,1,4.83-3.69c2.57-1.61,4.81-.82,7,.66a25.85,25.85,0,0,1,3.63,3,7.5,7.5,0,0,0,5,2.37c3,0,6.06.61,9.08.08a25.47,25.47,0,0,1,5.78-.19c2.47.16,4.82-.57,7.26-.6C116.45,108.56,116.75,108.75,116.49,110Zm3.73-48.1c3.49,2.08,5.11,5.24,5.58,9.27.32,2.66.32,5.31.49,8,.1,1.6-.24,3.22.24,4.83.19.62-.18.55-.77.6a65.81,65.81,0,0,1-8.77,0,65.12,65.12,0,0,0-7.11.29c-.28,0-.58.2-.82.12-1-.33-2.51.32-3.09-.57-.45-.69,0-2,.07-3,.26-5.37-.35-10.71-.31-16.07a32.9,32.9,0,0,0-.25-6.58c-.14-.74,0-1,.94-.86C111.2,58.64,116,59.37,120.22,61.9Zm-75.63-12A37.44,37.44,0,0,1,53,39.31,61.44,61.44,0,0,1,58.84,35a68.39,68.39,0,0,1,7.82-4.9c4.66-2.49,9.59-3,14.66-2.86,2.75.07,5.59.07,8.21,1a35.77,35.77,0,0,1,10.71,5.58c1.85,1.51,3.83,2.83,5.75,4.24a38.05,38.05,0,0,1,7,7.23,33.51,33.51,0,0,1,5.22,9.57,6,6,0,0,1,.35,2.38,30.72,30.72,0,0,0-11.46-2.47c-2.34-.09-4.69-.45-7-.64-5-.43-10,.06-15,0C79.11,54,73.05,54,67,53.9c-2,0-4.24.14-6.26.18-3,.06-5.94.65-8.92.84A26.65,26.65,0,0,0,42,57.38C42.13,54.41,43.45,52.2,44.59,49.93Zm58,33.4c0,1.1-.44,1.42-1.43,1.47-2.34.09-3-.78-2.83-3.6.11-2.49,0-5,0-7.47,0-1.76.13-3.51.07-5.28-.13-3.41-.81-6.81-.15-10.25.26-1.31,1.14-.93,1.81-1,.85-.06,2-.43,2.18,1,.1.81.12,1.63.2,2.63-.14,2.54.34,5.23.38,7.93,0,1.22-.11,2.5-.21,3.73C102.3,76.14,102.74,79.73,102.6,83.33ZM34.7,81.52c-.28-1.87.1-3.72,0-5.57a32.88,32.88,0,0,1,1-7.91c.6-3,2.72-4.76,5.15-6.19,5.88-3.48,12.57-4,19.11-4.61,4.48-.42,9.06.14,13.59.18s9.17,0,13.75,0A54.42,54.42,0,0,0,95,57.19c.29,4.4,0,8.71,0,13,0,3.32,0,6.65,0,10,0,.44.42.94.3,1.3-.32,1,0,2.09-.45,2.88-.63,1-1.72.09-2.59.1-4.18.06-8.37-.11-12.55-.06s-8.36.45-12.53.36c-3.92-.08-7.83.19-11.72.12-3.26-.07-6.55.14-9.85-.53-2.37-.48-4.94.07-7.43.15a4.7,4.7,0,0,1-.53,0c-1.05,0-2.35.24-3.07-.28S34.84,82.44,34.7,81.52ZM34.16,89c.2-.88.54-1,1.24-1,3.46.11,6.93.31,10.4.29a47.48,47.48,0,0,0,6.4-.53c2.19-.31,4.31.28,6.48.23,2.7-.07,5.41,0,8.12.08,4.2.1,8.4.31,12.6.33a73,73,0,0,0,10.45-.32c2.14-.3,4.25.33,6.41.24,4.06-.18,8.14-.07,12.22-.24,5.69-.24,11.41,0,17.12,0,1.61,0,1.16,1.28,1.14,2.14A63.54,63.54,0,0,1,125.65,98c-.67,4.29-2.41,6-6.7,6.93a18.86,18.86,0,0,1-3.42.61,50.21,50.21,0,0,1-9,0c-3.75-.14-7.52-.09-11.28-.06a7.23,7.23,0,0,1-4.79-1.86,33.34,33.34,0,0,0-5.65-4c-4.27-2.16-7.94-.94-11.35,1.7a40.59,40.59,0,0,1-4.85,3.69c-1.61.89-3.82.81-5.78.67a71,71,0,0,0-11.48.12,27.92,27.92,0,0,1-7.77-.31c-3.23-.64-7.14-1.39-8.07-5.27a35.45,35.45,0,0,1-1.15-7.7C34.34,91.28,33.9,90.21,34.16,89Zm-5.6-6.36a46.22,46.22,0,0,1,.46-7.7,3.58,3.58,0,0,1,2.19-3c0,8.8-1.1,17.5.18,26.38A4.83,4.83,0,0,1,29,95.62C27.46,91.31,28.52,87,28.56,82.63Z" transform="translate(-24.88 -23.95)"/><path class="cls-4" d="M99.15,121.36a5.54,5.54,0,0,0-1.34.13c-6.89,1-13.78,1.86-20.77,1.2-3.7-.35-7.46-.14-11.08-1.17-1-.29-2.1-.66-2.54.58s.76,1.58,1.55,2a24.77,24.77,0,0,0,9.76,2.22c3.72.19,7.46.7,11.21.35.23,0,.47,0,.7,0a58.9,58.9,0,0,0,9.15-1.76c1.31-.33,2.78-.32,3.93-1.32a1.35,1.35,0,0,0,.6-1.33C100.22,121.54,99.67,121.42,99.15,121.36Z" transform="translate(-24.88 -23.95)"/><path class="cls-4" d="M73,112.89a9.66,9.66,0,0,0,5,1.21,27.36,27.36,0,0,0,4.06,0,9.84,9.84,0,0,0,5.51-.84c.94-.47,2-1,1.31-2.37-.58-1.21-1.6-1-2.56-.67a23,23,0,0,1-7,.65c-1.86,0-3.5-1.39-5.47-.75-.57.19-1.13.13-1.31.87S72.25,112.47,73,112.89Z" transform="translate(-24.88 -23.95)"/></g></svg>