<svg id="Layer_1" data-name="Layer 1" xmlns="http://www.w3.org/2000/svg" viewBox="0 0 432 189"><defs><style>.cls-1{fill:#404d8c;}.cls-2{fill:#191e48;}.cls-3{fill:#fff;}</style></defs><title>cloud</title><path class="cls-1" d="M634.8,61.3v72.6l-.9.7a12.6,12.6,0,0,1-17.5-3.4,4.7,4.7,0,0,1-1,1,12.2,12.2,0,0,1-17.2-.8H598a27.7,27.7,0,0,1-38.8-6.3,16.4,16.4,0,0,1-4,4.7,16.9,16.9,0,0,1-23.8-2.5,12.2,12.2,0,0,1-22.9-.6,13,13,0,0,1-4,3.4,13.4,13.4,0,0,1-5.2,1.4,12.4,12.4,0,0,1-5.4-1l-1.7,1.1a5.8,5.8,0,0,1-7.7-3,40.3,40.3,0,0,1-8.4,1.1,42.1,42.1,0,0,1-10.6-.7h0a6.1,6.1,0,0,1-2.3,3,5.8,5.8,0,0,1-6.1.1,5.5,5.5,0,0,1-1.9-1.8,5.9,5.9,0,0,1-7.7-2.1,47.3,47.3,0,0,1-12.4-2,6.2,6.2,0,0,1-2,1.5,4.9,4.9,0,0,1-6.2-2.9h-.8c-12.8.6-23.4-.5-23.4-2.3s9.3-3.6,21.4-4.2c0-.3.1-.5.1-.8h0c.1-.2.1-.5.2-.7v-.2l.8-1.3a6,6,0,0,1,8.4-1.1l.4-.5a6.2,6.2,0,0,1,4.3-2.2,6,6,0,0,1,3,.7,5.8,5.8,0,0,1,2.1-3.7,6.1,6.1,0,0,1,8.5,1,7.9,7.9,0,0,1,5.5-2.7,11.3,11.3,0,0,1,3.2.5c0-3.1,3.4-6,8.5-7.8a34.3,34.3,0,0,1,13-2.3,11.9,11.9,0,0,1,2.7-4.6,10.6,10.6,0,0,1,14.9,0,12.5,12.5,0,0,1,10.2.1,8.4,8.4,0,0,1,7-4.2h1a15.7,15.7,0,0,1,1.8-4.2,18.9,18.9,0,0,1,25.9-6.7,8,8,0,0,1,.3-1.5,9.8,9.8,0,0,1,12.5-6,14.8,14.8,0,0,1,3.4-9.1,14.6,14.6,0,0,1,20.6-1.7,18,18,0,0,1,36-.6l2-.8A14.5,14.5,0,0,1,634.8,61.3Z" transform="translate(-202.8 0)"/><path class="cls-1" d="M480,132.4c0,1.2-4.9,2.5-12,2.6-.5,1.1-2.2,2-4,2.5a8.4,8.4,0,0,1-5-.1,1.9,1.9,0,0,1-.9-.5l-.8.9a3.8,3.8,0,0,1-2.7,1l-1.2-.2a4.4,4.4,0,0,1-1.7,1.9,4.1,4.1,0,0,1-5.5-1.5,3.5,3.5,0,0,1-.5.8l-.5.5h-.1a7.9,7.9,0,0,1-8.5,1.8l-.9-.5a5.1,5.1,0,0,1-1.3-.9.1.1,0,0,1-.1-.1,4.6,4.6,0,0,1-.7.7,7.9,7.9,0,0,1-11.2-1.1,11.9,11.9,0,0,1-20.3,0c-12.7,3.7-29.4,6.2-42.3.3a12,12,0,0,1-20.7.3,16.1,16.1,0,0,1-3.7.4,16.9,16.9,0,0,1-5-.8,14.1,14.1,0,0,1-3.9,3.4,12,12,0,0,1-16.3-4.8,36.4,36.4,0,0,1-34.8-1,16.8,16.8,0,0,1-12.9,10.7A16.6,16.6,0,0,1,243.4,135a31.2,31.2,0,0,1-24,.9,31.4,31.4,0,0,1-16.6,5V39.7a32.4,32.4,0,0,1,8.5-8,31.8,31.8,0,0,1,17.1-5.1A31.5,31.5,0,0,1,255,41.1a27.5,27.5,0,0,1,28,3.1,11.3,11.3,0,0,1,6.2-3.2,11.5,11.5,0,0,1,3.7.1,10.7,10.7,0,0,1,8.7,9,18.5,18.5,0,0,1,16.5,11.6,18.2,18.2,0,0,1,8.4-2.5h1a18.6,18.6,0,0,1,18.6,18.7,21.1,21.1,0,0,1-.2,2.6h.2a18.5,18.5,0,0,1,16.3,9.7,5.9,5.9,0,0,1,2.6-.7h1.2a5.7,5.7,0,0,1,4.4,6.6,23.2,23.2,0,0,1,9.3,4.6,12.4,12.4,0,0,1,8.7-3.9,12.1,12.1,0,0,1,12.1,11.9,5.3,5.3,0,0,1-.1,1.3,7.6,7.6,0,0,1,9.6,5.9,5.6,5.6,0,0,1,7.7.8,5.6,5.6,0,0,1,3.3-1,6.4,6.4,0,0,1,3.3,1,5.7,5.7,0,0,1,2.2,3.4,8.4,8.4,0,0,1,10.1,2.1l1.6-.2a6.3,6.3,0,0,1,6.3,5.1l.8-.6a4.1,4.1,0,0,1,5.5,1.3,3.8,3.8,0,0,1,2.5-.9,4.3,4.3,0,0,1,3,1.3,4.8,4.8,0,0,1,3.7-1.1l1.4.2,1.8.5a7.7,7.7,0,0,1,2.1,1.4l.6.5h.1C470.6,129.8,480.1,130.6,480,132.4Z" transform="translate(-202.8 0)"/><path class="cls-2" d="M634.8,123.8v39.1h0a10.7,10.7,0,0,1-10.4.1,13.9,13.9,0,0,1-2.7-2.1,11.5,11.5,0,0,1-13,1,24.9,24.9,0,0,1-27.8.8h-.6a25.4,25.4,0,0,1-15.9.3h0l-2.8-1.1a4.4,4.4,0,0,1-.2,1,13.2,13.2,0,0,1-25.2,1.5,29.3,29.3,0,0,1-27.7.8,9.4,9.4,0,0,1-12.9,3.7,8.6,8.6,0,0,1-3.1-2.6,13.4,13.4,0,0,1-4,.6,9.2,9.2,0,0,1-2.9-.4,9.6,9.6,0,0,1-13.1,3.3,8.8,8.8,0,0,1-3.4-3.5c-10.3,4.7-23.5,2.7-33.7-.2a9.5,9.5,0,0,1-13.1,3,10.7,10.7,0,0,1-3-3,6.5,6.5,0,0,1-4.8,2.3,6.1,6.1,0,0,1-4.6-2,6.3,6.3,0,0,1-8.6-.2h-.1l-.4-.5-.4-.6a3.1,3.1,0,0,1-4.3,1.2,3.4,3.4,0,0,1-1.4-1.5l-1,.2a3.5,3.5,0,0,1-2.9-1.5c-1.4,1.3-4.9.8-6.8-.4a2.6,2.6,0,0,1-1-1.1c-5.7,0-9.5-1.1-9.5-2.1a.5.5,0,0,1,.3-.4c1.4-1.1,7.6-1.6,10.7-1.6h.1a6.8,6.8,0,0,1,4.7-2.1,4,4,0,0,1,3,.9,3,3,0,0,1,4.3-.3,3.2,3.2,0,0,1,4.4-1.1l.6.5a5.1,5.1,0,0,1,5-4l1.2.2a6.9,6.9,0,0,1,5.1-2.4,7.8,7.8,0,0,1,3,.7,4.4,4.4,0,0,1,5.3-3.4,3.6,3.6,0,0,1,1.7.7,4.6,4.6,0,0,1,3.3-1.6,5.6,5.6,0,0,1,2.8,1,6.1,6.1,0,0,1,6-4.9,4.5,4.5,0,0,1,1.6.3v-1a9.5,9.5,0,0,1,9.5-9.6,9.7,9.7,0,0,1,7,3.1,20.2,20.2,0,0,1,4-2.4,19.6,19.6,0,0,1,3.4-1.2v-.8a4.4,4.4,0,0,1,1.1-3,4.6,4.6,0,0,1,3.3-1.5h.1a4.6,4.6,0,0,1,2,.5,14.5,14.5,0,0,1,13-7.6h.2a14.8,14.8,0,0,1,22-15,14.7,14.7,0,0,1,13.1-9.2,8.5,8.5,0,0,1,9.9-7.2,8.9,8.9,0,0,1,4.9,2.5,21.9,21.9,0,0,1,22.3-2.4A25,25,0,0,1,596,90l2.5-.3a15.6,15.6,0,0,1,15.6,15.7,15.3,15.3,0,0,1-.3,3h.2a15.5,15.5,0,0,1,15.3,13A14.4,14.4,0,0,1,634.8,123.8Z" transform="translate(-202.8 0)"/><path class="cls-2" d="M594.4,159.4h0c-.1,1.5-5.4,2.7-13.5,3.3h-.6c-2.5.2-5.3.3-8.3.3H558.4c0,.1-.1.2-.1.3H202.8V99a16.1,16.1,0,0,1,7.5,2.3,23.3,23.3,0,0,1,19-11.5,19.3,19.3,0,0,1-.1-2.4,10.6,10.6,0,0,1,11.1-10.2,10,10,0,0,1,3.8.8,21.6,21.6,0,0,1,27.1-14.2l2.9,1.1a26.7,26.7,0,0,1,18.8-23.8,25.6,25.6,0,0,1,9.6-1.2,26.9,26.9,0,0,1,24,19.3,28.5,28.5,0,0,1,1.1,6.6,21.6,21.6,0,0,1,30.5,2.5,21.7,21.7,0,0,1,5.1,13.5A14.6,14.6,0,0,1,381.7,91a10.5,10.5,0,0,1,.5,1.9A28.1,28.1,0,0,1,420.6,103a32,32,0,0,1,2.6,6h1.5a12.8,12.8,0,0,1,9.4,4.8l.3.3.8,1.2.5-.2a18.1,18.1,0,0,1,9.4-1.4,16.3,16.3,0,0,1,5.2,1.5,16.2,16.2,0,0,1,4.3-3.1,14.8,14.8,0,0,1,2.7-1l1.7-.4a16.8,16.8,0,0,1,5,.1,15.3,15.3,0,0,1,11.3,8.6,20,20,0,0,1,1,2.6,50.4,50.4,0,0,1,19.2,3.2,30.4,30.4,0,0,1,9,5c2.3,2,3.7,4.3,3.8,6.7a12,12,0,0,1,12.9,3.2,8.7,8.7,0,0,1,12.4-1.5,9,9,0,0,1,3.3,5.5,8.8,8.8,0,0,1,11.4,2.9,8.8,8.8,0,0,1,12.4,1.5,7.6,7.6,0,0,1,1.3,2.3,2.2,2.2,0,0,1,.3,1v.3c.1.3.1.7.2,1C580.3,154.1,594.3,156.8,594.4,159.4Z" transform="translate(-202.8 0)"/><rect class="cls-2" y="159.4" width="431.9" height="29.66"/><rect class="cls-3" width="432" height="26.64"/></svg>