<?xml version="1.0"?>
<svg xmlns="http://www.w3.org/2000/svg" xmlns:xlink="http://www.w3.org/1999/xlink" version="1.1" id="Capa_1" x="0px" y="0px" viewBox="0 0 512 512" style="enable-background:new 0 0 512 512;" xml:space="preserve" width="512px" height="512px"><g><g>
	<g>
		<path d="M402.048,149.824C387.221,75.968,321.365,21.333,245.333,21.333c-88.235,0-160,71.765-160,160    c0,3.605,0.149,7.296,0.469,11.2C37.653,197.653,0,238.507,0,288c0,52.928,43.072,96,96,96c5.888,0,10.667-4.779,10.667-10.667    c0-5.888-4.779-10.667-10.667-10.667c-41.173,0-74.667-33.493-74.667-74.667s33.493-74.667,73.941-74.709    c0.469,0.085,1.792,0.213,2.261,0.213c2.944-0.32,6.123-1.259,8.192-3.605s3.008-5.483,2.56-8.576    c-1.109-7.616-1.621-13.973-1.621-19.989c0-76.459,62.208-138.667,138.667-138.667c68.501,0,127.445,51.157,137.109,118.997    c0.747,5.333,6.699,9.195,12.224,9.003c52.928,0,96,43.072,96,96c0,52.928-43.072,96-96,96c-5.888,0-10.667,4.779-10.667,10.667    c0,5.888,4.779,10.667,10.667,10.667C459.349,384,512,331.371,512,266.667C512,204.992,464.171,154.283,402.048,149.824z" data-original="#000000" class="active-path" data-old_color="#000000" fill="#FFFFFF"/>
	</g>
</g><g>
	<g>
		<path d="M245.333,256C180.651,256,128,308.629,128,373.333s52.651,117.333,117.333,117.333s117.333-52.629,117.333-117.333    S310.016,256,245.333,256z M245.333,469.333c-52.928,0-96-43.072-96-96c0-52.928,43.072-96,96-96c52.928,0,96,43.072,96,96    C341.333,426.261,298.261,469.333,245.333,469.333z" data-original="#000000" class="active-path" data-old_color="#000000" fill="#FFFFFF"/>
	</g>
</g><g>
	<g>
		<path d="M245.333,298.667c-5.888,0-10.667,4.779-10.667,10.667v128c0,5.888,4.779,10.667,10.667,10.667S256,443.221,256,437.333    v-128C256,303.445,251.221,298.667,245.333,298.667z" data-original="#000000" class="active-path" data-old_color="#000000" fill="#FFFFFF"/>
	</g>
</g><g>
	<g>
		<path d="M295.509,387.136c-4.16-4.16-10.923-4.16-15.083,0l-35.115,35.115l-35.115-35.115c-4.16-4.16-10.923-4.16-15.083,0    c-4.16,4.16-4.16,10.923,0,15.083l42.667,42.667c2.091,2.069,4.821,3.115,7.552,3.115c2.731,0,5.461-1.045,7.509-3.115    l42.667-42.667C299.669,398.059,299.669,391.296,295.509,387.136z" data-original="#000000" class="active-path" data-old_color="#000000" fill="#FFFFFF"/>
	</g>
</g></g> </svg>
