<?xml version="1.0"?>
<svg xmlns="http://www.w3.org/2000/svg" height="512px" viewBox="0 0 480 480" width="512px"><g><g fill="#1e81ce"><path d="m408 480h-336c-39.746094-.046875-71.953125-32.253906-72-72v-64c0-4.417969 3.582031-8 8-8s8 3.582031 8 8v64c.035156 30.914062 25.085938 55.964844 56 56h336c30.914062-.035156 55.964844-25.085938 56-56v-64c0-4.417969 3.582031-8 8-8s8 3.582031 8 8v64c-.046875 39.746094-32.253906 71.953125-72 72zm0 0" data-original="#1E81CE" class="active-path" data-old_color="#1E81CE" fill="#FFFFFF"/><path d="m336.167969 295.832031c-1.5-1.503906-3.535157-2.347656-5.660157-2.347656s-4.160156.84375-5.660156 2.347656l-76.847656 76.855469v-364.6875c0-4.417969-3.582031-8-8-8s-8 3.582031-8 8v364.6875l-76.847656-76.855469c-3.125-3.125-8.195313-3.125-11.320313 0s-3.125 8.195313 0 11.320313l90.511719 90.503906c.746094.742188 1.628906 1.328125 2.601562 1.726562 1.953126.824219 4.15625.824219 6.109376 0 .972656-.398437 1.855468-.984374 2.601562-1.726562l90.511719-90.503906c1.503906-1.5 2.347656-3.535156 2.347656-5.660156s-.84375-4.160157-2.347656-5.660157zm0 0" data-original="#1E81CE" class="active-path" data-old_color="#1E81CE" fill="#FFFFFF"/></g></g> </svg>
