<svg id="Layer_1" data-name="Layer 1" xmlns="http://www.w3.org/2000/svg" viewBox="0 0 512 512"><defs><style>.cls-1{fill:#fff;}.cls-2{fill:none;}</style></defs><title>telegram</title><path class="cls-1" d="M432.46,512H394.7a14.53,14.53,0,1,1,0-29.05h37.76A50.55,50.55,0,0,0,483,432.46V79.54a50.55,50.55,0,0,0-50.49-50.49H214.37a14.53,14.53,0,1,1,0-29H432.46A79.63,79.63,0,0,1,512,79.54V432.46A79.63,79.63,0,0,1,432.46,512Z"/><path class="cls-1" d="M289.69,512H79.54A79.63,79.63,0,0,1,0,432.46V79.54A79.63,79.63,0,0,1,79.54,0h32.68a14.53,14.53,0,0,1,0,29.05H79.54A50.55,50.55,0,0,0,29.05,79.54V432.46A50.55,50.55,0,0,0,79.54,483H289.69a14.53,14.53,0,1,1,0,29.05Z"/><path class="cls-2" d="M397.09,120.69,101,236.08a10.79,10.79,0,0,0,.87,20.41l67.63,20,21,78.71a12.93,12.93,0,0,0,21.56,5.16l41.62-39.72L342,389.27a15.93,15.93,0,0,0,25-9.58L417.54,138a15.24,15.24,0,0,0-20.45-17.31Z"/><path class="cls-1" d="M351.35,406.89h0a30.16,30.16,0,0,1-18-5.91l-.32-.24-78.39-61L222.25,370.7a27.44,27.44,0,0,1-45.58-11.16l-.18-.62-18.92-70.84L97.76,270.42a25.32,25.32,0,0,1-2-47.87L391.82,107.16a29.67,29.67,0,0,1,33.94,9,29.57,29.57,0,0,1,6,24.82L381.2,382.67A30.62,30.62,0,0,1,351.35,406.89Zm-.7-29.26a1.25,1.25,0,0,0,.7.22,1.42,1.42,0,0,0,1.42-1.13L403.32,135a.52.52,0,0,0-.1-.55.84.84,0,0,0-.55-.33.89.89,0,0,0-.3.08L116.44,245.65l57.17,16.88a14.51,14.51,0,0,1,9.92,10.18l20.17,75.54,40-38.15a14.52,14.52,0,0,1,18.94-1Z"/><path class="cls-1" d="M219.68,360.21c.45,1.48,17.09-19.32,17.27-20.86l-7.46-36.54A13.32,13.32,0,0,1,234,289.9l136.8-113.68a3.59,3.59,0,0,0-4.26-5.74L205.69,268.6a10.72,10.72,0,0,0-4.94,11.16Z"/></svg>