<svg id="Capa_1" data-name="Capa 1" xmlns="http://www.w3.org/2000/svg" viewBox="0 0 748 743"><defs><style>.cls-1{fill:#f1faff;}</style></defs><title>social network</title><path class="cls-1" d="M299.87,427.72a54,54,0,1,1,54-54A54.07,54.07,0,0,1,299.87,427.72Zm0-101.65a47.65,47.65,0,1,0,47.65,47.65A47.69,47.69,0,0,0,299.87,326.07Z" transform="translate(-27.5 -20.5)"/><path class="cls-1" d="M527,580.88a54,54,0,1,1,54-54A54.06,54.06,0,0,1,527,580.88Zm0-101.65a47.65,47.65,0,1,0,47.65,47.65A47.7,47.7,0,0,0,527,479.23Z" transform="translate(-27.5 -20.5)"/><path class="cls-1" d="M309.5,641.5a41,41,0,1,1,41-41A41,41,0,0,1,309.5,641.5Zm0-77.18a36.18,36.18,0,1,0,36.18,36.18A36.22,36.22,0,0,0,309.5,564.32Z" transform="translate(-27.5 -20.5)"/><path class="cls-1" d="M149.5,281.5a41,41,0,1,1,41-41A41,41,0,0,1,149.5,281.5Zm0-77.18a36.18,36.18,0,1,0,36.18,36.18A36.22,36.22,0,0,0,149.5,204.32Z" transform="translate(-27.5 -20.5)"/><path class="cls-1" d="M503.5,182.5a41,41,0,1,1,41-41A41,41,0,0,1,503.5,182.5Zm0-77.18a36.18,36.18,0,1,0,36.18,36.18A36.22,36.22,0,0,0,503.5,105.32Z" transform="translate(-27.5 -20.5)"/><path class="cls-1" d="M588.5,333.5a41,41,0,1,1,41-41A41,41,0,0,1,588.5,333.5Zm0-77.18a36.18,36.18,0,1,0,36.18,36.18A36.22,36.22,0,0,0,588.5,256.32Z" transform="translate(-27.5 -20.5)"/><path class="cls-1" d="M450,405.5A29.5,29.5,0,1,1,479.5,376,29.53,29.53,0,0,1,450,405.5ZM450,350a26,26,0,1,0,26,26A26.06,26.06,0,0,0,450,350Z" transform="translate(-27.5 -20.5)"/><path class="cls-1" d="M657,132.5A29.5,29.5,0,1,1,686.5,103,29.53,29.53,0,0,1,657,132.5ZM657,77a26,26,0,1,0,26,26A26.06,26.06,0,0,0,657,77Z" transform="translate(-27.5 -20.5)"/><path class="cls-1" d="M234,140.5A29.5,29.5,0,1,1,263.5,111,29.53,29.53,0,0,1,234,140.5ZM234,85a26,26,0,1,0,26,26A26.06,26.06,0,0,0,234,85Z" transform="translate(-27.5 -20.5)"/><path class="cls-1" d="M182,567.5A29.5,29.5,0,1,1,211.5,538,29.53,29.53,0,0,1,182,567.5ZM182,512a26,26,0,1,0,26,26A26.06,26.06,0,0,0,182,512Z" transform="translate(-27.5 -20.5)"/><path class="cls-1" d="M580,713.5A29.5,29.5,0,1,1,609.5,684,29.53,29.53,0,0,1,580,713.5ZM580,658a26,26,0,1,0,26,26A26.06,26.06,0,0,0,580,658Z" transform="translate(-27.5 -20.5)"/><path class="cls-1" d="M667,763.5A18.5,18.5,0,1,1,685.5,745,18.52,18.52,0,0,1,667,763.5Zm0-34.82A16.32,16.32,0,1,0,683.32,745,16.34,16.34,0,0,0,667,728.68Z" transform="translate(-27.5 -20.5)"/><path class="cls-1" d="M700,687.5A18.5,18.5,0,1,1,718.5,669,18.52,18.52,0,0,1,700,687.5Zm0-34.82A16.32,16.32,0,1,0,716.32,669,16.34,16.34,0,0,0,700,652.68Z" transform="translate(-27.5 -20.5)"/><path class="cls-1" d="M118,699.5A18.5,18.5,0,1,1,136.5,681,18.52,18.52,0,0,1,118,699.5Zm0-34.82A16.32,16.32,0,1,0,134.32,681,16.34,16.34,0,0,0,118,664.68Z" transform="translate(-27.5 -20.5)"/><path class="cls-1" d="M68.54,332A18.5,18.5,0,1,1,87,313.52,18.52,18.52,0,0,1,68.54,332Zm0-34.82a16.32,16.32,0,1,0,16.32,16.32A16.35,16.35,0,0,0,68.54,297.2Z" transform="translate(-27.5 -20.5)"/><path class="cls-1" d="M81.54,490a18.5,18.5,0,1,1,18.5-18.5A18.52,18.52,0,0,1,81.54,490Zm0-34.82a16.32,16.32,0,1,0,16.32,16.32A16.35,16.35,0,0,0,81.54,455.2Z" transform="translate(-27.5 -20.5)"/><path class="cls-1" d="M99,105.5A18.5,18.5,0,1,1,117.5,87,18.52,18.52,0,0,1,99,105.5Zm0-34.82A16.32,16.32,0,1,0,115.32,87,16.34,16.34,0,0,0,99,70.68Z" transform="translate(-27.5 -20.5)"/><path class="cls-1" d="M383,198.5A18.5,18.5,0,1,1,401.5,180,18.52,18.52,0,0,1,383,198.5Zm0-34.82A16.32,16.32,0,1,0,399.32,180,16.34,16.34,0,0,0,383,163.68Z" transform="translate(-27.5 -20.5)"/><path class="cls-1" d="M644,493.5A18.5,18.5,0,1,1,662.5,475,18.52,18.52,0,0,1,644,493.5Zm0-34.82A16.32,16.32,0,1,0,660.32,475,16.34,16.34,0,0,0,644,458.68Z" transform="translate(-27.5 -20.5)"/><path class="cls-1" d="M747.54,202a18.5,18.5,0,1,1,18.5-18.5A18.52,18.52,0,0,1,747.54,202Zm0-34.82a16.32,16.32,0,1,0,16.32,16.32A16.35,16.35,0,0,0,747.54,167.2Z" transform="translate(-27.5 -20.5)"/><path class="cls-1" d="M435.54,624a18.5,18.5,0,1,1,18.5-18.5A18.52,18.52,0,0,1,435.54,624Zm0-34.82a16.32,16.32,0,1,0,16.32,16.32A16.35,16.35,0,0,0,435.54,589.2Z" transform="translate(-27.5 -20.5)"/><path class="cls-1" d="M737.54,536a18.5,18.5,0,1,1,18.5-18.5A18.52,18.52,0,0,1,737.54,536Zm0-34.82a16.32,16.32,0,1,0,16.32,16.32A16.35,16.35,0,0,0,737.54,501.2Z" transform="translate(-27.5 -20.5)"/><path class="cls-1" d="M711,296.5A18.5,18.5,0,1,1,729.5,278,18.52,18.52,0,0,1,711,296.5Zm0-34.82A16.32,16.32,0,1,0,727.32,278,16.34,16.34,0,0,0,711,261.68Z" transform="translate(-27.5 -20.5)"/><path class="cls-1" d="M573.76,72.67a18.5,18.5,0,1,1,18.5-18.5A18.52,18.52,0,0,1,573.76,72.67Zm0-34.82a16.33,16.33,0,1,0,16.32,16.32A16.34,16.34,0,0,0,573.76,37.85Z" transform="translate(-27.5 -20.5)"/><path class="cls-1" d="M482,499.5a1.5,1.5,0,0,1-.81-.24l-142-91a1.5,1.5,0,1,1,1.62-2.52l142,91a1.5,1.5,0,0,1-.81,2.76Z" transform="translate(-27.5 -20.5)"/><path class="cls-1" d="M261,339.5a1.51,1.51,0,0,1-1-.39l-81-74a1.5,1.5,0,1,1,2-2.22l81,74a1.5,1.5,0,0,1,.1,2.12A1.48,1.48,0,0,1,261,339.5Z" transform="translate(-27.5 -20.5)"/><path class="cls-1" d="M171,209.5a1.42,1.42,0,0,1-.79-.23,1.48,1.48,0,0,1-.48-2.06l46-74a1.5,1.5,0,1,1,2.54,1.58l-46,74A1.48,1.48,0,0,1,171,209.5Z" transform="translate(-27.5 -20.5)"/><path class="cls-1" d="M132.94,204.5a1.56,1.56,0,0,1-1.51-1.13l-27-98.93a1.5,1.5,0,0,1,1.1-1.85,1.57,1.57,0,0,1,1.91,1.07l27,98.94a1.51,1.51,0,0,1-1.11,1.85A1.83,1.83,0,0,1,132.94,204.5Z" transform="translate(-27.5 -20.5)"/><path class="cls-1" d="M405,279.5A11.5,11.5,0,1,1,416.5,268,11.51,11.51,0,0,1,405,279.5Zm0-20a8.5,8.5,0,1,0,8.5,8.5A8.51,8.51,0,0,0,405,259.5Z" transform="translate(-27.5 -20.5)"/><path class="cls-1" d="M656,581.5A11.5,11.5,0,1,1,667.5,570,11.51,11.51,0,0,1,656,581.5Zm0-20a8.5,8.5,0,1,0,8.5,8.5A8.51,8.51,0,0,0,656,561.5Z" transform="translate(-27.5 -20.5)"/><path class="cls-1" d="M169,399.5A11.5,11.5,0,1,1,180.5,388,11.51,11.51,0,0,1,169,399.5Zm0-20a8.5,8.5,0,1,0,8.5,8.5A8.51,8.51,0,0,0,169,379.5Z" transform="translate(-27.5 -20.5)"/><path class="cls-1" d="M311,103.5A11.5,11.5,0,1,1,322.5,92,11.51,11.51,0,0,1,311,103.5Zm0-20a8.5,8.5,0,1,0,8.5,8.5A8.51,8.51,0,0,0,311,83.5Z" transform="translate(-27.5 -20.5)"/><path class="cls-1" d="M39,271.5A11.5,11.5,0,1,1,50.5,260,11.51,11.51,0,0,1,39,271.5Zm0-20a8.5,8.5,0,1,0,8.5,8.5A8.51,8.51,0,0,0,39,251.5Z" transform="translate(-27.5 -20.5)"/><path class="cls-1" d="M49,539.5A11.5,11.5,0,1,1,60.5,528,11.51,11.51,0,0,1,49,539.5Zm0-20a8.5,8.5,0,1,0,8.5,8.5A8.51,8.51,0,0,0,49,519.5Z" transform="translate(-27.5 -20.5)"/><path class="cls-1" d="M369,505.5A11.5,11.5,0,1,1,380.5,494,11.51,11.51,0,0,1,369,505.5Zm0-20a8.5,8.5,0,1,0,8.5,8.5A8.51,8.51,0,0,0,369,485.5Z" transform="translate(-27.5 -20.5)"/><path class="cls-1" d="M330,266.5A11.5,11.5,0,1,1,341.5,255,11.51,11.51,0,0,1,330,266.5Zm0-20a8.5,8.5,0,1,0,8.5,8.5A8.51,8.51,0,0,0,330,246.5Z" transform="translate(-27.5 -20.5)"/><path class="cls-1" d="M119,53.5A11.5,11.5,0,1,1,130.5,42,11.51,11.51,0,0,1,119,53.5Zm0-20a8.5,8.5,0,1,0,8.5,8.5A8.51,8.51,0,0,0,119,33.5Z" transform="translate(-27.5 -20.5)"/><path class="cls-1" d="M764,471.5A11.5,11.5,0,1,1,775.5,460,11.51,11.51,0,0,1,764,471.5Zm0-20a8.5,8.5,0,1,0,8.5,8.5A8.51,8.51,0,0,0,764,451.5Z" transform="translate(-27.5 -20.5)"/><path class="cls-1" d="M759,267.5A11.5,11.5,0,1,1,770.5,256,11.51,11.51,0,0,1,759,267.5Zm0-20a8.5,8.5,0,1,0,8.5,8.5A8.51,8.51,0,0,0,759,247.5Z" transform="translate(-27.5 -20.5)"/><path class="cls-1" d="M57,180.5A11.5,11.5,0,1,1,68.5,169,11.51,11.51,0,0,1,57,180.5Zm0-20a8.5,8.5,0,1,0,8.5,8.5A8.51,8.51,0,0,0,57,160.5Z" transform="translate(-27.5 -20.5)"/><path class="cls-1" d="M478,56.5A11.5,11.5,0,1,1,489.5,45,11.51,11.51,0,0,1,478,56.5Zm0-20a8.5,8.5,0,1,0,8.5,8.5A8.51,8.51,0,0,0,478,36.5Z" transform="translate(-27.5 -20.5)"/><path class="cls-1" d="M525,755.5A11.5,11.5,0,1,1,536.5,744,11.51,11.51,0,0,1,525,755.5Zm0-20a8.5,8.5,0,1,0,8.5,8.5A8.51,8.51,0,0,0,525,735.5Z" transform="translate(-27.5 -20.5)"/><path class="cls-1" d="M323,704.5A11.5,11.5,0,1,1,334.5,693,11.51,11.51,0,0,1,323,704.5Zm0-20a8.5,8.5,0,1,0,8.5,8.5A8.51,8.51,0,0,0,323,684.5Z" transform="translate(-27.5 -20.5)"/><path class="cls-1" d="M70,636.5A11.5,11.5,0,1,1,81.5,625,11.51,11.51,0,0,1,70,636.5Zm0-20a8.5,8.5,0,1,0,8.5,8.5A8.51,8.51,0,0,0,70,616.5Z" transform="translate(-27.5 -20.5)"/><path class="cls-1" d="M241,43.5A11.5,11.5,0,1,1,252.5,32,11.51,11.51,0,0,1,241,43.5Zm0-20a8.5,8.5,0,1,0,8.5,8.5A8.51,8.51,0,0,0,241,23.5Z" transform="translate(-27.5 -20.5)"/><path class="cls-1" d="M702,52.5A11.5,11.5,0,1,1,713.5,41,11.51,11.51,0,0,1,702,52.5Zm0-20a8.5,8.5,0,1,0,8.5,8.5A8.51,8.51,0,0,0,702,32.5Z" transform="translate(-27.5 -20.5)"/><path class="cls-1" d="M601,204.5A11.5,11.5,0,1,1,612.5,193,11.51,11.51,0,0,1,601,204.5Zm0-20a8.5,8.5,0,1,0,8.5,8.5A8.51,8.51,0,0,0,601,184.5Z" transform="translate(-27.5 -20.5)"/><path class="cls-1" d="M735,376.5A11.5,11.5,0,1,1,746.5,365,11.51,11.51,0,0,1,735,376.5Zm0-20a8.5,8.5,0,1,0,8.5,8.5A8.51,8.51,0,0,0,735,356.5Z" transform="translate(-27.5 -20.5)"/><path class="cls-1" d="M331,333.5a1.5,1.5,0,0,1-.95-2.66l68-56a1.5,1.5,0,0,1,1.9,2.32l-68,56A1.48,1.48,0,0,1,331,333.5Z" transform="translate(-27.5 -20.5)"/><path class="cls-1" d="M413,262.5a1.5,1.5,0,0,1-1.16-2.45l70-86a1.5,1.5,0,1,1,2.32,1.9l-70,86A1.5,1.5,0,0,1,413,262.5Z" transform="translate(-27.5 -20.5)"/><rect class="cls-1" x="385.25" y="338.07" width="2" height="68.86" transform="translate(-51.09 698.38) rotate(-84.17)"/><polygon class="cls-1" points="408.41 331.07 381.56 257.84 383.58 257.17 410.44 330.4 408.41 331.07"/><rect class="cls-1" x="467.32" y="334.5" width="92.36" height="2" transform="translate(-127.37 318.71) rotate(-33.51)"/><rect class="cls-1" x="399" y="162.5" width="68.01" height="2" transform="translate(-57.28 135.58) rotate(-19.77)"/><rect class="cls-1" x="516.09" y="86" width="53.81" height="2" transform="translate(87.58 411.9) rotate(-48.01)"/><polygon class="cls-1" points="514.71 116.48 514.29 114.52 604.44 95.52 604.86 97.48 514.71 116.48"/><rect class="cls-1" x="301.64" y="428.85" width="2" height="132.24" transform="translate(-52.26 -4.48) rotate(-2.91)"/><rect class="cls-1" x="239.5" y="529.16" width="2" height="74.69" transform="translate(-401.47 511.44) rotate(-63.78)"/><rect class="cls-1" x="126.5" y="462.69" width="2" height="74.63" transform="translate(-390.45 319.13) rotate(-57.59)"/><rect class="cls-1" x="212.55" y="660" width="84.9" height="2" transform="translate(-429.37 375.04) rotate(-46.9)"/><polygon class="cls-1" points="101.49 646.19 99.63 645.35 146.56 545.08 148.41 545.92 101.49 646.19"/><rect class="cls-1" x="156.5" y="670.45" width="2" height="48.1" transform="translate(-575.35 575.9) rotate(-69.3)"/><rect class="cls-1" x="554" y="576.89" width="2" height="82.22" transform="translate(-194.45 186.72) rotate(-18.43)"/><rect class="cls-1" x="605.67" y="672.95" width="76.76" height="2.02" transform="translate(-110.15 69.57) rotate(-7.52)"/><rect class="cls-1" x="627.59" y="685.51" width="2.05" height="60.9" transform="translate(-347.75 781.57) rotate(-53.9)"/><rect class="cls-1" x="481.64" y="692" width="69.72" height="2" transform="translate(-121.69 60.88) rotate(-8.26)"/><rect class="cls-1" x="570.05" y="488.96" width="59.48" height="2" transform="translate(-142.64 171.66) rotate(-16.63)"/><rect class="cls-1" x="626.9" y="279.5" width="65.69" height="2" transform="translate(-46.96 30.59) rotate(-4.37)"/><rect class="cls-1" x="484.19" y="403.5" width="149.62" height="2" transform="translate(-19.39 799.47) rotate(-72.91)"/><rect class="cls-1" x="75.54" y="284" width="50.91" height="2" transform="translate(-199.44 134.39) rotate(-45)"/><polygon class="cls-1" points="627.51 539.67 616.51 472.02 618.49 471.67 629.49 539.32 627.51 539.67"/><rect class="cls-1" x="573.74" y="618" width="96.52" height="2" transform="translate(-266.54 767.76) rotate(-55.98)"/><path class="cls-1" d="M607,185.5a1.5,1.5,0,0,1-1.25-2.33l37-56a1.5,1.5,0,0,1,2.5,1.66l-37,56A1.5,1.5,0,0,1,607,185.5Z" transform="translate(-27.5 -20.5)"/><path class="cls-1" d="M590,189.5a1.5,1.5,0,0,1-.62-.13l-53-24a1.5,1.5,0,1,1,1.24-2.74l53,24a1.5,1.5,0,0,1-.62,2.87Z" transform="translate(-27.5 -20.5)"/><path class="cls-1" d="M592,255.5l-.26,0a1.51,1.51,0,0,1-1.22-1.74l9-51a1.5,1.5,0,0,1,3,.52l-9,51A1.5,1.5,0,0,1,592,255.5Z" transform="translate(-27.5 -20.5)"/><path class="cls-1" d="M734,172.5a1.51,1.51,0,0,1-1.06-.44l-53-53a1.5,1.5,0,0,1,2.12-2.12l53,53a1.49,1.49,0,0,1,0,2.12A1.51,1.51,0,0,1,734,172.5Z" transform="translate(-27.5 -20.5)"/><path class="cls-1" d="M673,79.5a1.48,1.48,0,0,1-.93-.32,1.51,1.51,0,0,1-.25-2.11l22-28a1.5,1.5,0,0,1,2.36,1.86l-22,28A1.53,1.53,0,0,1,673,79.5Z" transform="translate(-27.5 -20.5)"/><path class="cls-1" d="M234,83l-.26,0a1.51,1.51,0,0,1-1.22-1.74l7-39.5a1.5,1.5,0,1,1,3,.52l-7,39.5A1.5,1.5,0,0,1,234,83Z" transform="translate(-27.5 -20.5)"/><path class="cls-1" d="M261,102.5a1.5,1.5,0,0,1-.33-3l40-9a1.5,1.5,0,0,1,.66,2.92l-40,9A1.24,1.24,0,0,1,261,102.5Z" transform="translate(-27.5 -20.5)"/><path class="cls-1" d="M169,379.5a1.5,1.5,0,0,1-1.47-1.2L148,281.8a1.5,1.5,0,0,1,2.94-.6l19.5,96.5a1.5,1.5,0,0,1-1.17,1.77Z" transform="translate(-27.5 -20.5)"/><path class="cls-1" d="M179,389.5a1.5,1.5,0,0,1-.09-3l69-4a1.5,1.5,0,0,1,.18,3l-69,4Z" transform="translate(-27.5 -20.5)"/><path class="cls-1" d="M178,510.5a1.51,1.51,0,0,1-1.5-1.38l-9-111a1.5,1.5,0,0,1,3-.24l9,111a1.52,1.52,0,0,1-1.38,1.62Z" transform="translate(-27.5 -20.5)"/><path class="cls-1" d="M91.87,457.7a1.48,1.48,0,0,1-1-2.58L159,393.88a1.48,1.48,0,0,1,2,2.2L92.86,457.32A1.5,1.5,0,0,1,91.87,457.7Z" transform="translate(-27.5 -20.5)"/><path class="cls-1" d="M445.82,591.71a1.46,1.46,0,0,1-1-2.54L481,555.89a1.47,1.47,0,1,1,2,2.16l-36.21,33.28A1.45,1.45,0,0,1,445.82,591.71Z" transform="translate(-27.5 -20.5)"/><path class="cls-1" d="M417,607h-.12l-66.53-5a1.5,1.5,0,0,1,.22-3l66.54,5a1.5,1.5,0,0,1-.11,3Z" transform="translate(-27.5 -20.5)"/><path class="cls-1" d="M200,516.5a1.5,1.5,0,0,1-1.23-2.36l68-97a1.5,1.5,0,0,1,2.46,1.72l-68,97A1.49,1.49,0,0,1,200,516.5Z" transform="translate(-27.5 -20.5)"/><path class="cls-1" d="M294,323.5a1.49,1.49,0,0,1-1.44-1.09l-52-183a1.5,1.5,0,0,1,2.88-.82l52,183a1.49,1.49,0,0,1-1,1.85A1.51,1.51,0,0,1,294,323.5Z" transform="translate(-27.5 -20.5)"/><path class="cls-1" d="M657,463.5a1.5,1.5,0,0,1-1.17-2.44l72-89a1.5,1.5,0,0,1,2.34,1.88l-72,89A1.5,1.5,0,0,1,657,463.5Z" transform="translate(-27.5 -20.5)"/><path class="cls-1" d="M722,510.5a1.58,1.58,0,0,1-.63-.13l-60.84-27.19a1.5,1.5,0,0,1-.77-2,1.54,1.54,0,0,1,2-.76l60.84,27.18a1.51,1.51,0,0,1,.77,2A1.53,1.53,0,0,1,722,510.5Z" transform="translate(-27.5 -20.5)"/><path class="cls-1" d="M665,565.5a1.45,1.45,0,0,1-1.23-.67,1.48,1.48,0,0,1,.42-2l56.75-37.27a1.47,1.47,0,0,1,1.6,2.47l-56.74,37.26A1.49,1.49,0,0,1,665,565.5Z" transform="translate(-27.5 -20.5)"/><path class="cls-1" d="M449,698.5a1.53,1.53,0,0,1-.82-.24l-109-71a1.5,1.5,0,0,1,1.64-2.52l109,71a1.5,1.5,0,0,1-.82,2.76Z" transform="translate(-27.5 -20.5)"/><path class="cls-1" d="M206,102.5l-.23,0-88.5-14a1.5,1.5,0,0,1,.46-3l88.5,14a1.5,1.5,0,0,1-.23,3Z" transform="translate(-27.5 -20.5)"/><circle class="cls-1" cx="387.5" cy="66.5" r="8"/><circle class="cls-1" cx="602.5" cy="358.5" r="8"/><circle class="cls-1" cx="33.5" cy="724.5" r="8"/><circle class="cls-1" cx="379.5" cy="430.5" r="8"/><circle class="cls-1" cx="19.5" cy="28.5" r="8"/><circle class="cls-1" cx="231.5" cy="172.5" r="8"/><circle class="cls-1" cx="75.5" cy="352.5" r="8"/><circle class="cls-1" cx="725.5" cy="558.5" r="8"/><circle class="cls-1" cx="700.5" cy="700.5" r="8"/><circle class="cls-1" cx="647.5" cy="175.5" r="8"/><circle class="cls-1" cx="736.5" cy="37.5" r="8"/><rect class="cls-1" x="680.14" y="75" width="87.73" height="2" transform="translate(5.03 283.14) rotate(-24.21)"/><rect class="cls-1" x="485" y="53.68" width="2" height="49.65" transform="matrix(0.95, -0.32, 0.32, 0.95, -26.87, 140.31)"/><rect class="cls-1" x="442.5" y="75.03" width="2" height="59.94" transform="translate(115.99 427.59) rotate(-62.15)"/><rect class="cls-1" x="288.43" y="292.5" width="61.13" height="2" transform="translate(-75.24 504.09) rotate(-74.83)"/><rect class="cls-1" x="68.5" y="44.17" width="2" height="39.66" transform="translate(-49.8 65.83) rotate(-56.31)"/><rect class="cls-1" x="88" y="163.45" width="2" height="70.09" transform="translate(-145.44 110.92) rotate(-47.89)"/><rect class="cls-1" x="66.64" y="324" width="99.72" height="2" transform="translate(-255.4 328.76) rotate(-74.31)"/><polygon class="cls-1" points="79.77 646.18 47.62 612.28 49.07 610.91 81.23 644.82 79.77 646.18"/><polygon class="cls-1" points="34.3 725.12 32.72 723.87 75.29 670.59 76.88 671.84 34.3 725.12"/><polygon class="cls-1" points="293.5 661.6 289.5 618.29 291.49 618.09 295.49 661.39 293.5 661.6"/><rect class="cls-1" x="526.98" y="722" width="44.05" height="2" transform="translate(-361.96 493.63) rotate(-39.49)"/><rect class="cls-1" x="746.5" y="535.31" width="2" height="44.38" transform="translate(-142.35 182.15) rotate(-14.35)"/><rect class="cls-1" x="718" y="682.88" width="2" height="40.25" transform="translate(-265.98 375.26) rotate(-26.57)"/><rect class="cls-1" x="617.5" y="324.8" width="2" height="52.39" transform="translate(-116.33 256.84) rotate(-23.63)"/><rect class="cls-1" x="600.03" y="228.5" width="89.94" height="2" transform="translate(16.3 536.5) rotate(-48.17)"/><rect class="cls-1" x="543.5" y="171.68" width="2" height="93.65" transform="matrix(0.86, -0.5, 0.5, 0.86, -63.62, 282.28)"/><rect class="cls-1" x="482" y="398.28" width="2" height="89.44" transform="translate(-174.62 242.27) rotate(-26.57)"/><rect class="cls-1" x="312" y="90.41" width="2" height="117.18" transform="translate(9.03 337.62) rotate(-62.56)"/><path class="cls-1" d="M661,470a1,1,0,0,1-.1-2l93-9a1,1,0,1,1,.2,2l-93,9Z" transform="translate(-27.5 -20.5)"/><path class="cls-1" d="M747,504a1,1,0,0,1-.35-.06,1,1,0,0,1-.59-1.29l12-32a1,1,0,0,1,1.88.7l-12,32A1,1,0,0,1,747,504Z" transform="translate(-27.5 -20.5)"/><path class="cls-1" d="M728,274a1,1,0,0,1-.86-.49,1,1,0,0,1,.35-1.37l22-13a1,1,0,0,1,1,1.72l-22,13A1,1,0,0,1,728,274Z" transform="translate(-27.5 -20.5)"/><path class="cls-1" d="M107,72a.91.91,0,0,1-.39-.08,1,1,0,0,1-.53-1.31l8-19a1,1,0,1,1,1.84.78l-8,19A1,1,0,0,1,107,72Z" transform="translate(-27.5 -20.5)"/><path class="cls-1" d="M56,301a1,1,0,0,1-.87-.51l-17-30a1,1,0,1,1,1.74-1l17,30a1,1,0,0,1-.38,1.36A1,1,0,0,1,56,301Z" transform="translate(-27.5 -20.5)"/><path class="cls-1" d="M54,519a1,1,0,0,1-.84-1.54l19-30a1,1,0,0,1,1.68,1.08l-19,30A1,1,0,0,1,54,519Z" transform="translate(-27.5 -20.5)"/><path class="cls-1" d="M330,568a1,1,0,0,1-.87-1.49l35-63a1,1,0,0,1,1.74,1l-35,63A1,1,0,0,1,330,568Z" transform="translate(-27.5 -20.5)"/><path class="cls-1" d="M472.5,528.5a.79.79,0,0,1-.3,0L379.7,499a1,1,0,1,1,.6-1.9l92.5,29.5a1,1,0,0,1-.3,2Z" transform="translate(-27.5 -20.5)"/><path class="cls-1" d="M363,485a1,1,0,0,1-.84-.45l-42-64a1,1,0,0,1,1.68-1.1l42,64A1,1,0,0,1,363,485Z" transform="translate(-27.5 -20.5)"/><path class="cls-1" d="M553,672a1,1,0,0,1-.47-.12l-102-55a1,1,0,1,1,.94-1.76l102,55A1,1,0,0,1,553,672Z" transform="translate(-27.5 -20.5)"/><path class="cls-1" d="M334,246a1,1,0,0,1-.56-.17,1,1,0,0,1-.27-1.39l36-53a1,1,0,0,1,1.66,1.12l-36,53A1,1,0,0,1,334,246Z" transform="translate(-27.5 -20.5)"/><path class="cls-1" d="M133,673a1,1,0,0,1-.91-.59,1,1,0,0,1,.5-1.32l137-62a1,1,0,1,1,.82,1.82l-137,62A1,1,0,0,1,133,673Z" transform="translate(-27.5 -20.5)"/><path class="cls-1" d="M553,274a1,1,0,0,1-.48-.12l-154-85a1,1,0,1,1,1-1.76l154,85a1,1,0,0,1,.4,1.36A1,1,0,0,1,553,274Z" transform="translate(-27.5 -20.5)"/><path class="cls-1" d="M630,464a.91.91,0,0,1-.45-.11l-153-77a1,1,0,1,1,.9-1.78l153,77a1,1,0,0,1,.44,1.34A1,1,0,0,1,630,464Z" transform="translate(-27.5 -20.5)"/><path class="cls-1" d="M645.72,567.66a1.07,1.07,0,0,1-.35-.06L576.68,543a1,1,0,1,1,.69-1.93l68.69,24.61a1,1,0,0,1-.34,2Z" transform="translate(-27.5 -20.5)"/><path class="cls-1" d="M117.4,663.92a1,1,0,0,1-1-.79L80.56,490.21a1,1,0,0,1,.76-1.17,1,1,0,0,1,1.16.77l35.88,172.91a1,1,0,0,1-.76,1.17Z" transform="translate(-27.5 -20.5)"/><path class="cls-1" d="M674,730a.91.91,0,0,1-.39-.08,1,1,0,0,1-.53-1.31l18-43a1,1,0,1,1,1.84.78l-18,43A1,1,0,0,1,674,730Z" transform="translate(-27.5 -20.5)"/><path class="cls-1" d="M691,653a1,1,0,0,1-.93-.63l-29-73a1,1,0,1,1,1.86-.74l29,73a1,1,0,0,1-.56,1.3A1,1,0,0,1,691,653Z" transform="translate(-27.5 -20.5)"/><path class="cls-1" d="M641,458a1,1,0,0,1-1-.86l-11-78a1,1,0,0,1,2-.28l11,78a1,1,0,0,1-.85,1.13Z" transform="translate(-27.5 -20.5)"/><path class="cls-1" d="M634,378a1,1,0,0,1-.61-.21,1,1,0,0,1-.18-1.4l65-85a1,1,0,0,1,1.58,1.22l-65,85A1,1,0,0,1,634,378Z" transform="translate(-27.5 -20.5)"/><path class="cls-1" d="M730,356a1,1,0,0,1-1-.77l-14-58a1,1,0,1,1,1.94-.46l14,58a1,1,0,0,1-.74,1.2A.85.85,0,0,1,730,356Z" transform="translate(-27.5 -20.5)"/><path class="cls-1" d="M683,197a1,1,0,0,1-1-.74,1,1,0,0,1,.7-1.23l46-12.48a1,1,0,0,1,.52,1.93l-46,12.49A1.15,1.15,0,0,1,683,197Z" transform="translate(-27.5 -20.5)"/><path class="cls-1" d="M675,193a1,1,0,0,1-1-.71l-18-59.5a1,1,0,1,1,1.92-.58l18,59.5a1,1,0,0,1-.67,1.25A1,1,0,0,1,675,193Z" transform="translate(-27.5 -20.5)"/><path class="cls-1" d="M633,87a.94.94,0,0,1-.55-.17l-42-28a1,1,0,1,1,1.1-1.66l42,28A1,1,0,0,1,633,87Z" transform="translate(-27.5 -20.5)"/><path class="cls-1" d="M541.37,512A14.37,14.37,0,1,0,527,526.37,14.37,14.37,0,0,0,541.37,512Zm-25.15.31a9.91,9.91,0,0,1,2.53-7.19c2.06,2.08,8.25,7.19,19,7.19a10.78,10.78,0,0,1-21.56,0Z" transform="translate(-27.5 -20.5)"/><path class="cls-1" d="M502.34,537.43V552a4.11,4.11,0,0,0,4.11,4.11h41.1a4.11,4.11,0,0,0,4.11-4.11V537.43a8.22,8.22,0,0,0-8.22-8.22h-7.29a2,2,0,0,0-1.45.77l-7.18,10.16a.58.58,0,0,1-1,0L519.3,530a2,2,0,0,0-1.45-.77h-7.29A8.23,8.23,0,0,0,502.34,537.43Z" transform="translate(-27.5 -20.5)"/><path class="cls-1" d="M160.48,229.14a11,11,0,1,0-11,11A11,11,0,0,0,160.48,229.14Zm-19.22.23a7.59,7.59,0,0,1,1.93-5.49c1.58,1.59,6.31,5.49,14.55,5.49a8.24,8.24,0,0,1-16.48,0Z" transform="translate(-27.5 -20.5)"/><path class="cls-1" d="M130.65,248.56V259.7a3.14,3.14,0,0,0,3.14,3.14h31.42a3.14,3.14,0,0,0,3.14-3.14V248.56a6.28,6.28,0,0,0-6.29-6.28H156.5a1.5,1.5,0,0,0-1.11.59l-5.49,7.77a.45.45,0,0,1-.8,0l-5.49-7.77a1.5,1.5,0,0,0-1.11-.59h-5.56A6.29,6.29,0,0,0,130.65,248.56Z" transform="translate(-27.5 -20.5)"/><path class="cls-1" d="M320.06,589.17a10.89,10.89,0,1,0-10.89,10.89A10.88,10.88,0,0,0,320.06,589.17Zm-19.06.24a7.53,7.53,0,0,1,1.91-5.45c1.57,1.57,6.26,5.45,14.43,5.45a8.17,8.17,0,0,1-16.34,0Z" transform="translate(-27.5 -20.5)"/><path class="cls-1" d="M290.47,608.44v11a3.12,3.12,0,0,0,3.12,3.12h31.16a3.12,3.12,0,0,0,3.12-3.12v-11a6.23,6.23,0,0,0-6.24-6.23h-5.52a1.47,1.47,0,0,0-1.1.59l-5.45,7.7a.44.44,0,0,1-.78,0l-5.45-7.7a1.47,1.47,0,0,0-1.1-.59h-5.52A6.24,6.24,0,0,0,290.47,608.44Z" transform="translate(-27.5 -20.5)"/><path class="cls-1" d="M457.79,366.3a7.79,7.79,0,1,0-7.79,7.8A7.79,7.79,0,0,0,457.79,366.3Zm-13.63.17a5.36,5.36,0,0,1,1.36-3.9,14.37,14.37,0,0,0,10.33,3.9,5.85,5.85,0,1,1-11.69,0Z" transform="translate(-27.5 -20.5)"/><path class="cls-1" d="M436.62,380.09V388a2.23,2.23,0,0,0,2.23,2.23h22.3a2.23,2.23,0,0,0,2.23-2.23v-7.91a4.46,4.46,0,0,0-4.46-4.46H455a1.06,1.06,0,0,0-.79.42l-3.9,5.51a.31.31,0,0,1-.56,0l-3.9-5.51a1,1,0,0,0-.78-.42h-4A4.46,4.46,0,0,0,436.62,380.09Z" transform="translate(-27.5 -20.5)"/><path class="cls-1" d="M465.4,723.59a18.9,18.9,0,1,1,18.89-18.89A18.91,18.91,0,0,1,465.4,723.59Zm0-35.56a16.67,16.67,0,1,0,16.67,16.67A16.69,16.69,0,0,0,465.4,688Z" transform="translate(-27.5 -20.5)"/><path class="cls-1" d="M470.42,699.5a5,5,0,1,0-5,5A5,5,0,0,0,470.42,699.5Zm-8.79.11a3.45,3.45,0,0,1,.88-2.52,9.26,9.26,0,0,0,6.66,2.52,3.77,3.77,0,1,1-7.54,0Z" transform="translate(-27.5 -20.5)"/><path class="cls-1" d="M456.77,708.39v5.1a1.43,1.43,0,0,0,1.44,1.44h14.38a1.44,1.44,0,0,0,1.44-1.44v-5.1a2.87,2.87,0,0,0-2.88-2.87H468.6a.71.71,0,0,0-.51.26l-2.51,3.56a.2.2,0,0,1-.36,0l-2.52-3.56a.72.72,0,0,0-.51-.27h-2.55A2.88,2.88,0,0,0,456.77,708.39Z" transform="translate(-27.5 -20.5)"/><path class="cls-1" d="M705,663.8a5,5,0,1,0-5,5A5,5,0,0,0,705,663.8Zm-8.8.11a3.45,3.45,0,0,1,.88-2.52,9.26,9.26,0,0,0,6.66,2.52,3.77,3.77,0,0,1-7.54,0Z" transform="translate(-27.5 -20.5)"/><path class="cls-1" d="M691.37,672.69v5.1a1.43,1.43,0,0,0,1.44,1.44h14.38a1.43,1.43,0,0,0,1.44-1.44v-5.1a2.87,2.87,0,0,0-2.88-2.87H703.2a.7.7,0,0,0-.51.27l-2.51,3.55a.2.2,0,0,1-.36,0l-2.51-3.55a.7.7,0,0,0-.51-.27h-2.55A2.87,2.87,0,0,0,691.37,672.69Z" transform="translate(-27.5 -20.5)"/><path class="cls-1" d="M527.62,740.89a2.62,2.62,0,1,0-2.62,2.62A2.61,2.61,0,0,0,527.62,740.89ZM523,741a1.78,1.78,0,0,1,.46-1.31A4.79,4.79,0,0,0,527,741a2,2,0,1,1-3.92,0Z" transform="translate(-27.5 -20.5)"/><path class="cls-1" d="M520.51,745.52v2.66a.74.74,0,0,0,.75.74h7.48a.74.74,0,0,0,.75-.74v-2.66A1.5,1.5,0,0,0,528,744h-1.32a.36.36,0,0,0-.27.14L525.09,746a.1.1,0,0,1-.18,0l-1.31-1.85a.35.35,0,0,0-.27-.14H522A1.5,1.5,0,0,0,520.51,745.52Z" transform="translate(-27.5 -20.5)"/><path class="cls-1" d="M658.62,567.29a2.62,2.62,0,1,0-2.62,2.62A2.61,2.61,0,0,0,658.62,567.29Zm-4.58.06a1.78,1.78,0,0,1,.46-1.31,4.79,4.79,0,0,0,3.46,1.31,2,2,0,1,1-3.92,0Z" transform="translate(-27.5 -20.5)"/><path class="cls-1" d="M651.51,571.92v2.66a.74.74,0,0,0,.75.74h7.48a.74.74,0,0,0,.75-.74v-2.66a1.49,1.49,0,0,0-1.5-1.49h-1.32a.36.36,0,0,0-.27.14l-1.31,1.85a.1.1,0,0,1-.18,0l-1.31-1.85a.36.36,0,0,0-.27-.15H653A1.5,1.5,0,0,0,651.51,571.92Z" transform="translate(-27.5 -20.5)"/><path class="cls-1" d="M766.62,456.29a2.62,2.62,0,1,0-2.62,2.62A2.61,2.61,0,0,0,766.62,456.29Zm-4.58.06a1.78,1.78,0,0,1,.46-1.31,4.79,4.79,0,0,0,3.46,1.31,2,2,0,1,1-3.92,0Z" transform="translate(-27.5 -20.5)"/><path class="cls-1" d="M759.51,460.92v2.66a.74.74,0,0,0,.75.74h7.48a.74.74,0,0,0,.75-.74v-2.66a1.5,1.5,0,0,0-1.5-1.49h-1.32a.36.36,0,0,0-.27.14l-1.31,1.85a.1.1,0,0,1-.18,0l-1.31-1.85a.35.35,0,0,0-.27-.14H761A1.5,1.5,0,0,0,759.51,460.92Z" transform="translate(-27.5 -20.5)"/><path class="cls-1" d="M737.62,362.29a2.62,2.62,0,1,0-2.62,2.62A2.61,2.61,0,0,0,737.62,362.29Zm-4.58.06a1.78,1.78,0,0,1,.46-1.31,4.79,4.79,0,0,0,3.46,1.31,2,2,0,1,1-3.92,0Z" transform="translate(-27.5 -20.5)"/><path class="cls-1" d="M730.51,366.92v2.66a.74.74,0,0,0,.75.74h7.48a.74.74,0,0,0,.75-.74v-2.66a1.49,1.49,0,0,0-1.5-1.49h-1.32a.36.36,0,0,0-.27.14l-1.31,1.84a.1.1,0,0,1-.18,0l-1.31-1.84a.36.36,0,0,0-.27-.15H732A1.5,1.5,0,0,0,730.51,366.92Z" transform="translate(-27.5 -20.5)"/><path class="cls-1" d="M603.62,190.29a2.62,2.62,0,1,0-2.62,2.62A2.61,2.61,0,0,0,603.62,190.29Zm-4.58.06a1.78,1.78,0,0,1,.46-1.31,4.79,4.79,0,0,0,3.46,1.31,2,2,0,0,1-3.92,0Z" transform="translate(-27.5 -20.5)"/><path class="cls-1" d="M596.51,194.92v2.66a.74.74,0,0,0,.75.74h7.48a.74.74,0,0,0,.75-.74v-2.66a1.5,1.5,0,0,0-1.5-1.49h-1.32a.36.36,0,0,0-.27.14l-1.31,1.85a.1.1,0,0,1-.18,0l-1.31-1.85a.35.35,0,0,0-.27-.14H598A1.5,1.5,0,0,0,596.51,194.92Z" transform="translate(-27.5 -20.5)"/><path class="cls-1" d="M742.56,512.71a5,5,0,1,0-5,5A5,5,0,0,0,742.56,512.71Zm-8.79.11a3.44,3.44,0,0,1,.88-2.51,9.31,9.31,0,0,0,6.66,2.51,3.77,3.77,0,1,1-7.54,0Z" transform="translate(-27.5 -20.5)"/><path class="cls-1" d="M728.91,521.61v5.1a1.44,1.44,0,0,0,1.43,1.44h14.39a1.45,1.45,0,0,0,1.44-1.44v-5.1a2.88,2.88,0,0,0-2.88-2.88h-2.55a.68.68,0,0,0-.51.27l-2.51,3.56a.2.2,0,0,1-.36,0L734.84,519a.68.68,0,0,0-.51-.27h-2.55A2.88,2.88,0,0,0,728.91,521.61Z" transform="translate(-27.5 -20.5)"/><path class="cls-1" d="M514.41,130.21a10.91,10.91,0,1,0-10.91,10.91A10.91,10.91,0,0,0,514.41,130.21Zm-19.09.24a7.5,7.5,0,0,1,1.91-5.46c1.57,1.58,6.27,5.46,14.45,5.46a8.18,8.18,0,0,1-16.36,0Z" transform="translate(-27.5 -20.5)"/><path class="cls-1" d="M484.78,149.51v11.06a3.12,3.12,0,0,0,3.12,3.13h31.2a3.12,3.12,0,0,0,3.12-3.13V149.51a6.24,6.24,0,0,0-6.24-6.24h-5.53a1.47,1.47,0,0,0-1.1.59l-5.46,7.71a.44.44,0,0,1-.78,0l-5.46-7.71a1.47,1.47,0,0,0-1.1-.59H491A6.24,6.24,0,0,0,484.78,149.51Z" transform="translate(-27.5 -20.5)"/><path class="cls-1" d="M752.12,178.37a4.86,4.86,0,1,0-4.86,4.86A4.86,4.86,0,0,0,752.12,178.37Zm-8.5.11a3.3,3.3,0,0,1,.85-2.43,9,9,0,0,0,6.43,2.43,3.64,3.64,0,1,1-7.28,0Z" transform="translate(-27.5 -20.5)"/><path class="cls-1" d="M738.92,187v4.93a1.39,1.39,0,0,0,1.39,1.39h13.9a1.39,1.39,0,0,0,1.38-1.39V187a2.77,2.77,0,0,0-2.78-2.78h-2.46a.68.68,0,0,0-.49.26l-2.43,3.44a.2.2,0,0,1-.35,0l-2.43-3.44a.65.65,0,0,0-.49-.26H741.7A2.78,2.78,0,0,0,738.92,187Z" transform="translate(-27.5 -20.5)"/><path class="cls-1" d="M715.86,273a4.86,4.86,0,1,0-4.86,4.86A4.86,4.86,0,0,0,715.86,273Zm-8.5.11a3.35,3.35,0,0,1,.85-2.43,9,9,0,0,0,6.43,2.43,3.64,3.64,0,1,1-7.28,0Z" transform="translate(-27.5 -20.5)"/><path class="cls-1" d="M702.66,281.57v4.92a1.39,1.39,0,0,0,1.39,1.39H718a1.39,1.39,0,0,0,1.39-1.39v-4.92a2.78,2.78,0,0,0-2.78-2.78h-2.47a.68.68,0,0,0-.49.26l-2.43,3.43a.18.18,0,0,1-.34,0l-2.43-3.43a.69.69,0,0,0-.5-.26h-2.46A2.78,2.78,0,0,0,702.66,281.57Z" transform="translate(-27.5 -20.5)"/><path class="cls-1" d="M313.6,89.42A2.6,2.6,0,1,0,311,92,2.59,2.59,0,0,0,313.6,89.42Zm-4.55,0a1.79,1.79,0,0,1,.46-1.29A4.81,4.81,0,0,0,313,89.47a2,2,0,0,1-3.9,0Z" transform="translate(-27.5 -20.5)"/><path class="cls-1" d="M306.54,94v2.63a.76.76,0,0,0,.75.75h7.42a.76.76,0,0,0,.75-.75V94A1.49,1.49,0,0,0,314,92.53h-1.32a.34.34,0,0,0-.26.14l-1.3,1.83a.1.1,0,0,1-.18,0l-1.3-1.83a.34.34,0,0,0-.26-.14H308A1.49,1.49,0,0,0,306.54,94Z" transform="translate(-27.5 -20.5)"/><path class="cls-1" d="M121.6,39.31a2.6,2.6,0,1,0-2.6,2.6A2.59,2.59,0,0,0,121.6,39.31Zm-4.55.06a1.81,1.81,0,0,1,.46-1.3,4.76,4.76,0,0,0,3.44,1.3,2,2,0,1,1-3.9,0Z" transform="translate(-27.5 -20.5)"/><path class="cls-1" d="M114.54,43.91v2.63a.75.75,0,0,0,.75.74h7.42a.75.75,0,0,0,.75-.74V43.91A1.49,1.49,0,0,0,122,42.42h-1.32a.34.34,0,0,0-.26.14l-1.3,1.84a.1.1,0,0,1-.18,0l-1.3-1.84a.34.34,0,0,0-.26-.14H116A1.49,1.49,0,0,0,114.54,43.91Z" transform="translate(-27.5 -20.5)"/><path class="cls-1" d="M243.6,29.31a2.6,2.6,0,1,0-2.6,2.6A2.59,2.59,0,0,0,243.6,29.31Zm-4.55.06a1.81,1.81,0,0,1,.46-1.3,4.76,4.76,0,0,0,3.44,1.3,2,2,0,1,1-3.9,0Z" transform="translate(-27.5 -20.5)"/><path class="cls-1" d="M236.54,33.91v2.63a.75.75,0,0,0,.75.74h7.42a.75.75,0,0,0,.75-.74V33.91A1.49,1.49,0,0,0,244,32.42h-1.32a.34.34,0,0,0-.26.14l-1.3,1.84a.1.1,0,0,1-.18,0l-1.3-1.84a.34.34,0,0,0-.26-.14H238A1.49,1.49,0,0,0,236.54,33.91Z" transform="translate(-27.5 -20.5)"/><path class="cls-1" d="M704.55,37.89A2.55,2.55,0,1,0,702,40.44,2.55,2.55,0,0,0,704.55,37.89Zm-4.47,0a1.76,1.76,0,0,1,.45-1.27,4.73,4.73,0,0,0,3.39,1.27,1.92,1.92,0,0,1-3.84,0Z" transform="translate(-27.5 -20.5)"/><path class="cls-1" d="M697.62,42.41V45a.73.73,0,0,0,.73.73h7.3a.73.73,0,0,0,.73-.73V42.41A1.46,1.46,0,0,0,704.92,41h-1.29a.35.35,0,0,0-.26.13l-1.28,1.81a.1.1,0,0,1-.18,0l-1.28-1.81a.36.36,0,0,0-.26-.13h-1.29A1.46,1.46,0,0,0,697.62,42.41Z" transform="translate(-27.5 -20.5)"/><path class="cls-1" d="M332.55,252.27a2.55,2.55,0,1,0-2.55,2.55A2.56,2.56,0,0,0,332.55,252.27Zm-4.46,0a1.73,1.73,0,0,1,.44-1.27,4.72,4.72,0,0,0,3.38,1.27,1.91,1.91,0,1,1-3.82,0Z" transform="translate(-27.5 -20.5)"/><path class="cls-1" d="M325.62,256.79v2.59a.73.73,0,0,0,.73.73h7.3a.73.73,0,0,0,.73-.73v-2.59a1.46,1.46,0,0,0-1.46-1.46h-1.29a.35.35,0,0,0-.26.13l-1.28,1.81a.1.1,0,0,1-.18,0l-1.28-1.81a.36.36,0,0,0-.26-.13h-1.29A1.46,1.46,0,0,0,325.62,256.79Z" transform="translate(-27.5 -20.5)"/><path class="cls-1" d="M86.37,466.11a5,5,0,1,0-5,4.95A5,5,0,0,0,86.37,466.11Zm-8.66.1a3.38,3.38,0,0,1,.86-2.47,9.21,9.21,0,0,0,6.57,2.47,3.72,3.72,0,1,1-7.43,0Z" transform="translate(-27.5 -20.5)"/><path class="cls-1" d="M72.92,474.87v5a1.41,1.41,0,0,0,1.42,1.42H88.5a1.41,1.41,0,0,0,1.42-1.42v-5A2.83,2.83,0,0,0,87.09,472H84.58a.67.67,0,0,0-.5.26l-2.48,3.5a.2.2,0,0,1-.36,0l-2.47-3.5a.71.71,0,0,0-.5-.26H75.75A2.83,2.83,0,0,0,72.92,474.87Z" transform="translate(-27.5 -20.5)"/><path class="cls-1" d="M171.67,385.11a2.56,2.56,0,1,0-2.56,2.56A2.56,2.56,0,0,0,171.67,385.11Zm-4.48.06a1.78,1.78,0,0,1,.45-1.28,4.77,4.77,0,0,0,3.39,1.28,1.92,1.92,0,1,1-3.84,0Z" transform="translate(-27.5 -20.5)"/><path class="cls-1" d="M164.71,389.64v2.6a.74.74,0,0,0,.74.73h7.32a.74.74,0,0,0,.74-.73v-2.6a1.46,1.46,0,0,0-1.47-1.46h-1.3a.36.36,0,0,0-.26.13l-1.28,1.81a.1.1,0,0,1-.18,0l-1.28-1.81a.36.36,0,0,0-.26-.13h-1.3A1.46,1.46,0,0,0,164.71,389.64Z" transform="translate(-27.5 -20.5)"/><path class="cls-1" d="M41.56,257.35A2.56,2.56,0,1,0,39,259.91,2.56,2.56,0,0,0,41.56,257.35Zm-4.48.06a1.78,1.78,0,0,1,.45-1.28,4.77,4.77,0,0,0,3.39,1.28,1.92,1.92,0,1,1-3.84,0Z" transform="translate(-27.5 -20.5)"/><path class="cls-1" d="M34.6,261.88v2.6a.74.74,0,0,0,.74.73h7.32a.74.74,0,0,0,.74-.73v-2.6a1.46,1.46,0,0,0-1.47-1.46h-1.3a.36.36,0,0,0-.26.13l-1.28,1.81a.1.1,0,0,1-.18,0l-1.28-1.81a.36.36,0,0,0-.26-.13h-1.3A1.46,1.46,0,0,0,34.6,261.88Z" transform="translate(-27.5 -20.5)"/><path class="cls-1" d="M123,675.87a5,5,0,1,0-5,5A4.95,4.95,0,0,0,123,675.87Zm-8.66.11a3.41,3.41,0,0,1,.86-2.48,9.15,9.15,0,0,0,6.56,2.48,3.71,3.71,0,1,1-7.42,0Z" transform="translate(-27.5 -20.5)"/><path class="cls-1" d="M109.5,684.64v5a1.42,1.42,0,0,0,1.42,1.42h14.16a1.42,1.42,0,0,0,1.42-1.42v-5a2.84,2.84,0,0,0-2.83-2.84h-2.52a.68.68,0,0,0-.5.27l-2.47,3.5a.2.2,0,0,1-.36,0l-2.47-3.5a.68.68,0,0,0-.5-.27h-2.52A2.84,2.84,0,0,0,109.5,684.64Z" transform="translate(-27.5 -20.5)"/><path class="cls-1" d="M206.48,739.41a28.81,28.81,0,1,1,28.8-28.81A28.84,28.84,0,0,1,206.48,739.41Zm0-54.22a25.42,25.42,0,1,0,25.41,25.41A25.44,25.44,0,0,0,206.48,685.19Z" transform="translate(-27.5 -20.5)"/><path class="cls-1" d="M214.14,702.67a7.67,7.67,0,1,0-7.66,7.67A7.66,7.66,0,0,0,214.14,702.67Zm-13.41.17a5.29,5.29,0,0,1,1.34-3.83,14.21,14.21,0,0,0,10.15,3.83,5.75,5.75,0,1,1-11.49,0Z" transform="translate(-27.5 -20.5)"/><path class="cls-1" d="M193.32,716.23V724a2.21,2.21,0,0,0,2.2,2.2h21.92a2.2,2.2,0,0,0,2.19-2.2v-7.77a4.38,4.38,0,0,0-4.39-4.38h-3.88a1,1,0,0,0-.78.41l-3.83,5.42a.31.31,0,0,1-.55,0l-3.83-5.42a1,1,0,0,0-.77-.41h-3.89A4.39,4.39,0,0,0,193.32,716.23Z" transform="translate(-27.5 -20.5)"/><path class="cls-1" d="M299.87,344.29A14.72,14.72,0,0,0,285.16,359v4.72c-.11,1.52-.61,5.06-3,4.82-3-.31.79,5.13,6.61,5.17h22.11c5.85,0,9.68-5.5,6.68-5.19s-3-5.49-3-5.49v-4A14.71,14.71,0,0,0,299.87,344.29Zm0,3.29c5.11,0,9.86,3.54,9.86,7.91,0,.2,0,.41,0,.61s-.15.18-.32-.3c-1.16-3.35-5.27-5.8-9.52-5.8s-8.62,2.45-9.82,5.8c-.18.48-.29.63-.32.3s0-.41,0-.61C289.7,351.12,294.77,347.58,299.87,347.58Zm0,22.46a10.77,10.77,0,0,1-11-10.73S293.75,355,300,355a17.64,17.64,0,0,1,10.93,4.3A10.78,10.78,0,0,1,299.87,370Z" transform="translate(-27.5 -20.5)"/><path class="cls-1" d="M277.8,384.75v14.71a3.68,3.68,0,0,0,3.68,3.68h36.78a3.67,3.67,0,0,0,3.68-3.68V384.75a7.36,7.36,0,0,0-7.36-7.36h-3.36a3.54,3.54,0,0,0-1.7.53l-3.76,2.57a2.89,2.89,0,0,0-1,1.42l-4.39,14.84c-.14.5-.39.5-.54,0l-4.61-14.6a3.06,3.06,0,0,0-1.05-1.41l-4.22-2.84a3.68,3.68,0,0,0-1.71-.52h-3A7.37,7.37,0,0,0,277.8,384.75Zm16.32,6.79a1.55,1.55,0,1,1-1.55,1.55A1.55,1.55,0,0,1,294.12,391.54Zm0,5.59a1.56,1.56,0,1,1-1.55,1.56A1.56,1.56,0,0,1,294.12,397.13Z" transform="translate(-27.5 -20.5)"/><path class="cls-1" d="M68.54,302.74a5.15,5.15,0,0,0-5.16,5.15v1.65c0,.53-.21,1.77-1,1.69-1.05-.11.28,1.8,2.32,1.81H72.4c2,0,3.39-1.92,2.34-1.81s-1-1.93-1-1.93v-1.41A5.15,5.15,0,0,0,68.54,302.74Zm0,1.15c1.78,0,3.45,1.24,3.45,2.77a1.48,1.48,0,0,1,0,.21c0,.12,0,.07-.11-.1a3.52,3.52,0,0,0-3.33-2,3.72,3.72,0,0,0-3.44,2c-.06.17-.11.22-.12.1s0-.14,0-.21C65,305.13,66.75,303.89,68.54,303.89Zm0,7.86A3.77,3.77,0,0,1,64.67,308a6.61,6.61,0,0,1,3.9-1.51A6.16,6.16,0,0,1,72.4,308,3.77,3.77,0,0,1,68.54,311.75Z" transform="translate(-27.5 -20.5)"/><path class="cls-1" d="M60.81,316.91v5.15a1.29,1.29,0,0,0,1.29,1.29H75a1.29,1.29,0,0,0,1.29-1.29v-5.15a2.58,2.58,0,0,0-2.58-2.58H72.51a1.27,1.27,0,0,0-.6.18l-1.31.9a1.06,1.06,0,0,0-.36.5l-1.54,5.2c0,.17-.13.17-.19,0L66.9,316a1.12,1.12,0,0,0-.37-.49l-1.48-1a1.27,1.27,0,0,0-.6-.18H63.38A2.57,2.57,0,0,0,60.81,316.91Zm5.71,2.37a.55.55,0,0,1,.55.55.55.55,0,0,1-.55.54.54.54,0,0,1-.54-.54A.55.55,0,0,1,66.52,319.28Zm0,2a.55.55,0,0,1,.55.55.55.55,0,0,1-.55.54.54.54,0,0,1-.54-.54A.55.55,0,0,1,66.52,321.24Z" transform="translate(-27.5 -20.5)"/><path class="cls-1" d="M588.5,268.65a11.18,11.18,0,0,0-11.17,11.18v3.58c-.08,1.16-.47,3.84-2.26,3.66-2.27-.24.6,3.9,5,3.93h16.79c4.45,0,7.36-4.17,5.08-3.94s-2.29-4.16-2.29-4.16v-3.07A11.18,11.18,0,0,0,588.5,268.65Zm0,2.5c3.88,0,7.49,2.69,7.49,6,0,.15,0,.31,0,.46s-.11.14-.24-.23c-.88-2.54-4-4.4-7.23-4.4s-6.54,1.86-7.46,4.4c-.13.37-.22.48-.24.23a3.54,3.54,0,0,1,0-.46C580.78,273.84,584.63,271.15,588.5,271.15Zm0,17.06a8.19,8.19,0,0,1-8.38-8.15,14.38,14.38,0,0,1,8.46-3.26,13.41,13.41,0,0,1,8.3,3.26A8.18,8.18,0,0,1,588.5,288.21Z" transform="translate(-27.5 -20.5)"/><path class="cls-1" d="M571.74,299.38v11.17a2.8,2.8,0,0,0,2.8,2.8h27.93a2.79,2.79,0,0,0,2.79-2.8V299.38a5.59,5.59,0,0,0-5.59-5.59h-2.55a2.68,2.68,0,0,0-1.29.4L593,296.14a2.29,2.29,0,0,0-.78,1.08l-3.33,11.28c-.11.37-.3.37-.42,0L585,297.41a2.43,2.43,0,0,0-.8-1.07l-3.21-2.15a2.68,2.68,0,0,0-1.29-.4h-2.32A5.59,5.59,0,0,0,571.74,299.38Zm12.39,5.15a1.18,1.18,0,1,1-1.18,1.18A1.18,1.18,0,0,1,584.13,304.53Zm0,4.25A1.18,1.18,0,1,1,583,310,1.18,1.18,0,0,1,584.13,308.78Z" transform="translate(-27.5 -20.5)"/><path class="cls-1" d="M657,85.61a8.69,8.69,0,0,0-8.69,8.7v2.78c-.07.9-.37,3-1.76,2.85-1.77-.18.47,3,3.91,3.06h13.06c3.46,0,5.73-3.25,4-3.06s-1.78-3.25-1.78-3.25V94.31A8.69,8.69,0,0,0,657,85.61Zm0,2c3,0,5.83,2.09,5.83,4.67,0,.12,0,.24,0,.36s-.09.11-.18-.18c-.69-2-3.12-3.43-5.63-3.43s-5.09,1.46-5.81,3.43c-.1.29-.17.37-.19.18s0-.24,0-.36C651,89.65,654,87.56,657,87.56Zm0,13.27a6.37,6.37,0,0,1-6.52-6.34A11.17,11.17,0,0,1,657.06,92a10.41,10.41,0,0,1,6.46,2.54A6.37,6.37,0,0,1,657,100.83Z" transform="translate(-27.5 -20.5)"/><path class="cls-1" d="M644,109.52v8.69a2.17,2.17,0,0,0,2.17,2.18h21.74a2.17,2.17,0,0,0,2.17-2.18v-8.69a4.35,4.35,0,0,0-4.35-4.35h-2a2.1,2.1,0,0,0-1,.31L660.48,107a1.77,1.77,0,0,0-.61.84l-2.59,8.77c-.09.3-.23.3-.32,0L654.24,108a1.92,1.92,0,0,0-.63-.83l-2.49-1.68a2.1,2.1,0,0,0-1-.31h-1.8A4.35,4.35,0,0,0,644,109.52Zm9.64,4a.92.92,0,1,1-.92.92A.92.92,0,0,1,653.6,113.53Zm0,3.31a.92.92,0,1,1-.92.91A.92.92,0,0,1,653.6,116.84Z" transform="translate(-27.5 -20.5)"/><path class="cls-1" d="M573.73,43.11a5.13,5.13,0,0,0-5.12,5.13v1.64c0,.53-.22,1.76-1,1.68-1-.11.28,1.79,2.3,1.8h7.71c2,0,3.37-1.91,2.33-1.8s-1-1.91-1-1.91V48.24A5.13,5.13,0,0,0,573.73,43.11Zm0,1.15c1.78,0,3.44,1.23,3.44,2.75a1.48,1.48,0,0,1,0,.21c0,.12,0,.07-.11-.1a3.52,3.52,0,0,0-3.32-2,3.7,3.7,0,0,0-3.42,2c-.06.17-.1.22-.11.1a1.48,1.48,0,0,1,0-.21C570.19,45.49,572,44.26,573.73,44.26Zm0,7.82a3.75,3.75,0,0,1-3.84-3.73,6.58,6.58,0,0,1,3.88-1.5,6.16,6.16,0,0,1,3.81,1.5A3.76,3.76,0,0,1,573.73,52.08Z" transform="translate(-27.5 -20.5)"/><path class="cls-1" d="M566,57.21v5.12a1.28,1.28,0,0,0,1.29,1.28h12.81a1.28,1.28,0,0,0,1.28-1.28V57.21a2.57,2.57,0,0,0-2.56-2.57h-1.17a1.28,1.28,0,0,0-.6.19l-1.31.89a1.08,1.08,0,0,0-.36.5l-1.52,5.17c0,.17-.14.17-.19,0l-1.61-5.08a1,1,0,0,0-.37-.5l-1.46-1a1.28,1.28,0,0,0-.6-.19h-1.06A2.57,2.57,0,0,0,566,57.21Zm5.69,2.36a.54.54,0,1,1-.54.54A.54.54,0,0,1,571.73,59.57Zm0,2a.54.54,0,1,1-.54.54A.54.54,0,0,1,571.73,61.52Z" transform="translate(-27.5 -20.5)"/><path class="cls-1" d="M234,95.3a7.84,7.84,0,0,0-7.85,7.85v2.52c-.06.81-.33,2.7-1.59,2.57-1.6-.17.43,2.74,3.53,2.76h11.8c3.12,0,5.17-2.93,3.57-2.77s-1.61-2.93-1.61-2.93v-2.15A7.84,7.84,0,0,0,234,95.3Zm0,1.75c2.72,0,5.26,1.89,5.26,4.22,0,.11,0,.22,0,.33s-.08.1-.17-.16c-.62-1.79-2.81-3.1-5.08-3.1s-4.6,1.31-5.24,3.1c-.1.26-.16.33-.17.16s0-.22,0-.33C228.57,98.94,231.28,97.05,234,97.05Zm0,12a5.75,5.75,0,0,1-5.89-5.73,10.11,10.11,0,0,1,5.95-2.29,9.42,9.42,0,0,1,5.83,2.29A5.75,5.75,0,0,1,234,109Z" transform="translate(-27.5 -20.5)"/><path class="cls-1" d="M222.22,116.89v7.85a2,2,0,0,0,2,2h19.62a2,2,0,0,0,2-2v-7.85a3.93,3.93,0,0,0-3.93-3.93h-1.79a1.94,1.94,0,0,0-.91.28l-2,1.37a1.66,1.66,0,0,0-.55.76l-2.34,7.93c-.08.26-.21.26-.29,0l-2.46-7.79a1.6,1.6,0,0,0-.56-.75l-2.25-1.52a2,2,0,0,0-.91-.28h-1.63A3.93,3.93,0,0,0,222.22,116.89Zm8.71,3.62a.83.83,0,1,1-.83.83A.83.83,0,0,1,230.93,120.51Zm0,3a.83.83,0,1,1-.83.83A.83.83,0,0,1,230.93,123.5Z" transform="translate(-27.5 -20.5)"/><path class="cls-1" d="M99,76.19a5.32,5.32,0,0,0-5.32,5.32v1.71c0,.55-.22,1.83-1.08,1.74-1.08-.11.29,1.86,2.39,1.87h8c2.12,0,3.51-2,2.42-1.87s-1.09-2-1.09-2V81.51A5.32,5.32,0,0,0,99,76.19Zm0,1.19c1.85,0,3.57,1.28,3.57,2.86a1.62,1.62,0,0,1,0,.22c0,.12,0,.07-.12-.11A3.64,3.64,0,0,0,99,78.25a3.82,3.82,0,0,0-3.55,2.1c-.07.18-.11.23-.12.11a1.62,1.62,0,0,1,0-.22C95.32,78.66,97.15,77.38,99,77.38Zm0,8.12a3.9,3.9,0,0,1-4-3.88,6.87,6.87,0,0,1,4-1.55A6.36,6.36,0,0,1,103,81.62,3.9,3.9,0,0,1,99,85.5Z" transform="translate(-27.5 -20.5)"/><path class="cls-1" d="M91,90.83v5.32a1.32,1.32,0,0,0,1.33,1.33h13.3A1.33,1.33,0,0,0,107,96.15V90.83a2.68,2.68,0,0,0-2.67-2.67h-1.21a1.36,1.36,0,0,0-.62.19l-1.36.93a1.14,1.14,0,0,0-.37.52l-1.59,5.37c0,.18-.14.18-.2,0l-1.66-5.28a1.15,1.15,0,0,0-.38-.51l-1.53-1a1.36,1.36,0,0,0-.62-.19h-1.1A2.67,2.67,0,0,0,91,90.83Zm5.9,2.45a.56.56,0,0,1,.56.56.56.56,0,1,1-1.12,0A.56.56,0,0,1,96.92,93.28Zm0,2a.56.56,0,1,1-.56.56A.56.56,0,0,1,96.92,95.31Z" transform="translate(-27.5 -20.5)"/><path class="cls-1" d="M435.28,593.76a5.48,5.48,0,0,0-5.49,5.48V601c0,.57-.23,1.88-1.11,1.79-1.11-.11.3,1.92,2.47,1.93h8.24c2.18,0,3.61-2,2.49-1.93s-1.12-2-1.12-2v-1.51A5.48,5.48,0,0,0,435.28,593.76Zm0,1.22c1.9,0,3.67,1.32,3.67,2.95a1.77,1.77,0,0,1,0,.23c0,.12-.05.07-.12-.11a3.75,3.75,0,0,0-3.54-2.17,3.93,3.93,0,0,0-3.66,2.17c-.07.18-.11.23-.12.11a1.77,1.77,0,0,1,0-.23C431.49,596.3,433.37,595,435.28,595Zm0,8.37a4,4,0,0,1-4.12-4,7,7,0,0,1,4.15-1.61,6.57,6.57,0,0,1,4.08,1.61A4,4,0,0,1,435.28,603.35Z" transform="translate(-27.5 -20.5)"/><path class="cls-1" d="M427.05,608.84v5.48a1.37,1.37,0,0,0,1.37,1.37h13.71a1.37,1.37,0,0,0,1.37-1.37v-5.48a2.74,2.74,0,0,0-2.74-2.74H439.5a1.29,1.29,0,0,0-.63.19l-1.4,1a1.15,1.15,0,0,0-.39.53l-1.63,5.53c-.05.18-.14.19-.2,0l-1.72-5.44a1.12,1.12,0,0,0-.39-.52l-1.57-1.06a1.32,1.32,0,0,0-.64-.19h-1.14A2.74,2.74,0,0,0,427.05,608.84Zm6.08,2.53a.58.58,0,1,1-.58.57A.58.58,0,0,1,433.13,611.37Zm0,2.08a.58.58,0,1,1-.58.58A.58.58,0,0,1,433.13,613.45Z" transform="translate(-27.5 -20.5)"/><path class="cls-1" d="M369,488.35a2.61,2.61,0,0,0-2.61,2.61v.84c0,.27-.11.9-.53.86s.14.91,1.17.92H371c1,0,1.72-1,1.19-.92s-.54-1-.54-1V491A2.61,2.61,0,0,0,369,488.35Zm0,.58a1.64,1.64,0,0,1,1.75,1.41v.11c0,.06,0,0-.06-.06a1.81,1.81,0,0,0-1.69-1,1.9,1.9,0,0,0-1.75,1c0,.09-.05.12-.05.06a.41.41,0,0,1,0-.11C367.19,489.56,368.09,488.93,369,488.93Zm0,4a1.92,1.92,0,0,1-2-1.91,3.36,3.36,0,0,1,2-.76A3.14,3.14,0,0,1,371,491,1.92,1.92,0,0,1,369,492.93Z" transform="translate(-27.5 -20.5)"/><path class="cls-1" d="M365.08,495.54v2.62a.65.65,0,0,0,.65.65h6.54a.65.65,0,0,0,.65-.65v-2.62a1.31,1.31,0,0,0-1.31-1.31H371a.71.71,0,0,0-.31.1l-.66.45a.55.55,0,0,0-.19.26l-.78,2.63c0,.09-.07.09-.09,0l-.82-2.6a.53.53,0,0,0-.19-.25l-.75-.5a.67.67,0,0,0-.3-.1h-.55A1.31,1.31,0,0,0,365.08,495.54Zm2.9,1.21a.28.28,0,0,1,0,.55.28.28,0,1,1,0-.55Zm0,1a.28.28,0,0,1,0,.55.28.28,0,1,1,0-.55Z" transform="translate(-27.5 -20.5)"/><path class="cls-1" d="M759,250.77a2.62,2.62,0,0,0-2.62,2.61v.84c0,.27-.1.9-.52.86s.14.91,1.17.92H761c1,0,1.72-1,1.19-.92s-.54-1-.54-1v-.72A2.61,2.61,0,0,0,759,250.77Zm0,.58a1.64,1.64,0,0,1,1.75,1.41v.11c0,.06,0,0-.06-.06a1.81,1.81,0,0,0-1.69-1,1.9,1.9,0,0,0-1.75,1c0,.09,0,.12,0,.06a.41.41,0,0,1,0-.11C757.19,252,758.09,251.35,759,251.35Zm0,4a1.92,1.92,0,0,1-2-1.91,3.36,3.36,0,0,1,2-.76,3.14,3.14,0,0,1,1.94.76A1.92,1.92,0,0,1,759,255.35Z" transform="translate(-27.5 -20.5)"/><path class="cls-1" d="M755.08,258v2.62a.65.65,0,0,0,.65.65h6.54a.65.65,0,0,0,.65-.65V258a1.31,1.31,0,0,0-1.31-1.31H761a.71.71,0,0,0-.31.1l-.66.45a.55.55,0,0,0-.19.26l-.78,2.63c0,.09-.07.09-.09,0l-.82-2.6a.53.53,0,0,0-.19-.25l-.75-.5a.67.67,0,0,0-.3-.1h-.55A1.31,1.31,0,0,0,755.08,258Zm2.9,1.21a.28.28,0,0,1,0,.55.28.28,0,1,1,0-.55Zm0,1a.28.28,0,0,1,0,.55.28.28,0,1,1,0-.55Z" transform="translate(-27.5 -20.5)"/><path class="cls-1" d="M405,262.88a2.63,2.63,0,0,0-2.62,2.62v.84c0,.27-.1.9-.52.85s.14.92,1.17.92H407c1,0,1.72-1,1.19-.92s-.54-1-.54-1v-.72A2.62,2.62,0,0,0,405,262.88Zm0,.59a1.64,1.64,0,0,1,1.75,1.41v.1c0,.06,0,0-.06-.05a1.81,1.81,0,0,0-1.69-1,1.9,1.9,0,0,0-1.75,1c0,.09-.05.11-.05.05a.34.34,0,0,1,0-.1C403.19,264.1,404.09,263.47,405,263.47Zm0,4a1.91,1.91,0,0,1-2-1.9,3.34,3.34,0,0,1,2-.77,3.12,3.12,0,0,1,1.94.77A1.91,1.91,0,0,1,405,267.46Z" transform="translate(-27.5 -20.5)"/><path class="cls-1" d="M401.08,270.08v2.61a.66.66,0,0,0,.65.66h6.54a.66.66,0,0,0,.65-.66v-2.61a1.3,1.3,0,0,0-1.31-1.31H407a.69.69,0,0,0-.31.09l-.66.46a.53.53,0,0,0-.19.25l-.78,2.64c0,.09-.07.09-.09,0l-.82-2.59a.53.53,0,0,0-.19-.25l-.75-.51a.65.65,0,0,0-.3-.09h-.55A1.3,1.3,0,0,0,401.08,270.08Zm2.9,1.2a.28.28,0,0,1,0,.56.28.28,0,1,1,0-.56Zm0,1a.28.28,0,0,1,0,.55.28.28,0,1,1,0-.55Z" transform="translate(-27.5 -20.5)"/><path class="cls-1" d="M478,39.77a2.61,2.61,0,0,0-2.61,2.61v.84c0,.27-.11.9-.53.86S475,45,476,45H480c1,0,1.72-1,1.19-.92s-.53-1-.53-1v-.72A2.62,2.62,0,0,0,478,39.77Zm0,.58a1.64,1.64,0,0,1,1.75,1.41v.11c0,.06,0,0-.06-.06a1.79,1.79,0,0,0-1.69-1,1.91,1.91,0,0,0-1.75,1c0,.09-.05.12-.05.06a.41.41,0,0,1,0-.11C476.19,41,477.09,40.35,478,40.35Zm0,4a1.92,1.92,0,0,1-2-1.91,3.36,3.36,0,0,1,2-.76,3.14,3.14,0,0,1,1.94.76A1.92,1.92,0,0,1,478,44.35Z" transform="translate(-27.5 -20.5)"/><path class="cls-1" d="M474.08,47v2.62a.65.65,0,0,0,.65.65h6.54a.65.65,0,0,0,.65-.65V47a1.31,1.31,0,0,0-1.3-1.31H480a.63.63,0,0,0-.3.1l-.67.45a.55.55,0,0,0-.19.26l-.78,2.63c0,.09-.06.09-.09,0l-.82-2.6a.53.53,0,0,0-.19-.25l-.75-.5a.63.63,0,0,0-.3-.1h-.54A1.31,1.31,0,0,0,474.08,47Zm2.9,1.21a.28.28,0,0,1,0,.55.28.28,0,1,1,0-.55Zm0,1a.28.28,0,0,1,0,.55.28.28,0,1,1,0-.55Z" transform="translate(-27.5 -20.5)"/><path class="cls-1" d="M70,619.77a2.61,2.61,0,0,0-2.61,2.61v.84c0,.27-.11.9-.53.86S67,625,68,625H72c1,0,1.72-1,1.19-.92s-.54-1-.54-1v-.72A2.61,2.61,0,0,0,70,619.77Zm0,.58a1.64,1.64,0,0,1,1.75,1.41v.11c0,.06,0,0-.06-.06a1.79,1.79,0,0,0-1.69-1,1.9,1.9,0,0,0-1.75,1c0,.09,0,.12,0,.06a.41.41,0,0,1,0-.11C68.19,621,69.09,620.35,70,620.35Zm0,4a1.92,1.92,0,0,1-2-1.91,3.36,3.36,0,0,1,2-.76,3.14,3.14,0,0,1,1.94.76A1.92,1.92,0,0,1,70,624.35Z" transform="translate(-27.5 -20.5)"/><path class="cls-1" d="M66.08,627v2.62a.65.65,0,0,0,.65.65h6.54a.65.65,0,0,0,.65-.65V627a1.31,1.31,0,0,0-1.31-1.31H72a.63.63,0,0,0-.3.1l-.67.45a.55.55,0,0,0-.19.26l-.78,2.63c0,.09-.06.09-.09,0l-.82-2.6a.53.53,0,0,0-.19-.25l-.75-.5a.63.63,0,0,0-.3-.1h-.55A1.31,1.31,0,0,0,66.08,627Zm2.9,1.21a.28.28,0,0,1,0,.55.28.28,0,1,1,0-.55Zm0,1a.28.28,0,0,1,0,.55.28.28,0,1,1,0-.55Z" transform="translate(-27.5 -20.5)"/><path class="cls-1" d="M323,687.45a2.61,2.61,0,0,0-2.61,2.62v.84c0,.27-.11.9-.53.85s.14.92,1.17.92H325c1,0,1.72-1,1.19-.92s-.54-1-.54-1v-.72A2.61,2.61,0,0,0,323,687.45Zm0,.59a1.64,1.64,0,0,1,1.75,1.4v.11c0,.06,0,0-.06,0a1.77,1.77,0,0,0-1.69-1,1.88,1.88,0,0,0-1.75,1c0,.08-.05.11-.05,0a.37.37,0,0,1,0-.11C321.19,688.67,322.09,688,323,688Zm0,4a1.91,1.91,0,0,1-2-1.91,3.36,3.36,0,0,1,2-.76,3.14,3.14,0,0,1,1.94.76A1.91,1.91,0,0,1,323,692Z" transform="translate(-27.5 -20.5)"/><path class="cls-1" d="M319.08,694.64v2.62a.65.65,0,0,0,.65.65h6.54a.65.65,0,0,0,.65-.65v-2.62a1.3,1.3,0,0,0-1.31-1.3H325a.62.62,0,0,0-.3.09l-.67.46a.53.53,0,0,0-.19.25l-.78,2.64c0,.09-.06.09-.09,0l-.82-2.6a.64.64,0,0,0-.19-.25l-.75-.5a.62.62,0,0,0-.3-.09h-.55A1.3,1.3,0,0,0,319.08,694.64Zm2.9,1.21a.28.28,0,0,1,0,.55.28.28,0,1,1,0-.55Zm0,1a.28.28,0,0,1,0,.56.28.28,0,1,1,0-.56Z" transform="translate(-27.5 -20.5)"/><path class="cls-1" d="M49,522.77a2.61,2.61,0,0,0-2.61,2.61v.84c0,.27-.11.9-.53.86S46,528,47,528H51c1,0,1.72-1,1.19-.92s-.54-1-.54-1v-.72A2.61,2.61,0,0,0,49,522.77Zm0,.58a1.64,1.64,0,0,1,1.75,1.41v.11c0,.06,0,0-.06-.06a1.81,1.81,0,0,0-1.69-1,1.9,1.9,0,0,0-1.75,1c0,.09,0,.12,0,.06a.41.41,0,0,1,0-.11C47.19,524,48.09,523.35,49,523.35Zm0,4a1.92,1.92,0,0,1-2-1.91,3.36,3.36,0,0,1,2-.76,3.14,3.14,0,0,1,1.94.76A1.92,1.92,0,0,1,49,527.35Z" transform="translate(-27.5 -20.5)"/><path class="cls-1" d="M45.08,530v2.62a.65.65,0,0,0,.65.65h6.54a.65.65,0,0,0,.65-.65V530a1.31,1.31,0,0,0-1.31-1.31H51a.71.71,0,0,0-.31.1l-.66.45a.55.55,0,0,0-.19.26l-.78,2.63c0,.09-.07.09-.09,0l-.82-2.6a.53.53,0,0,0-.19-.25l-.75-.5a.67.67,0,0,0-.3-.1h-.55A1.31,1.31,0,0,0,45.08,530Zm2.9,1.21a.28.28,0,0,1,0,.55.28.28,0,1,1,0-.55Zm0,1a.28.28,0,0,1,0,.55.28.28,0,1,1,0-.55Z" transform="translate(-27.5 -20.5)"/><path class="cls-1" d="M57,163.77a2.61,2.61,0,0,0-2.61,2.61v.84c0,.27-.11.9-.53.86S54,169,55,169H59c1,0,1.72-1,1.19-.92s-.54-1-.54-1v-.72A2.61,2.61,0,0,0,57,163.77Zm0,.58a1.64,1.64,0,0,1,1.75,1.41v.11c0,.06,0,0-.06-.06a1.81,1.81,0,0,0-1.69-1,1.9,1.9,0,0,0-1.75,1c0,.09,0,.12,0,.06a.41.41,0,0,1,0-.11C55.19,165,56.09,164.35,57,164.35Zm0,4a1.92,1.92,0,0,1-2-1.91,3.36,3.36,0,0,1,2-.76,3.14,3.14,0,0,1,1.94.76A1.92,1.92,0,0,1,57,168.35Z" transform="translate(-27.5 -20.5)"/><path class="cls-1" d="M53.08,171v2.62a.65.65,0,0,0,.65.65h6.54a.65.65,0,0,0,.65-.65V171a1.31,1.31,0,0,0-1.31-1.31H59a.71.71,0,0,0-.31.1l-.66.45a.55.55,0,0,0-.19.26l-.78,2.63c0,.09-.07.09-.09,0l-.82-2.6a.53.53,0,0,0-.19-.25l-.75-.5a.67.67,0,0,0-.3-.1h-.55A1.31,1.31,0,0,0,53.08,171Zm2.9,1.21a.28.28,0,0,1,0,.55.28.28,0,1,1,0-.55Zm0,1a.28.28,0,0,1,0,.55.28.28,0,1,1,0-.55Z" transform="translate(-27.5 -20.5)"/><path class="cls-1" d="M182.07,520.15a8.33,8.33,0,0,0-8.33,8.33v2.67c-.06.86-.35,2.86-1.68,2.73-1.7-.18.45,2.91,3.74,2.93h12.51c3.32,0,5.49-3.11,3.79-2.93s-1.7-3.11-1.7-3.11v-2.29A8.33,8.33,0,0,0,182.07,520.15Zm0,1.86c2.89,0,5.58,2,5.58,4.48,0,.12,0,.23,0,.34s-.09.11-.18-.16c-.66-1.9-3-3.29-5.39-3.29s-4.88,1.39-5.56,3.29c-.1.27-.17.36-.18.16s0-.22,0-.34C176.31,524,179.18,522,182.07,522Zm0,12.72a6.1,6.1,0,0,1-6.25-6.07,10.7,10.7,0,0,1,6.31-2.44,9.94,9.94,0,0,1,6.18,2.44A6.09,6.09,0,0,1,182.07,534.73Z" transform="translate(-27.5 -20.5)"/><path class="cls-1" d="M169.58,543.05v8.33a2.09,2.09,0,0,0,2.08,2.09h20.82a2.09,2.09,0,0,0,2.08-2.09v-8.33a4.16,4.16,0,0,0-4.16-4.16h-1.91a1.94,1.94,0,0,0-1,.3l-2.13,1.45a1.76,1.76,0,0,0-.58.8l-2.48,8.41c-.09.28-.22.28-.31,0l-2.61-8.26a1.81,1.81,0,0,0-.59-.8l-2.39-1.6a2,2,0,0,0-1-.3h-1.73A4.16,4.16,0,0,0,169.58,543.05Zm9.23,3.85a.88.88,0,1,1-.87.88A.87.87,0,0,1,178.81,546.9Zm0,3.16a.89.89,0,1,1-.87.89A.88.88,0,0,1,178.81,550.06Z" transform="translate(-27.5 -20.5)"/><path class="cls-1" d="M580,668.26a7.81,7.81,0,0,0-7.81,7.82v2.51c-.06.81-.33,2.68-1.59,2.55-1.59-.16.43,2.73,3.52,2.76h11.74c3.11,0,5.15-2.92,3.55-2.76s-1.59-2.91-1.59-2.91v-2.15A7.82,7.82,0,0,0,580,668.26Zm0,1.75c2.71,0,5.24,1.88,5.24,4.2,0,.11,0,.22,0,.33s-.08.09-.17-.16c-.62-1.78-2.8-3.09-5.06-3.09s-4.58,1.31-5.22,3.09c-.09.25-.15.33-.17.16s0-.22,0-.33C574.6,671.89,577.29,670,580,670Zm0,11.93a5.72,5.72,0,0,1-5.86-5.69,10,10,0,0,1,5.92-2.29,9.36,9.36,0,0,1,5.8,2.29A5.72,5.72,0,0,1,580,681.94Z" transform="translate(-27.5 -20.5)"/><path class="cls-1" d="M568.28,689.76v7.82a2,2,0,0,0,2,1.95h19.54a2,2,0,0,0,2-1.95v-7.82a3.91,3.91,0,0,0-3.9-3.91H586a1.9,1.9,0,0,0-.9.28l-2,1.36a1.66,1.66,0,0,0-.55.76l-2.33,7.89c-.08.26-.21.26-.29,0l-2.45-7.76a1.71,1.71,0,0,0-.55-.75l-2.25-1.5a1.8,1.8,0,0,0-.9-.28h-1.63A3.91,3.91,0,0,0,568.28,689.76Zm8.67,3.6a.83.83,0,1,1-.83.83A.83.83,0,0,1,577,693.36Zm0,3a.83.83,0,1,1-.83.82A.82.82,0,0,1,577,696.34Z" transform="translate(-27.5 -20.5)"/><path class="cls-1" d="M666.7,733.73a5.51,5.51,0,0,0-5.51,5.5V741c0,.57-.23,1.89-1.11,1.8-1.12-.12.3,1.92,2.48,1.93h8.26c2.19,0,3.62-2.05,2.5-1.93s-1.12-2.06-1.12-2.06v-1.51A5.5,5.5,0,0,0,666.7,733.73Zm0,1.23c1.9,0,3.68,1.33,3.68,3a1.62,1.62,0,0,1,0,.22c0,.13,0,.07-.11-.11a3.78,3.78,0,0,0-3.56-2.17A4,4,0,0,0,663,738c-.06.18-.11.24-.12.11a1.62,1.62,0,0,1,0-.22C662.89,736.29,664.79,735,666.7,735Zm0,8.4a4,4,0,0,1-4.13-4,7.09,7.09,0,0,1,4.17-1.61,6.57,6.57,0,0,1,4.08,1.61A4,4,0,0,1,666.7,743.36Z" transform="translate(-27.5 -20.5)"/><path class="cls-1" d="M658.44,748.86v5.5a1.38,1.38,0,0,0,1.38,1.38h13.75a1.38,1.38,0,0,0,1.38-1.38v-5.5a2.75,2.75,0,0,0-2.75-2.75h-1.26a1.34,1.34,0,0,0-.64.2l-1.4,1a1.1,1.1,0,0,0-.39.53l-1.64,5.55c0,.18-.14.19-.2,0L665,747.89a1.14,1.14,0,0,0-.4-.52L663,746.3a1.41,1.41,0,0,0-.64-.19h-1.14A2.75,2.75,0,0,0,658.44,748.86Zm6.1,2.54a.58.58,0,1,1-.57.58A.58.58,0,0,1,664.54,751.4Zm0,2.09a.58.58,0,1,1-.57.58A.58.58,0,0,1,664.54,753.49Z" transform="translate(-27.5 -20.5)"/><path class="cls-1" d="M644,464.1a5.3,5.3,0,0,0-5.3,5.3v1.71c0,.55-.22,1.82-1.08,1.73-1.07-.11.29,1.86,2.39,1.87h8c2.12,0,3.5-2,2.42-1.87s-1.09-2-1.09-2V469.4A5.3,5.3,0,0,0,644,464.1Zm0,1.18c1.84,0,3.56,1.28,3.56,2.86a1.62,1.62,0,0,1,0,.22c0,.12,0,.06-.11-.11a3.64,3.64,0,0,0-3.44-2.09,3.82,3.82,0,0,0-3.54,2.09c-.06.17-.1.23-.12.11v-.22C640.35,466.56,642.17,465.28,644,465.28Zm0,8.1a3.89,3.89,0,0,1-4-3.86,6.86,6.86,0,0,1,4-1.55,6.35,6.35,0,0,1,3.94,1.55A3.88,3.88,0,0,1,644,473.38Z" transform="translate(-27.5 -20.5)"/><path class="cls-1" d="M636.05,478.69V484a1.33,1.33,0,0,0,1.33,1.32h13.27A1.32,1.32,0,0,0,652,484v-5.31a2.65,2.65,0,0,0-2.65-2.65h-1.21a1.25,1.25,0,0,0-.62.19l-1.35.92a1.18,1.18,0,0,0-.38.51L644.18,483c0,.18-.14.18-.19,0l-1.66-5.26a1.15,1.15,0,0,0-.38-.51l-1.53-1a1.19,1.19,0,0,0-.61-.19h-1.1A2.66,2.66,0,0,0,636.05,478.69Zm5.89,2.45a.56.56,0,1,1-.56.56A.56.56,0,0,1,641.94,481.14Zm0,2a.56.56,0,1,1-.56.56A.56.56,0,0,1,641.94,483.16Z" transform="translate(-27.5 -20.5)"/><path class="cls-1" d="M383,169.39a5.3,5.3,0,0,0-5.31,5.3v1.71c0,.54-.22,1.82-1.07,1.73-1.08-.11.29,1.85,2.39,1.87h8c2.11,0,3.49-2,2.41-1.87s-1.08-2-1.08-2v-1.46A5.3,5.3,0,0,0,383,169.39Zm0,1.18c1.84,0,3.56,1.28,3.56,2.86,0,.07,0,.14,0,.22s-.05.06-.12-.11a3.64,3.64,0,0,0-3.43-2.1,3.82,3.82,0,0,0-3.54,2.1c-.07.17-.11.23-.12.11s0-.15,0-.22C379.33,171.85,381.16,170.57,383,170.57Zm0,8.1a3.88,3.88,0,0,1-4-3.86,6.8,6.8,0,0,1,4-1.56,6.34,6.34,0,0,1,3.94,1.56A3.88,3.88,0,0,1,383,178.67Z" transform="translate(-27.5 -20.5)"/><path class="cls-1" d="M375,184v5.31a1.32,1.32,0,0,0,1.33,1.32h13.26a1.32,1.32,0,0,0,1.33-1.32V184a2.65,2.65,0,0,0-2.65-2.65h-1.22a1.22,1.22,0,0,0-.61.19l-1.36.92a1.16,1.16,0,0,0-.37.51l-1.58,5.36c-.05.18-.14.18-.2,0l-1.66-5.26a1,1,0,0,0-.38-.51l-1.52-1a1.32,1.32,0,0,0-.62-.18h-1.1A2.65,2.65,0,0,0,375,184Zm5.89,2.45a.56.56,0,1,1-.56.56A.56.56,0,0,1,380.93,186.43Zm0,2a.57.57,0,1,1-.56.57A.56.56,0,0,1,380.93,188.44Z" transform="translate(-27.5 -20.5)"/></svg>