<svg xmlns="http://www.w3.org/2000/svg" viewBox="0 0 178.76 166.05"><defs><style>.cls-1{isolation:isolate;}.cls-17,.cls-2,.cls-3{fill:#fff;}.cls-2{opacity:0.3;}.cls-4{fill:#f9b233;}.cls-5{fill:#e94e1b;}.cls-6{fill:#e6bd91;}.cls-7{fill:#ffcb93;}.cls-8{fill:#ffd2a1;}.cls-9{fill:#71cbc6;}.cls-10{fill:#66b8b3;}.cls-11{fill:#d2eefa;}.cls-12{fill:#e9ffff;}.cls-13{opacity:0.1;}.cls-14{fill:#131311;}.cls-15{fill:#575756;}.cls-16{fill:#a48a7b;}.cls-17,.cls-18{opacity:0.2;mix-blend-mode:overlay;}</style></defs><title>stock_pic</title><g class="cls-1"><g id="Layer_1" data-name="Layer 1"><rect class="cls-2" x="34.07" y="14.76" width="8.6" height="16.34"/><rect class="cls-2" x="45.84" y="19.88" width="8.6" height="11.22"/><rect class="cls-3" x="57.62" y="24.86" width="8.6" height="6.24"/><rect class="cls-4" x="69.39" y="17.86" width="8.6" height="13.24"/><rect class="cls-2" x="81.17" y="20.85" width="8.6" height="10.26"/><rect class="cls-3" x="92.95" y="4.1" width="8.6" height="27"/><rect class="cls-3" x="92.95" y="32.27" width="8.6" height="6.76"/><rect class="cls-2" x="81.17" y="32.27" width="8.6" height="11.22"/><rect class="cls-4" x="69.39" y="32.27" width="8.6" height="27.58"/><rect class="cls-3" x="57.62" y="32.27" width="8.6" height="13.24"/><rect class="cls-2" x="45.84" y="32.27" width="8.6" height="10.26"/><rect class="cls-2" x="34.07" y="32.27" width="8.6" height="6.24"/><rect class="cls-2" x="104.49" y="6.52" width="8.6" height="24.58"/><rect class="cls-2" x="116.27" y="19.88" width="8.6" height="11.22"/><rect class="cls-5" x="128.04" y="8.36" width="8.6" height="22.75"/><rect class="cls-2" x="139.82" y="17.86" width="8.6" height="13.24"/><rect class="cls-2" x="139.82" y="32.27" width="8.6" height="17.42"/><rect class="cls-5" x="128.04" y="32.27" width="8.6" height="13.24"/><rect class="cls-2" x="116.27" y="32.27" width="8.6" height="10.26"/><rect class="cls-2" x="104.49" y="32.27" width="8.6" height="17.42"/><path class="cls-6" d="M92,144.72l11.12-1.47L102.06,135c2-2.21,2.6-4.59,1.5-10L102,117.77c-5.58.51-9.78.87-15.81,1.92l.85,6.42-2.86.3h0c.08.27,1.78,6,2,6.45A6.59,6.59,0,0,0,90,136.5l1,.3Z" transform="translate(-22.54 -15.14)"/><path class="cls-7" d="M90.39,125.67a2.47,2.47,0,0,1-2,2.74l-.41.06a2.26,2.26,0,0,1-1.69-.42,2.23,2.23,0,0,1-.9-1.49l-2.09-15.2A2.12,2.12,0,0,1,85.11,109l.29-.06a2,2,0,0,1,2.26,1.67Z" transform="translate(-22.54 -15.14)"/><path class="cls-8" d="M94.28,121.82a2.39,2.39,0,0,1-.35,1.7,2,2,0,0,1-1.35.9l-.37,0a2.14,2.14,0,0,1-2.36-1.89l-.92-5.72a2.25,2.25,0,0,1,.32-1.59,1.85,1.85,0,0,1,1.26-.84l.77-.11A1.87,1.87,0,0,1,93.34,116Z" transform="translate(-22.54 -15.14)"/><path class="cls-8" d="M98.69,121.67A2.19,2.19,0,0,1,97,124.23l-.37.06a2,2,0,0,1-1.54-.44,2.36,2.36,0,0,1-.84-1.5l-.66-4.54a2,2,0,0,1,1.59-2.39l.78-.12a1.7,1.7,0,0,1,1.34.38A2,2,0,0,1,98,117Z" transform="translate(-22.54 -15.14)"/><path class="cls-8" d="M102.48,121a1.77,1.77,0,0,1-1.51,2l-.33,0a1.75,1.75,0,0,1-2-1.45l-.52-3.49a1.66,1.66,0,0,1,1.41-1.86l.67-.1a1.52,1.52,0,0,1,1.76,1.26Z" transform="translate(-22.54 -15.14)"/><polygon class="cls-3" points="74.25 109.12 62.62 114.82 56.51 103.59 46.13 91.6 59.21 83.69 74.25 109.12"/><path class="cls-8" d="M97.45,140.07l-.66-4.64A7.3,7.3,0,0,0,90,127.94l-.24-.76a1.33,1.33,0,0,1,.16-1.1l1.29-2a3,3,0,0,0-.9-4.25l-.4-.26a1.46,1.46,0,0,0-2,.42l-1.4,2.11-2.09,3.15a1.6,1.6,0,0,0-.25,1.12h0c.08.27,1.78,6,2,6.45A6.59,6.59,0,0,0,90,136.5l1,.3.28,2.36h0Z" transform="translate(-22.54 -15.14)"/><path class="cls-9" d="M88.42,181.2h22.37c0-.16,0-.31.07-.47a31.29,31.29,0,0,0,0-6.27c-.09-1.09-.23-2.18-.37-3.27-1-7.82-3.1-15-5-22.7a29.29,29.29,0,0,0-1.62-5.33l-12.7,1.68c-.62,4.5.18,9.66.22,14.59a100,100,0,0,1-.46,13.18A25.21,25.21,0,0,1,88.42,181.2Z" transform="translate(-22.54 -15.14)"/><rect class="cls-10" x="90.66" y="137.22" width="12.81" height="6.8" transform="translate(-40.12 -1.21) rotate(-7.53)"/><path class="cls-3" d="M102.22,139.64a1.13,1.13,0,0,1-2.25.3,1.15,1.15,0,0,1,1-1.28A1.14,1.14,0,0,1,102.22,139.64Z" transform="translate(-22.54 -15.14)"/><polygon class="cls-11" points="123.43 166.05 124.1 150.38 104.47 146.87 101.47 166.05 123.43 166.05"/><path class="cls-6" d="M132.6,134.23l11.17,1.13.83-8.25c2.44-1.69,3.59-3.86,3.78-9.42l.14-7.39c-5.55-.79-9.72-1.41-15.83-1.78L132,115l-2.86-.37h0c0,.28.35,6.26.42,6.73a6.52,6.52,0,0,0,2.88,4.41l.93.52Z" transform="translate(-22.54 -15.14)"/><path class="cls-8" d="M135.41,115.31a2.47,2.47,0,0,1-2.55,2.21l-.42,0a2.28,2.28,0,0,1-2.07-2.45l2.95-20.81a2.12,2.12,0,0,1,2.29-1.93h.3a2,2,0,0,1,1.81,2.14Z" transform="translate(-22.54 -15.14)"/><path class="cls-8" d="M140.08,112.47a2.41,2.41,0,0,1-.73,1.57,2,2,0,0,1-1.52.56l-.38,0a2.16,2.16,0,0,1-1.86-2.39l.42-5.78a2.26,2.26,0,0,1,.69-1.47,1.82,1.82,0,0,1,1.42-.52l.77.06a1.87,1.87,0,0,1,1.62,2.08Z" transform="translate(-22.54 -15.14)"/><path class="cls-8" d="M144.41,113.33a2.2,2.2,0,0,1-2.26,2.1l-.38,0a1.93,1.93,0,0,1-1.39-.78,2.38,2.38,0,0,1-.47-1.65l.4-4.57a2,2,0,0,1,2.1-2l.78.06a1.69,1.69,0,0,1,1.22.68,2.08,2.08,0,0,1,.41,1.44Z" transform="translate(-22.54 -15.14)"/><path class="cls-8" d="M148.24,113.59a1.78,1.78,0,0,1-1.93,1.59l-.33,0a1.77,1.77,0,0,1-1.64-1.89l.3-3.51a1.67,1.67,0,0,1,1.81-1.49l.67.06a1.52,1.52,0,0,1,1.42,1.64Z" transform="translate(-22.54 -15.14)"/><path class="cls-8" d="M144.6,127.11l-5.22-.83a7.29,7.29,0,0,0-4.87-8.85l-.06-.79a1.28,1.28,0,0,1,.41-1l1.71-1.62a3.07,3.07,0,0,0,.1-4.34l-.33-.35a1.46,1.46,0,0,0-2.05,0L132.44,111l-2.75,2.57a1.59,1.59,0,0,0-.51,1h0c0,.28.35,6.26.42,6.73a6.52,6.52,0,0,0,2.88,4.41l.93.52-.28,2.36-3.95,28.06,16.73,3.44Z" transform="translate(-22.54 -15.14)"/><polygon class="cls-12" points="124.94 151.63 125.19 153.66 123.97 153.52 113.86 152.4 104.14 148.99 103.09 148.62 103.53 146.24 103.78 144.85 104.17 141.59 104.34 140.09 106.8 140.41 112.97 141.2 123.36 144.65 125.19 145.26 124.89 147.51 124.69 149.01 124.65 149.32 124.83 150.78 124.94 151.63"/><g class="cls-13"><path class="cls-14" d="M147.47,166.78l-.89,0a8.26,8.26,0,0,1-3-.34c-.76-.26-1.47-.69-2.22-1a7.63,7.63,0,0,0-4.43-.41,11,11,0,0,1,2.62-.81,4.36,4.36,0,0,1,1.57,0,6.37,6.37,0,0,1,1.38.51l.73.33a9.54,9.54,0,0,0,3.4.79,4.7,4.7,0,0,0,.75,0Z" transform="translate(-22.54 -15.14)"/><path class="cls-14" d="M147.43,162.66l-.21,1.5a7.33,7.33,0,0,1-1.14-.11,10.72,10.72,0,0,1-3.26-1.41C144.5,163,146.2,163.38,147.43,162.66Z" transform="translate(-22.54 -15.14)"/><path class="cls-14" d="M138.54,161.22a7.64,7.64,0,0,1-6.92,0c-1.1-.46-3.26-1.25-4.36-1.71a8.92,8.92,0,0,0,2.88,3.32,26.36,26.36,0,0,0,2.16,1.66,13.05,13.05,0,0,1-4.65-2.76,3.58,3.58,0,0,0,.63,2.15,5.66,5.66,0,0,1-2.22-2.5l.26-1.4.38-3.25c1.94.61,3.22,2.06,5,3.07A10.44,10.44,0,0,0,138.54,161.22Z" transform="translate(-22.54 -15.14)"/></g><path class="cls-6" d="M181.26,118.89l-11.22,0,0-8.29c-2.25-1.93-3.17-4.21-2.79-9.75l.63-7.37c5.6-.21,9.81-.4,15.92-.14v6.48l2.87-.07h0c0,.27-1,6.19-1.1,6.65a6.51,6.51,0,0,1-3.32,4.08l-1,.43Z" transform="translate(-22.54 -15.14)"/><path class="cls-7" d="M180.42,99.78a2.48,2.48,0,0,0,2.31,2.47h.42a2.29,2.29,0,0,0,2.31-2.23l.11-15.35a2.11,2.11,0,0,0-2.07-2.16l-.3,0a2,2,0,0,0-2,1.94Z" transform="translate(-22.54 -15.14)"/><path class="cls-8" d="M176.06,96.47a2.45,2.45,0,0,0,.57,1.64,2,2,0,0,0,1.45.71h.38a2.14,2.14,0,0,0,2.1-2.18l.17-5.79a2.28,2.28,0,0,0-.52-1.54,1.87,1.87,0,0,0-1.36-.66l-.78,0a1.89,1.89,0,0,0-1.83,1.91Z" transform="translate(-22.54 -15.14)"/><path class="cls-8" d="M171.67,96.89a2.2,2.2,0,0,0,2,2.32h.38a1.93,1.93,0,0,0,1.47-.63,2.38,2.38,0,0,0,.63-1.59l.08-4.59a2,2,0,0,0-1.9-2.16l-.78,0a1.68,1.68,0,0,0-1.28.55,2.08,2.08,0,0,0-.55,1.38Z" transform="translate(-22.54 -15.14)"/><path class="cls-8" d="M167.84,96.75a1.76,1.76,0,0,0,1.75,1.78h.33a1.76,1.76,0,0,0,1.82-1.7l.06-3.53a1.64,1.64,0,0,0-1.64-1.66l-.67,0a1.54,1.54,0,0,0-1.59,1.49Z" transform="translate(-22.54 -15.14)"/><polygon class="cls-3" points="151.41 88.35 163.63 88.22 167.88 84.48 167.9 74.52 172.81 62.88 157.15 57.17 156.31 73.51 151.41 88.35"/><path class="cls-8" d="M175.27,117.16l.06-6.88a7.31,7.31,0,0,1,5.77-8.3l.14-.78a1.33,1.33,0,0,0-.3-1.07l-1.54-1.78a3.05,3.05,0,0,1,.35-4.33l.36-.31a1.46,1.46,0,0,1,2,.16l1.67,1.92,2.47,2.84a1.59,1.59,0,0,1,.39,1.09h0c0,.27-1,6.19-1.1,6.65a6.51,6.51,0,0,1-3.32,4.08l-1,.43,0,4.57-.05.39Z" transform="translate(-22.54 -15.14)"/><rect class="cls-12" x="172.32" y="112.47" width="6.8" height="12.81" transform="translate(33.96 279.22) rotate(-89.89)"/><polygon class="cls-15" points="162.11 166.05 160.4 106.67 146.09 106.64 141.43 166.05 162.11 166.05"/><path class="cls-3" d="M169.92,124.7a1.05,1.05,0,1,0,2.1,0,1.05,1.05,0,1,0-2.1,0Z" transform="translate(-22.54 -15.14)"/><path class="cls-3" d="M169.91,128.29a1.06,1.06,0,1,0,2.11,0,1.06,1.06,0,1,0-2.11,0Z" transform="translate(-22.54 -15.14)"/><path class="cls-3" d="M169.9,131.89a1.06,1.06,0,1,0,1.06-1A1.05,1.05,0,0,0,169.9,131.89Z" transform="translate(-22.54 -15.14)"/><path class="cls-6" d="M44.43,105.85l10.94-.34-.21-8.26c2.15-2,3-4.29,2.5-9.8l-.78-7.32c-5.47-.06-9.58-.13-15.53.3l.16,6.46h-2.8c0,.27,1.1,6.14,1.23,6.6a6.42,6.42,0,0,0,3.33,4l1,.4Z" transform="translate(-22.54 -15.14)"/><path class="cls-8" d="M44.82,86.79a2.47,2.47,0,0,1-2.2,2.52l-.41,0a2.2,2.2,0,0,1-1.59-.58,2.27,2.27,0,0,1-.71-1.57l.29-21a2.1,2.1,0,0,1,2-2.21l.29,0a1.94,1.94,0,0,1,2,1.88Z" transform="translate(-22.54 -15.14)"/><path class="cls-8" d="M49,83.37A2.47,2.47,0,0,1,48.47,85a1.93,1.93,0,0,1-1.4.75l-.37,0a2.11,2.11,0,0,1-2.09-2.12l-.3-5.77a2.32,2.32,0,0,1,.47-1.54,1.83,1.83,0,0,1,1.31-.7l.76,0a1.83,1.83,0,0,1,1.82,1.85Z" transform="translate(-22.54 -15.14)"/><path class="cls-8" d="M53.28,83.66A2.19,2.19,0,0,1,51.36,86l-.38,0a1.91,1.91,0,0,1-1.44-.59,2.41,2.41,0,0,1-.66-1.57l-.17-4.57a2,2,0,0,1,1.79-2.21l.76,0a1.58,1.58,0,0,1,1.26.51,2,2,0,0,1,.57,1.36Z" transform="translate(-22.54 -15.14)"/><path class="cls-8" d="M57,83.42a1.76,1.76,0,0,1-1.67,1.82l-.32,0a1.72,1.72,0,0,1-1.81-1.65l-.14-3.51a1.65,1.65,0,0,1,1.56-1.71l.66,0a1.5,1.5,0,0,1,1.57,1.44Z" transform="translate(-22.54 -15.14)"/><path class="cls-8" d="M55.16,97.25,50,97.11A7.18,7.18,0,0,0,44.2,89l-.15-.78a1.3,1.3,0,0,1,.27-1.06l1.45-1.82a3.12,3.12,0,0,0,.67-2.26,3.06,3.06,0,0,0-1.1-2l-.36-.3A1.41,1.41,0,0,0,43,81l-1.58,2-2.34,2.91a1.56,1.56,0,0,0-.36,1.09h0c0,.27,1.1,6.14,1.23,6.6a6.42,6.42,0,0,0,3.33,4l1,.4,0,2.37-.37,28.24L57,128Z" transform="translate(-22.54 -15.14)"/><rect class="cls-3" x="46.31" y="98.71" width="6.8" height="12.81" transform="translate(-78.04 139.48) rotate(-89.89)"/><polygon class="cls-16" points="42.57 166.05 34.39 92.91 20.08 92.88 19.37 166.05 42.57 166.05"/><path class="cls-3" d="M53.14,111.28a1.06,1.06,0,0,0,1.16.93,1.05,1.05,0,1,0-1.16-.93Z" transform="translate(-22.54 -15.14)"/><path class="cls-3" d="M53.54,114.85a1.05,1.05,0,0,0,2.09-.23,1.05,1.05,0,1,0-2.09.23Z" transform="translate(-22.54 -15.14)"/><path class="cls-3" d="M53.94,118.42a1.05,1.05,0,1,0,.93-1.16A1,1,0,0,0,53.94,118.42Z" transform="translate(-22.54 -15.14)"/><path class="cls-17" d="M51.18,34.17l1.68-1.52-.83-2-2.26.11-1.21-1.2.12-2.27-2-.83-1.52,1.69H43.45l-1.52-1.69-2,.83L40,29.56l-1.2,1.2-2.27-.11-.83,2,1.68,1.52v1.71L35.74,37.4l.83,2,2.27-.12L40,40.49l-.11,2.26,2,.83,1.52-1.68h1.71l1.52,1.68,2-.83-.12-2.26,1.21-1.21L52,39.4l.83-2-1.68-1.52ZM44.3,39.71A4.69,4.69,0,1,1,49,35,4.69,4.69,0,0,1,44.3,39.71Z" transform="translate(-22.54 -15.14)"/><path class="cls-17" d="M111.44,66.64l.78-.71-.38-.93-1,.06-.56-.56,0-1-.93-.39-.7.78h-.79l-.7-.78-.93.39,0,1-.56.56-1-.06-.38.93.78.71v.79l-.78.7.38.93,1,0,.56.56,0,1,.93.39.7-.78h.79l.7.78.93-.39,0-1,.56-.56,1,0,.38-.93-.78-.7Zm-3.18,2.56A2.17,2.17,0,1,1,110.43,67,2.18,2.18,0,0,1,108.26,69.2Z" transform="translate(-22.54 -15.14)"/><path class="cls-17" d="M193.44,165.19l.78-.71-.38-.93-1.05.06-.56-.56.05-1.05-.92-.38-.71.77h-.79l-.7-.77-.93.38.05,1.05-.56.56-1.05-.06-.38.93.78.71V166l-.78.7.38.93,1.05-.05.56.56-.05,1,.93.38.7-.78h.79l.71.78.92-.38-.05-1,.56-.56,1.05.05.38-.93-.78-.7Zm-3.18,2.56a2.17,2.17,0,1,1,2.17-2.17A2.17,2.17,0,0,1,190.26,167.75Z" transform="translate(-22.54 -15.14)"/><path class="cls-17" d="M162.1,146.31l1.05-.95-.52-1.24-1.4.07-.75-.75.07-1.41-1.25-.51-.94,1H157.3l-1-1-1.24.51.07,1.41-.75.75-1.41-.07-.52,1.24,1.05.95v1.06l-1.05.94.52,1.25,1.41-.07.75.75-.07,1.4,1.24.52,1-1h1.06l.94,1,1.25-.52-.07-1.4.75-.75,1.4.07.52-1.25-1.05-.94Zm-4.27,3.44a2.91,2.91,0,1,1,2.91-2.91A2.91,2.91,0,0,1,157.83,149.75Z" transform="translate(-22.54 -15.14)"/><path class="cls-17" d="M161.47,130.33,163,129l-.74-1.79-2,.1-1.07-1.08.1-2-1.79-.74-1.36,1.5h-1.52l-1.36-1.5-1.78.74.1,2-1.08,1.08-2-.1-.74,1.79,1.5,1.35v1.53l-1.5,1.35.74,1.79,2-.1,1.08,1.08-.1,2,1.78.74,1.36-1.5h1.52l1.36,1.5,1.79-.74-.1-2,1.07-1.08,2,.1.74-1.79-1.51-1.35Zm-6.14,4.95a4.19,4.19,0,1,1,4.18-4.18A4.18,4.18,0,0,1,155.33,135.28Z" transform="translate(-22.54 -15.14)"/><path class="cls-17" d="M199.91,60.13l1.39-1.25-.69-1.64-1.86.09-1-1,.1-1.86-1.65-.68L195,55.18h-1.4l-1.25-1.38-1.65.68.1,1.86-1,1-1.86-.09-.68,1.64,1.38,1.25v1.41l-1.38,1.24.68,1.65,1.86-.09,1,1-.1,1.86,1.65.68,1.25-1.38H195l1.25,1.38,1.65-.68-.1-1.86,1-1,1.86.09.69-1.65-1.39-1.24Zm-5.65,4.55a3.85,3.85,0,1,1,3.85-3.85A3.85,3.85,0,0,1,194.26,64.68Z" transform="translate(-22.54 -15.14)"/><path class="cls-17" d="M185.86,31.8c0-2.81-2.11-4.32-4.15-5.78l-.4-.28V19.07A2.1,2.1,0,0,1,183,21.38v.36h2.84v-.17c0-3.29-2.28-4.27-4.51-4.46v-2h-1.79v2c-2.2.2-4.44,1.2-4.44,4.45,0,2.81,2.11,4.32,4.15,5.78l.29.21v6.72a2.09,2.09,0,0,1-1.7-2.28V31H175v.76c0,3.28,2.3,4.27,4.54,4.46v1.52h1.79V36.26C183.56,36.07,185.86,35.08,185.86,31.8Zm-7.72-10.42a2.14,2.14,0,0,1,1.38-2.23v5.12A4,4,0,0,1,178.14,21.38Zm3.17,12.84V29a4.08,4.08,0,0,1,1.5,3A2.1,2.1,0,0,1,181.31,34.22Z" transform="translate(-22.54 -15.14)"/><path class="cls-17" d="M198.82,123.67c0-2.78-2.08-4.27-4.09-5.71l-.4-.28V111.1a2.08,2.08,0,0,1,1.65,2.28v.36h2.8v-.17c0-3.24-2.25-4.22-4.45-4.4v-1.94h-1.76v2c-2.18.19-4.38,1.18-4.38,4.39,0,2.78,2.08,4.27,4.09,5.71l.29.2v6.63a2.06,2.06,0,0,1-1.69-2.25v-.94h-2.8v.75c0,3.23,2.27,4.21,4.49,4.4v1.5h1.76v-1.5C196.55,127.88,198.82,126.9,198.82,123.67Zm-7.62-10.29a2.09,2.09,0,0,1,1.37-2.19v5A3.93,3.93,0,0,1,191.2,113.38Zm3.13,12.67V120.9a4,4,0,0,1,1.48,3A2.07,2.07,0,0,1,194.33,126.05Z" transform="translate(-22.54 -15.14)"/><path class="cls-17" d="M35.26,94c0-2-1.48-3-2.9-4l-.28-.2V85.05a1.47,1.47,0,0,1,1.17,1.61v.26h2V86.8c0-2.3-1.6-3-3.15-3.12V82.31H30.83v1.37c-1.54.14-3.1.85-3.1,3.12,0,2,1.47,3,2.89,4l.21.14v4.7a1.46,1.46,0,0,1-1.19-1.6v-.66h-2V94c0,2.29,1.61,3,3.18,3.11v1.07h1.25V97.06C33.65,96.93,35.26,96.24,35.26,94Zm-5.4-7.29a1.48,1.48,0,0,1,1-1.55v3.58A2.81,2.81,0,0,1,29.86,86.66Zm2.22,9V92a2.87,2.87,0,0,1,1,2.1A1.47,1.47,0,0,1,32.08,95.63Z" transform="translate(-22.54 -15.14)"/><path class="cls-17" d="M106.72,108.26c0-2-1.53-3.13-3-4.18l-.29-.21V99.05a1.52,1.52,0,0,1,1.21,1.67V101h2v-.12c0-2.38-1.65-3.09-3.26-3.23V96.21h-1.3v1.43c-1.59.14-3.21.87-3.21,3.22,0,2,1.53,3.12,3,4.18l.21.15v4.86a1.52,1.52,0,0,1-1.23-1.65v-.69H98.85v.55c0,2.37,1.66,3.09,3.28,3.22v1.1h1.3v-1.1C105.05,111.35,106.72,110.63,106.72,108.26Zm-5.59-7.54a1.54,1.54,0,0,1,1-1.61v3.7A2.88,2.88,0,0,1,101.13,100.72Zm2.3,9.28v-3.77a2.92,2.92,0,0,1,1.08,2.17A1.51,1.51,0,0,1,103.43,110Z" transform="translate(-22.54 -15.14)"/><path class="cls-17" d="M149,88.14a3.35,3.35,0,0,1,2.31,1l.12.12.14-.1,1.2-.8.29-.19-.15-.18A5.13,5.13,0,0,0,149,86c-2.52,0-4.65,2-5.38,4.87h-1.7v1.54h1.47a5.06,5.06,0,0,0,0,1.1H141.9v1.54h1.7c.73,2.82,2.86,4.86,5.38,4.86a4.93,4.93,0,0,0,3.39-1.4l.17-.16-.17-.15c-.44-.41-.84-.75-1.22-1.06l-.12-.09-.13.09a3.31,3.31,0,0,1-1.92.65,3.89,3.89,0,0,1-3.46-2.74h4.74V93.52h-5.1c0-.18,0-.36,0-.55s0-.37,0-.55h5.1V90.88h-4.74A3.89,3.89,0,0,1,149,88.14Z" transform="translate(-22.54 -15.14)"/><path class="cls-17" d="M120.37,125.39a5.71,5.71,0,0,1,3.95,1.67l.21.2.24-.16c.7-.48,1.39-.93,2.06-1.37l.49-.33-.26-.31a8.73,8.73,0,0,0-6.69-3.33c-4.31,0-8,3.5-9.2,8.33h-2.91v2.63h2.5c0,.31,0,.62,0,.94s0,.63,0,1h-2.5v2.63h2.91c1.23,4.82,4.89,8.33,9.2,8.33a8.41,8.41,0,0,0,5.8-2.41l.29-.26-.29-.26c-.75-.7-1.43-1.29-2.08-1.81l-.22-.17-.22.16a5.56,5.56,0,0,1-3.28,1.11c-2.61,0-4.86-1.92-5.93-4.69h8.13v-2.63h-8.74c0-.31,0-.63,0-1s0-.63,0-.94h8.74v-2.63h-8.13C115.51,127.31,117.76,125.39,120.37,125.39Z" transform="translate(-22.54 -15.14)"/><path class="cls-17" d="M31.85,150a4.37,4.37,0,0,1,3,1.28l.16.16.19-.13c.53-.37,1.06-.71,1.58-1.05l.37-.25-.2-.24a6.7,6.7,0,0,0-5.13-2.56c-3.32,0-6.13,2.69-7.08,6.4H22.54v2h1.92q0,.36,0,.72c0,.25,0,.49,0,.73H22.54v2h2.23c.95,3.71,3.76,6.4,7.08,6.4a6.49,6.49,0,0,0,4.45-1.85l.22-.2-.22-.2c-.58-.54-1.1-1-1.6-1.39l-.17-.13-.17.12a4.28,4.28,0,0,1-2.51.86,5.12,5.12,0,0,1-4.56-3.61h6.24v-2H26.82c0-.24,0-.48,0-.73s0-.48,0-.72h6.71v-2H27.29A5.12,5.12,0,0,1,31.85,150Z" transform="translate(-22.54 -15.14)"/><g class="cls-18"><path class="cls-3" d="M110.09,22.08a2,2,0,0,0-1.28-.42,2.06,2.06,0,0,0-1.28.41,1.25,1.25,0,0,0-.53,1v3.2a1.2,1.2,0,0,0,.53,1,2.06,2.06,0,0,0,1.28.41,2.12,2.12,0,0,0,1.28-.4,1.21,1.21,0,0,0,.53-1v-3.2A1.21,1.21,0,0,0,110.09,22.08Zm-.65,4.16a.44.44,0,0,1-.19.36.81.81,0,0,1-.94,0,.44.44,0,0,1-.19-.36V23.05a.44.44,0,0,1,.19-.37.86.86,0,0,1,.94,0,.44.44,0,0,1,.19.37Z" transform="translate(-22.54 -15.14)"/><path class="cls-3" d="M103.65,21.49a1.2,1.2,0,0,0,.54-1V17.32a1.21,1.21,0,0,0-.53-1,2,2,0,0,0-1.28-.42,2,2,0,0,0-1.28.41,1.23,1.23,0,0,0-.54,1v3.19a1.2,1.2,0,0,0,.54,1,2.19,2.19,0,0,0,2.55,0Zm-1.77-.63a.45.45,0,0,1-.2-.36V17.3a.45.45,0,0,1,.2-.36.76.76,0,0,1,.46-.14.79.79,0,0,1,.47.14.44.44,0,0,1,.19.36v3.2a.44.44,0,0,1-.19.36.79.79,0,0,1-.47.14A.76.76,0,0,1,101.88,20.86Z" transform="translate(-22.54 -15.14)"/><polygon class="cls-3" points="86.12 0.81 78.72 12.63 80 12.63 87.39 0.81 86.12 0.81"/></g><g class="cls-18"><path class="cls-3" d="M131.84,82.67a1.55,1.55,0,0,0-1.83,0,.85.85,0,0,0-.38.71v2.28a.84.84,0,0,0,.38.7,1.49,1.49,0,0,0,.92.29,1.44,1.44,0,0,0,.91-.29.85.85,0,0,0,.38-.7V83.38A.88.88,0,0,0,131.84,82.67Zm-.47,3a.32.32,0,0,1-.13.26.57.57,0,0,1-.34.1.52.52,0,0,1-.33-.1.3.3,0,0,1-.14-.26V83.36a.3.3,0,0,1,.14-.26.52.52,0,0,1,.33-.1.57.57,0,0,1,.34.1.32.32,0,0,1,.13.26Z" transform="translate(-22.54 -15.14)"/><path class="cls-3" d="M127.23,82.25a.84.84,0,0,0,.38-.7V79.26a.85.85,0,0,0-.38-.7,1.42,1.42,0,0,0-.91-.3,1.49,1.49,0,0,0-.92.29.87.87,0,0,0-.38.71v2.29a.84.84,0,0,0,.38.7,1.55,1.55,0,0,0,1.83,0ZM126,81.8a.31.31,0,0,1-.14-.26V79.25A.3.3,0,0,1,126,79a.52.52,0,0,1,.33-.1.57.57,0,0,1,.34.1.32.32,0,0,1,.13.26v2.29a.33.33,0,0,1-.13.26.57.57,0,0,1-.34.1A.52.52,0,0,1,126,81.8Z" transform="translate(-22.54 -15.14)"/><polygon class="cls-3" points="108.27 63.14 102.98 71.6 103.89 71.6 109.18 63.14 108.27 63.14"/></g><g class="cls-18"><path class="cls-3" d="M83,150.62a3.24,3.24,0,0,0-2.08-.67,3.34,3.34,0,0,0-2.08.66,2,2,0,0,0-.86,1.61v5.18a1.94,1.94,0,0,0,.86,1.58A3.61,3.61,0,0,0,83,159a1.94,1.94,0,0,0,.86-1.59v-5.18A2,2,0,0,0,83,150.62Zm-1.06,6.75a.74.74,0,0,1-.31.59,1.2,1.2,0,0,1-.76.23,1.19,1.19,0,0,1-.76-.23.72.72,0,0,1-.31-.59v-5.18a.72.72,0,0,1,.31-.59,1.19,1.19,0,0,1,.76-.24,1.21,1.21,0,0,1,.76.24.74.74,0,0,1,.31.59Z" transform="translate(-22.54 -15.14)"/><path class="cls-3" d="M72.52,149.67a2,2,0,0,0,.87-1.59V142.9a2,2,0,0,0-.86-1.6,3.28,3.28,0,0,0-2.08-.67,3.34,3.34,0,0,0-2.09.66,2,2,0,0,0-.86,1.61v5.18a2,2,0,0,0,.86,1.59,3.56,3.56,0,0,0,4.16,0Zm-2.89-1a.72.72,0,0,1-.31-.59v-5.18a.72.72,0,0,1,.31-.59,1.37,1.37,0,0,1,1.52,0,.72.72,0,0,1,.31.59v5.18a.72.72,0,0,1-.31.59,1.32,1.32,0,0,1-1.52,0Z" transform="translate(-22.54 -15.14)"/><polygon class="cls-3" points="58.1 125.53 46.09 144.72 48.17 144.72 60.16 125.53 58.1 125.53"/></g><g class="cls-18"><path class="cls-3" d="M73.75,92.38a1.71,1.71,0,0,0-1.1-.36,1.79,1.79,0,0,0-1.11.35,1.06,1.06,0,0,0-.46.86V96a1,1,0,0,0,.46.84,1.73,1.73,0,0,0,1.11.35,1.8,1.8,0,0,0,1.1-.34,1.07,1.07,0,0,0,.46-.85V93.23A1.07,1.07,0,0,0,73.75,92.38ZM73.19,96a.37.37,0,0,1-.17.31.6.6,0,0,1-.4.13.63.63,0,0,1-.41-.13.36.36,0,0,1-.16-.31V93.21a.38.38,0,0,1,.16-.31.69.69,0,0,1,.41-.13.66.66,0,0,1,.4.13.4.4,0,0,1,.17.31Z" transform="translate(-22.54 -15.14)"/><path class="cls-3" d="M68.19,91.87a1,1,0,0,0,.46-.84V88.27a1,1,0,0,0-.46-.85,1.72,1.72,0,0,0-1.11-.36,1.76,1.76,0,0,0-1.1.35,1,1,0,0,0-.46.86V91a1,1,0,0,0,.46.84,1.71,1.71,0,0,0,1.1.36A1.76,1.76,0,0,0,68.19,91.87Zm-1.54-.55a.37.37,0,0,1-.16-.31V88.25a.37.37,0,0,1,.16-.31.68.68,0,0,1,.4-.13.69.69,0,0,1,.41.13.37.37,0,0,1,.16.31V91a.37.37,0,0,1-.16.31.63.63,0,0,1-.41.13A.62.62,0,0,1,66.65,91.32Z" transform="translate(-22.54 -15.14)"/><polygon class="cls-3" points="49.97 71.94 43.58 82.15 44.69 82.15 51.07 71.94 49.97 71.94"/></g><path class="cls-5" d="M96.07,92.71,41.35,55.49a1,1,0,1,1,1.12-1.65L96.19,90.38,133.87,70l33.49,6,25.47-39.5a1,1,0,0,1,1.38-.3,1,1,0,0,1,.3,1.38L168.32,78.16l-34.11-6.11Z" transform="translate(-22.54 -15.14)"/><path class="cls-3" d="M45.32,54.67a3.41,3.41,0,1,1-3.41-3.41A3.41,3.41,0,0,1,45.32,54.67Z" transform="translate(-22.54 -15.14)"/><path class="cls-3" d="M99.54,91.54a3.41,3.41,0,1,1-3.41-3.4A3.41,3.41,0,0,1,99.54,91.54Z" transform="translate(-22.54 -15.14)"/><path class="cls-3" d="M137.45,71A3.41,3.41,0,1,1,134,67.59,3.41,3.41,0,0,1,137.45,71Z" transform="translate(-22.54 -15.14)"/><path class="cls-3" d="M171.25,76.66a3.41,3.41,0,1,1-3.41-3.41A3.41,3.41,0,0,1,171.25,76.66Z" transform="translate(-22.54 -15.14)"/><path class="cls-3" d="M197.08,37a3.41,3.41,0,1,1-3.41-3.41A3.41,3.41,0,0,1,197.08,37Z" transform="translate(-22.54 -15.14)"/></g></g></svg>