<?xml version="1.0" encoding="iso-8859-1"?>
<!-- Generator: Adobe Illustrator 19.0.0, SVG Export Plug-In . SVG Version: 6.00 Build 0)  -->
<svg version="1.1" id="Layer_1" xmlns="http://www.w3.org/2000/svg" xmlns:xlink="http://www.w3.org/1999/xlink" x="0px" y="0px"
	 viewBox="0 0 500 500" style="enable-background:new 0 0 500 500;" xml:space="preserve">
<g>
	<g>
		<path d="M464.844,0H35.156C15.74,0,0,15.74,0,35.156v429.688C0,484.26,15.74,500,35.156,500h429.688
			C484.26,500,500,484.26,500,464.844V35.156C500,15.74,484.26,0,464.844,0z M151.536,282.164c1.304,4.032-0.128,8.432-3.548,10.916
			c-3.424,2.488-8.056,2.488-11.48,0l-17.748-12.892l-17.744,12.892c-1.712,1.248-3.728,1.872-5.744,1.872
			c-2.016,0-4.028-0.624-5.74-1.872c-3.42-2.484-4.852-6.888-3.548-10.916l6.78-20.856L75.02,248.412
			c-3.424-2.48-4.856-7.032-3.552-11.06c1.308-4.024,5.06-6.884,9.288-6.884h21.932l6.776-20.732c1.308-4.02,5.06-6.672,9.288-6.672
			c4.228,0,7.98,2.62,9.288,6.644l6.78,20.756h21.936c4.232,0,7.98,2.86,9.288,6.884c1.316,4.032-0.116,8.58-3.544,11.064
			l-17.744,12.896L151.536,282.164z M162.504,352.872l-17.748,12.896l6.78,20.86c1.304,4.028-0.128,8.428-3.548,10.916
			c-3.424,2.484-8.056,2.484-11.48,0l-17.748-12.896l-17.744,12.896c-1.712,1.244-3.728,1.868-5.744,1.868
			c-2.016,0-4.028-0.624-5.74-1.868c-3.42-2.488-4.852-6.892-3.548-10.916l6.78-20.86l-17.748-12.896
			c-3.42-2.488-4.852-6.528-3.548-10.556c1.308-4.02,5.06-6.38,9.288-6.38h21.932l6.776-21.228c1.308-4.028,5.06-6.928,9.288-6.928
			s7.98,2.996,9.288,7.024l6.78,21.132h21.936c4.232,0,7.98,2.36,9.288,6.38C167.36,346.344,165.928,350.384,162.504,352.872z
			 M162.504,143.948L144.76,156.84l6.78,20.86c1.304,4.024-0.128,8.428-3.548,10.916c-1.712,1.244-3.728,1.864-5.74,1.864
			c-2.012,0-4.028-0.62-5.74-1.864l-17.748-12.896l-17.744,12.896c-3.424,2.488-8.056,2.488-11.484,0
			c-3.42-2.488-4.852-6.896-3.548-10.916l6.78-20.86L75.02,143.948c-3.42-2.488-4.852-7.536-3.548-11.556
			c1.308-4.032,5.06-7.396,9.288-7.396h21.932l6.776-20.22c1.308-4.02,5.06-6.424,9.288-6.424s7.98,2.248,9.288,6.264l6.78,20.38
			h21.936c4.232,0,7.98,3.364,9.288,7.396C167.36,136.416,165.928,141.46,162.504,143.948z M419.324,375H215.96
			c-6.472,0-11.72-5.244-11.72-11.72c0-6.468,5.248-11.72,11.72-11.72h203.364c6.472,0,11.72,5.248,11.72,11.72
			C431.044,369.756,425.796,375,419.324,375z M419.324,269.532H215.96c-6.472,0-11.72-5.244-11.72-11.72
			c0-6.468,5.248-11.72,11.72-11.72h203.364c6.472,0,11.72,5.248,11.72,11.72C431.044,264.288,425.796,269.532,419.324,269.532z
			 M419.324,164.064H215.96c-6.472,0-11.72-5.244-11.72-11.72c0-6.468,5.248-11.72,11.72-11.72h203.364
			c6.472,0,11.72,5.248,11.72,11.72C431.044,158.82,425.796,164.064,419.324,164.064z"/>
	</g>
</g>
<g>
</g>
<g>
</g>
<g>
</g>
<g>
</g>
<g>
</g>
<g>
</g>
<g>
</g>
<g>
</g>
<g>
</g>
<g>
</g>
<g>
</g>
<g>
</g>
<g>
</g>
<g>
</g>
<g>
</g>
</svg>
