<svg height="512pt" viewBox="0 -53 512 512" width="512pt" xmlns="http://www.w3.org/2000/svg"><path d="m106.667969 181.300781c23.53125 0 42.664062-19.132812 42.664062-42.664062s-19.132812-42.667969-42.664062-42.667969-42.667969 19.136719-42.667969 42.667969 19.136719 42.664062 42.667969 42.664062zm0 0"/><path d="m495.402344 8.269531c-10.75-7.960937-24.894532-10.347656-37.824219-6.402343-131.882813 40.320312-271.253906 40.320312-403.113281 0-12.929688-3.925782-27.09375-1.535157-37.824219 6.402343-10.601563 7.804688-16.640625 19.773438-16.640625 32.851563v323.050781c0 13.054687 6.039062 25.046875 16.597656 32.851563 10.75 7.957031 24.917969 10.371093 37.824219 6.402343 131.882813-40.320312 271.253906-40.320312 403.113281 0 4.097656 1.257813 8.34375 1.855469 12.542969 1.855469 9.046875 0 17.964844-2.835938 25.304687-8.277344 10.578126-7.808594 16.617188-19.777344 16.617188-32.855468v-323.027344c0-13.078125-6.039062-25.046875-16.597656-32.851563zm-26.070313 34.621094.46875 222.933594-112.679687-112.683594c-14.082032-14.101563-38.828125-14.101563-52.90625 0l-101.546875 101.546875-26.882813-26.878906c-14.078125-14.101563-38.824218-14.101563-52.90625 0l-80.320312 80.320312-.574219-265.472656c139.734375 42.730469 287.421875 42.839844 427.347656.234375zm0 0"/></svg>