<svg id="Layer_1" data-name="Layer 1" xmlns="http://www.w3.org/2000/svg" viewBox="0 0 403.79 400.75"><defs><style>.cls-1{fill:#325a99;}.cls-2{fill:#004a8f;}.cls-3{fill:#2589ca;stroke:#fff;stroke-width:2.16px;}</style></defs><title>100 Islamic Art Vectors ( www.rezagraphic.ir ) (196) [Converted]</title><path class="cls-1" d="M137.55,293.74l41.34,9.33,9.33,52.67-29.33,30.67-36.67-36.67S120.22,336.41,137.55,293.74Z" transform="translate(-109.11 -185.12)"/><path class="cls-1" d="M137.55,477.74l41.34-9.33,9.33-52.67-29.33-30.67-36.67,36.67S120.22,435.07,137.55,477.74Z" transform="translate(-109.11 -185.12)"/><path class="cls-1" d="M485.89,293.74l-41.34,9.33-9.33,52.67,29.33,30.67,36.67-36.67S503.22,336.41,485.89,293.74Z" transform="translate(-109.11 -185.12)"/><path class="cls-1" d="M485.89,477.74l-41.34-9.33-9.33-52.67,29.33-30.67,36.67,36.67S503.22,435.07,485.89,477.74Z" transform="translate(-109.11 -185.12)"/><polygon class="cls-1" points="162.45 11.28 201.12 46.62 163.78 81.28 117.11 72.62 103.78 32.62 162.45 11.28"/><polygon class="cls-1" points="241.12 8.62 202.45 43.95 239.78 78.62 286.45 69.95 299.78 29.95 241.12 8.62"/><polygon class="cls-1" points="162.45 390.62 201.12 355.28 163.78 320.62 117.11 329.28 103.78 369.28 162.45 390.62"/><polygon class="cls-1" points="241.12 393.28 202.45 357.95 239.78 323.28 286.45 331.95 299.78 371.95 241.12 393.28"/><path class="cls-2" d="M244.89,315.07l12.66,36.67s-30,8-28,37.33,29.34,28,29.34,28l-14,38.25-62.67,12.42,5.33-53.33-26.66-28.67,27.33-30-9.33-52.67Z" transform="translate(-109.11 -185.12)"/><path class="cls-2" d="M374.89,315.07l-12.67,36.67s30,8,28,37.33-29.33,28-29.33,28l14,38.25,62.66,12.42-5.33-53.33,26.67-28.67-27.34-30,9.34-52.67Z" transform="translate(-109.11 -185.12)"/><path class="cls-2" d="M224.22,257.07l22.67,62,34,6s12-20.66,30.66-20.66,30,21.33,30,21.33l34.67-8,21.33-61.33-50.66,10-36.67-34.67-37.33,34.67Z" transform="translate(-109.11 -185.12)"/><path class="cls-2" d="M224.22,514.86l22.67-62,34-6s12,20.67,30.66,20.67,30-21.33,30-21.33l34.67,8,21.33,61.33-50.66-10L310.22,540.2l-37.33-34.67Z" transform="translate(-109.11 -185.12)"/><polygon class="cls-1" points="64.45 61.95 117.11 72.62 135.78 129.95 69.78 117.95 64.45 61.95"/><polygon class="cls-1" points="338.95 61.95 286.28 72.62 267.62 129.95 333.62 117.95 338.95 61.95"/><polygon class="cls-1" points="64.45 338.2 117.11 327.53 135.78 270.2 69.78 282.2 64.45 338.2"/><polygon class="cls-1" points="338.95 338.2 286.28 327.53 267.62 270.2 333.62 282.2 338.95 338.2"/><polygon class="cls-3" points="62.8 108.56 54.66 52.99 163.28 72.78 190.96 46.83 201.55 56.47 167.73 88.12 71.76 70.65 77.71 111.68 62.8 108.56"/><path class="cls-3" d="M310.7,222l38.09-35.7a199.93,199.93,0,0,1,69.86,26.84L386.4,306.58,370,310l31.3-90.75a185.71,185.71,0,0,0-47.91-17.69l-32.24,30.17Z" transform="translate(-109.11 -185.12)"/><path class="cls-3" d="M148.48,385.63l-34.75-33.94a201,201,0,0,1,23-65.37l98.44,20.38,5.38,15.64-96-19.8a185.82,185.82,0,0,0-15.28,44.14l29.71,29.05Z" transform="translate(-109.11 -185.12)"/><path class="cls-3" d="M251.35,310l28,5.78a40.69,40.69,0,0,1,64.77-.49l90.47-18.61-2.17,15.05-95.48,19.71a26.42,26.42,0,0,0-50.05.44l-30.06-6.2Z" transform="translate(-109.11 -185.12)"/><polygon class="cls-3" points="292.36 77.82 331.42 70.78 316.51 173.62 344.39 199.53 354.59 189.52 331.71 168.29 348.58 53.09 297.67 62.35 292.36 77.82"/><path class="cls-3" d="M214.71,247.27l-11.05-32.16a200.05,200.05,0,0,1,69.7-28.19l75.73,71,41.58-7.56-5.59,15.5-40.63,7.33-75.27-70.71a184.91,184.91,0,0,0-48.29,19.08l9.88,28.66Z" transform="translate(-109.11 -185.12)"/><polygon class="cls-3" points="340.99 292.19 349.13 347.76 240.51 327.97 212.83 353.92 202.24 344.28 236.06 312.63 332.03 330.1 326.08 289.07 340.99 292.19"/><path class="cls-3" d="M223.27,384.8c0,17.6,11.49,30.69,27.27,36.32l-9.46,27.41,16.35-3.39,12.62-36.59a26.85,26.85,0,0,1-5.91.71c-14.53,0-26.65-9.68-26.65-24.46s11.95-24.46,26.31-24.46a27.14,27.14,0,0,1,5.12.61l-32.81-95.19-16-2.82,29.47,85.76C234.08,354.52,223.27,367.47,223.27,384.8Z" transform="translate(-109.11 -185.12)"/><path class="cls-3" d="M441.32,416.36l6.55,45.79L433,459.26l-6.9-48.16,70.17-68a184,184,0,0,0-14.83-41.5l-34.06,7,2.22-15.06,39.11-8a199.56,199.56,0,0,1,23,62.59Z" transform="translate(-109.11 -185.12)"/><path class="cls-3" d="M311.3,549l-38.09,35.7a199.93,199.93,0,0,1-69.86-26.84l32.25-93.46L252,461l-31.3,90.75a185.71,185.71,0,0,0,47.91,17.69l32.23-30.17Z" transform="translate(-109.11 -185.12)"/><path class="cls-3" d="M473.36,385.11l34.91,34.2a201,201,0,0,1-23,65.37L386.85,464.3l-5.38-15.64,96,19.8a185.82,185.82,0,0,0,15.28-44.14L463.2,395.26Z" transform="translate(-109.11 -185.12)"/><path class="cls-3" d="M370.65,461l-28-5.78a40.69,40.69,0,0,1-64.77.49l-90.47,18.61,2.17-15.05,95.48-19.71a26.42,26.42,0,0,0,50.05-.44l30.05,6.2Z" transform="translate(-109.11 -185.12)"/><path class="cls-3" d="M196,359.66l-70.32,68.22a184,184,0,0,0,14.83,41.5l34.06-7-2.22,15.06-39.11,8a199.56,199.56,0,0,1-23-62.59l70.46-68.37-6.6-45.64L189,311.74Z" transform="translate(-109.11 -185.12)"/><polygon class="cls-3" points="111.43 322.93 72.37 329.97 87.28 227.13 59.4 201.22 49.2 211.23 72.08 232.46 55.21 347.66 106.12 338.4 111.43 322.93"/><path class="cls-3" d="M407.29,523.73l11,32.16a200.05,200.05,0,0,1-69.7,28.19l-75.73-71-41.58,7.56,5.59-15.5,40.63-7.33,75.27,70.71a184.91,184.91,0,0,0,48.29-19.08l-9.88-28.66Z" transform="translate(-109.11 -185.12)"/><path class="cls-3" d="M398.73,386.2c0,17.33-10.81,30.28-26.29,36.1l29.47,85.76-16-2.82-32.81-95.19a27.14,27.14,0,0,0,5.12.61c14.36,0,26.31-9.72,26.31-24.46s-12.12-24.46-26.65-24.46a26.85,26.85,0,0,0-5.91.71l12.62-36.59,16.35-3.39-9.46,27.41C387.24,355.51,398.73,368.6,398.73,386.2Z" transform="translate(-109.11 -185.12)"/></svg>