<svg id="Layer_1" data-name="Layer 1" xmlns="http://www.w3.org/2000/svg" viewBox="0 0 459.61 451.27"><defs><style>.cls-1{fill:#82c9da;}.cls-1,.cls-2{stroke:#6b3a10;}.cls-1,.cls-2,.cls-3{stroke-width:1.5px;}.cls-2{fill:#9cdaea;}.cls-3{fill:#e0f3fd;stroke:#343465;}</style></defs><title>اسلیمی رضوان</title><polygon class="cls-1" points="74.3 120.63 90.8 120.13 122.3 155.63 79.64 141.3 74.3 120.63"/><path class="cls-1" d="M188.5,250c2,1,32.5,30.5,32.5,30.5l-10-43-19.5-6Z" transform="translate(-65.7 -163.37)"/><polygon class="cls-1" points="185.64 55.3 203.3 94.63 210.8 54.13 194.8 40.13 185.64 55.3"/><polygon class="cls-1" points="262.3 41.63 274.3 59.13 253.8 95.13 251.3 54.63 262.3 41.63"/><polygon class="cls-1" points="332.8 71.13 335.8 88.63 304.8 115.63 312.8 75.63 332.8 71.13"/><polygon class="cls-1" points="383.8 121.13 364.3 121.3 341.3 156.63 379.8 143.63 383.8 121.13"/><polygon class="cls-1" points="417.3 189.63 402.3 207.13 366.8 199.63 400.97 182.63 417.3 189.63"/><polygon class="cls-1" points="404.8 246.63 417.3 261.63 404.3 272.13 365.8 253.63 404.8 246.63"/><polygon class="cls-1" points="378.8 307.63 337.8 295.13 368.3 330.63 384.3 328.63 378.8 307.63"/><polygon class="cls-1" points="306.8 335.63 337.3 361.13 335.3 382.63 315.8 378.13 306.8 335.63"/><polygon class="cls-1" points="255.8 357.13 271.3 390.13 264.3 407.63 249.3 395.13 255.8 357.13"/><polygon class="cls-1" points="204.8 361.63 207.3 397.13 195.3 411.63 184.8 394.13 204.8 361.63"/><polygon class="cls-1" points="157.8 336.13 144.8 375.13 125.8 382.63 123.8 363.63 157.8 336.13"/><polygon class="cls-1" points="120.3 297.13 92.3 332.13 73.8 331.13 79.64 310.63 120.3 297.13"/><polygon class="cls-1" points="98.8 252.63 56.3 246.63 41.8 261.63 56.3 273.13 98.8 252.63"/><polygon class="cls-1" points="58.3 181.63 96.3 202.63 52.3 205.13 39.8 190.13 58.3 181.63"/><polygon class="cls-2" points="212.8 128.13 229.3 164.63 219.3 187.63 206.8 173.63 212.8 128.13"/><polygon class="cls-2" points="247.3 128.13 252.97 170.63 238.8 188.13 228.8 166.13 247.3 128.13"/><polygon class="cls-2" points="285.3 145.13 277.8 182.63 250.3 194.13 252.97 170.63 285.3 145.13"/><polygon class="cls-2" points="319.8 167.63 286.3 203.63 267.3 205.63 277.8 182.63 319.8 167.63"/><polygon class="cls-2" points="333.3 208.13 286.3 203.63 276.3 218.13 295.3 227.63 333.3 208.13"/><polygon class="cls-2" points="295.3 227.63 335.8 246.63 284.3 247.13 273.8 235.13 295.3 227.63"/><polygon class="cls-2" points="269.3 248.13 285.8 249.13 312.8 280.13 269.3 264.13 269.3 248.13"/><polygon class="cls-2" points="254.8 259.63 274.3 268.13 286.8 310.13 248.3 276.13 254.8 259.63"/><polygon class="cls-2" points="240.3 265.13 250.8 277.13 247.3 321.63 230.3 287.97 240.3 265.13"/><polygon class="cls-2" points="221.3 267.63 228.8 284.13 213.3 321.13 207.8 278.13 221.3 267.63"/><polygon class="cls-2" points="208.3 258.13 210.3 276.13 174.3 305.63 186.3 267.13 208.3 258.13"/><polygon class="cls-2" points="192.3 248.63 181.8 271.13 147.8 277.63 170.97 249.97 192.3 248.63"/><polygon class="cls-2" points="182.8 235.13 172.3 251.13 125.8 245.63 162.8 224.63 182.8 235.13"/><polygon class="cls-2" points="182.8 218.63 171.8 204.63 130.8 206.63 162.8 224.63 182.8 218.63"/><polygon class="cls-2" points="189.8 205.63 184.8 185.63 150.8 172.63 176.3 205.13 189.8 205.63"/><polygon class="cls-2" points="176.3 145.13 204.8 171.63 208.3 195.13 184.8 185.63 176.3 145.13"/><polygon class="cls-2" points="252.3 51.97 252.3 115.97 228.97 162.63 208.3 116.63 208.3 54.63 230.97 77.97 252.3 51.97"/><polygon class="cls-2" points="185.64 55.3 207.64 108.63 206.97 170.63 164.97 133.97 142.97 74.63 172.3 81.97 185.64 55.3"/><path class="cls-2" d="M191.33,253.33l39.34,44,18.66,48S196,323.33,198,324.67s-36.67-40-36.67-40L186,281.33Z" transform="translate(-65.7 -163.37)"/><polygon class="cls-2" points="132.3 161.3 83.64 141.97 84.97 165.97 56.3 182.63 115.64 205.97 172.3 202.63 132.3 161.3"/><polygon class="cls-2" points="60.97 205.97 115.64 205.97 158.3 223.97 111.64 247.97 56.3 247.97 73.64 224.63 60.97 205.97"/><polygon class="cls-2" points="59.64 269.97 111.64 247.97 170.97 249.97 138.3 285.97 79.64 310.63 84.97 284.63 59.64 269.97"/><polygon class="cls-2" points="91.64 330.63 140.3 285.97 184.3 268.63 166.3 319.97 124.97 361.97 120.97 334.63 91.64 330.63"/><polygon class="cls-2" points="142.97 377.97 166.3 319.97 206.97 280.63 206.3 355.97 186.3 391.97 170.97 369.97 142.97 377.97"/><polygon class="cls-2" points="274.3 55.3 252.3 108.63 252.97 170.63 294.97 133.97 316.97 74.63 287.64 81.97 274.3 55.3"/><path class="cls-2" d="M400,253.33l-39.33,44-18.67,48s53.33-22,51.33-20.66,36.67-40,36.67-40l-24.67-3.34Z" transform="translate(-65.7 -163.37)"/><polygon class="cls-2" points="327.64 161.3 376.3 141.97 374.97 165.97 403.64 182.63 344.3 205.97 287.64 202.63 327.64 161.3"/><polygon class="cls-2" points="398.97 205.97 344.3 205.97 301.64 223.97 348.3 247.97 403.64 247.97 386.3 224.63 398.97 205.97"/><polygon class="cls-2" points="400.3 269.97 348.3 247.97 288.97 249.97 321.64 285.97 380.3 310.63 374.97 284.63 400.3 269.97"/><polygon class="cls-2" points="368.3 330.63 319.64 285.97 275.64 268.63 293.64 319.97 334.97 361.97 338.97 334.63 368.3 330.63"/><polygon class="cls-2" points="316.97 377.97 293.64 319.97 252.97 280.63 253.64 355.97 273.64 391.97 288.97 369.97 316.97 377.97"/><polygon class="cls-2" points="206.3 355.97 206.3 398.63 230.3 373.3 250.97 395.97 252.3 329.3 230.3 287.97 206.3 355.97"/><polygon class="cls-2" points="134.3 49.97 142.97 74.63 172.3 81.97 187.64 55.97 178.3 33.3 147.64 25.97 134.3 49.97"/><polygon class="cls-2" points="208.97 24.63 206.97 53.97 231.64 75.97 252.3 51.97 250.3 25.3 230.3 8.63 208.97 24.63"/><polygon class="cls-2" points="108.3 73.3 125.64 89.97 120.3 117.97 87.64 120.63 74.3 103.97 75.64 78.63 108.3 73.3"/><polygon class="cls-2" points="79.64 141.3 84.97 165.97 56.3 182.63 37.64 172.63 30.97 149.97 56.97 132.63 79.64 141.3"/><polygon class="cls-2" points="60.97 205.97 27.64 204.63 9.64 225.3 25.64 247.3 53.64 247.97 73.64 224.63 60.97 205.97"/><polygon class="cls-2" points="59.64 269.97 84.97 284.63 79.64 310.63 57.64 318.63 30.97 301.97 39.64 277.97 59.64 269.97"/><polygon class="cls-2" points="120.97 334.63 90.97 332.63 75.64 349.97 77.64 374.63 109.64 379.3 124.97 361.97 120.97 334.63"/><polygon class="cls-2" points="170.97 369.97 142.97 377.97 134.3 401.97 148.3 425.97 178.97 416.63 186.3 391.97 170.97 369.97"/><polygon class="cls-2" points="322.97 49.97 314.3 74.63 284.97 81.97 269.64 55.97 278.97 33.3 309.64 25.97 322.97 49.97"/><polygon class="cls-2" points="348.97 73.3 331.64 89.97 336.97 117.97 369.64 120.63 382.97 103.97 381.64 78.63 348.97 73.3"/><polygon class="cls-2" points="377.64 141.3 372.3 165.97 400.97 182.63 419.64 172.63 426.3 149.97 400.3 132.63 377.64 141.3"/><polygon class="cls-2" points="396.3 205.97 429.64 204.63 447.64 225.3 431.64 247.3 403.64 247.97 383.64 224.63 396.3 205.97"/><polygon class="cls-2" points="397.64 269.97 372.3 284.63 377.64 310.63 399.64 318.63 426.3 301.97 417.64 277.97 397.64 269.97"/><polygon class="cls-2" points="336.3 334.63 366.3 332.63 381.64 349.97 379.64 374.63 347.64 379.3 332.3 361.97 336.3 334.63"/><polygon class="cls-2" points="286.3 369.97 314.3 377.97 322.97 401.97 308.97 425.97 278.3 416.63 270.97 391.97 286.3 369.97"/><polygon class="cls-2" points="230.3 373.3 206.3 398.63 207.64 423.97 228.97 441.97 251.64 421.3 250.97 395.97 230.3 373.3"/><polygon class="cls-3" points="388.53 210.72 375.11 224.29 407.86 260.08 402.57 262.86 417.52 269.37 428.4 263.66 392.76 224.71 406.7 210.72 388.53 210.72"/><polygon class="cls-3" points="387.36 270.85 366.57 281.77 370.82 299.86 385.52 306.12 381.28 288.41 402.63 277.2 387.36 270.85"/><polygon class="cls-3" points="340.35 377.14 339.24 391.12 290.25 377.4 279.74 395.46 273.67 380.39 284.24 362.51 327.81 374.68 328.57 365.09 340.35 377.14"/><polygon class="cls-3" points="329.9 348.34 331.55 327.67 377.15 325.83 374.56 315.05 389.1 321.05 393.15 337.92 343.31 339.94 341.69 360.34 329.9 348.34"/><polygon class="cls-3" points="402.31 198.08 408.13 191.76 366.57 170.28 370.82 152.19 385.52 145.94 381.28 163.64 428.57 188.13 419.55 198.08 402.31 198.08"/><polygon class="cls-3" points="340.35 74.91 339.24 60.93 290.25 74.65 279.74 56.59 273.67 71.66 284.24 89.54 327.81 77.38 328.57 86.96 340.35 74.91"/><polygon class="cls-3" points="329.9 103.71 331.55 124.38 377.15 126.22 374.56 137 389.1 131 393.15 114.13 343.31 112.11 341.69 91.71 329.9 103.71"/><polygon class="cls-3" points="71.08 210.72 84.5 224.29 51.75 260.08 57.04 262.86 42.09 269.37 31.21 263.66 66.84 224.71 52.91 210.72 71.08 210.72"/><polygon class="cls-3" points="72.24 270.85 93.04 281.77 88.79 299.86 74.09 306.12 78.33 288.41 56.98 277.2 72.24 270.85"/><polygon class="cls-3" points="119.26 377.14 120.37 391.12 169.36 377.4 179.87 395.46 185.94 380.39 175.37 362.51 131.8 374.68 131.03 365.09 119.26 377.14"/><polygon class="cls-3" points="129.7 348.34 128.06 327.67 82.46 325.83 85.05 315.05 70.5 321.05 66.46 337.92 116.29 339.94 117.92 360.34 129.7 348.34"/><polygon class="cls-3" points="57.3 198.08 51.47 191.76 93.04 170.28 88.79 152.19 74.09 145.94 78.33 163.64 31.04 188.13 40.06 198.08 57.3 198.08"/><polygon class="cls-3" points="119.26 74.91 120.37 60.93 169.36 74.65 179.87 56.59 185.94 71.66 175.37 89.54 131.8 77.38 131.03 86.96 119.26 74.91"/><polygon class="cls-3" points="129.7 103.71 128.06 124.38 82.46 126.22 85.05 137 70.5 131 66.46 114.13 116.29 112.11 117.92 91.71 129.7 103.71"/><polygon class="cls-3" points="229.82 85.46 197.35 52.05 194.41 57.53 188.27 42.4 194.9 31.23 229.82 66.96 264.71 31.23 271.34 42.4 265.2 57.53 262.26 52.05 229.82 85.46"/><polygon class="cls-3" points="229.82 365.81 197.35 399.21 194.68 393.95 188.43 409.07 194.9 420.03 229.82 384.31 264.71 420.03 271.18 409.01 264.87 393.95 262.26 399.21 229.82 365.81"/><path class="cls-3" d="M295.66,518.17s.28,6.58,4.85,7.71c6.21,1.55,6.81,7.84,6.81,7.84a16.41,16.41,0,0,0-8.41-15.93c-3.45-2-2.56-6.62-2.56-6.62s.91,2.82,5.42,3.4c3.34.43,6.15-1.66,6.09-5.07-.12-6.41-7.56-4.73-7.56-4.73,5.51-.43,6.13,6.63,1.58,6.71-6.33.11-5.67-8.18-5.69-9.48s-.12-6.58-.12-6.58c4.38,9.1,9.75,2.88,9.75,2.88-11,.2-10.35-18.14-10.35-18.14s-.51-.89-1.06,0c0,0,1.17,18.32-9.88,18.51,0,0,5.77,6,9.83-3.24,0,0,.1,5.28.12,6.58s1,9.56-5.35,9.68c-4.55.08-4.19-7,1.34-6.77,0,0-7.5-1.41-7.38,5,0,2.6,2.12,4.92,6.26,4.84,4.55-.08,5.38-3.59,5.38-3.59s.81,4.78-2.4,6.71a16.21,16.21,0,0,0-7.83,16.22s.37-6.31,6.51-8.08c4.53-1.3,4.57-7.88,4.57-7.88" transform="translate(-65.7 -163.37)"/><path class="cls-3" d="M343.54,508.82s2.41,6.13,7.1,5.71c6.37-.56,9,5.2,9,5.2a16.39,16.39,0,0,0-13.13-12.33c-3.9-.74-4.57-5.42-4.57-5.42s1.78,2.37,6.23,1.45c3.3-.69,5.27-3.57,4.1-6.77-2.19-6-8.69-2-8.69-2,5.08-2.2,8,4.27,3.69,5.83-6,2.17-8-5.89-8.47-7.12s-2.26-6.18-2.26-6.18c7.11,7.18,10.88-.76,10.88-.76C337,490.19,331,472.94,331,472.94s-.76-.68-1,.36c0,0,6.48,17.09-3.9,20.87,0,0,8,3.66,8.82-6.41,0,0,1.81,5,2.25,6.18s4.05,8.73-1.91,10.89c-4.27,1.56-6.23-5.25-.93-6.83,0,0-7.55,1.11-5.35,7.14.89,2.44,3.6,4,7.49,2.54,4.28-1.56,3.92-5.15,3.92-5.15s2.33,4.26-.09,7.12a16.23,16.23,0,0,0-2.12,17.89s-1.71-6.08,3.53-9.75c3.86-2.71,1.76-8.94,1.76-8.94" transform="translate(-65.7 -163.37)"/><path class="cls-3" d="M386.93,479.52s4.67,4.63,8.8,2.36c5.6-3.09,10.32,1.12,10.32,1.12a16.4,16.4,0,0,0-17-6c-3.87.9-6.37-3.11-6.37-3.11s2.58,1.45,6.28-1.2c2.74-2,3.38-5.39,1-7.85-4.44-4.62-8.76,1.67-8.76,1.67,3.75-4.06,9,.69,5.72,3.85-4.57,4.38-9.72-2.15-10.62-3.09l-4.56-4.74c9.4,3.69,9.64-5.1,9.64-5.1-8,7.66-20.45-5.69-20.45-5.69s-1-.31-.76.73c0,0,12.83,13,4.87,20.66,0,0,8.78.12,5.47-9.42l4.56,4.74c.9.94,7.22,6.35,2.65,10.74-3.28,3.15-7.82-2.28-3.61-5.87,0,0-6.46,4.06-2,8.69,1.8,1.87,4.89,2.16,7.88-.71,3.28-3.15,1.5-6.29,1.5-6.29s3.85,2.95,2.8,6.55a16.25,16.25,0,0,0,5.29,17.23s-4-4.88-.71-10.36c2.43-4-2-8.88-2-8.88" transform="translate(-65.7 -163.37)"/><path class="cls-3" d="M419.68,438.79s5.55,2.08,8.1-1.31c3.46-4.6,8.88-2.87,8.88-2.87A14.74,14.74,0,0,0,420.5,436c-2.84,2.16-6.37-.21-6.37-.21s2.65.23,4.72-3.3c1.52-2.62.79-5.67-2.06-6.82-5.36-2.16-6.58,4.59-6.58,4.59,1.58-4.71,7.65-2.74,6.11,1-2.13,5.29-8.77,1.82-9.85,1.39l-5.5-2.22c9.09-.43,6-7.73,6-7.73-3.72,9.22-18.89,2.86-18.89,2.86s-.91.1-.35.88c0,0,15.33,6,11.61,15.17,0,0,7.26-3.14,1-9.76l5.49,2.22c1.09.44,8.27,2.55,6.14,7.84-1.53,3.79-7.27,1-5.13-3.49,0,0-3.81,5.71,1.55,7.87,2.16.88,4.81,0,6.21-3.48,1.53-3.79-1.08-5.72-1.08-5.72s4.24,1,4.71,4.35A14.61,14.61,0,0,0,429,453.65s-5.09-2.52-4.4-8.24c.52-4.2-4.92-6.55-4.92-6.55" transform="translate(-65.7 -163.37)"/><path class="cls-3" d="M430.38,389.43s6.58-.18,7.79-4.73c1.64-6.18,7.95-6.67,7.95-6.67a16.39,16.39,0,0,0-16.07,8.15c-2,3.41-6.66,2.45-6.66,2.45s2.83-.87,3.49-5.37c.48-3.33-1.56-6.17-5-6.16-6.42,0-4.86,7.48-4.86,7.48-.33-5.53,6.73-6,6.74-1.48,0,6.34-8.28,5.54-9.58,5.54h-6.58c9.18-4.24,3-10.48,3-10.48,0,11.05-18.25,10.83-18.25,10.83s-.9.49,0,1.06c0,0,18.27-.27,18.29,10.77,0,0,6.16-6.26-3-10.47h6.58c1.3,0,9.58-.83,9.59,5.51,0,4.54-7.06,4.07-6.74-1.46,0,0-1.53,7.48,4.88,7.47,2.6,0,4.95-2,4.95-6.18,0-4.55-3.51-5.44-3.51-5.44s4.8-.74,6.67,2.51a16.24,16.24,0,0,0,16.09,8.09s-6.3-.47-8-6.64c-1.22-4.55-7.8-4.7-7.8-4.7" transform="translate(-65.7 -163.37)"/><path class="cls-3" d="M295.56,261.06s.28-6.57,4.85-7.71c6.2-1.54,6.8-7.84,6.8-7.84a16.4,16.4,0,0,1-8.41,15.94c-3.45,2-2.56,6.61-2.56,6.61s.92-2.82,5.43-3.39c3.34-.43,6.14,1.65,6.08,5.06-.12,6.42-7.56,4.74-7.56,4.74,5.52.42,6.13-6.63,1.58-6.71-6.33-.12-5.67,8.18-5.69,9.48s-.12,6.58-.12,6.58c4.39-9.1,9.76-2.89,9.76-2.89-11.05-.19-10.36,18.15-10.36,18.15s-.5.88-1.06,0c0,0,1.17-18.32-9.87-18.52,0,0,5.77-6,9.83,3.25,0,0,.09-5.28.11-6.58s1-9.57-5.35-9.68c-4.54-.09-4.18,7,1.34,6.76,0,0-7.49,1.41-7.38-5,0-2.6,2.12-4.92,6.26-4.85,4.55.08,5.38,3.59,5.38,3.59s.82-4.78-2.4-6.7a16.25,16.25,0,0,1-7.83-16.23s.37,6.32,6.52,8.08c4.52,1.3,4.57,7.88,4.57,7.88" transform="translate(-65.7 -163.37)"/><path class="cls-3" d="M345.42,269.09s2.4-6.12,7.09-5.71c6.38.56,9-5.2,9-5.2a16.42,16.42,0,0,1-13.14,12.33c-3.9.74-4.57,5.43-4.57,5.43s1.78-2.37,6.23-1.45c3.3.68,5.28,3.56,4.11,6.77-2.2,6-8.69,2-8.69,2,5.08,2.19,7.95-4.28,3.68-5.84-5.95-2.16-8,5.9-8.47,7.12s-2.25,6.18-2.25,6.18c7.11-7.18,10.87.76,10.87.76-10.38-3.78-16.4,13.48-16.4,13.48s-.77.67-1-.36c0,0,6.48-17.09-3.9-20.87,0,0,8-3.66,8.82,6.41,0,0,1.8-5,2.25-6.18s4-8.73-1.91-10.9c-4.28-1.56-6.24,5.25-.93,6.84,0,0-7.55-1.11-5.36-7.14.89-2.44,3.61-4,7.5-2.54,4.27,1.55,3.92,5.14,3.92,5.14s2.32-4.25-.09-7.12a16.25,16.25,0,0,1-2.13-17.89s-1.7,6.09,3.54,9.76c3.85,2.7,1.75,8.94,1.75,8.94" transform="translate(-65.7 -163.37)"/><path class="cls-3" d="M389,298.69s4.67-4.63,8.8-2.36c5.6,3.09,10.32-1.13,10.32-1.13a16.39,16.39,0,0,1-17,6c-3.87-.9-6.37,3.12-6.37,3.12s2.58-1.45,6.28,1.19c2.74,2,3.38,5.39,1,7.85-4.45,4.63-8.76-1.66-8.76-1.66,3.75,4.06,9-.7,5.72-3.85-4.57-4.39-9.72,2.15-10.62,3.09l-4.56,4.74c9.4-3.69,9.64,5.09,9.64,5.09-8-7.65-20.45,5.7-20.45,5.7s-1,.3-.77-.73c0,0,12.84-13,4.88-20.67,0,0,8.78-.11,5.47,9.43l4.56-4.74c.9-.94,7.22-6.35,2.65-10.74-3.28-3.15-7.82,2.28-3.61,5.87,0,0-6.46-4.06-2-8.69,1.8-1.87,4.89-2.16,7.88.7,3.28,3.16,1.5,6.29,1.5,6.29s3.85-3,2.8-6.54a16.25,16.25,0,0,1,5.29-17.23s-4,4.88-.71,10.36c2.43,4-2,8.88-2,8.88" transform="translate(-65.7 -163.37)"/><path class="cls-3" d="M419.17,340.34s5.54-2.08,8.09,1.3c3.47,4.6,8.89,2.88,8.89,2.88A14.76,14.76,0,0,1,420,343.16c-2.84-2.16-6.38.21-6.38.21s2.66-.24,4.72,3.3c1.53,2.61.79,5.67-2.05,6.82-5.36,2.16-6.59-4.6-6.59-4.6,1.59,4.72,7.65,2.75,6.12-1.05-2.13-5.29-8.77-1.82-9.86-1.38l-5.49,2.22c9.08.43,6,7.73,6,7.73-3.72-9.22-18.89-2.86-18.89-2.86s-.91-.11-.36-.88c0,0,15.34-5.95,11.62-15.17,0,0,7.26,3.14,1,9.75l5.49-2.21c1.08-.44,8.27-2.55,6.14-7.84-1.53-3.8-7.27-1-5.14,3.49,0,0-3.8-5.72,1.55-7.88,2.17-.87,4.82,0,6.22,3.49,1.53,3.79-1.08,5.71-1.08,5.71s4.24-1,4.71-4.34a14.62,14.62,0,0,1,10.68-12.2s-5.1,2.53-4.4,8.24c.52,4.21-4.92,6.56-4.92,6.56" transform="translate(-65.7 -163.37)"/><path class="cls-3" d="M245.77,508.82s-2.4,6.13-7.09,5.71c-6.37-.56-9,5.2-9,5.2a16.39,16.39,0,0,1,13.13-12.33c3.9-.74,4.57-5.42,4.57-5.42s-1.78,2.37-6.23,1.45c-3.3-.69-5.27-3.57-4.11-6.77,2.2-6,8.69-2,8.69-2-5.08-2.2-7.95,4.27-3.68,5.83,6,2.17,8-5.89,8.47-7.12s2.25-6.18,2.25-6.18c-7.11,7.18-10.87-.76-10.87-.76,10.38,3.78,16.4-13.47,16.4-13.47s.77-.68,1,.36c0,0-6.49,17.09,3.89,20.87,0,0-8,3.66-8.81-6.41,0,0-1.81,5-2.26,6.18s-4,8.73,1.91,10.89c4.28,1.56,6.24-5.25.94-6.83,0,0,7.55,1.11,5.35,7.14-.89,2.44-3.6,4-7.5,2.54-4.27-1.56-3.91-5.15-3.91-5.15s-2.33,4.26.08,7.12a16.22,16.22,0,0,1,2.13,17.89s1.71-6.08-3.53-9.75c-3.86-2.71-1.76-8.94-1.76-8.94" transform="translate(-65.7 -163.37)"/><path class="cls-3" d="M201.94,481s-4.68,4.64-8.8,2.36c-5.6-3.08-10.32,1.13-10.32,1.13a16.4,16.4,0,0,1,17-6c3.87.9,6.37-3.12,6.37-3.12s-2.58,1.45-6.28-1.19c-2.74-2-3.39-5.39-1-7.85,4.44-4.63,8.76,1.66,8.76,1.66-3.75-4.06-9,.7-5.72,3.85,4.57,4.39,9.72-2.15,10.62-3.08l4.56-4.75c-9.41,3.69-9.64-5.09-9.64-5.09,8,7.65,20.45-5.7,20.45-5.7s1-.3.76.74c0,0-12.83,13-4.87,20.66,0,0-8.78.12-5.47-9.43L213.78,470c-.9.93-7.22,6.35-2.66,10.73,3.28,3.16,7.83-2.28,3.62-5.87,0,0,6.46,4.06,2,8.69-1.8,1.88-4.89,2.17-7.88-.7-3.28-3.15-1.51-6.29-1.51-6.29s-3.84,3-2.79,6.55a16.23,16.23,0,0,1-5.29,17.22s4-4.88.71-10.35c-2.43-4,2-8.89,2-8.89" transform="translate(-65.7 -163.37)"/><path class="cls-3" d="M171,438.27s-5.55,2.08-8.1-1.31c-3.46-4.6-8.88-2.88-8.88-2.88a14.76,14.76,0,0,1,16.16,1.37c2.84,2.16,6.37-.21,6.37-.21s-2.65.23-4.72-3.3c-1.52-2.62-.79-5.67,2.06-6.82,5.36-2.16,6.58,4.59,6.58,4.59-1.58-4.72-7.65-2.74-6.11,1.05,2.13,5.29,8.77,1.82,9.85,1.39l5.5-2.22c-9.09-.43-6-7.73-6-7.73,3.72,9.22,18.89,2.86,18.89,2.86s.91.1.35.88c0,0-15.33,5.95-11.61,15.17,0,0-7.26-3.14-1-9.76l-5.49,2.22c-1.09.44-8.27,2.55-6.14,7.84,1.53,3.79,7.27,1,5.13-3.49,0,0,3.81,5.71-1.55,7.87-2.17.88-4.81,0-6.21-3.48-1.53-3.8,1.08-5.72,1.08-5.72s-4.24,1-4.71,4.35a14.61,14.61,0,0,1-10.68,12.19s5.09-2.52,4.4-8.24c-.52-4.2,4.92-6.55,4.92-6.55" transform="translate(-65.7 -163.37)"/><path class="cls-3" d="M161.63,390.48s-6.57.2-8-4.28c-2-6.08-8.31-6.21-8.31-6.21a16.39,16.39,0,0,1,16.5,7.23c2.21,3.3,6.78,2.07,6.78,2.07s-2.87-.7-3.77-5.16c-.67-3.3,1.2-6.25,4.61-6.44,6.4-.34,5.27,7.2,5.27,7.2,0-5.53-7.06-5.63-6.81-1.09.34,6.32,8.57,5.06,9.87,5l6.57-.36c-9.4-3.71-3.57-10.3-3.57-10.3.6,11,18.83,9.8,18.83,9.8s.92.43.06,1.05c0,0-18.26.75-17.66,11.78,0,0-6.5-5.91,2.43-10.62l-6.57.35c-1.3.07-9.61-.28-9.27,6,.25,4.54,7.28,3.67,6.65-1.83,0,0,2,7.38-4.45,7.73-2.6.14-5.06-1.76-5.29-5.89-.25-4.54,3.19-5.63,3.19-5.63s-4.82-.47-6.51,2.88a16.26,16.26,0,0,1-15.62,9s6.27-.83,7.59-7.09c1-4.61,7.53-5.13,7.53-5.13" transform="translate(-65.7 -163.37)"/><path class="cls-3" d="M245.46,268.52s-2.67-6-7.34-5.41c-6.34.83-9.19-4.81-9.19-4.81a16.39,16.39,0,0,0,13.65,11.76c3.93.57,4.8,5.22,4.8,5.22s-1.88-2.29-6.29-1.18c-3.26.83-5.11,3.79-3.81,6.94,2.45,5.93,8.77,1.65,8.77,1.65-5,2.41-8.13-3.93-3.93-5.67,5.85-2.42,8.27,5.54,8.77,6.74s2.51,6.08,2.51,6.08c-7.41-6.86-10.83,1.23-10.83,1.23,10.21-4.22,17,12.76,17,12.76s.79.64,1-.41c0,0-7.21-16.79,3-21,0,0-8.14-3.32-8.53,6.78l-2.52-6.08c-.49-1.2-4.41-8.55,1.44-11,4.21-1.74,6.46,5,1.23,6.79,0,0,7.49-1.43,5-7.36-1-2.4-3.77-3.8-7.6-2.22-4.2,1.74-3.69,5.31-3.69,5.31s-2.51-4.15-.22-7.12a16.23,16.23,0,0,0,1.36-18s2,6-3.11,9.9c-3.74,2.86-1.38,9-1.38,9" transform="translate(-65.7 -163.37)"/><path class="cls-3" d="M201.61,297.36s-4.68-4.63-8.8-2.36c-5.61,3.09-10.32-1.13-10.32-1.13a16.38,16.38,0,0,0,17,6c3.86-.9,6.37,3.12,6.37,3.12s-2.58-1.45-6.29,1.19c-2.74,2-3.38,5.39-1,7.85,4.45,4.63,8.77-1.66,8.77-1.66-3.76,4.06-9-.7-5.73-3.85,4.57-4.39,9.73,2.15,10.63,3.09l4.56,4.74c-9.41-3.69-9.64,5.09-9.64,5.09,8-7.65,20.45,5.7,20.45,5.7s1,.3.76-.73c0,0-12.84-13-4.87-20.67,0,0-8.79-.12-5.47,9.43l-4.56-4.74c-.9-.94-7.23-6.35-2.66-10.74,3.28-3.15,7.82,2.28,3.62,5.87,0,0,6.45-4.06,2-8.69-1.8-1.87-4.9-2.17-7.88.7-3.28,3.15-1.51,6.29-1.51,6.29s-3.85-2.95-2.8-6.54A16.24,16.24,0,0,0,199,278.06s4,4.88.71,10.36c-2.44,4,2,8.88,2,8.88" transform="translate(-65.7 -163.37)"/><path class="cls-3" d="M171.07,340.21s-5.54-2.08-8.09,1.31c-3.46,4.59-8.89,2.87-8.89,2.87A14.76,14.76,0,0,0,170.25,343c2.84-2.16,6.38.21,6.38.21s-2.65-.24-4.72,3.3c-1.53,2.61-.79,5.67,2.06,6.82,5.35,2.16,6.58-4.6,6.58-4.6-1.59,4.72-7.65,2.75-6.12-1.05,2.13-5.28,8.78-1.82,9.86-1.38l5.49,2.22c-9.08.43-6,7.73-6,7.73,3.72-9.22,18.89-2.86,18.89-2.86s.91-.11.36-.88c0,0-15.33-6-11.61-15.17,0,0-7.26,3.14-1,9.75l-5.5-2.21c-1.08-.44-8.27-2.55-6.13-7.84,1.53-3.8,7.26-1,5.13,3.49,0,0,3.8-5.72-1.55-7.88-2.17-.87-4.82,0-6.21,3.49-1.54,3.79,1.08,5.71,1.08,5.71s-4.25-1-4.71-4.34a14.64,14.64,0,0,0-10.69-12.2s5.1,2.53,4.4,8.24c-.52,4.21,4.92,6.56,4.92,6.56" transform="translate(-65.7 -163.37)"/><path class="cls-3" d="M424.07,527.88a8.74,8.74,0,1,1,10-7.26A8.75,8.75,0,0,1,424.07,527.88Z" transform="translate(-65.7 -163.37)"/><path class="cls-3" d="M364.06,569.2a8.74,8.74,0,1,1,10-7.26A8.74,8.74,0,0,1,364.06,569.2Z" transform="translate(-65.7 -163.37)"/><path class="cls-3" d="M294.06,583.2a8.74,8.74,0,1,1,10-7.26A8.74,8.74,0,0,1,294.06,583.2Z" transform="translate(-65.7 -163.37)"/><path class="cls-3" d="M465.4,467.2a8.74,8.74,0,1,1,10-7.26A8.73,8.73,0,0,1,465.4,467.2Z" transform="translate(-65.7 -163.37)"/><path class="cls-3" d="M484.06,398.54a8.74,8.74,0,1,1,10-7.26A8.75,8.75,0,0,1,484.06,398.54Z" transform="translate(-65.7 -163.37)"/><path class="cls-3" d="M424.07,250.91a8.74,8.74,0,1,0,10,7.26A8.74,8.74,0,0,0,424.07,250.91Z" transform="translate(-65.7 -163.37)"/><path class="cls-3" d="M364.06,209.58a8.74,8.74,0,1,0,10,7.26A8.75,8.75,0,0,0,364.06,209.58Z" transform="translate(-65.7 -163.37)"/><path class="cls-3" d="M294.06,195.58a8.74,8.74,0,1,0,10,7.26A8.75,8.75,0,0,0,294.06,195.58Z" transform="translate(-65.7 -163.37)"/><path class="cls-3" d="M465.4,311.58a8.74,8.74,0,1,0,10,7.26A8.73,8.73,0,0,0,465.4,311.58Z" transform="translate(-65.7 -163.37)"/><path class="cls-3" d="M166.93,527.88a8.74,8.74,0,1,0-10-7.26A8.75,8.75,0,0,0,166.93,527.88Z" transform="translate(-65.7 -163.37)"/><path class="cls-3" d="M226.94,569.2a8.74,8.74,0,1,0-10-7.26A8.74,8.74,0,0,0,226.94,569.2Z" transform="translate(-65.7 -163.37)"/><path class="cls-3" d="M125.6,467.2a8.74,8.74,0,1,0-10-7.26A8.73,8.73,0,0,0,125.6,467.2Z" transform="translate(-65.7 -163.37)"/><path class="cls-3" d="M106.94,398.54a8.74,8.74,0,1,0-10-7.26A8.75,8.75,0,0,0,106.94,398.54Z" transform="translate(-65.7 -163.37)"/><path class="cls-3" d="M166.93,250.91a8.74,8.74,0,1,1-10,7.26A8.74,8.74,0,0,1,166.93,250.91Z" transform="translate(-65.7 -163.37)"/><path class="cls-3" d="M226.94,209.58a8.74,8.74,0,1,1-10,7.26A8.75,8.75,0,0,1,226.94,209.58Z" transform="translate(-65.7 -163.37)"/><path class="cls-3" d="M125.6,311.58a8.74,8.74,0,1,1-10,7.26A8.73,8.73,0,0,1,125.6,311.58Z" transform="translate(-65.7 -163.37)"/><polygon class="cls-3" points="372.18 326.06 301.03 254.94 282.97 254.94 354.76 326.68 372.18 326.06"/><polygon class="cls-3" points="306.24 368.62 269.87 272.86 285.88 279.26 321.39 372.86 306.24 368.62"/><polygon class="cls-3" points="276.71 254.94 279.6 262.6 263.49 255.95 258.22 242.04 391.13 242.04 403.13 254.94 276.71 254.94"/><polygon class="cls-3" points="348.36 385.3 311.98 348.15 301.04 319.08 353.1 372.09 377.13 368.62 378.9 350.66 367.01 338.93 384.48 338.36 392.45 346.21 388.88 379.67 348.36 385.3"/><polygon class="cls-3" points="258.16 394.97 258.16 293.06 245.26 279.99 245.26 381.8 258.16 394.97"/><polygon class="cls-3" points="258.16 275.32 258.16 268.02 321.91 293.71 298.15 270.18 245.26 248.58 245.26 262.52 258.16 275.32"/><polygon class="cls-3" points="286.45 412.58 258.16 341.76 258.16 377.46 276.67 422.46 315.05 433.91 332.95 403.58 327.01 387.69 311.88 383.45 318.82 401.96 308.99 418.96 286.45 412.58"/><polygon class="cls-3" points="372.18 125.99 299.91 198.08 281.99 198.08 354.76 125.37 372.18 125.99"/><polygon class="cls-3" points="306.24 83.43 269.87 179.19 285.88 172.79 321.39 79.19 306.24 83.43"/><polygon class="cls-3" points="350.82 210.72 430.59 210.72 442.57 225.99 430.57 242.04 408.73 242.04 420.47 254.94 436.7 254.94 458.66 224.77 436.7 198.08 381.07 198.08 350.82 210.72"/><polyline class="cls-3" points="302 198.08 346.82 198.08 316.07 210.72 257.74 210.72 263.49 196.1 279.6 189.45 276.24 198.08 302 198.08"/><polygon class="cls-3" points="352.31 242.04 287 215.11 290.91 210.72 274.07 210.72 265.85 220.09 318.45 242.04 352.31 242.04"/><polygon class="cls-3" points="349.78 254.94 415.82 282.58 422.17 300.28 403.2 313.08 328.72 282.66 352.5 306.17 404.21 327.13 437.52 305.23 426.16 272.91 382.75 254.94 349.78 254.94"/><polygon class="cls-3" points="237.23 164.47 245.16 143.88 245.11 108.58 230.26 147.15 237.23 164.47"/><polygon class="cls-3" points="348.36 66.75 311.98 103.9 301.04 132.97 353.1 79.96 377.13 83.43 378.9 101.39 367.01 113.13 384.48 113.69 392.45 105.84 388.88 72.38 348.36 66.75"/><polygon class="cls-3" points="291.48 242.04 287 236.94 296.7 232.96 280.01 226.02 265.85 231.96 274.32 242.04 291.48 242.04"/><polygon class="cls-3" points="258.16 56.2 258.16 158.99 245.3 172.06 245.32 69.39 258.16 56.2"/><polygon class="cls-3" points="258.16 176.01 258.16 184.03 321.91 158.34 298.15 181.87 245.29 203.47 245.29 189.01 258.16 176.01"/><polyline class="cls-3" points="415.82 169.47 422.17 151.77 403.2 138.97 328.72 169.39 352.5 145.88 404.21 124.92 437.52 146.82 426.16 179.14 417.64 182.7 402.88 174.81 415.82 169.47"/><polygon class="cls-3" points="402.7 188.94 313.57 226.14 296.25 218.84 387.55 181.15 402.7 188.94"/><polygon class="cls-3" points="286.45 39.47 258.16 110.29 258.16 74.59 276.67 29.59 315.05 18.14 332.95 48.47 327.01 64.36 311.88 68.6 318.82 50.09 308.99 33.09 286.45 39.47"/><polygon class="cls-3" points="213.77 50.54 213.77 30.09 228.7 17.05 245.29 29.3 245.29 51.26 258.16 37.99 258.16 23.34 229.92 0.96 201.61 23.59 201.61 38.21 213.77 50.54"/><polygon class="cls-3" points="87.43 326.06 158.58 254.94 176.64 254.94 104.85 326.68 87.43 326.06"/><polygon class="cls-3" points="153.37 368.62 189.74 272.86 173.73 279.26 138.22 372.86 153.37 368.62"/><polygon class="cls-3" points="182.89 254.94 180.01 262.6 196.12 255.95 201.38 242.04 68.47 242.04 56.48 254.94 182.89 254.94"/><polygon class="cls-3" points="111.25 385.3 147.63 348.15 158.57 319.08 106.51 372.09 82.48 368.62 80.71 350.66 92.59 338.93 75.13 338.36 67.16 346.21 70.72 379.67 111.25 385.3"/><polygon class="cls-3" points="201.45 394.97 201.45 293.06 214.04 279.99 214.04 381.95 201.45 394.97"/><polygon class="cls-3" points="201.45 275.32 201.45 268.02 137.7 293.71 161.45 270.18 214.04 248.58 214.04 262.52 201.45 275.32"/><polygon class="cls-3" points="173.16 412.58 201.45 341.76 201.45 377.46 182.94 422.46 144.56 433.91 126.66 403.58 132.6 387.69 147.73 383.45 140.79 401.96 150.62 418.96 173.16 412.58"/><polygon class="cls-3" points="87.43 125.99 159.7 198.08 177.62 198.08 104.85 125.37 87.43 125.99"/><polygon class="cls-3" points="153.37 83.43 189.74 179.19 173.73 172.79 138.22 79.19 153.37 83.43"/><polygon class="cls-3" points="108.79 210.72 29.02 210.72 17.04 225.99 29.04 242.04 50.88 242.04 39.14 254.94 22.91 254.94 0.95 224.77 22.91 198.08 78.54 198.08 108.79 210.72"/><polyline class="cls-3" points="157.61 198.08 112.79 198.08 143.54 210.72 201.87 210.72 196.12 196.1 180.01 189.45 183.37 198.08 157.61 198.08"/><polygon class="cls-3" points="107.3 242.04 172.61 215.11 168.7 210.72 185.54 210.72 193.76 220.09 141.16 242.04 107.3 242.04"/><polygon class="cls-3" points="109.83 254.94 43.79 282.58 37.44 300.28 56.41 313.08 130.89 282.66 107.11 306.17 55.4 327.13 22.09 305.23 33.45 272.91 76.86 254.94 109.83 254.94"/><polygon class="cls-3" points="238.24 196.06 213.77 143.88 213.77 108.58 241.92 175.38 289.8 126.53 279.01 155.34 238.24 196.06"/><polygon class="cls-3" points="180.41 154.54 221.56 196.24 229.74 178.54 223.41 164.21 218.38 175.38 169.57 126.04 180.41 154.54"/><polygon class="cls-3" points="111.25 66.75 147.63 103.9 158.57 132.97 106.51 79.96 82.48 83.43 80.71 101.39 92.59 113.13 75.13 113.69 67.16 105.84 70.72 72.38 111.25 66.75"/><polygon class="cls-3" points="168.13 242.04 172.61 236.94 162.91 232.96 179.6 226.02 193.76 231.96 185.29 242.04 168.13 242.04"/><polygon class="cls-3" points="201.61 56.2 201.61 158.46 213.77 170.63 213.77 69.39 201.61 56.2"/><polygon class="cls-3" points="237.23 286.8 245.26 307.38 245.26 342.68 230.26 304.12 237.23 286.8"/><polygon class="cls-3" points="214.04 400.45 214.04 421.17 228.7 434.22 245.26 421.96 245.26 400 258.16 413.27 258.16 427.92 229.92 450.31 201.61 427.67 201.61 413.06 214.04 400.45"/><polygon class="cls-3" points="238.24 255.21 214.04 307.38 214.04 342.68 241.92 275.89 289.49 324.45 278.49 295.38 238.24 255.21"/><polygon class="cls-3" points="180.41 296.73 221.56 255.02 229.74 272.73 223.41 287.06 218.38 275.89 169.57 325.23 180.41 296.73"/><polygon class="cls-3" points="201.61 175.87 201.61 184.03 137.7 158.34 161.45 181.87 213.77 203.47 213.77 188.01 201.61 175.87"/><polyline class="cls-3" points="43.79 169.47 37.44 151.77 56.41 138.97 130.89 169.39 107.11 145.88 55.4 124.92 22.09 146.82 33.45 179.14 41.97 182.7 56.73 174.81 43.79 169.47"/><polygon class="cls-3" points="56.91 188.94 146.04 226.14 163.36 218.84 72.06 181.15 56.91 188.94"/><polygon class="cls-3" points="173.16 39.47 201.61 110.29 201.61 74.59 182.94 29.59 144.56 18.14 126.66 48.47 132.6 64.36 147.73 68.6 140.79 50.09 150.62 33.09 173.16 39.47"/><path d="M338,220.67" transform="translate(-65.7 -163.37)"/></svg>