<svg xmlns="http://www.w3.org/2000/svg" xmlns:xlink="http://www.w3.org/1999/xlink" viewBox="0 0 528.28 398.9"><defs><style>.cls-1,.cls-14,.cls-18{fill:none;}.cls-2{isolation:isolate;}.cls-15,.cls-3{fill:#83c8e5;}.cls-12,.cls-19,.cls-4,.cls-8,.cls-9{fill:#e7effe;}.cls-5{fill:#aee3f9;}.cls-6{fill:#fff;}.cls-7{fill:#124cdb;}.cls-10,.cls-12,.cls-14,.cls-17,.cls-18,.cls-8,.cls-9{stroke:#201028;}.cls-12,.cls-14,.cls-8,.cls-9{stroke-linecap:round;}.cls-10,.cls-12,.cls-14,.cls-18,.cls-8,.cls-9{stroke-linejoin:round;}.cls-14,.cls-8,.cls-9{stroke-width:2.38px;}.cls-13,.cls-15,.cls-19,.cls-9{mix-blend-mode:multiply;}.cls-10,.cls-11,.cls-17{fill:#201028;}.cls-10{stroke-width:0.59px;}.cls-12{stroke-width:3.27px;}.cls-16{clip-path:url(#clip-path);}.cls-17{stroke-miterlimit:10;stroke-width:0.59px;}.cls-18{stroke-width:3.57px;}</style><clipPath id="clip-path" transform="translate(-110.86 -38.05)"><path class="cls-1" d="M137,365.63c-46-29.16-27.6-100.29,26.79-103.31l2.69-.14c86.83-4.5,92.4-55.45,88.15-81.49S224.45,75,393.69,71.57c15.16-.31,29.31,0,42.52.72C531.16,77.72,594.15,173,562,262.51h0c-44.54,124-177.3,192.5-304.16,157h0A455.34,455.34,0,0,1,137,365.63Z"/></clipPath></defs><title>news</title><g class="cls-2"><g id="OBJECTS"><path class="cls-3" d="M609.45,284.45a21,21,0,0,0-21-20.95H560.29V233.81H588.5a50.69,50.69,0,0,1,50.64,50.64" transform="translate(-110.86 -38.05)"/><path class="cls-4" d="M150.66,394.69c-52.94-19.79-49.22-88.36,5.46-99.6l2.7-.55c87.36-17.64,82.28-65.57,72.46-89s-53-93,118.43-122.41c15.35-2.64,29.8-4.58,43.38-5.94C490.8,67.49,575,145.73,561.14,233.41h0C542,354.88,421.43,438.79,284.92,425.66h0a528.22,528.22,0,0,1-134.26-31Z" transform="translate(-110.86 -38.05)"/><path class="cls-5" d="M137,365.63c-46-29.16-27.6-100.29,26.79-103.31l2.69-.14c86.83-4.5,92.4-55.45,88.15-81.49S224.45,75,393.69,71.57c15.16-.31,29.31,0,42.52.72C531.16,77.72,594.15,173,562,262.51h0c-44.54,124-177.3,192.5-304.16,157h0A455.34,455.34,0,0,1,137,365.63Z" transform="translate(-110.86 -38.05)"/><circle class="cls-3" cx="51.78" cy="144.4" r="37.5"/><path class="cls-6" d="M263.64,271.18a.79.79,0,0,1-.79.79h-3.93a.79.79,0,0,1,0-1.58h3.93A.79.79,0,0,1,263.64,271.18Zm-7.88,0a.79.79,0,0,1-.78.79H251a.79.79,0,1,1,0-1.58H255A.78.78,0,0,1,255.76,271.18Zm-7.87,0a.79.79,0,0,1-.79.79h-2.25a.79.79,0,1,1,0-1.58h2.25A.79.79,0,0,1,247.89,271.18Z" transform="translate(-110.86 -38.05)"/><path class="cls-6" d="M501.88,205.19A3.18,3.18,0,1,1,498.7,202,3.19,3.19,0,0,1,501.88,205.19Zm-1.58,0a1.6,1.6,0,1,0-1.6,1.6A1.61,1.61,0,0,0,500.3,205.19Z" transform="translate(-110.86 -38.05)"/><path class="cls-6" d="M550.58,278h-18a.79.79,0,1,0,0,1.57h18a.79.79,0,1,0,0-1.57Z" transform="translate(-110.86 -38.05)"/><path class="cls-6" d="M526.85,278h-3.52a.79.79,0,0,0,0,1.58h3.52a.79.79,0,0,0,0-1.58Z" transform="translate(-110.86 -38.05)"/><path class="cls-6" d="M542.12,284.29a.79.79,0,0,1-.79.79h-2.25a.79.79,0,0,1,0-1.58h2.25A.79.79,0,0,1,542.12,284.29Zm-6.19,0a.79.79,0,0,1-.79.79h-3.93a.79.79,0,0,1,0-1.58h3.93A.79.79,0,0,1,535.93,284.29Zm-7.87,0a.8.8,0,0,1-.79.79h-3.94a.79.79,0,0,1,0-1.58h3.94A.79.79,0,0,1,528.06,284.29Z" transform="translate(-110.86 -38.05)"/><path class="cls-3" d="M565.94,294.26a.79.79,0,0,0-.78.79v1.83a.79.79,0,1,0,1.57,0v-1.83A.79.79,0,0,0,565.94,294.26Z" transform="translate(-110.86 -38.05)"/><path class="cls-3" d="M563.88,292.43h-1.83a.79.79,0,0,0,0,1.58h1.83a.79.79,0,1,0,0-1.58Z" transform="translate(-110.86 -38.05)"/><path class="cls-3" d="M565.94,288.65a.78.78,0,0,0-.78.78v1.83a.79.79,0,1,0,1.57,0v-1.83A.78.78,0,0,0,565.94,288.65Z" transform="translate(-110.86 -38.05)"/><path class="cls-3" d="M569.83,292.31H568a.79.79,0,1,0,0,1.57h1.82a.79.79,0,1,0,0-1.57Z" transform="translate(-110.86 -38.05)"/><path class="cls-3" d="M261.36,94.27a.78.78,0,0,0-.79.78v1.83a.79.79,0,1,0,1.58,0V95.05A.79.79,0,0,0,261.36,94.27Z" transform="translate(-110.86 -38.05)"/><path class="cls-3" d="M259.3,92.43h-1.83a.79.79,0,0,0,0,1.58h1.83a.79.79,0,0,0,0-1.58Z" transform="translate(-110.86 -38.05)"/><path class="cls-3" d="M261.36,88.65a.78.78,0,0,0-.79.78v1.83a.79.79,0,0,0,1.58,0V89.43A.79.79,0,0,0,261.36,88.65Z" transform="translate(-110.86 -38.05)"/><path class="cls-3" d="M265.25,92.31h-1.83a.79.79,0,1,0,0,1.57h1.83a.79.79,0,0,0,0-1.57Z" transform="translate(-110.86 -38.05)"/><path class="cls-6" d="M418.51,136.32h-18a.79.79,0,1,0,0,1.57h18a.79.79,0,1,0,0-1.57Z" transform="translate(-110.86 -38.05)"/><path class="cls-6" d="M394.78,136.31h-3.52a.79.79,0,1,0,0,1.58h3.52a.79.79,0,1,0,0-1.58Z" transform="translate(-110.86 -38.05)"/><path class="cls-6" d="M410.05,142.59a.79.79,0,0,1-.78.79H407a.79.79,0,0,1,0-1.58h2.26A.78.78,0,0,1,410.05,142.59Zm-6.19,0a.79.79,0,0,1-.78.79h-3.94a.79.79,0,1,1,0-1.58h3.94A.78.78,0,0,1,403.86,142.59Zm-7.87,0a.79.79,0,0,1-.79.79h-3.94a.79.79,0,1,1,0-1.58h3.94A.79.79,0,0,1,396,142.59Z" transform="translate(-110.86 -38.05)"/><path class="cls-6" d="M424.57,158a.8.8,0,0,0-.79.79v1.83a.79.79,0,0,0,1.58,0v-1.83A.79.79,0,0,0,424.57,158Z" transform="translate(-110.86 -38.05)"/><path class="cls-6" d="M422.51,156.12h-1.83a.79.79,0,0,0,0,1.58h1.83a.79.79,0,1,0,0-1.58Z" transform="translate(-110.86 -38.05)"/><path class="cls-6" d="M424.57,152.34a.79.79,0,0,0-.79.78V155a.79.79,0,0,0,1.58,0v-1.83A.78.78,0,0,0,424.57,152.34Z" transform="translate(-110.86 -38.05)"/><path class="cls-6" d="M428.46,156h-1.83a.79.79,0,1,0,0,1.57h1.83a.79.79,0,1,0,0-1.57Z" transform="translate(-110.86 -38.05)"/><path class="cls-6" d="M271.33,210.43a2.78,2.78,0,1,0,2.78-2.78A2.77,2.77,0,0,0,271.33,210.43Z" transform="translate(-110.86 -38.05)"/><path class="cls-3" d="M553.23,103.83h18a.79.79,0,0,0,0-1.58h-18a.79.79,0,1,0,0,1.58Z" transform="translate(-110.86 -38.05)"/><path class="cls-3" d="M577,103.83h3.52a.79.79,0,1,0,0-1.57H577a.79.79,0,0,0,0,1.57Z" transform="translate(-110.86 -38.05)"/><path class="cls-3" d="M561.69,97.55a.78.78,0,0,1,.78-.78h2.26a.79.79,0,0,1,0,1.57h-2.26A.78.78,0,0,1,561.69,97.55Zm6.19,0a.78.78,0,0,1,.78-.78h3.94a.79.79,0,1,1,0,1.57h-3.94A.78.78,0,0,1,567.88,97.55Zm7.87,0a.79.79,0,0,1,.79-.78h3.94a.79.79,0,1,1,0,1.57h-3.94A.79.79,0,0,1,575.75,97.55Z" transform="translate(-110.86 -38.05)"/><path class="cls-6" d="M539.93,128.88a.79.79,0,0,0,.79-.79v-1.83a.79.79,0,1,0-1.58,0v1.83A.8.8,0,0,0,539.93,128.88Z" transform="translate(-110.86 -38.05)"/><path class="cls-6" d="M542,130.71h1.83a.79.79,0,0,0,0-1.58H542a.79.79,0,0,0,0,1.58Z" transform="translate(-110.86 -38.05)"/><path class="cls-6" d="M539.93,134.49a.78.78,0,0,0,.79-.78v-1.83a.79.79,0,1,0-1.58,0v1.83A.79.79,0,0,0,539.93,134.49Z" transform="translate(-110.86 -38.05)"/><path class="cls-6" d="M536,130.84h1.83a.79.79,0,1,0,0-1.58H536a.79.79,0,1,0,0,1.58Z" transform="translate(-110.86 -38.05)"/><path class="cls-6" d="M200.27,345.93h-18a.79.79,0,0,0,0,1.58h18a.79.79,0,0,0,0-1.58Z" transform="translate(-110.86 -38.05)"/><path class="cls-6" d="M176.53,345.93H173a.79.79,0,0,0,0,1.58h3.52a.79.79,0,0,0,0-1.58Z" transform="translate(-110.86 -38.05)"/><path class="cls-6" d="M191.81,352.21a.79.79,0,0,1-.79.78h-2.25a.79.79,0,1,1,0-1.57H191A.79.79,0,0,1,191.81,352.21Zm-6.19,0a.79.79,0,0,1-.79.78h-3.94a.79.79,0,1,1,0-1.57h3.94A.79.79,0,0,1,185.62,352.21Zm-7.88,0a.78.78,0,0,1-.79.78H173a.79.79,0,0,1,0-1.57H177A.79.79,0,0,1,177.74,352.21Z" transform="translate(-110.86 -38.05)"/><path class="cls-6" d="M214.41,382.39a.79.79,0,0,0-.79.79V385a.79.79,0,1,0,1.57,0v-1.83A.79.79,0,0,0,214.41,382.39Z" transform="translate(-110.86 -38.05)"/><path class="cls-6" d="M212.35,380.56h-1.83a.79.79,0,1,0,0,1.58h1.83a.79.79,0,0,0,0-1.58Z" transform="translate(-110.86 -38.05)"/><path class="cls-6" d="M214.41,376.77a.79.79,0,0,0-.79.79v1.83a.79.79,0,1,0,1.57,0v-1.83A.79.79,0,0,0,214.41,376.77Z" transform="translate(-110.86 -38.05)"/><path class="cls-6" d="M218.3,380.43h-1.83a.79.79,0,0,0,0,1.58h1.83a.79.79,0,0,0,0-1.58Z" transform="translate(-110.86 -38.05)"/><path class="cls-3" d="M216.32,146.84h18a.79.79,0,1,0,0-1.57h-18a.79.79,0,1,0,0,1.57Z" transform="translate(-110.86 -38.05)"/><path class="cls-3" d="M207.07,146.85h3.52a.79.79,0,0,0,0-1.58h-3.52a.79.79,0,0,0,0,1.58Z" transform="translate(-110.86 -38.05)"/><path class="cls-6" d="M534.46,230.56s1.08,7.67-7.88,7.5c0,0,7.7.07,7.49,7.27,0,0,.7-5.66,7.76-6.93C541.83,238.4,535.86,239.77,534.46,230.56Z" transform="translate(-110.86 -38.05)"/><path class="cls-3" d="M547.67,347.9s1.08,7.67-7.88,7.5c0,0,7.7.08,7.49,7.28,0,0,.7-5.67,7.76-6.93C555,355.75,549.07,357.12,547.67,347.9Z" transform="translate(-110.86 -38.05)"/><path class="cls-6" d="M255.32,299.74s1.07,7.67-7.89,7.49c0,0,7.7.08,7.49,7.28,0,0,.7-5.66,7.76-6.93C262.68,307.58,256.71,309,255.32,299.74Z" transform="translate(-110.86 -38.05)"/><path class="cls-6" d="M341.18,121s1.07,7.67-7.89,7.5c0,0,7.7.08,7.49,7.28,0,0,.7-5.67,7.76-6.93C348.54,128.84,342.57,130.21,341.18,121Z" transform="translate(-110.86 -38.05)"/><path class="cls-6" d="M547.61,185.71s.38,2.67-2.75,2.61c0,0,2.69,0,2.62,2.54a3,3,0,0,1,2.7-2.42S548.1,188.92,547.61,185.71Z" transform="translate(-110.86 -38.05)"/><path class="cls-6" d="M215.81,317.55s.37,2.68-2.75,2.62c0,0,2.68,0,2.61,2.53a3,3,0,0,1,2.71-2.41S216.3,320.76,215.81,317.55Z" transform="translate(-110.86 -38.05)"/><path class="cls-6" d="M296.76,103.4s.37,2.67-2.75,2.61c0,0,2.68,0,2.61,2.54a3,3,0,0,1,2.71-2.42S297.24,106.61,296.76,103.4Z" transform="translate(-110.86 -38.05)"/><path class="cls-3" d="M144.14,376.45s.37,2.67-2.75,2.61c0,0,2.69,0,2.61,2.54a3.06,3.06,0,0,1,2.71-2.42S144.63,379.66,144.14,376.45Z" transform="translate(-110.86 -38.05)"/><path class="cls-7" d="M534.07,91.21s.38,2.68-2.75,2.62c0,0,2.69,0,2.62,2.53a3,3,0,0,1,2.7-2.41S534.56,94.42,534.07,91.21Z" transform="translate(-110.86 -38.05)"/><path class="cls-6" d="M383.35,110.68s.38,2.67-2.74,2.61c0,0,2.68,0,2.61,2.54a3,3,0,0,1,2.7-2.42S383.84,113.89,383.35,110.68Z" transform="translate(-110.86 -38.05)"/><path class="cls-3" d="M244.07,183.71s.38,2.68-2.75,2.62c0,0,2.69,0,2.62,2.53a3,3,0,0,1,2.7-2.41S244.56,186.92,244.07,183.71Z" transform="translate(-110.86 -38.05)"/><path class="cls-6" d="M403.47,203.31s.38,2.67-2.75,2.61c0,0,2.69,0,2.62,2.54A3,3,0,0,1,406,206S404,206.52,403.47,203.31Z" transform="translate(-110.86 -38.05)"/><path class="cls-8" d="M177.18,180.05h215a15,15,0,0,1,15,15V335.9a0,0,0,0,1,0,0h-245a0,0,0,0,1,0,0V195.05A15,15,0,0,1,177.18,180.05Z"/><path class="cls-9" d="M177.18,180.05h215a15,15,0,0,1,15,15V335.9a0,0,0,0,1,0,0h-245a0,0,0,0,1,0,0V195.05A15,15,0,0,1,177.18,180.05Z"/><rect class="cls-3" x="166.8" y="325.78" width="13.01" height="2.39"/><rect class="cls-3" x="187.04" y="325.78" width="13.01" height="2.39"/><rect class="cls-3" x="207.29" y="325.78" width="13.01" height="2.39"/><rect class="cls-3" x="227.54" y="325.78" width="13.01" height="2.39"/><rect class="cls-3" x="247.78" y="325.78" width="13.01" height="2.39"/><rect class="cls-3" x="268.03" y="325.78" width="13.01" height="2.39"/><rect class="cls-3" x="288.28" y="325.78" width="13.01" height="2.39"/><rect class="cls-3" x="308.52" y="325.78" width="13.01" height="2.39"/><rect class="cls-3" x="328.77" y="325.78" width="13.01" height="2.39"/><rect class="cls-3" x="349.01" y="325.78" width="13.01" height="2.39"/><rect class="cls-3" x="369.26" y="325.78" width="13.01" height="2.39"/><rect class="cls-3" x="389.51" y="325.78" width="13.01" height="2.39"/><path class="cls-10" d="M149.59,327.31H419.72a0,0,0,0,1,0,0v11.37a14.2,14.2,0,0,1-14.2,14.2H163.79a14.2,14.2,0,0,1-14.2-14.2V327.31A0,0,0,0,1,149.59,327.31Z"/><rect class="cls-8" x="180.56" y="197.53" width="208.19" height="122.28"/><rect class="cls-11" x="487.02" y="79.97" width="5.24" height="65.32" transform="translate(804.65 -192.02) rotate(135)"/><path class="cls-11" d="M499.74,115l-12.51-12.51,13.06-13.06a8.84,8.84,0,0,1,12.51,0h0a8.84,8.84,0,0,1,0,12.51Z" transform="translate(-110.86 -38.05)"/><rect class="cls-8" x="433.24" y="43.37" width="47.16" height="70.75" rx="5.27" ry="5.27" transform="translate(78.62 -338.01) rotate(45)"/><rect class="cls-8" x="499.94" y="110.07" width="47.16" height="70.75" rx="5.27" ry="5.27" transform="translate(145.32 -365.64) rotate(45)"/><rect class="cls-11" x="452.91" y="130.59" width="5.24" height="32.29" transform="translate(126.32 -317.18) rotate(45)"/><path class="cls-8" d="M445.31,168.34a8,8,0,1,1,0-11.38A8,8,0,0,1,445.31,168.34Z" transform="translate(-110.86 -38.05)"/><rect class="cls-8" x="466.9" y="93.21" width="33.14" height="51.19" rx="3.72" ry="3.72" transform="translate(114.75 -345.12) rotate(45)"/><path class="cls-12" d="M473.37,128.9h0a4.48,4.48,0,0,1,0-6.34L496.94,99a4.48,4.48,0,0,1,6.34,0h0a4.5,4.5,0,0,1,0,6.35L479.71,128.9A4.47,4.47,0,0,1,473.37,128.9Z" transform="translate(-110.86 -38.05)"/><path class="cls-9" d="M473.37,128.9h0a4.48,4.48,0,0,1,0-6.34L496.94,99a4.48,4.48,0,0,1,6.34,0h0a4.5,4.5,0,0,1,0,6.35L479.71,128.9A4.47,4.47,0,0,1,473.37,128.9Z" transform="translate(-110.86 -38.05)"/><g class="cls-13"><path class="cls-11" d="M467,86.29l-1.65-1.65,15.48-15.49a2.62,2.62,0,1,0-3.7-3.7L461.65,80.93,454,73.32l15.49-15.48a2.62,2.62,0,0,0-3.71-3.71L450.34,69.61,448.68,68a2.62,2.62,0,0,0-3.7,3.71l1.65,1.65L430.82,89.14a2.62,2.62,0,1,0,3.7,3.7L450.34,77,458,84.64l-15.82,15.81a2.62,2.62,0,0,0,3.71,3.71l15.81-15.82L463.31,90a2.62,2.62,0,0,0,3.7-3.71Z" transform="translate(-110.86 -38.05)"/><path class="cls-11" d="M534.31,153.59l-1.65-1.66,15.48-15.48a2.62,2.62,0,0,0-3.71-3.71L529,148.23l-7.61-7.61,15.49-15.49a2.62,2.62,0,0,0-3.71-3.7l-15.48,15.48L516,135.26a2.62,2.62,0,0,0-3.7,3.7l1.65,1.66-15.82,15.81a2.62,2.62,0,0,0,3.71,3.71l15.82-15.82,7.61,7.61-15.82,15.82a2.62,2.62,0,1,0,3.71,3.7L529,155.64l1.66,1.65a2.62,2.62,0,1,0,3.7-3.7Z" transform="translate(-110.86 -38.05)"/></g><path class="cls-8" d="M471.1,173.35a1.59,1.59,0,0,0,2.72-1.16c-.44-11.8-4.64-22.72-12.83-30.91s-19.11-12.39-30.91-12.82a1.58,1.58,0,0,0-1.16,2.71Z" transform="translate(-110.86 -38.05)"/><path class="cls-14" d="M439.41,206.6c-.44-11.8-4.64-22.72-12.83-30.91s-19.11-12.39-30.91-12.83" transform="translate(-110.86 -38.05)"/><path class="cls-14" d="M426.63,207.86c-.32-8.69-3.41-16.74-9.44-22.78s-14.08-9.12-22.78-9.44" transform="translate(-110.86 -38.05)"/><path class="cls-14" d="M412.91,202.38a13,13,0,0,0-13-13" transform="translate(-110.86 -38.05)"/><path class="cls-3" d="M639.14,284.45a50.7,50.7,0,0,1-50.64,50.64H478.81V305.4H588.5a21,21,0,0,0,21-20.95" transform="translate(-110.86 -38.05)"/><rect class="cls-3" x="463.51" y="314.36" width="24.72" height="12.04" transform="translate(44.63 758.2) rotate(-90)"/><rect class="cls-3" x="473.46" y="311.93" width="27.87" height="16.9" transform="translate(56.15 769.73) rotate(-90)"/><path class="cls-3" d="M488.23,308.79a1.86,1.86,0,1,1-1.86,1.86A1.85,1.85,0,0,1,488.23,308.79Z" transform="translate(-110.86 -38.05)"/><path class="cls-3" d="M473.18,332.12a6.25,6.25,0,0,1-6.26,6.25H433.8V301.49h33.12a6.26,6.26,0,0,1,6.26,6.26" transform="translate(-110.86 -38.05)"/><polygon class="cls-3" points="345.21 309.18 330.58 309.18 326.93 255.53 348.87 255.53 345.21 309.18"/><path class="cls-3" d="M454.06,284.44h-10.6a12.38,12.38,0,0,1-12.38-12.38V268a17.67,17.67,0,0,1,17.68-17.68h0A17.68,17.68,0,0,1,466.44,268v4.08A12.38,12.38,0,0,1,454.06,284.44Z" transform="translate(-110.86 -38.05)"/><path class="cls-15" d="M454.06,284.44h-10.6a12.38,12.38,0,0,1-12.38-12.38V268a17.67,17.67,0,0,1,17.68-17.68h0A17.68,17.68,0,0,1,466.44,268v4.08A12.38,12.38,0,0,1,454.06,284.44Z" transform="translate(-110.86 -38.05)"/><rect class="cls-3" x="316.56" y="242.73" width="42.68" height="15.85" rx="5.7" ry="5.7"/><path class="cls-3" d="M418.87,251.51A34,34,0,0,0,414.62,268v8.45" transform="translate(-110.86 -38.05)"/><path class="cls-3" d="M482.9,276.43V268a34,34,0,0,0-4.25-16.47" transform="translate(-110.86 -38.05)"/><path class="cls-3" d="M424.75,256.09A26.53,26.53,0,0,0,421.93,268v6.4" transform="translate(-110.86 -38.05)"/><path class="cls-3" d="M475.58,274.38V268a26.66,26.66,0,0,0-2.81-11.89" transform="translate(-110.86 -38.05)"/><rect class="cls-3" x="327.84" y="224.44" width="2.29" height="2.29"/><rect class="cls-3" x="333.78" y="224.44" width="2.29" height="2.29"/><rect class="cls-3" x="339.73" y="224.44" width="2.29" height="2.29"/><rect class="cls-3" x="345.67" y="224.44" width="2.29" height="2.29"/><rect class="cls-3" x="327.84" y="231.75" width="2.29" height="2.29"/><rect class="cls-3" x="333.78" y="231.75" width="2.29" height="2.29"/><rect class="cls-3" x="339.73" y="231.75" width="2.29" height="2.29"/><rect class="cls-3" x="345.67" y="231.75" width="2.29" height="2.29"/><path class="cls-3" d="M473.18,322.49H462.33a10.39,10.39,0,0,1-10.39-10H433.32a8.79,8.79,0,0,1-8.8-8.8v-2.22h42.4a6.26,6.26,0,0,1,6.26,6.26v3.61" transform="translate(-110.86 -38.05)"/><path class="cls-3" d="M434.46,332.18H444a4.69,4.69,0,0,1,4.69,4.69h0a4.69,4.69,0,0,1-4.69,4.69h-9.5a4.69,4.69,0,0,1-4.69-4.7h0A4.7,4.7,0,0,1,434.46,332.18Z" transform="translate(-110.86 -38.05)"/><path class="cls-3" d="M434.46,322.67H444a4.69,4.69,0,0,1,4.69,4.69h0a4.69,4.69,0,0,1-4.69,4.69h-9.5a4.69,4.69,0,0,1-4.69-4.7h0A4.7,4.7,0,0,1,434.46,322.67Z" transform="translate(-110.86 -38.05)"/><path class="cls-3" d="M434.46,313.35H444a4.69,4.69,0,0,1,4.69,4.69h0a4.69,4.69,0,0,1-4.69,4.69h-9.5a4.7,4.7,0,0,1-4.69-4.7h0A4.69,4.69,0,0,1,434.46,313.35Z" transform="translate(-110.86 -38.05)"/><g class="cls-16"><rect class="cls-8" x="210.74" y="305.43" width="24.72" height="12.04"/><rect class="cls-3" x="209.16" y="314.53" width="27.87" height="84.37"/><rect class="cls-8" x="209.16" y="314.53" width="27.87" height="16.9"/><path class="cls-11" d="M345.55,361.86a1.86,1.86,0,1,1-1.86-1.86A1.86,1.86,0,0,1,345.55,361.86Z" transform="translate(-110.86 -38.05)"/><path class="cls-8" d="M322.22,346.81a6.25,6.25,0,0,1-6.25-6.25V298.15h36.88v42.41a6.25,6.25,0,0,1-6.26,6.25" transform="translate(-110.86 -38.05)"/><path class="cls-8" d="M384,258.39v66.23A10.41,10.41,0,0,0,394.41,335h0a10.41,10.41,0,0,0,10.41-10.41V276.34h-5.45" transform="translate(-110.86 -38.05)"/><path class="cls-8" d="M383.46,237.27V151.73a10.42,10.42,0,0,0-10.41-10.41H297.18l2.11.44a10.41,10.41,0,0,1,7.44,10v85.54l.09,12.55v74.95a10.41,10.41,0,0,0,10.41,10.41H393.1l-2.11-.44a10.41,10.41,0,0,1-7.44-10V249.82Z" transform="translate(-110.86 -38.05)"/><rect class="cls-8" x="202.35" y="125.72" width="63.32" height="74.6"/><rect class="cls-9" x="202.35" y="125.72" width="63.32" height="74.6"/><path class="cls-17" d="M321.14,257.69l6.5,8.17V260.2a2.68,2.68,0,0,0-.34-1.61,1.9,1.9,0,0,0-1.56-.54v-.36h4.35v.36a3.08,3.08,0,0,0-1.12.28,1.1,1.1,0,0,0-.45.55,3.71,3.71,0,0,0-.16,1.32v11H328l-8.91-11v8.37a1.85,1.85,0,0,0,.52,1.53,1.9,1.9,0,0,0,1.19.4h.31v.36h-4.67v-.36a1.62,1.62,0,0,0,1.94-1.93v-9.3l-.28-.35a2.5,2.5,0,0,0-.74-.69,2.16,2.16,0,0,0-.92-.18v-.36Z" transform="translate(-110.86 -38.05)"/><path class="cls-17" d="M336,258.45v5.36h.26a2.09,2.09,0,0,0,1.82-.79,4.86,4.86,0,0,0,.71-2.32h.37v6.9h-.37a5,5,0,0,0-.49-1.85,2.07,2.07,0,0,0-.87-1,3.22,3.22,0,0,0-1.43-.25v3.71a5.5,5.5,0,0,0,.09,1.33.87.87,0,0,0,.34.4,1.68,1.68,0,0,0,.82.15H338a4.24,4.24,0,0,0,4.55-3.46h.36l-.59,4.19H331v-.36h.44a1.87,1.87,0,0,0,.92-.2.88.88,0,0,0,.39-.47,4,4,0,0,0,.11-1.22v-8.67a7,7,0,0,0-.05-1.09.88.88,0,0,0-.36-.53,1.66,1.66,0,0,0-1-.27H331v-.36h11v3.89h-.37a4.72,4.72,0,0,0-.79-2,3,3,0,0,0-1.44-.92,8.27,8.27,0,0,0-2-.17Z" transform="translate(-110.86 -38.05)"/><path class="cls-17" d="M363.54,257.69v.36a1.34,1.34,0,0,0-.62.2,1.54,1.54,0,0,0-.45.54c0,.07-.24.58-.61,1.5l-4.13,10.87h-.37l-3.27-8.49-3.59,8.49h-.36l-4.33-10.75a10.65,10.65,0,0,0-.93-2,1.18,1.18,0,0,0-.88-.4v-.36h5.71v.36a1.58,1.58,0,0,0-.92.21.58.58,0,0,0-.23.47,5.6,5.6,0,0,0,.48,1.56l2.58,6.39,2.07-5-.54-1.4a11.43,11.43,0,0,0-.69-1.53,1.54,1.54,0,0,0-.56-.55,2.07,2.07,0,0,0-.93-.16v-.36h6.39v.36a3.51,3.51,0,0,0-1,.11.66.66,0,0,0-.32.22.67.67,0,0,0-.11.37,6.62,6.62,0,0,0,.43,1.37l2.4,6.23,2.15-5.64a10.73,10.73,0,0,0,.42-1.19,2.76,2.76,0,0,0,.08-.6.78.78,0,0,0-.28-.62,1.67,1.67,0,0,0-1-.25v-.36Z" transform="translate(-110.86 -38.05)"/><path class="cls-17" d="M373.06,257.39l.11,4.39h-.4a4.54,4.54,0,0,0-1.38-2.66,3.49,3.49,0,0,0-2.39-1,2.21,2.21,0,0,0-1.57.53,1.61,1.61,0,0,0-.57,1.21,1.42,1.42,0,0,0,.2.78,3.35,3.35,0,0,0,.9.91,21.63,21.63,0,0,0,2.11,1.13,9.51,9.51,0,0,1,3.12,2.15,3.61,3.61,0,0,1,.79,2.31A3.72,3.72,0,0,1,372.7,270a4.65,4.65,0,0,1-3.27,1.19,5.55,5.55,0,0,1-1.18-.12,10.13,10.13,0,0,1-1.39-.48,2,2,0,0,0-.76-.19,1,1,0,0,0-.54.19,1.38,1.38,0,0,0-.45.59h-.36v-5h.36a5.7,5.7,0,0,0,1.64,3.2,3.89,3.89,0,0,0,2.63,1.1,2.47,2.47,0,0,0,1.73-.59,1.84,1.84,0,0,0,.65-1.38,1.75,1.75,0,0,0-.25-.9,2.62,2.62,0,0,0-.75-.83,10.62,10.62,0,0,0-1.79-1,15.52,15.52,0,0,1-2.58-1.5,4.61,4.61,0,0,1-1.21-1.39,3.47,3.47,0,0,1-.42-1.69,3.56,3.56,0,0,1,1.15-2.68,4,4,0,0,1,2.92-1.11,5.13,5.13,0,0,1,1.24.15,6.46,6.46,0,0,1,1.11.44,2.64,2.64,0,0,0,.92.31.54.54,0,0,0,.4-.15,1.78,1.78,0,0,0,.27-.75Z" transform="translate(-110.86 -38.05)"/><line class="cls-18" x1="204.14" y1="239.58" x2="265.71" y2="239.58"/><rect class="cls-11" x="204.14" y="245.82" width="23.79" height="18.74"/><line class="cls-18" x1="204.14" y1="270.81" x2="265.71" y2="270.81"/><line class="cls-18" x1="204.14" y1="277.05" x2="265.71" y2="277.05"/><line class="cls-18" x1="204.14" y1="283.3" x2="265.71" y2="283.3"/><line class="cls-18" x1="231.5" y1="245.82" x2="265.71" y2="245.82"/><line class="cls-18" x1="231.5" y1="252.07" x2="265.71" y2="252.07"/><line class="cls-18" x1="231.5" y1="258.31" x2="265.71" y2="258.31"/><line class="cls-18" x1="231.5" y1="264.56" x2="265.71" y2="264.56"/><path class="cls-8" d="M384.4,258.39h5v66.23a5.06,5.06,0,0,0,10.12,0V267l-10-.1" transform="translate(-110.86 -38.05)"/><path class="cls-9" d="M389.35,258.39v66.23a5.06,5.06,0,0,0,10.12,0V267l-10-.1" transform="translate(-110.86 -38.05)"/><path class="cls-8" d="M331.85,346.81V336a10.39,10.39,0,0,1,10-10.39V307a8.8,8.8,0,0,1,8.8-8.8h2.22v42.41a6.25,6.25,0,0,1-6.26,6.25H343" transform="translate(-110.86 -38.05)"/><path class="cls-8" d="M306.28,218.11V151.88a10.41,10.41,0,0,0-10.41-10.41h0a10.41,10.41,0,0,0-10.41,10.41v48.28h5.45" transform="translate(-110.86 -38.05)"/><path class="cls-8" d="M305.88,218.11h-4.95V151.88a5.06,5.06,0,0,0-10.12,0v57.6l10,.1" transform="translate(-110.86 -38.05)"/><path class="cls-9" d="M300.93,218.11V151.88a5.06,5.06,0,0,0-10.12,0v57.6l10,.1" transform="translate(-110.86 -38.05)"/><path class="cls-4" d="M371.53,201.09a26.66,26.66,0,1,1-26.66-26.65A26.66,26.66,0,0,1,371.53,201.09Z" transform="translate(-110.86 -38.05)"/><path class="cls-11" d="M338.64,191.89a15,15,0,0,0,1.93,0c0-.46-2.6-1.32-2.89-1.4C336.63,190.46,337.89,191.66,338.64,191.89Z" transform="translate(-110.86 -38.05)"/><path class="cls-11" d="M348.88,180.54c.26.19.56-.65.46-.62-.91.25-.91-.68-1-.8-.24-.52-.86.72-.91.85s-.29.42-.29.42c.53,0,1.07.08,1.56.06C348.69,180.59,348.78,180.76,348.88,180.54Z" transform="translate(-110.86 -38.05)"/><path class="cls-11" d="M345.52,174.8c.69.06,1.4.34,2.07.34-1,0,.27.25.21.2.5,1.32,2.82,1.95,3.14,1-.19.11,1.06-1.16,1.3-.92-1.19-1.18-6.42-1.29-8.3-.72C344.43,174.75,345,174.75,345.52,174.8Z" transform="translate(-110.86 -38.05)"/><path class="cls-11" d="M363.22,183.43c0,1.07,1.06,1.22,1.59,1.83-1.2-1.37-.85-3.4-3.34-4.54a10.89,10.89,0,0,1,1.75,1.8h-.81A3.07,3.07,0,0,1,363.22,183.43Z" transform="translate(-110.86 -38.05)"/><polygon class="cls-11" points="230.58 184.75 230.58 184.74 230.58 184.75 230.58 184.75"/><path class="cls-11" d="M341.79,193.23a8.38,8.38,0,0,1,1.66-.42c.28-.53-2.31-.91-2.61-.82.67-.2-.74.83-.74.83S342,193.14,341.79,193.23Z" transform="translate(-110.86 -38.05)"/><path class="cls-11" d="M370.39,195.37c-.4-2.24-1.75-8.89-4.24-10-.4-.18-1.46.58-1.55-.12a10,10,0,0,1,.27,3.35,1.37,1.37,0,0,1,1.23.47h0c.12-.22-1.34,2.26-.44,2.21l-1-.1c.68,1.83.86,3.39,1.66,5.07,3,6.18,3-.8,3-.82.32.05.21,2.26.19,2.54a6.73,6.73,0,0,1,.69,1C370.11,197.75,370.61,196.57,370.39,195.37Z" transform="translate(-110.86 -38.05)"/><path class="cls-11" d="M360,204.34c-.08,0-4-1.94-4-.66,0-1-2.1-2.06-2.37-.69.06-.28.36-.42.47-.74.05-.15-1.36-.62-1.09-.26-.08.12-.72.55-.75.62.58-1.52,1.14-2.45-1-3.43h0a.65.65,0,0,0-.53-.09c-1.82.18-8.92-5.37-9.15-1.54a4.27,4.27,0,0,1,.26-1.67c.05-.14-3.64,1.62-2.93,2.1-1-.7-2.35-.22-3-.9s-.07-2.66-.46-2.64c1.06-.06-1.78-.69-2.27-.69.35,0,1.3-2.21,1.52-2.53s-3.1,1.63-3.58,1.41c-1.16-.52-.77-2.32-.36-3.32s2-3,3.43-1.8c0,0-.09-.73-.22-.6,1.51-1.62,3.18,2.19,3.45,2.25-.52-.12,1.65-5.56,3.34-4.77-.4-.18-.35-.79,0-1.09-.29.28.63.33.83-.31,1.17-.65,2.57-2,4.12-1.79-.21,0-.86.22-.93.58s.89-.19.91-.18,1.06-.19.92-.41c-.28-.42-1.67,0-1.2-.91-.12.21-.61-.13-.65-.11s1.08-.11.89-.21a3.24,3.24,0,0,0-2.12.21c1-1.07,3.25-.62,4.52-1.12-.52-.61.28-.22-1.23-.53a4.35,4.35,0,0,0,.78-.34c-.43-.25-2.39-.61-2.37-1.35,0,.52-.49.4-.81.57-1.05-1.66-2.45.17-3.07-.18a.79.79,0,0,1,.59.47,19.89,19.89,0,0,0-1.64,2.12c-.44.07-.67-1.68-.36-1.77-.47.13-2.35-.68-2.53-.35.9-1.6,4.16-2,5.46-2.75-.27,0,.88.45.88.64a1,1,0,0,0,1.4.83c-.17.08.17-.06.29-.24a2.1,2.1,0,0,1,.55-.46c-.17.12-2.16-.89-1.95-1a7,7,0,0,0-1.21.26c-.12-.53-2.28.74-2.11.79-.37-.12.87-.15-.63-.15-.18,0,.45-.44.18-.41-.73.08-1.51,1.18-2.42.69a3.35,3.35,0,0,0,.84-.29,15.9,15.9,0,0,1-2.38.52c-3.63,1.4-8.3,4.28-9.89,8.17-1.29,4.15,1.69,8.39,3.09,9.35.79.53,5.28,1.4,4.95,2.06a.69.69,0,0,1,.45.43c-.19-.23.29,1.16.92,1.6.43.28.8,0,.94.63,0,.05.3-.24.21-.59,1.83-.4,2.17,2.2.69,3.26-.1.07-.35.77-.73.46.42.35-.3,2.82,0,3.59.93,2.33,3.73,3.55,4.84,5.33,1.91,3.07-1.6,7.64-.46,10.49.07.17.73-.6.7-.57a8.32,8.32,0,0,1-.27,1.34,4.48,4.48,0,0,1-1.19.08,1.8,1.8,0,0,1,1,.37c-.19,0-.35.05-.32.25.2,0,.29.14.27.4,0,0-.11-.15-.09,0a5.12,5.12,0,0,0,.7.33c-.33.41.13.45.69.4l.08.07c.32.12,1.18.57,1.76.19-.75.5-1.31-1.44.15-2-.06,0-.89.09-.74-.14a5.6,5.6,0,0,0,1-1.63c.1-.24,1,.3,1.23,0a5.18,5.18,0,0,1-.07-.8c0-.44,2.31.3,1.86-1.52.29,1.13,2.85-1,3.13-1.08.28-1.11.13-.3.14,0,1.31-.46,1.18-1.92,2-2.54,1.12-.85,2.45-.91,3.33-1.79S361,204.3,360,204.34Z" transform="translate(-110.86 -38.05)"/><path class="cls-19" d="M362.64,181.22A26.86,26.86,0,0,1,324.25,218a26.66,26.66,0,1,0,38.39-36.76Z" transform="translate(-110.86 -38.05)"/><path class="cls-14" d="M371.53,201.09a26.66,26.66,0,1,1-26.66-26.65A26.66,26.66,0,0,1,371.53,201.09Z" transform="translate(-110.86 -38.05)"/></g></g></g></svg>