<svg xmlns="http://www.w3.org/2000/svg" xmlns:xlink="http://www.w3.org/1999/xlink" viewBox="0 0 425.2 425.2"><defs><style>.cls-1{fill:none;}.cls-2{isolation:isolate;}.cls-14,.cls-25,.cls-27,.cls-29,.cls-3,.cls-6{fill:#fff;}.cls-4,.cls-9{fill:#bcbec0;}.cls-5{fill:#084669;}.cls-14,.cls-25,.cls-27,.cls-29,.cls-6{mix-blend-mode:soft-light;}.cls-7,.cls-8{fill:#d1d3d4;}.cls-11,.cls-12,.cls-22,.cls-7,.cls-9{mix-blend-mode:multiply;}.cls-10{fill:#4bc3c7;}.cls-12,.cls-26{fill:#a7a9ac;}.cls-13{clip-path:url(#clip-path);}.cls-14{opacity:0.5;}.cls-15{fill:#ecb79e;}.cls-16{fill:#3d0e0f;}.cls-17{fill:#3c2415;}.cls-18{fill:#2a0000;}.cls-19{fill:#00b9c5;}.cls-20{fill:#162d39;}.cls-21{fill:#011a25;}.cls-22{fill:#939598;}.cls-23{fill:#8a1c18;}.cls-24{fill:#05242f;}.cls-25{opacity:0.2;}.cls-27{opacity:0.4;}.cls-28{fill:#d83633;}.cls-29{opacity:0.8;}.cls-30{fill:#ec524f;}.cls-31{fill:#ea304a;}</style><clipPath id="clip-path" transform="translate(0 0)"><path class="cls-1" d="M105,165.67H295.66a16.78,16.78,0,0,1,16.78,16.78V321.23A16.77,16.77,0,0,1,295.67,338H105a16.78,16.78,0,0,1-16.78-16.78V182.44A16.77,16.77,0,0,1,105,165.67Z"/></clipPath></defs><title>news_logo</title><g class="cls-2"><g id="Capa_1" data-name="Capa 1"><rect class="cls-3" width="425.2" height="425.2"/><rect class="cls-4" x="173.73" y="102.2" width="94.69" height="4.7" transform="translate(28.99 255.9) rotate(-63.55)"/><path class="cls-4" d="M249.36,62.74a6.71,6.71,0,1,1-3-9A6.71,6.71,0,0,1,249.36,62.74Z" transform="translate(0 0)"/><rect class="cls-4" x="198.5" y="34.68" width="4.7" height="94.69" transform="translate(-16.11 82.44) rotate(-22.32)"/><path class="cls-4" d="M188.06,33.2a6.71,6.71,0,1,1-8.76-3.66A6.71,6.71,0,0,1,188.06,33.2Z" transform="translate(0 0)"/><path class="cls-5" d="M337.12,139.27h-249a21.92,21.92,0,0,0-21.92,21.91V342.49A21.92,21.92,0,0,0,88.08,364.4h249A21.91,21.91,0,0,0,359,342.49V161.18A21.91,21.91,0,0,0,337.12,139.27Z" transform="translate(0 0)"/><path class="cls-5" d="M337.12,139.27h-249a21.92,21.92,0,0,0-21.92,21.91V342.49A21.92,21.92,0,0,0,88.08,364.4h249A21.91,21.91,0,0,0,359,342.49V161.18A21.91,21.91,0,0,0,337.12,139.27Z" transform="translate(0 0)"/><path class="cls-6" d="M145.43,156.76c-12.61,14.75-23.29,31.19-29.7,49.6-6,17.35-11.18,37.61-7.94,56.05,3.43,19.6,16.77,32.33,33,42.63,59.49,37.69,142.49,12.14,188.95-35.7a166.22,166.22,0,0,0,22.4-29.18V164.72a20.13,20.13,0,0,0-20.13-20.13H155.5C152.17,148.67,148.86,152.75,145.43,156.76Z" transform="translate(0 0)"/><path class="cls-7" d="M326,288a213.67,213.67,0,0,1-70.89,39.68c-32.75,10.65-69.32,14.74-102.22,2.34-28.63-10.78-59-31-63.74-63.38-2.28-15.52.58-31.84,4.57-46.84a162.7,162.7,0,0,1,19.68-45.86c7.94-12.44,17.74-23.19,26.89-34.67H88.08a21.92,21.92,0,0,0-21.92,21.91V342.49A21.92,21.92,0,0,0,88.08,364.4h249A21.91,21.91,0,0,0,359,342.49v-93A163,163,0,0,1,326,288Z" transform="translate(0 0)"/><path class="cls-5" d="M257.59,139.27a46.82,46.82,0,0,0-90,0Z" transform="translate(0 0)"/><path class="cls-7" d="M251.26,127.37c-9.82,6.29-22.41,7-33.57,4-7.57-2.08-17.73-9-13.51-18.38a17.44,17.44,0,0,1,7.09-7.55,46.82,46.82,0,0,0-43.66,33.84h90A46.29,46.29,0,0,0,252,126.89C251.73,127.05,251.5,127.22,251.26,127.37Z" transform="translate(0 0)"/><path class="cls-7" d="M336.12,168.9A16.07,16.07,0,1,1,320.05,185,16.06,16.06,0,0,1,336.12,168.9Z" transform="translate(0 0)"/><path class="cls-8" d="M336.12,172.24A12.73,12.73,0,1,1,323.39,185,12.73,12.73,0,0,1,336.12,172.24Z" transform="translate(0 0)"/><path class="cls-9" d="M340.51,188.83a11,11,0,0,1-8.78-6.52,10.48,10.48,0,0,1,.85-9.56,12.72,12.72,0,1,0,16,14.69A12.4,12.4,0,0,1,340.51,188.83Z" transform="translate(0 0)"/><path class="cls-3" d="M336.11,182.44a6.06,6.06,0,0,0,5,2.52,7.19,7.19,0,0,0,5.55-2.17,11,11,0,0,0-9.61-9c-1.6-.17-2.19,2.81-2.27,3.9A7.17,7.17,0,0,0,336.11,182.44Z" transform="translate(0 0)"/><path class="cls-7" d="M336.12,207.55a16.07,16.07,0,1,1-16.07,16.06A16.06,16.06,0,0,1,336.12,207.55Z" transform="translate(0 0)"/><path class="cls-8" d="M336.12,210.88a12.73,12.73,0,1,1-12.73,12.73A12.73,12.73,0,0,1,336.12,210.88Z" transform="translate(0 0)"/><path class="cls-9" d="M340.51,227.47a10.93,10.93,0,0,1-8.78-6.52,10.49,10.49,0,0,1,.85-9.56,12.73,12.73,0,1,0,16,14.69A12.28,12.28,0,0,1,340.51,227.47Z" transform="translate(0 0)"/><path class="cls-3" d="M336.11,221.09a6.06,6.06,0,0,0,5,2.52,7.16,7.16,0,0,0,5.55-2.18,11,11,0,0,0-9.61-9c-1.6-.17-2.19,2.82-2.27,3.91A7.17,7.17,0,0,0,336.11,221.09Z" transform="translate(0 0)"/><path class="cls-9" d="M101.89,162.83H298.8a17.33,17.33,0,0,1,17.33,17.33V323.5a17.33,17.33,0,0,1-17.33,17.33H101.9A17.33,17.33,0,0,1,84.57,323.5V180.16A17.32,17.32,0,0,1,101.89,162.83Z"/><path class="cls-10" d="M105,165.66H295.66a16.78,16.78,0,0,1,16.78,16.78V321.22A16.77,16.77,0,0,1,295.67,338H105a16.78,16.78,0,0,1-16.78-16.78V182.44A16.77,16.77,0,0,1,105,165.66Z"/><g class="cls-11"><rect class="cls-8" x="315.73" y="281.47" width="40.77" height="2.49"/><rect class="cls-12" x="315.73" y="282.66" width="40.77" height="1.3"/></g><g class="cls-11"><rect class="cls-8" x="315.73" y="285.64" width="40.77" height="2.49"/><rect class="cls-12" x="315.73" y="286.83" width="40.77" height="1.3"/></g><g class="cls-11"><rect class="cls-8" x="315.73" y="289.81" width="40.77" height="2.49"/><rect class="cls-12" x="315.73" y="291" width="40.77" height="1.3"/></g><g class="cls-11"><rect class="cls-8" x="315.73" y="293.98" width="40.77" height="2.49"/><rect class="cls-12" x="315.73" y="295.17" width="40.77" height="1.3"/></g><g class="cls-11"><rect class="cls-8" x="315.73" y="298.15" width="40.77" height="2.49"/><rect class="cls-12" x="315.73" y="299.34" width="40.77" height="1.3"/></g><g class="cls-11"><rect class="cls-8" x="315.73" y="302.32" width="40.77" height="2.49"/><rect class="cls-12" x="315.73" y="303.51" width="40.77" height="1.3"/></g><g class="cls-11"><rect class="cls-8" x="315.73" y="306.49" width="40.77" height="2.49"/><rect class="cls-12" x="315.73" y="307.68" width="40.77" height="1.3"/></g><g class="cls-11"><rect class="cls-8" x="315.73" y="310.66" width="40.77" height="2.49"/><rect class="cls-12" x="315.73" y="311.85" width="40.77" height="1.3"/></g><g class="cls-11"><rect class="cls-8" x="315.73" y="314.83" width="40.77" height="2.49"/><rect class="cls-12" x="315.73" y="316.02" width="40.77" height="1.3"/></g><g class="cls-11"><rect class="cls-8" x="315.73" y="319" width="40.77" height="2.49"/><rect class="cls-12" x="315.73" y="320.19" width="40.77" height="1.3"/></g><g class="cls-11"><rect class="cls-8" x="315.73" y="323.17" width="40.77" height="2.49"/><rect class="cls-12" x="315.73" y="324.36" width="40.77" height="1.3"/></g><g class="cls-11"><rect class="cls-8" x="315.73" y="327.34" width="40.77" height="2.49"/><rect class="cls-12" x="315.73" y="328.53" width="40.77" height="1.3"/></g><path class="cls-6" d="M208.45,112.77C201.64,124,218.9,128.55,226.56,129c8.48.54,16.46-.39,23.31-5.13a46.79,46.79,0,0,0-31.12-18.1C214.51,107.28,210.49,109.41,208.45,112.77Z" transform="translate(0 0)"/><g class="cls-13"><path class="cls-14" d="M177.83,178.81a16.85,16.85,0,0,0-15.29-5.53s4.38,1,5.51,2.65c0,0-4.42-1.3-7.92-.51,0,0,6.33,3.28,9.5,5.33,0,0-.46-2.57-1.7-3A22.66,22.66,0,0,1,177.83,178.81Z" transform="translate(0 0)"/><rect class="cls-15" x="147.84" y="256.25" width="23.87" height="17.95"/><path class="cls-7" d="M154.52,270a18,18,0,0,0,10.53-4.23,23.18,23.18,0,0,0,5.78-7.09c.28-.54.6-1.15.89-1.81v-.64H147.84v13.43A38.41,38.41,0,0,0,154.52,270Z" transform="translate(0 0)"/><path class="cls-15" d="M158.9,180.42c-16.22.35-31.59,13.15-29.17,34.92,1.47,13.15,2.61,15.11,6.53,30.21,2.71,10.44,17.14,16,22.64,16.31,5.49-.35,19.92-5.87,22.63-16.31,3.92-15.1,5.06-17.06,6.53-30.21C190.48,193.57,175.11,180.77,158.9,180.42Z" transform="translate(0 0)"/><path class="cls-9" d="M142,190.54s18.51,23,42.5,18.84V197.77S158,184.22,142,190.54Z" transform="translate(0 0)"/><path class="cls-15" d="M186.15,221.21l-1.7,13c6.68,2.94,7.73-12.39,7.73-12.39C190.63,218,186.15,221.21,186.15,221.21Z" transform="translate(0 0)"/><path class="cls-15" d="M125.38,221.85s1.05,15.33,7.74,12.39l-1.7-13S126.93,218,125.38,221.85Z" transform="translate(0 0)"/><path class="cls-16" d="M143.63,190.54s-9.81,2.84-8,16.52c0,0,.66,3.36-1,12.9a15.24,15.24,0,0,0-.72,8.4l-2.71-3.48-.85-4.27a3.49,3.49,0,0,0-4.64.54s-3.68-19.38,2.91-32c0,0,4.17-11.62,19.18-13.17l-4.21,14.59" transform="translate(0 0)"/><path class="cls-17" d="M182.81,205" transform="translate(0 0)"/><path class="cls-16" d="M143.63,190.54S162.08,206.6,182.81,205l1.64,22.27,2-2.16.93-4.63s2.7-.88,3.47-.22c0,0,2.31-5.3,2.31-18.73a8.61,8.61,0,0,1,1.9,3.47s1.06-11-6.79-18.61a8.84,8.84,0,0,1,3.87,1.37,24.76,24.76,0,0,0-19.46-16.52s-22.38-4.82-29.95,7.06C142.77,178.32,138.29,183.13,143.63,190.54Z" transform="translate(0 0)"/><path class="cls-18" d="M192.18,187.78a25.37,25.37,0,0,0-3.57-6.44,15.63,15.63,0,0,0-1.16-1.42l-.59-.7-.65-.64a23.59,23.59,0,0,0-2.77-2.39c-.5-.35-1-.72-1.5-1l-1.59-.89c-.53-.3-1.11-.51-1.66-.76l-.83-.37-.86-.29c-.58-.18-1.15-.39-1.73-.56l-1.79-.38c-1.22-.28-2.39-.46-3.62-.63a57.94,57.94,0,0,0-7.33-.46,39.38,39.38,0,0,0-7.28.6,26.46,26.46,0,0,0-3.53.9,18.88,18.88,0,0,0-3.33,1.43,16,16,0,0,0-3,2,14.64,14.64,0,0,0-2.38,2.71l0,0,0,0a7.06,7.06,0,0,0-.86,1.29,8.68,8.68,0,0,0-.58,1.49,5,5,0,0,0-.17.77,4.4,4.4,0,0,0-.11.8,5.29,5.29,0,0,0,0,.8c0,.27,0,.54,0,.81l.11.8c0,.27.13.53.18.79a10.45,10.45,0,0,0,.52,1.55,7.19,7.19,0,0,0,.34.75l.36.74.85,1.41-.95-1.36-.41-.72a6.37,6.37,0,0,1-.39-.73,11.7,11.7,0,0,1-.6-1.56c-.07-.26-.18-.53-.23-.8l-.16-.83c0-.27,0-.56-.07-.84a5.89,5.89,0,0,1,0-.84,4.8,4.8,0,0,1,.08-.85,3.93,3.93,0,0,1,.16-.83,8.3,8.3,0,0,1,.56-1.61,7,7,0,0,1,.93-1.47l0,.05a15.42,15.42,0,0,1,2.41-2.93A17,17,0,0,1,148,173a20.88,20.88,0,0,1,3.46-1.52,26.74,26.74,0,0,1,3.64-1,45.56,45.56,0,0,1,14.92-.16c1.22.17,2.49.39,3.68.68l1.83.41c.61.18,1.2.4,1.79.6l.9.3.85.4c.56.28,1.15.51,1.69.84l1.61,1c.53.34,1,.74,1.52,1.11a15.1,15.1,0,0,1,1.43,1.22,13.81,13.81,0,0,1,1.33,1.32l.64.68.59.73a15.68,15.68,0,0,1,1.1,1.51,25.28,25.28,0,0,1,1.88,3.22A21.75,21.75,0,0,1,192.18,187.78Z" transform="translate(0 0)"/><path class="cls-14" d="M150.11,189.54s10.55,13.25,28.49,10.31c0,0-8.15-1.89-10.26-4.94,0,0,8.23,2.41,14.74.94,0,0-11.79-6.1-17.69-9.92,0,0,.87,4.78,3.16,5.5A42.21,42.21,0,0,1,150.11,189.54Z" transform="translate(0 0)"/><path class="cls-14" d="M134.27,183.91a17.51,17.51,0,0,0-5.74,15.88s1.05-4.54,2.75-5.72c0,0-1.35,4.59-.52,8.22,0,0,3.4-6.57,5.53-9.86,0,0-2.67.48-3.07,1.76A23.59,23.59,0,0,1,134.27,183.91Z" transform="translate(0 0)"/><path class="cls-15" d="M222.44,309.08l-5.47-19c-2.76-10.46-13.57-12.24-13.57-12.24L171.72,269H147.84l-31.58,8.88s-10.82,1.78-13.57,12.24L101.63,309l18.39.12,6.39,55.3h66.86l6.37-55.3Z" transform="translate(0 0)"/><path class="cls-3" d="M222.44,309.08l-5.47-19c-2.76-10.46-13.57-12.24-13.57-12.24L171.72,269H147.84l-31.58,8.88s-10.82,1.78-13.57,12.24L101.63,309l18.39.12,6.39,55.3h66.86l6.37-55.3Z" transform="translate(0 0)"/><path class="cls-19" d="M163.82,282.2h0l1.85-7.68a3.47,3.47,0,0,0,.18-3.64,4.08,4.08,0,0,0-2.51-1.88,20.18,20.18,0,0,0-5.11-.18c-1.66,0-2.85.16-3.95,1.46a3.39,3.39,0,0,0-.28,4.24l1.85,7.68a1.18,1.18,0,0,1,.27-.28l-.27.28-8.25,67.34,12,15.09,12.51-15.15Z" transform="translate(0 0)"/><path class="cls-12" d="M155.54,281s5.57-2.6,8.25,1.19a8.88,8.88,0,0,0-8,0Z" transform="translate(0 0)"/><path class="cls-20" d="M222.44,309.08l-5.47-19c-2.76-10.46-13.57-12.24-13.57-12.24l-19-5.32-24.62,87-23.54-87.31-20,5.63s-10.82,1.78-13.57,12.24L101.63,309l18.39.12,6.39,55.3h66.86l6.37-55.3Z" transform="translate(0 0)"/><polygon class="cls-21" points="159.83 359.56 136.29 272.24 118.98 277.11 141.95 315.9 133.12 320.4 159.83 359.56"/><polygon class="cls-21" points="159.86 359.56 183.4 272.24 200.71 277.11 177.73 315.9 186.57 320.4 159.86 359.56"/><polygon class="cls-22" points="147.84 267.81 136.29 272.24 150.47 288.52 160.13 268.75 147.84 267.81"/><polygon class="cls-3" points="147.84 265.23 136.29 272.24 150.1 284.77 160.13 268.75 147.84 265.23"/><polygon class="cls-22" points="172.08 267.81 183.64 272.24 169.45 288.52 159.79 268.75 172.08 267.81"/><polygon class="cls-3" points="172.08 265.23 183.64 272.24 169.82 284.77 159.79 268.75 172.08 265.23"/><rect class="cls-20" x="101.78" y="306.37" width="19.71" height="58.01"/><polygon class="cls-20" points="222.31 308.61 218.73 308.49 199.79 308.49 210.46 353.58 232.3 346.79 222.31 308.61"/><path class="cls-15" d="M168.84,301.92a13.6,13.6,0,0,0-1-1.66,40.66,40.66,0,0,1-3-4.29,62.76,62.76,0,0,1-3.11-5.6c-1-2.4-1.51-2.63-1.51-2.63s-2.12-.88-2.31,1.19a7.91,7.91,0,0,0,.24,2.52c.33,1.28,1.28,2.34,1.52,3.64a2,2,0,0,1-1.23,2.37l2,6.9Z" transform="translate(0 0)"/><path class="cls-7" d="M159.58,296.3a7.94,7.94,0,0,0,2.55,6.44A11.3,11.3,0,0,1,159.7,296Z" transform="translate(0 0)"/><polygon class="cls-23" points="171.93 277.66 142.87 277.66 148.32 273.91 167.25 273.91 171.93 277.66"/><path class="cls-24" d="M160.38,316.57a2.88,2.88,0,0,1-2.88,2.89h0a2.88,2.88,0,0,1-2.88-2.89l-1.69-26.14c0-1.59,3-2.88,4.57-2.88h0c1.59,0,4.37,1.29,4.37,2.88Z" transform="translate(0 0)"/><path class="cls-25" d="M157.71,289.53a8.23,8.23,0,0,0-.58,3.53c0,.75.06,8.74.09,9.48a29.27,29.27,0,0,0,.22,2.95c.26,1.68,1,3.64,2.53,4.55l.9-18.59c0-1.07-1.86-1.93-2.92-1.93Z" transform="translate(0 0)"/><path class="cls-12" d="M158.25,313.44c-1.74-2.23-2.22-5-2.39-7.76-.16-2.39-.39-12.1-.2-14.5a12.32,12.32,0,0,1,.71-3.47c-1.57.39-3.44,1.46-3.44,2.72l1.69,26.14a2.88,2.88,0,1,0,5.76,0l.09-1.18A7.37,7.37,0,0,1,158.25,313.44Z" transform="translate(0 0)"/><path class="cls-24" d="M171.93,264.63a14.53,14.53,0,1,1-14.53-14.54A14.53,14.53,0,0,1,171.93,264.63Z" transform="translate(0 0)"/><g class="cls-11"><rect class="cls-26" x="158.49" y="257.19" width="1.01" height="0.72"/><rect class="cls-26" x="149.97" y="257.19" width="0.72" height="0.72"/><rect class="cls-26" x="151.62" y="257.19" width="0.72" height="0.72"/><rect class="cls-26" x="153.26" y="257.19" width="0.72" height="0.72"/><rect class="cls-26" x="156.55" y="257.19" width="1.01" height="0.72"/><rect class="cls-26" x="154.91" y="257.19" width="0.72" height="0.72"/><rect class="cls-26" x="149.97" y="271.52" width="0.72" height="1.01"/><rect class="cls-26" x="149.97" y="267.65" width="0.72" height="1.01"/><rect class="cls-26" x="149.97" y="269.59" width="0.72" height="1.01"/><rect class="cls-26" x="149.97" y="265.71" width="0.72" height="1.01"/><rect class="cls-26" x="149.97" y="260.49" width="0.72" height="0.72"/><rect class="cls-26" x="149.97" y="262.13" width="0.72" height="0.72"/><rect class="cls-26" x="149.97" y="263.78" width="0.72" height="1.01"/><rect class="cls-26" x="149.97" y="258.84" width="0.72" height="0.72"/><rect class="cls-26" x="160.43" y="269.59" width="1.01" height="1.01"/><rect class="cls-26" x="162.36" y="269.59" width="1.01" height="1.01"/><rect class="cls-26" x="158.49" y="269.59" width="1.01" height="1.01"/><rect class="cls-26" x="156.55" y="269.59" width="1.01" height="1.01"/><rect class="cls-26" x="162.36" y="267.65" width="1.01" height="1.01"/><rect class="cls-26" x="154.91" y="269.59" width="0.72" height="1.01"/><rect class="cls-26" x="162.36" y="257.19" width="1.01" height="0.72"/><rect class="cls-26" x="162.36" y="258.84" width="1.01" height="0.72"/><rect class="cls-26" x="162.36" y="265.71" width="1.01" height="1.01"/><rect class="cls-26" x="162.36" y="260.49" width="1.01" height="0.72"/><rect class="cls-26" x="160.43" y="257.19" width="1.01" height="0.72"/><rect class="cls-26" x="162.36" y="262.13" width="1.01" height="0.72"/><rect class="cls-26" x="162.36" y="263.78" width="1.01" height="1.01"/><rect class="cls-26" x="158.49" y="255.55" width="1.01" height="0.72"/><rect class="cls-26" x="164.3" y="255.55" width="1.01" height="0.72"/><rect class="cls-26" x="162.36" y="255.55" width="1.01" height="0.72"/><rect class="cls-26" x="160.43" y="255.55" width="1.01" height="0.72"/><rect class="cls-26" x="164.3" y="258.84" width="1.01" height="0.72"/><rect class="cls-26" x="151.62" y="271.52" width="0.72" height="1.01"/><rect class="cls-26" x="164.3" y="260.49" width="1.01" height="0.72"/><rect class="cls-26" x="153.26" y="269.59" width="0.72" height="1.01"/><rect class="cls-26" x="149.97" y="255.55" width="0.72" height="0.72"/><rect class="cls-26" x="156.55" y="255.55" width="1.01" height="0.72"/><rect class="cls-26" x="148.32" y="257.19" width="0.72" height="0.72"/><rect class="cls-26" x="151.62" y="255.55" width="0.72" height="0.72"/><rect class="cls-26" x="153.26" y="255.55" width="0.72" height="0.72"/><rect class="cls-26" x="154.91" y="255.55" width="0.72" height="0.72"/><rect class="cls-26" x="164.3" y="257.19" width="1.01" height="0.72"/><rect class="cls-26" x="156.55" y="271.52" width="1.01" height="1.01"/><rect class="cls-26" x="158.49" y="271.52" width="1.01" height="1.01"/><rect class="cls-26" x="162.36" y="271.52" width="1.01" height="1.01"/><rect class="cls-26" x="160.43" y="271.52" width="1.01" height="1.01"/><rect class="cls-26" x="154.91" y="271.52" width="0.72" height="1.01"/><rect class="cls-26" x="153.26" y="271.52" width="0.72" height="1.01"/><rect class="cls-26" x="164.3" y="271.52" width="1.01" height="1.01"/><rect class="cls-26" x="164.3" y="263.78" width="1.01" height="1.01"/><rect class="cls-26" x="164.3" y="265.71" width="1.01" height="1.01"/><rect class="cls-26" x="164.3" y="262.13" width="1.01" height="0.72"/><rect class="cls-26" x="164.3" y="269.59" width="1.01" height="1.01"/><rect class="cls-26" x="164.3" y="267.65" width="1.01" height="1.01"/><rect class="cls-26" x="146.68" y="255.55" width="0.72" height="0.72"/><rect class="cls-26" x="154.91" y="262.13" width="0.72" height="0.72"/><rect class="cls-26" x="148.32" y="255.55" width="0.72" height="0.72"/><rect class="cls-26" x="156.55" y="263.78" width="1.01" height="1.01"/><rect class="cls-26" x="156.55" y="262.13" width="1.01" height="0.72"/><path class="cls-26" d="M145.75,256.27v-.34l-.24.34Z" transform="translate(0 0)"/><rect class="cls-26" x="148.32" y="258.84" width="0.72" height="0.72"/><rect class="cls-26" x="158.49" y="262.13" width="1.01" height="0.72"/><rect class="cls-26" x="158.49" y="260.49" width="1.01" height="0.72"/><rect class="cls-26" x="151.62" y="269.59" width="0.72" height="1.01"/><rect class="cls-26" x="154.91" y="263.78" width="0.72" height="1.01"/><path class="cls-26" d="M148.71,253H149v-.25Z" transform="translate(0 0)"/><rect class="cls-26" x="154.91" y="265.71" width="0.72" height="1.01"/><rect class="cls-26" x="156.55" y="265.71" width="1.01" height="1.01"/><rect class="cls-26" x="158.49" y="263.78" width="1.01" height="1.01"/><rect class="cls-26" x="145.03" y="263.78" width="0.72" height="1.01"/><rect class="cls-26" x="156.55" y="253.9" width="1.01" height="0.72"/><rect class="cls-26" x="156.55" y="252.26" width="1.01" height="0.72"/><rect class="cls-26" x="146.68" y="263.78" width="0.72" height="1.01"/><path class="cls-26" d="M145.75,272.54v-1H145v.73l.18.28Z" transform="translate(0 0)"/><path class="cls-26" d="M165.31,253v-.55l-.27-.17h-.74V253Z" transform="translate(0 0)"/><path class="cls-26" d="M147.4,254.08l-.55.54h.55Z" transform="translate(0 0)"/><rect class="cls-26" x="148.32" y="273.46" width="0.72" height="1.01"/><path class="cls-26" d="M146.68,273.46v1l0,0h.69v-1Z" transform="translate(0 0)"/><rect class="cls-26" x="148.32" y="253.9" width="0.72" height="0.72"/><path class="cls-26" d="M168.17,273.46v.92c.27-.3.53-.6.77-.92Z" transform="translate(0 0)"/><path class="cls-26" d="M167.15,275.4h-.91v.76C166.55,275.92,166.86,275.67,167.15,275.4Z" transform="translate(0 0)"/><rect class="cls-26" x="166.24" y="273.46" width="1.01" height="1.01"/><rect class="cls-26" x="158.49" y="265.71" width="1.01" height="1.01"/><rect class="cls-26" x="153.26" y="258.84" width="0.72" height="0.72"/><rect class="cls-26" x="158.49" y="258.84" width="1.01" height="0.72"/><rect class="cls-26" x="154.91" y="258.84" width="0.72" height="0.72"/><rect class="cls-26" x="156.55" y="258.84" width="1.01" height="0.72"/><rect class="cls-26" x="160.43" y="262.13" width="1.01" height="0.72"/><rect class="cls-26" x="160.43" y="260.49" width="1.01" height="0.72"/><rect class="cls-26" x="160.43" y="258.84" width="1.01" height="0.72"/><rect class="cls-26" x="151.62" y="263.78" width="0.72" height="1.01"/><rect class="cls-26" x="156.55" y="260.49" width="1.01" height="0.72"/><rect class="cls-26" x="151.62" y="267.65" width="0.72" height="1.01"/><rect class="cls-26" x="151.62" y="265.71" width="0.72" height="1.01"/><rect class="cls-26" x="151.62" y="260.49" width="0.72" height="0.72"/><rect class="cls-26" x="151.62" y="262.13" width="0.72" height="0.72"/><rect class="cls-26" x="151.62" y="258.84" width="0.72" height="0.72"/><rect class="cls-26" x="153.26" y="263.78" width="0.72" height="1.01"/><rect class="cls-26" x="153.26" y="265.71" width="0.72" height="1.01"/><rect class="cls-26" x="153.26" y="267.65" width="0.72" height="1.01"/><rect class="cls-26" x="153.26" y="262.13" width="0.72" height="0.72"/><rect class="cls-26" x="153.26" y="260.49" width="0.72" height="0.72"/><rect class="cls-26" x="154.91" y="260.49" width="0.72" height="0.72"/><rect class="cls-26" x="160.43" y="263.78" width="1.01" height="1.01"/><rect class="cls-26" x="160.43" y="267.65" width="1.01" height="1.01"/><rect class="cls-26" x="154.91" y="267.65" width="0.72" height="1.01"/><rect class="cls-26" x="160.43" y="265.71" width="1.01" height="1.01"/><rect class="cls-26" x="156.55" y="267.65" width="1.01" height="1.01"/><rect class="cls-26" x="158.49" y="267.65" width="1.01" height="1.01"/><rect class="cls-26" x="166.24" y="262.13" width="1.01" height="0.72"/><rect class="cls-26" x="153.26" y="252.26" width="0.72" height="0.72"/><rect class="cls-26" x="151.62" y="252.26" width="0.72" height="0.72"/><rect class="cls-26" x="154.91" y="252.26" width="0.72" height="0.72"/><rect class="cls-26" x="156.55" y="250.61" width="1.01" height="0.72"/><rect class="cls-26" x="154.91" y="250.61" width="0.72" height="0.72"/><path class="cls-26" d="M151.62,251.29v0h.72V251C152.09,251.09,151.85,251.19,151.62,251.29Z" transform="translate(0 0)"/><rect class="cls-26" x="143.39" y="262.13" width="0.72" height="0.72"/><rect class="cls-26" x="158.49" y="250.61" width="1.01" height="0.72"/><rect class="cls-26" x="143.39" y="265.71" width="0.72" height="1.01"/><rect class="cls-26" x="143.39" y="263.78" width="0.72" height="1.01"/><path class="cls-26" d="M144.11,259.56v-.72h-.05c-.1.24-.2.48-.29.72Z" transform="translate(0 0)"/><rect class="cls-26" x="145.03" y="260.49" width="0.72" height="0.72"/><rect class="cls-26" x="145.03" y="258.84" width="0.72" height="0.72"/><rect class="cls-26" x="145.03" y="262.13" width="0.72" height="0.72"/><rect class="cls-26" x="168.17" y="263.78" width="1.01" height="1.01"/><rect class="cls-26" x="168.17" y="265.71" width="1.01" height="1.01"/><rect class="cls-26" x="168.17" y="262.13" width="1.01" height="0.72"/><rect class="cls-26" x="168.17" y="269.59" width="1.01" height="1.01"/><rect class="cls-26" x="168.17" y="267.65" width="1.01" height="1.01"/><rect class="cls-26" x="168.17" y="260.49" width="1.01" height="0.72"/><rect class="cls-26" x="158.49" y="252.26" width="1.01" height="0.72"/><rect class="cls-26" x="168.17" y="258.84" width="1.01" height="0.72"/><path class="cls-26" d="M162.36,251.33h.92l-.92-.37Z" transform="translate(0 0)"/><rect class="cls-26" x="160.43" y="252.26" width="1.01" height="0.72"/><rect class="cls-26" x="162.36" y="252.26" width="1.01" height="0.72"/><path class="cls-26" d="M168.17,255.55v.72h1v-.15l-.43-.57Z" transform="translate(0 0)"/><rect class="cls-26" x="168.17" y="257.19" width="1.01" height="0.72"/><rect class="cls-26" x="160.43" y="277.33" width="1.01" height="1.01"/><rect class="cls-26" x="170.11" y="265.71" width="1.01" height="1.01"/><rect class="cls-26" x="170.11" y="263.78" width="1.01" height="1.01"/><rect class="cls-26" x="170.11" y="260.49" width="1.01" height="0.72"/><rect class="cls-26" x="148.32" y="260.49" width="0.72" height="0.72"/><path class="cls-26" d="M170.11,269.59v1h.54c.15-.33.29-.67.41-1Z" transform="translate(0 0)"/><rect class="cls-26" x="170.11" y="267.65" width="1.01" height="1.01"/><path class="cls-26" d="M170.11,271.53v.14a1,1,0,0,0,.08-.14Z" transform="translate(0 0)"/><path class="cls-26" d="M144.11,261.21v-.72h-.65c0,.09-.05.18-.07.27v.45Z" transform="translate(0 0)"/><path class="cls-26" d="M144.11,268.66v-1h-.72v.84a.84.84,0,0,0,.05.17Z" transform="translate(0 0)"/><path class="cls-26" d="M153.26,251.33H154v-.72h-.45l-.27.08Z" transform="translate(0 0)"/><path class="cls-26" d="M170.11,257.92h.18l-.18-.34Z" transform="translate(0 0)"/><path class="cls-26" d="M160.43,251.33h1v-.67l-.17,0h-.84Z" transform="translate(0 0)"/><path class="cls-26" d="M170.74,258.84h-.63v.72H171C170.94,259.32,170.84,259.08,170.74,258.84Z" transform="translate(0 0)"/><rect class="cls-26" x="145.03" y="267.65" width="0.72" height="1.01"/><path class="cls-26" d="M150.69,277.34h-.34l.34.18Z" transform="translate(0 0)"/><rect class="cls-26" x="153.26" y="277.33" width="0.72" height="1.01"/><path class="cls-26" d="M144.11,270.51v-.92h-.37C143.85,269.9,144,270.21,144.11,270.51Z" transform="translate(0 0)"/><path class="cls-26" d="M152.34,277.34h-.72V278c.23.1.47.2.72.29Z" transform="translate(0 0)"/><rect class="cls-26" x="145.03" y="265.71" width="0.72" height="1.01"/><path class="cls-26" d="M164.3,277.34v.08l.15-.08Z" transform="translate(0 0)"/><rect class="cls-26" x="145.03" y="269.59" width="0.72" height="1.01"/><path class="cls-26" d="M163.38,277.88v-.54h-1v1C162.71,278.16,163,278,163.38,277.88Z" transform="translate(0 0)"/><rect class="cls-26" x="154.91" y="277.33" width="0.72" height="1.01"/><rect class="cls-26" x="168.17" y="271.52" width="1.01" height="1.01"/><rect class="cls-26" x="158.49" y="277.33" width="1.01" height="1.01"/><rect class="cls-26" x="156.55" y="277.33" width="1.01" height="1.01"/><rect class="cls-26" x="170.11" y="262.13" width="1.01" height="0.72"/><rect class="cls-26" x="166.24" y="269.59" width="1.01" height="1.01"/><rect class="cls-26" x="166.24" y="265.71" width="1.01" height="1.01"/><rect class="cls-26" x="166.24" y="267.65" width="1.01" height="1.01"/><rect class="cls-26" x="164.3" y="253.9" width="1.01" height="0.72"/><rect class="cls-26" x="164.3" y="273.46" width="1.01" height="1.01"/><rect class="cls-26" x="160.43" y="273.46" width="1.01" height="1.01"/><rect class="cls-26" x="162.36" y="273.46" width="1.01" height="1.01"/><rect class="cls-26" x="166.24" y="255.55" width="1.01" height="0.72"/><path class="cls-26" d="M167.21,253.91h-1v.71h1v-.68Z" transform="translate(0 0)"/><rect class="cls-26" x="166.24" y="263.78" width="1.01" height="1.01"/><rect class="cls-26" x="166.24" y="257.19" width="1.01" height="0.72"/><rect class="cls-26" x="166.24" y="258.84" width="1.01" height="0.72"/><rect class="cls-26" x="166.24" y="260.49" width="1.01" height="0.72"/><rect class="cls-26" x="166.24" y="271.52" width="1.01" height="1.01"/><rect class="cls-26" x="148.32" y="271.52" width="0.72" height="1.01"/><rect class="cls-26" x="148.32" y="267.65" width="0.72" height="1.01"/><rect class="cls-26" x="148.32" y="269.59" width="0.72" height="1.01"/><rect class="cls-26" x="148.32" y="265.71" width="0.72" height="1.01"/><rect class="cls-26" x="148.32" y="263.78" width="0.72" height="1.01"/><rect class="cls-26" x="148.32" y="262.13" width="0.72" height="0.72"/><rect class="cls-26" x="154.91" y="273.46" width="0.72" height="1.01"/><rect class="cls-26" x="158.49" y="273.46" width="1.01" height="1.01"/><rect class="cls-26" x="149.97" y="273.46" width="0.72" height="1.01"/><rect class="cls-26" x="156.55" y="273.46" width="1.01" height="1.01"/><rect class="cls-26" x="153.26" y="273.46" width="0.72" height="1.01"/><rect class="cls-26" x="151.62" y="273.46" width="0.72" height="1.01"/><rect class="cls-26" x="164.3" y="275.4" width="1.01" height="1.01"/><rect class="cls-26" x="162.36" y="253.9" width="1.01" height="0.72"/><path class="cls-26" d="M149,275.4h-.71V276c.18.15.37.29.56.43H149Z" transform="translate(0 0)"/><rect class="cls-26" x="149.97" y="275.4" width="0.72" height="1.01"/><rect class="cls-26" x="146.68" y="267.65" width="0.72" height="1.01"/><rect class="cls-26" x="151.62" y="275.4" width="0.72" height="1.01"/><rect class="cls-26" x="146.68" y="269.59" width="0.72" height="1.01"/><rect class="cls-26" x="158.49" y="275.4" width="1.01" height="1.01"/><rect class="cls-26" x="160.43" y="275.4" width="1.01" height="1.01"/><rect class="cls-26" x="146.68" y="265.71" width="0.72" height="1.01"/><rect class="cls-26" x="162.36" y="275.4" width="1.01" height="1.01"/><rect class="cls-26" x="153.26" y="275.4" width="0.72" height="1.01"/><rect class="cls-26" x="154.91" y="275.4" width="0.72" height="1.01"/><rect class="cls-26" x="156.55" y="275.4" width="1.01" height="1.01"/><rect class="cls-26" x="146.68" y="271.52" width="0.72" height="1.01"/><rect class="cls-26" x="153.26" y="253.9" width="0.72" height="0.72"/><rect class="cls-26" x="154.91" y="253.9" width="0.72" height="0.72"/><rect class="cls-26" x="151.62" y="253.9" width="0.72" height="0.72"/><rect class="cls-26" x="160.43" y="253.9" width="1.01" height="0.72"/><rect class="cls-26" x="149.97" y="253.9" width="0.72" height="0.72"/><rect class="cls-26" x="158.49" y="253.9" width="1.01" height="0.72"/><rect class="cls-26" x="146.68" y="257.19" width="0.72" height="0.72"/><rect class="cls-26" x="149.97" y="252.26" width="0.72" height="0.72"/><rect class="cls-26" x="146.68" y="260.49" width="0.72" height="0.72"/><rect class="cls-26" x="146.68" y="258.84" width="0.72" height="0.72"/><rect class="cls-26" x="145.03" y="257.19" width="0.72" height="0.72"/><rect class="cls-26" x="146.68" y="262.13" width="0.72" height="0.72"/></g><path class="cls-27" d="M154.74,256.26a9.48,9.48,0,0,0-1.39,5.55,6.36,6.36,0,0,0,2,4.56,7.78,7.78,0,0,0,4.22,1.85,8.23,8.23,0,0,0,8.39-4.43,8,8,0,0,0,.56-1.55,10,10,0,0,0-9.92-8.82l-.62,0A8.77,8.77,0,0,0,154.74,256.26Z" transform="translate(0 0)"/><path class="cls-12" d="M162.5,272.21c-4.23.66-9.1-.71-11.66-4.33a11.09,11.09,0,0,1-1.73-7.28,12.51,12.51,0,0,1,5.7-10.28,14.54,14.54,0,1,0,17.12,14.39A12.33,12.33,0,0,1,162.5,272.21Z" transform="translate(0 0)"/><rect class="cls-28" x="142.87" y="277.66" width="29.06" height="16.42"/><path class="cls-29" d="M153,284.27c2.32,2.1,5.61,2.89,8.67,3s6.5-.58,8.67-3v-5.6h-19.8A7.67,7.67,0,0,0,153,284.27Z" transform="translate(0 0)"/><path class="cls-9" d="M161,290.18c-4.25-.31-9.26-1.37-12.09-4.88a12.8,12.8,0,0,1-2.91-7.64h-3.1v16.43h29.06v-6.78A16.09,16.09,0,0,1,161,290.18Z" transform="translate(0 0)"/><path class="cls-3" d="M148.94,280.68h.9a2.21,2.21,0,0,1,.65.07.64.64,0,0,1,.35.26,1.25,1.25,0,0,1,.14.66.72.72,0,0,1-.1.42.7.7,0,0,1-.38.19.66.66,0,0,1,.43.23,1,1,0,0,1,.11.51v.32a1.34,1.34,0,0,1-.08.52.42.42,0,0,1-.26.23,2.65,2.65,0,0,1-.72.06h-1Zm.9.59v.78h.09c.09,0,.15,0,.17-.06a1,1,0,0,0,0-.38.57.57,0,0,0,0-.22.15.15,0,0,0-.08-.09Zm0,1.32v1q.19,0,.24-.06a.38.38,0,0,0,.06-.26v-.33a.45.45,0,0,0,0-.27A.4.4,0,0,0,149.84,282.59Z" transform="translate(0 0)"/><path class="cls-3" d="M151.36,280.68H152a5.2,5.2,0,0,1,.87.05.58.58,0,0,1,.37.25,1.12,1.12,0,0,1,.14.65,1,1,0,0,1-.1.54.52.52,0,0,1-.4.17.67.67,0,0,1,.37.18.45.45,0,0,1,.11.2,2.93,2.93,0,0,1,0,.52v.91h-.84V283a.84.84,0,0,0,0-.35s-.11-.06-.23-.06v1.56h-.91Zm.91.59v.78a.36.36,0,0,0,.21-.05s.06-.11.06-.27v-.19q0-.17-.06-.21A.29.29,0,0,0,152.27,281.27Z" transform="translate(0 0)"/><path class="cls-3" d="M153.73,280.68h1.51v.69h-.6V282h.56v.66h-.56v.77h.66v.69h-1.57Z" transform="translate(0 0)"/><path class="cls-3" d="M157.12,280.68l.52,3.47h-.92l-.05-.62h-.33l-.05.62h-.94l.47-3.47Zm-.48,2.23c0-.39-.09-.88-.13-1.46-.1.67-.15,1.16-.18,1.46Z" transform="translate(0 0)"/><path class="cls-3" d="M160,280.68l-.52,1.57.57,1.9h-.94l-.36-1.49v1.49h-.91v-3.47h.91V282l.4-1.35Z" transform="translate(0 0)"/><path class="cls-3" d="M161.06,280.68v3.47h-.91v-3.47Z" transform="translate(0 0)"/><path class="cls-3" d="M163.44,280.68v3.47h-.8l-.47-1.58v1.58h-.75v-3.47h.75l.51,1.56v-1.56Z" transform="translate(0 0)"/><path class="cls-3" d="M165.87,282H165v-.32a1.31,1.31,0,0,0,0-.37s-.05-.08-.12-.08a.12.12,0,0,0-.11.07,1,1,0,0,0,0,.33v1.67a1,1,0,0,0,0,.31.13.13,0,0,0,.12.07.13.13,0,0,0,.13-.08,1.11,1.11,0,0,0,0-.33v-.41h-.19v-.53h1.06v1.86h-.57l-.08-.24a.76.76,0,0,1-.23.24.73.73,0,0,1-.33.08.89.89,0,0,1-.43-.11.9.9,0,0,1-.3-.28.89.89,0,0,1-.13-.34,3.57,3.57,0,0,1,0-.54v-1a3.08,3.08,0,0,1,.06-.72.77.77,0,0,1,.3-.42,1.12,1.12,0,0,1,.66-.18,1.2,1.2,0,0,1,.66.16.74.74,0,0,1,.34.39,1.84,1.84,0,0,1,.08.65Z" transform="translate(0 0)"/><path class="cls-3" d="M152.6,285v5.9h-1.35l-.8-2.68v2.68h-1.28V285h1.28l.86,2.66V285Z" transform="translate(0 0)"/><path class="cls-3" d="M153.21,285h2.56v1.18h-1v1.12h1v1.12h-1v1.3h1.13v1.18h-2.66Z" transform="translate(0 0)"/><path class="cls-3" d="M162.08,285l-.68,5.9h-1.91c-.18-.91-.33-1.94-.47-3.09-.06.49-.2,1.52-.43,3.09h-1.9L156,285h1.49l.17,2.06.15,2c.06-1,.2-2.38.43-4.05h1.59c0,.18.07.82.17,1.95l.16,2.24c.09-1.43.23-2.82.43-4.19Z" transform="translate(0 0)"/><path class="cls-3" d="M165.63,286.8h-1.42v-.44a.81.81,0,0,0-.06-.39.19.19,0,0,0-.18-.08.25.25,0,0,0-.21.11.64.64,0,0,0-.07.34,1,1,0,0,0,.08.45,1.19,1.19,0,0,0,.43.36,4.09,4.09,0,0,1,1.29,1,2.23,2.23,0,0,1,.27,1.25,2.18,2.18,0,0,1-.15.93,1.14,1.14,0,0,1-.57.5,2.17,2.17,0,0,1-1,.2,2.14,2.14,0,0,1-1.05-.23,1.16,1.16,0,0,1-.57-.59,3,3,0,0,1-.14-1v-.38h1.43v.71a.93.93,0,0,0,.06.43.24.24,0,0,0,.21.1.26.26,0,0,0,.23-.12.7.7,0,0,0,.07-.36,1.05,1.05,0,0,0-.14-.68,4.52,4.52,0,0,0-.72-.54,5.59,5.59,0,0,1-.75-.55,1.17,1.17,0,0,1-.31-.47,2.76,2.76,0,0,1,.05-1.76,1.09,1.09,0,0,1,.56-.49,2.2,2.2,0,0,1,.93-.18,2.41,2.41,0,0,1,1,.19,1.1,1.1,0,0,1,.56.49,2.62,2.62,0,0,1,.13,1Z" transform="translate(0 0)"/><path class="cls-15" d="M155.91,312.89a1.87,1.87,0,0,0,2.12-1.56h0c.27-1.08-.08-2.69-1-2.91l-9.64-1.78a1.86,1.86,0,0,0-2.12,1.56h0a1.87,1.87,0,0,0,1.15,2.36Z" transform="translate(0 0)"/><path class="cls-15" d="M159.26,317.23a1.88,1.88,0,0,0,2-1.77h0c.15-1.11-.37-2.67-1.29-2.8l-9.78-.76a1.87,1.87,0,0,0-1.94,1.77h0a2,2,0,0,0,1.8,2.09Z" transform="translate(0 0)"/><path class="cls-15" d="M147.29,301.79a1.88,1.88,0,0,0-2.18,1.47h0a2.15,2.15,0,0,0,1.3,2.55l9.13,2.58a1.88,1.88,0,0,0,2.18-1.47h0c.31-1.08-.34-3.2-1.24-3.46Z" transform="translate(0 0)"/><path class="cls-15" d="M147.9,297.52c-.9-.22-1.62.4-1.88,1.48h0a1.8,1.8,0,0,0,1.21,2.27l9.42,2.43c.9.22,4.8,1.14,5.51-1h0c.27-1.08.63-1.89-.93-2.72Z" transform="translate(0 0)"/><path class="cls-15" d="M161.67,295.54l2.46.56c4.85,2.7,7.3,10.5,7.3,10.5l13.15,8-6,10.89-13.87-7.85s-3.94,1.91-11.32-1.69l-1.52-13.53,9.31-1.77.15-1.56Z" transform="translate(0 0)"/><path class="cls-22" d="M162.94,319.72l52.59,37.48s9.74,6.94,16.1-2c0,0,6.15-9.1-3.36-15.87l-52.59-37.49Z" transform="translate(0 0)"/><path class="cls-20" d="M162,321.05l52.59,37.48s9.73,6.94,16.1-2c0,0,6.15-9.1-3.36-15.87l-52.6-37.49Z" transform="translate(0 0)"/></g><path class="cls-30" d="M295.66,165.67H276.52c5.41,0,5.22,40.13,4.9,43.58-3.09,34.28-21,69-49.68,88.67-19.57,13.41-42.22,21.13-65.1,26.69-19.07,4.64-39.17,8.08-58.85,6.89a87.94,87.94,0,0,1-17.73-2.72A16.77,16.77,0,0,0,105,338H295.66a16.77,16.77,0,0,0,16.78-16.77V182.44A16.77,16.77,0,0,0,295.66,165.67Z" transform="translate(0 0)"/><path class="cls-31" d="M105,338h92.26c17.7-5.71,34.79-13.2,50.21-23.77,32.86-22.53,53.34-62.26,56.88-101.5.29-3.24.49-34.83-2.88-46a16.62,16.62,0,0,0-5.84-1.06H276.52c5.41,0,5.22,40.13,4.9,43.58-3.09,34.28-21,69-49.68,88.67-19.57,13.41-42.22,21.13-65.1,26.69-19.07,4.64-39.17,8.08-58.85,6.89a87.94,87.94,0,0,1-17.73-2.72A16.77,16.77,0,0,0,105,338Z" transform="translate(0 0)"/><path class="cls-14" d="M162.28,219.05c5.34,23.07,17.76,45.51,39.56,56.49,25,12.6,60.18,15.67,84.51-.42a62,62,0,0,0,12.73-11.22V187.05a14.31,14.31,0,0,0-14.31-14.3H164.67C158.74,187.06,158.79,204,162.28,219.05Z" transform="translate(0 0)"/><path class="cls-9" d="M254.35,301.85c-29.15.84-62.27-8-81.73-31.1-22.12-26.2-35.31-71.48-22-105.08H105a16.77,16.77,0,0,0-16.78,16.77V321.22A16.78,16.78,0,0,0,105,338H295.66a16.78,16.78,0,0,0,16.78-16.78v-43.5C297.46,293.14,276.62,301.21,254.35,301.85Z" transform="translate(0 0)"/><path class="cls-3" d="M246.64,302.34h2.45a6.45,6.45,0,0,1,1.76.19,1.73,1.73,0,0,1,1,.73,3.22,3.22,0,0,1,.37,1.77,2,2,0,0,1-.26,1.16,1.89,1.89,0,0,1-1,.5,1.82,1.82,0,0,1,1.16.64,2.46,2.46,0,0,1,.3,1.37v.87a3.42,3.42,0,0,1-.22,1.42,1.13,1.13,0,0,1-.69.63,7.31,7.31,0,0,1-2,.17h-2.84Zm2.45,1.62v2.1h.25c.24,0,.39-.05.46-.17a3.09,3.09,0,0,0,.1-1,1.73,1.73,0,0,0-.08-.62.41.41,0,0,0-.22-.23A1.73,1.73,0,0,0,249.09,304Zm0,3.57v2.64a1,1,0,0,0,.66-.16,1.12,1.12,0,0,0,.15-.72v-.88a1.26,1.26,0,0,0-.13-.73A1.11,1.11,0,0,0,249.09,307.53Z" transform="translate(0 0)"/><path class="cls-3" d="M253.23,302.34H255a13.21,13.21,0,0,1,2.36.14,1.62,1.62,0,0,1,1,.69,3.06,3.06,0,0,1,.39,1.75,2.74,2.74,0,0,1-.28,1.48,1.41,1.41,0,0,1-1.08.46,1.81,1.81,0,0,1,1,.48,1.45,1.45,0,0,1,.31.56,7.45,7.45,0,0,1,.07,1.4v2.49h-2.28v-3.14a2.15,2.15,0,0,0-.12-.94q-.12-.18-.63-.18v4.26h-2.46Zm2.46,1.62v2.1a1.16,1.16,0,0,0,.58-.11c.11-.08.17-.32.17-.74v-.52a.81.81,0,0,0-.16-.59A1,1,0,0,0,255.69,304Z" transform="translate(0 0)"/><path class="cls-3" d="M259.67,302.34h4.09v1.89h-1.64V306h1.54v1.79h-1.54v2.08h1.8v1.89h-4.25Z" transform="translate(0 0)"/><path class="cls-3" d="M268.87,302.34l1.41,9.45h-2.51l-.13-1.7h-.88l-.15,1.7h-2.54l1.26-9.45Zm-1.3,6.08c-.12-1.07-.25-2.39-.37-4-.25,1.81-.41,3.13-.47,4Z" transform="translate(0 0)"/><path class="cls-3" d="M276.55,302.34l-1.41,4.27,1.54,5.18h-2.53l-1-4.05v4.05H270.7v-9.45h2.45V306l1.1-3.67Z" transform="translate(0 0)"/><path class="cls-3" d="M279.56,302.34v9.45h-2.45v-9.45Z" transform="translate(0 0)"/><path class="cls-3" d="M286,302.34v9.45h-2.15l-1.28-4.29v4.29h-2.05v-9.45h2.05L284,306.6v-4.26Z" transform="translate(0 0)"/><path class="cls-3" d="M292.65,305.82h-2.46V305a4,4,0,0,0-.07-1c0-.14-.15-.2-.33-.2a.31.31,0,0,0-.31.17,3.06,3.06,0,0,0-.08.9v4.53a2.94,2.94,0,0,0,.08.84.33.33,0,0,0,.33.2.35.35,0,0,0,.36-.23,2.5,2.5,0,0,0,.1-.89v-1.12h-.5v-1.43h2.88v5.07h-1.54l-.23-.68a1.82,1.82,0,0,1-.63.66,1.88,1.88,0,0,1-.91.22,2.3,2.3,0,0,1-1.15-.3,2.14,2.14,0,0,1-.82-.75A2.31,2.31,0,0,1,287,310a12.42,12.42,0,0,1-.07-1.46v-2.8a9.15,9.15,0,0,1,.15-2,2,2,0,0,1,.84-1.12,2.92,2.92,0,0,1,1.79-.51,3.32,3.32,0,0,1,1.79.44,2.12,2.12,0,0,1,.92,1.05,5.41,5.41,0,0,1,.22,1.77Z" transform="translate(0 0)"/><path class="cls-3" d="M256.57,314.13v16h-3.65l-2.16-7.28v7.28h-3.48v-16h3.48l2.33,7.21v-7.21Z" transform="translate(0 0)"/><path class="cls-3" d="M258.25,314.13h6.94v3.2h-2.78v3H265v3.05h-2.6v3.52h3.06v3.2h-7.22Z" transform="translate(0 0)"/><path class="cls-3" d="M282.35,314.13l-1.86,16h-5.2q-.71-3.69-1.26-8.4-.24,2-1.16,8.4H267.7l-1.87-16h4.05l.44,5.59.43,5.4q.22-4.2,1.15-11h4.32c.06.47.21,2.23.46,5.28l.46,6.09q.35-5.81,1.16-11.37Z" transform="translate(0 0)"/><path class="cls-3" d="M292,319h-3.87v-1.18a2.49,2.49,0,0,0-.14-1.06.56.56,0,0,0-.5-.23.63.63,0,0,0-.57.31,1.75,1.75,0,0,0-.19.93,2.58,2.58,0,0,0,.22,1.21,3.17,3.17,0,0,0,1.17,1,12.08,12.08,0,0,1,3.51,2.7,6.26,6.26,0,0,1,.72,3.42,6.09,6.09,0,0,1-.4,2.52,3.15,3.15,0,0,1-1.55,1.36,6.1,6.1,0,0,1-2.67.55,6,6,0,0,1-2.86-.63,3.12,3.12,0,0,1-1.54-1.62,8.05,8.05,0,0,1-.37-2.78v-1h3.87v1.94a2.54,2.54,0,0,0,.16,1.16.64.64,0,0,0,.58.26.68.68,0,0,0,.62-.33,1.9,1.9,0,0,0,.2-1,3.07,3.07,0,0,0-.38-1.85,13.09,13.09,0,0,0-1.95-1.45,18.83,18.83,0,0,1-2.06-1.49,3.44,3.44,0,0,1-.84-1.29,5.71,5.71,0,0,1-.33-2.1,5.88,5.88,0,0,1,.47-2.69,3.13,3.13,0,0,1,1.52-1.33,6,6,0,0,1,2.53-.48,6.78,6.78,0,0,1,2.77.52,2.88,2.88,0,0,1,1.51,1.33,6.92,6.92,0,0,1,.37,2.7Z" transform="translate(0 0)"/><path class="cls-3" d="M255,300.09c0-.12,0-.23,0-.34a14.67,14.67,0,1,1,29.34,0c0,.11,0,.22,0,.34h.84c0-.12,0-.23,0-.34a15.52,15.52,0,0,0-31,0c0,.11,0,.22,0,.34Z" transform="translate(0 0)"/><path class="cls-3" d="M255,300.09c0-.12,0-.23,0-.34,0-5.86,6.58-10.63,14.67-10.63s14.67,4.77,14.67,10.63c0,.11,0,.22,0,.34h.84c0-.12,0-.23,0-.34,0-6.33-7-11.47-15.51-11.47s-15.52,5.14-15.52,11.47c0,.11,0,.22,0,.34Z" transform="translate(0 0)"/><path class="cls-3" d="M255,300.09a1.37,1.37,0,0,1,0-.34c0-2.49,5.89-5.16,14.67-5.16s14.67,2.67,14.67,5.16a2.09,2.09,0,0,1,0,.34h.86c0-.12,0-.23,0-.34,0-3.37-6.81-6-15.51-6s-15.52,2.64-15.52,6a2,2,0,0,0,0,.34Z" transform="translate(0 0)"/><rect class="cls-3" x="254.53" y="299.33" width="30.19" height="0.76"/><path class="cls-3" d="M255,300.09c0-.12,0-.23,0-.34a14.67,14.67,0,1,1,29.34,0c0,.11,0,.22,0,.34h.84c0-.12,0-.23,0-.34a15.52,15.52,0,0,0-31,0c0,.11,0,.22,0,.34Z" transform="translate(0 0)"/><path class="cls-3" d="M259,300.09c0-.12,0-.23,0-.34,0-8.09,4.77-14.67,10.63-14.67s10.63,6.58,10.63,14.67c0,.11,0,.22,0,.34h.85v-.34c0-8.55-5.14-15.51-11.47-15.51s-11.48,7-11.48,15.51c0,.11,0,.22,0,.34Z" transform="translate(0 0)"/><path class="cls-3" d="M264.47,300.09v-.34c0-8.77,2.67-14.67,5.16-14.67s5.16,5.9,5.16,14.67v.34h.84c0-.12,0-.23,0-.34,0-8.7-2.64-15.51-6-15.51s-6,6.81-6,15.51v.34Z" transform="translate(0 0)"/><rect class="cls-3" x="269.2" y="284.66" width="0.85" height="15.43"/></g></g></svg>