<svg height="512pt" fill="#fff" viewBox="-128 0 512 512.00533" width="512pt" xmlns="http://www.w3.org/2000/svg"><path d="m142.890625 416.527344c27.648437-4.671875 51.609375-22.875 63.394531-48.320313 18.300782-39.515625-15.605468-109.417969-22.585937-123.027343-4.46875-8.714844-14.292969-13.257813-23.832031-11.039063-14.898438 3.476563-90.144532 22.828125-108.445313 62.34375-19.777344 42.695313-1.128906 93.519531 41.566406 113.296875 2.3125 1.070312 4.664063 2.003906 7.035157 2.863281 1.453124 23.46875 6.484374 42.277344 12.269531 56.695313h-112.28906275v42.664062h255.99999975v-42.664062h-96.242187c-5.566407-8.546875-14.1875-25.6875-16.871094-52.8125zm18.875-112.964844c6.476563 20.078125 9.578125 38.5625 5.800781 46.714844-4.738281 10.230468-13.144531 18.015625-23.679687 21.984375 2.558593-19.753907 8.042969-42.578125 17.878906-68.699219zm-71.628906 10.851562c3.160156-6.828124 14.984375-14.664062 30.191406-21.761718-9.808594 26.933594-15.566406 51.132812-18.429687 72.703125-14.722657-12.027344-20.109376-32.914063-11.761719-50.941407zm0 0"/><path d="m246.503906 152.917969-55.679687-37.121094c-4.339844-22.386719-20.382813-40.640625-41.484375-48.125v-67.671875h-42.671875v67.667969c-21.101563 7.488281-37.144531 25.738281-41.484375 48.125l-55.679688 37.121093c-5.9375 3.957032-9.49999975 10.621094-9.49999975 17.753907v85.332031h42.66406275v-73.917969l30.84375-20.5625c11.28125 18.273438 31.484375 30.480469 54.492187 30.480469 23.003906 0 43.207032-12.207031 54.488282-30.476562l30.84375 20.558593v73.917969h42.667968v-85.332031c0-7.132813-3.566406-13.796875-9.5-17.75zm-118.5-3.585938c-11.765625 0-21.335937-9.570312-21.335937-21.332031s9.570312-21.332031 21.335937-21.332031c11.761719 0 21.332032 9.570312 21.332032 21.332031s-9.570313 21.332031-21.332032 21.332031zm0 0"/></svg>