<?xml version="1.0" encoding="iso-8859-1"?>
<!-- Generator: Adobe Illustrator 17.1.0, SVG Export Plug-In . SVG Version: 6.00 Build 0)  -->
<!DOCTYPE svg PUBLIC "-//W3C//DTD SVG 1.1//EN" "http://www.w3.org/Graphics/SVG/1.1/DTD/svg11.dtd">
<svg version="1.1" fill="#fff" id="Capa_1" xmlns="http://www.w3.org/2000/svg" xmlns:xlink="http://www.w3.org/1999/xlink" x="0px" y="0px"
	 viewBox="0 0 322.973 322.973" style="enable-background:new 0 0 322.973 322.973;" xml:space="preserve">
<path d="M312.743,52.04C270.611,17.966,234.79,5.769,217.255,1.514C210.996,0,203.663,4.227,199.604,9.25
	c-6.457,7.999-18.426,17.915-38.103,17.915c-19.706,0-31.676-9.915-38.132-17.915c-4.058-5.023-11.37-9.25-17.68-7.736
	C88.184,5.769,52.362,17.966,10.23,52.04C0.176,60.149-2.851,76.089,2.867,86.918c5.681,10.792,20.503,17.278,33.131,14.478
	l32.787-7.283c0,0-28.846,115.362-3.086,172.03l-5.425,22.653c-2.969,12.511,4.884,24.707,17.571,27.223l26.703,5.308
	c12.65,2.516,23.874-5.908,26.536-18.565c4.343-20.59,13.249-47.726,30.389-48.983c17.169,1.258,26.075,28.393,30.389,48.983
	c2.662,12.657,13.886,21.081,26.565,18.565l26.704-5.308c12.686-2.516,20.539-14.712,17.542-27.223
	c-2.969-12.511-5.396-22.653-5.396-22.653c25.731-56.668-3.086-172.03-3.086-172.03l32.758,7.283
	c12.628,2.801,27.479-3.686,33.16-14.478C325.824,76.089,322.797,60.149,312.743,52.04z M202.665,132.175
	c-0.367,0-0.725-0.035-1.087-0.055c1.58,4.451,2.448,9.239,2.448,14.232c0,23.494-19.045,42.539-42.539,42.539
	s-42.539-19.045-42.539-42.539c0-4.993,0.868-9.781,2.448-14.232c-0.362,0.02-0.72,0.055-1.087,0.055
	c-11.071,0-20.046-8.975-20.046-20.046s8.975-20.046,20.046-20.046c10.194,0,18.591,7.615,19.861,17.463
	c6.269-3.639,13.547-5.733,21.317-5.733s15.048,2.094,21.317,5.733c1.27-9.848,9.668-17.463,19.861-17.463
	c11.071,0,20.046,8.975,20.046,20.046S213.736,132.175,202.665,132.175z"/>
<g>
</g>
<g>
</g>
<g>
</g>
<g>
</g>
<g>
</g>
<g>
</g>
<g>
</g>
<g>
</g>
<g>
</g>
<g>
</g>
<g>
</g>
<g>
</g>
<g>
</g>
<g>
</g>
<g>
</g>
</svg>
