<svg id="Layer_1" data-name="Layer 1" xmlns="http://www.w3.org/2000/svg" viewBox="0 0 403.8 400.78"><defs><style>.cls-1{fill:#1a679e;}.cls-2{fill:#fff;}.cls-3{fill:#2589ca;stroke:#fff;stroke-width:2.16px;}</style></defs><title>eslimi</title><path class="cls-1" d="M28.44,108.62,69.78,118l9.33,52.67L49.78,201.29,13.11,164.62S11.11,151.29,28.44,108.62Z" transform="translate(0.01 0)"/><path class="cls-1" d="M28.44,292.62l41.34-9.33,9.33-52.67L49.78,200,13.11,236.62S11.11,250,28.44,292.62Z" transform="translate(0.01 0)"/><path class="cls-1" d="M376.78,108.62,335.44,118l-9.33,52.67,29.33,30.67,36.67-36.67S394.11,151.29,376.78,108.62Z" transform="translate(0.01 0)"/><path class="cls-1" d="M376.78,292.62l-41.34-9.33-9.33-52.67L355.44,200l36.67,36.67S394.11,250,376.78,292.62Z" transform="translate(0.01 0)"/><polygon class="cls-1" points="162.46 11.28 201.13 46.62 163.79 81.28 117.12 72.62 103.79 32.62 162.46 11.28"/><polygon class="cls-1" points="241.13 8.62 202.46 43.95 239.79 78.62 286.46 69.95 299.79 29.95 241.13 8.62"/><polygon class="cls-1" points="162.46 390.62 201.13 355.28 163.79 320.62 117.12 329.28 103.79 369.28 162.46 390.62"/><polygon class="cls-1" points="241.13 393.28 202.46 357.95 239.79 323.28 286.46 331.95 299.79 371.95 241.13 393.28"/><path class="cls-2" d="M135.78,130l12.66,36.67s-30,8-28,37.33,29.34,28,29.34,28l-14,38.25L73.11,282.62l5.33-53.33L51.78,200.62l27.33-30L69.78,118Z" transform="translate(0.01 0)"/><path class="cls-2" d="M265.78,130l-12.67,36.67s30,8,28,37.33-29.33,28-29.33,28l14,38.25,62.66,12.42-5.33-53.33,26.67-28.67-27.34-30L331.78,118Z" transform="translate(0.01 0)"/><path class="cls-2" d="M115.11,72l22.67,62,34,6s12-20.66,30.66-20.66,30,21.33,30,21.33l34.67-8,21.33-61.33-50.66,10L201.11,46.62,163.78,81.29Z" transform="translate(0.01 0)"/><path class="cls-2" d="M115.11,329.75l22.67-62,34-6s12,20.66,30.66,20.66,30-21.33,30-21.33l34.67,8,21.33,61.33-50.66-10-36.67,34.67-37.33-34.67Z" transform="translate(0.01 0)"/><polygon class="cls-1" points="64.46 61.95 117.12 72.62 135.79 129.95 69.79 117.95 64.46 61.95"/><polygon class="cls-1" points="338.96 61.95 286.29 72.62 267.63 129.95 333.63 117.95 338.96 61.95"/><polygon class="cls-1" points="64.46 338.2 117.12 327.53 135.79 270.2 69.79 282.2 64.46 338.2"/><polygon class="cls-1" points="338.96 338.2 286.29 327.53 267.63 270.2 333.63 282.2 338.96 338.2"/><polygon class="cls-3" points="62.81 108.56 54.67 52.99 163.29 72.78 190.97 46.83 201.56 56.47 167.74 88.12 71.77 70.65 77.72 111.68 62.81 108.56"/><path class="cls-3" d="M201.59,36.86l38.09-35.7A200,200,0,0,1,309.54,28l-32.25,93.46-16.36,3.42,31.3-90.75a185.8,185.8,0,0,0-47.91-17.69L212.11,46.62Z" transform="translate(0.01 0)"/><path class="cls-3" d="M39.37,200.51,4.62,166.62a200.92,200.92,0,0,1,23-65.37L126,121.62l5.38,15.64-96-19.8a185.67,185.67,0,0,0-15.31,44.1l29.7,29.06Z" transform="translate(0.01 0)"/><path class="cls-3" d="M142.24,124.89l28,5.78a40.7,40.7,0,0,1,64.77-.49l90.44-18.56-2.17,15L227.8,146.33a26.42,26.42,0,0,0-50.05.44l-30.06-6.15Z" transform="translate(0.01 0)"/><polygon class="cls-3" points="292.37 77.82 331.43 70.78 316.52 173.62 344.4 199.53 354.6 189.52 331.72 168.29 348.59 53.09 297.68 62.35 292.37 77.82"/><path class="cls-3" d="M105.6,62.15,94.55,30A200,200,0,0,1,164.25,1.8L240,72.8l41.59-7.56L276,80.74l-40.63,7.33L160.11,17.4a185.06,185.06,0,0,0-48.29,19.08l9.88,28.66Z" transform="translate(0.01 0)"/><polygon class="cls-3" points="341 292.19 349.14 347.76 240.52 327.97 212.84 353.92 202.25 344.28 236.07 312.63 332.04 330.1 326.09 289.07 341 292.19"/><path class="cls-3" d="M114.16,199.68c0,17.6,11.49,30.69,27.27,36.32L132,263.41,148.32,260l12.62-36.59a27.36,27.36,0,0,1-5.91.71c-14.53,0-26.65-9.68-26.65-24.46s12-24.46,26.31-24.46a26.72,26.72,0,0,1,5.12.61L127,80.62,111,77.8l29.45,85.82C125,169.4,114.16,182.35,114.16,199.68Z" transform="translate(0.01 0)"/><path class="cls-3" d="M332.21,231.24,338.76,277l-14.85-2.89L317,226l70.17-68a183.74,183.74,0,0,0-14.83-41.5l-34.06,7,2.22-15.06,39.11-8a199.58,199.58,0,0,1,23,62.59Z" transform="translate(0.01 0)"/><path class="cls-3" d="M202.19,363.9l-38.08,35.72a200,200,0,0,1-69.86-26.84l32.25-93.46,16.36-3.42-31.31,90.72a185.8,185.8,0,0,0,47.91,17.69l32.23-30.17Z" transform="translate(0.01 0)"/><path class="cls-3" d="M364.25,200l34.91,34.2a200.92,200.92,0,0,1-23,65.37l-98.44-20.38-5.38-15.64,96,19.8a185.89,185.89,0,0,0,15.28-44.14l-29.51-29.06Z" transform="translate(0.01 0)"/><path class="cls-3" d="M261.54,275.87l-28-5.78a40.7,40.7,0,0,1-64.77.49L78.3,289.19l2.17-15.05L176,254.43A26.42,26.42,0,0,0,226,254l30.06,6.2Z" transform="translate(0.01 0)"/><path class="cls-3" d="M86.92,174.54,16.6,242.76a183.74,183.74,0,0,0,14.83,41.5l34.06-7-2.22,15.06-39.11,8a199.52,199.52,0,0,1-23-62.58l70.46-68.38L65,123.72l14.85,2.9Z" transform="translate(0.01 0)"/><polygon class="cls-3" points="111.44 322.93 72.38 329.97 87.29 227.13 59.41 201.22 49.21 211.23 72.09 232.46 55.22 347.66 106.13 338.4 111.44 322.93"/><path class="cls-3" d="M298.18,338.62l11.05,32.17A200,200,0,0,1,239.53,399L163.8,328l-41.58,7.56,5.59-15.5,40.63-7.42,75.27,70.71A185.06,185.06,0,0,0,292,364.25l-9.89-28.63Z" transform="translate(0.01 0)"/><path class="cls-3" d="M289.62,201.08c0,17.33-10.81,30.28-26.29,36.1l29.47,85.76-16-2.82L244,224.93a26.72,26.72,0,0,0,5.12.61c14.36,0,26.31-9.72,26.31-24.46s-12.14-24.46-26.67-24.46a27.36,27.36,0,0,0-5.91.71l12.62-36.59,16.35-3.39-9.46,27.41C278.11,170.39,289.62,183.48,289.62,201.08Z" transform="translate(0.01 0)"/></svg>