<svg id="Layer_35" fill="#fff" enable-background="new 0 0 64 64" height="512" viewBox="0 0 64 64" width="512" xmlns="http://www.w3.org/2000/svg"><path d="m15 11.295c2.888.863 5 3.541 5 6.705 0 1.958-.81 3.728-2.11 5h.412c.926 0 1.832-.256 2.621-.742l10.99-6.763c.525-.324 1.13-.495 1.749-.495 1.546 0 2.838 1.062 3.216 2.491l3.087 3.704c.324-.12.67-.195 1.035-.195 1.654 0 3 1.346 3 3 0 .205-.021.404-.06.598l5.163 3.098c.518-.428 1.174-.696 1.897-.696.003 0 .006.001.009.001l3.103-8.689c-.673-.55-1.112-1.377-1.112-2.312 0-1.654 1.346-3 3-3s3 1.346 3 3-1.346 3-3 3c-.003 0-.006-.001-.009-.001l-3.103 8.689c.673.55 1.112 1.377 1.112 2.312 0 1.654-1.346 3-3 3s-3-1.346-3-3c0-.205.021-.404.06-.598l-5.163-3.098c-.518.428-1.174.696-1.897.696-1.654 0-3-1.346-3-3 0-.558.163-1.075.43-1.523l-1.821-2.185c-.262.494-.646.924-1.133 1.239l-13.191 8.535c-1.431.926-2.285 2.495-2.285 4.198v4.736h5v-1c0-1.654 1.346-3 3-3h24c1.654 0 3 1.346 3 3v1h6v-28h-46zm44 25.705h-2v-2h2zm0-4h-2v-2h2zm0-4h-2v-2h2z"/><path d="m39 47h2v6h-2z"/><path d="m12.67 25-.635 7.621.965.965.965-.965-.635-7.621h-.33z"/><circle cx="41" cy="24" r="1"/><path d="m31 45h2v8h-2z"/><path d="m52 37h-24c-.551 0-1 .449-1 1v18c0 .551.449 1 1 1h24c.551 0 1-.449 1-1v-18c0-.551-.449-1-1-1zm-1 18h-22v-12h6v10h2v-8h6v8h2v-14h6z"/><path d="m34.389 19.852c.382-.248.611-.668.611-1.124v-.39c0-.737-.601-1.338-1.338-1.338-.248 0-.49.068-.701.198l-10.99 6.763c-1.105.68-2.373 1.039-3.669 1.039h-2.965l.698 8.379-3.035 3.035-3.035-3.035.689-8.267c-4.325.653-7.654 4.384-7.654 8.888v7c0 1.103.897 2 2 2h1v-11h2v27c0 1.103.897 2 2 2s2-.897 2-2v-18h2v18c0 1.103.897 2 2 2s2-.897 2-2v-24.736c0-2.384 1.195-4.582 3.197-5.877z"/><path d="m15 3v6h46v-6zm4 4h-2v-2h2zm4 0h-2v-2h2zm4 0h-2v-2h2z"/><circle cx="13" cy="18" r="5"/><path d="m47 41h2v12h-2z"/><circle cx="56" cy="16" r="1"/><circle cx="51" cy="30" r="1"/></svg>